0
SECTION
2
HEADER
9
$INSUNITS
70
4
9
$ACADVER
1
AC1014
9
$HANDSEED
5
FFFF
0
ENDSEC
0
SECTION
2
TABLES
0
TABLE
2
VPORT
5
8
100
AcDbSymbolTable
0
ENDTAB
0
TABLE
2
LTYPE
5
5
100
AcDbSymbolTable
0
LTYPE
5
14
100
AcDbSymbolTableRecord
100
AcDbLinetypeTableRecord
2
BYBLOCK
70
0
0
LTYPE
5
15
100
AcDbSymbolTableRecord
100
AcDbLinetypeTableRecord
2
BYLAYER
70
0
0
ENDTAB
0
TABLE
2
LAYER
5
2
100
AcDbSymbolTable
70
2
0
LAYER
5
50
100
AcDbSymbolTableRecord
100
AcDbLayerTableRecord
2
0
70
0
6
CONTINUOUS
0
ENDTAB
0
TABLE
2
STYLE
5
3
100
AcDbSymbolTable
70
1
0
STYLE
5
11
100
AcDbSymbolTableRecord
100
AcDbTextStyleTableRecord
2
STANDARD
70
0
0
ENDTAB
0
TABLE
2
VIEW
5
6
100
AcDbSymbolTable
70
0
0
ENDTAB
0
TABLE
2
UCS
5
7
100
AcDbSymbolTable
70
0
0
ENDTAB
0
TABLE
2
APPID
5
9
100
AcDbSymbolTable
70
2
0
APPID
5
12
100
AcDbSymbolTableRecord
100
AcDbRegAppTableRecord
2
ACAD
70
0
0
ENDTAB
0
TABLE
2
DIMSTYLE
5
A
100
AcDbSymbolTable
70
1
0
ENDTAB
0
TABLE
2
BLOCK_RECORD
5
1
100
AcDbSymbolTable
70
1
0
BLOCK_RECORD
5
1F
100
AcDbSymbolTableRecord
100
AcDbBlockTableRecord
2
*MODEL_SPACE
0
BLOCK_RECORD
5
1B
100
AcDbSymbolTableRecord
100
AcDbBlockTableRecord
2
*PAPER_SPACE
0
ENDTAB
0
ENDSEC
0
SECTION
2
BLOCKS
0
BLOCK
5
20
100
AcDbEntity
100
AcDbBlockBegin
2
*MODEL_SPACE
0
ENDBLK
5
21
100
AcDbEntity
100
AcDbBlockEnd
0
BLOCK
5
1C
100
AcDbEntity
100
AcDbBlockBegin
2
*PAPER_SPACE
0
ENDBLK
5
1D
100
AcDbEntity
100
AcDbBlockEnd
0
ENDSEC
0
SECTION
2
ENTITIES
0
CIRCLE
5
100
100
AcDbEntity
8
0
100
AcDbCircle
10
30.414999999999999
20
9.1620000000000026
30
0
40
0.40649999999999853
0
CIRCLE
5
101
100
AcDbEntity
8
0
100
AcDbCircle
10
30.414999999999999
20
13.162000000000003
30
0
40
0.40649999999999853
0
CIRCLE
5
102
100
AcDbEntity
8
0
100
AcDbCircle
10
-16.023999999999997
20
-45.367999999999995
30
0
40
0.50799999999999956
0
CIRCLE
5
103
100
AcDbEntity
8
0
100
AcDbCircle
10
-18.564
20
-45.367999999999995
30
0
40
0.50799999999999956
0
CIRCLE
5
104
100
AcDbEntity
8
0
100
AcDbCircle
10
-21.103999999999999
20
-45.367999999999995
30
0
40
0.50800000000000167
0
CIRCLE
5
105
100
AcDbEntity
8
0
100
AcDbCircle
10
-23.643999999999998
20
-45.367999999999995
30
0
40
0.50800000000000167
0
CIRCLE
5
106
100
AcDbEntity
8
0
100
AcDbCircle
10
-26.183999999999997
20
-45.367999999999995
30
0
40
0.50800000000000167
0
CIRCLE
5
107
100
AcDbEntity
8
0
100
AcDbCircle
10
-6.4150000000000018
20
-48.988000000000007
30
0
40
0.50000000000000044
0
CIRCLE
5
108
100
AcDbEntity
8
0
100
AcDbCircle
10
1.2050000000000005
20
-48.988000000000007
30
0
40
0.49999999999999989
0
CIRCLE
5
109
100
AcDbEntity
8
0
100
AcDbCircle
10
-3.8749999999999996
20
-48.988000000000007
30
0
40
0.49999999999999989
0
CIRCLE
5
110
100
AcDbEntity
8
0
100
AcDbCircle
10
-6.4150000000000009
20
50.07200000000001
30
0
40
0.50000000000000044
0
CIRCLE
5
111
100
AcDbEntity
8
0
100
AcDbCircle
10
-1.3350000000000006
20
50.07200000000001
30
0
40
0.5
0
CIRCLE
5
112
100
AcDbEntity
8
0
100
AcDbCircle
10
-19.583000000000006
20
-51.206000000000003
30
0
40
0.17499999999999627
0
CIRCLE
5
113
100
AcDbEntity
8
0
100
AcDbCircle
10
1.2049999999999994
20
50.07200000000001
30
0
40
0.49999999999999989
0
CIRCLE
5
114
100
AcDbEntity
8
0
100
AcDbCircle
10
-29.129000000000005
20
35.018000000000001
30
0
40
0.49999999999999822
0
CIRCLE
5
115
100
AcDbEntity
8
0
100
AcDbCircle
10
-29.129000000000001
20
40.097999999999999
30
0
40
0.49999999999999822
0
CIRCLE
5
116
100
AcDbEntity
8
0
100
AcDbCircle
10
-29.129000000000005
20
32.478000000000002
30
0
40
0.49999999999999822
0
CIRCLE
5
117
100
AcDbEntity
8
0
100
AcDbCircle
10
-29.129000000000001
20
47.718000000000004
30
0
40
0.49999999999999822
0
CIRCLE
5
118
100
AcDbEntity
8
0
100
AcDbCircle
10
29.145
20
34.832000000000001
30
0
40
0.49999999999999822
0
CIRCLE
5
119
100
AcDbEntity
8
0
100
AcDbCircle
10
29.145000000000003
20
42.452000000000005
30
0
40
0.49999999999999822
0
CIRCLE
5
120
100
AcDbEntity
8
0
100
AcDbCircle
10
29.145
20
37.372000000000007
30
0
40
0.49999999999999822
0
CIRCLE
5
121
100
AcDbEntity
8
0
100
AcDbCircle
10
18.635000000000002
20
-50.258000000000003
30
0
40
0.9000000000000008
0
CIRCLE
5
122
100
AcDbEntity
8
0
100
AcDbCircle
10
12.635000000000002
20
-50.258000000000003
30
0
40
0.9000000000000008
0
CIRCLE
5
123
100
AcDbEntity
8
0
100
AcDbCircle
10
28.574999999999999
20
17.678000000000004
30
0
40
0.17499999999999627
0
CIRCLE
5
124
100
AcDbEntity
8
0
100
AcDbCircle
10
20.574000000000005
20
-26.670000000000002
30
0
40
0.17500000000000071
0
CIRCLE
5
125
100
AcDbEntity
8
0
100
AcDbCircle
10
4.0389999999999997
20
-43.204999999999998
30
0
40
0.1749999999999996
0
CIRCLE
5
126
100
AcDbEntity
8
0
100
AcDbCircle
10
27.584
20
22.022000000000006
30
0
40
0.17500000000000071
0
CIRCLE
5
127
100
AcDbEntity
8
0
100
AcDbCircle
10
30.709
20
41.300000000000011
30
0
40
0.17500000000000071
0
CIRCLE
5
128
100
AcDbEntity
8
0
100
AcDbCircle
10
15.635000000000002
20
-50.258000000000003
30
0
40
0.9000000000000008
0
CIRCLE
5
129
100
AcDbEntity
8
0
100
AcDbCircle
10
29.145
20
32.292000000000002
30
0
40
0.49999999999999822
0
CIRCLE
5
130
100
AcDbEntity
8
0
100
AcDbCircle
10
29.145000000000003
20
47.532000000000004
30
0
40
0.49999999999999822
0
CIRCLE
5
131
100
AcDbEntity
8
0
100
AcDbCircle
10
29.145
20
39.912000000000006
30
0
40
0.49999999999999822
0
CIRCLE
5
132
100
AcDbEntity
8
0
100
AcDbCircle
10
29.145000000000003
20
44.992000000000004
30
0
40
0.49999999999999822
0
CIRCLE
5
133
100
AcDbEntity
8
0
100
AcDbCircle
10
-29.129000000000001
20
42.637999999999998
30
0
40
0.49999999999999822
0
CIRCLE
5
134
100
AcDbEntity
8
0
100
AcDbCircle
10
-29.129000000000005
20
37.558
30
0
40
0.49999999999999822
0
CIRCLE
5
135
100
AcDbEntity
8
0
100
AcDbCircle
10
-29.129000000000001
20
45.178000000000004
30
0
40
0.49999999999999822
0
CIRCLE
5
136
100
AcDbEntity
8
0
100
AcDbCircle
10
6.2849999999999993
20
50.072000000000003
30
0
40
0.50000000000000044
0
CIRCLE
5
137
100
AcDbEntity
8
0
100
AcDbCircle
10
-8.9550000000000001
20
50.07200000000001
30
0
40
0.50000000000000044
0
CIRCLE
5
138
100
AcDbEntity
8
0
100
AcDbCircle
10
-3.8750000000000009
20
50.07200000000001
30
0
40
0.49999999999999989
0
CIRCLE
5
139
100
AcDbEntity
8
0
100
AcDbCircle
10
3.7450000000000019
20
50.072000000000003
30
0
40
0.49999999999999989
0
CIRCLE
5
140
100
AcDbEntity
8
0
100
AcDbCircle
10
-8.9550000000000001
20
-48.988000000000007
30
0
40
0.50000000000000044
0
CIRCLE
5
141
100
AcDbEntity
8
0
100
AcDbCircle
10
6.2850000000000001
20
-48.988000000000007
30
0
40
0.50000000000000044
0
CIRCLE
5
142
100
AcDbEntity
8
0
100
AcDbCircle
10
-1.3349999999999995
20
-48.988000000000007
30
0
40
0.5
0
CIRCLE
5
143
100
AcDbEntity
8
0
100
AcDbCircle
10
3.7450000000000006
20
-48.988000000000007
30
0
40
0.49999999999999989
0
CIRCLE
5
144
100
AcDbEntity
8
0
100
AcDbCircle
10
-26.183999999999997
20
-42.828000000000003
30
0
40
0.50800000000000167
0
CIRCLE
5
145
100
AcDbEntity
8
0
100
AcDbCircle
10
-23.643999999999998
20
-42.828000000000003
30
0
40
0.50800000000000167
0
CIRCLE
5
146
100
AcDbEntity
8
0
100
AcDbCircle
10
-21.103999999999999
20
-42.828000000000003
30
0
40
0.50800000000000167
0
CIRCLE
5
147
100
AcDbEntity
8
0
100
AcDbCircle
10
-18.564
20
-42.828000000000003
30
0
40
0.50799999999999956
0
CIRCLE
5
148
100
AcDbEntity
8
0
100
AcDbCircle
10
-16.023999999999997
20
-42.828000000000003
30
0
40
0.50799999999999956
0
CIRCLE
5
149
100
AcDbEntity
8
0
100
AcDbCircle
10
30.414999999999999
20
11.162000000000003
30
0
40
0.40649999999999853
0
CIRCLE
5
150
100
AcDbEntity
8
0
100
AcDbCircle
10
30.414999999999999
20
7.1620000000000017
30
0
40
0.40649999999999853
0
CIRCLE
5
151
100
AcDbEntity
8
0
100
AcDbCircle
10
19.546625428252863
20
48.919769774885069
30
0
40
1.4999999999999947
0
CIRCLE
5
152
100
AcDbEntity
8
0
100
AcDbCircle
10
-19.584151060272298
20
48.919769774885069
30
0
40
1.5000000000000013
0
CIRCLE
5
153
100
AcDbEntity
8
0
100
AcDbCircle
10
31.213203435596437
20
2.0538477513093384e-14
30
0
40
1.4999999999999991
0
LWPOLYLINE
5
154
100
AcDbEntity
8
0
100
AcDbPolyline
90
8
70
1
43
0.0
10
-24.212999999995603
20
21.212999999994512
42
-0.41421356237309725
10
-21.212999999995606
20
24.212999999994523
10
21.213000000004424
20
24.212999999994516
42
-0.41421356237309503
10
24.213000000004435
20
21.212999999994505
10
24.213000000004428
20
-21.213000000005525
42
-0.41421356237309681
10
21.213000000004424
20
-24.213000000005529
10
-21.212999999995606
20
-24.213000000005525
42
-0.41421356237309764
10
-24.212999999995613
20
-21.213000000005518
0
CIRCLE
5
155
100
AcDbEntity
8
0
100
AcDbCircle
10
-31.213203435596416
20
1.9282403546146357e-14
30
0
40
1.4999999999999991
0
CIRCLE
5
156
100
AcDbEntity
8
0
100
AcDbCircle
10
1.3007196572656894e-14
20
-31.213203435596402
30
0
40
1.5000000000000002
0
CIRCLE
5
157
100
AcDbEntity
8
0
100
AcDbCircle
10
8.008525506444899
20
28.213203435596448
30
0
40
1.5000000000000002
0
LWPOLYLINE
5
158
100
AcDbEntity
8
0
100
AcDbPolyline
90
10
70
1
43
0.0
10
31.213000000004442
20
54.212999999994544
42
-0.41421356237309148
10
35.213000000004442
20
50.21299999999453
10
35.213000000004442
20
-5.1070000000055149
10
35.209000000004444
20
-32.431000000005533
10
21.593000000004427
20
-54.208000000005541
10
-21.592999999995573
20
-54.208000000005526
42
-0.41421356237309626
10
-35.207999999995607
20
-39.833000000005534
10
-35.212999999995617
20
-5.107000000005506
10
-35.212999999995631
20
50.212999999994551
42
-0.41421356237309925
10
-31.212999999995606
20
54.212999999994537
0
ENDSEC
0
SECTION
2
OBJECTS
0
DICTIONARY
5
C
100
AcDbDictionary
3
ACAD_GROUP
350
D
3
ACAD_MLINESTYLE
350
17
0
DICTIONARY
5
D
100
AcDbDictionary
0
DICTIONARY
5
1A
330
C
100
AcDbDictionary
0
DICTIONARY
5
17
100
AcDbDictionary
0
ENDSEC
0
EOF
