0
SECTION
2
HEADER
9
$INSUNITS
70
4
9
$ACADVER
1
AC1014
9
$HANDSEED
5
FFFF
0
ENDSEC
0
SECTION
2
TABLES
0
TABLE
2
VPORT
5
8
100
AcDbSymbolTable
0
ENDTAB
0
TABLE
2
LTYPE
5
5
100
AcDbSymbolTable
0
LTYPE
5
14
100
AcDbSymbolTableRecord
100
AcDbLinetypeTableRecord
2
BYBLOCK
70
0
0
LTYPE
5
15
100
AcDbSymbolTableRecord
100
AcDbLinetypeTableRecord
2
BYLAYER
70
0
0
ENDTAB
0
TABLE
2
LAYER
5
2
100
AcDbSymbolTable
70
2
0
LAYER
5
50
100
AcDbSymbolTableRecord
100
AcDbLayerTableRecord
2
0
70
0
6
CONTINUOUS
0
ENDTAB
0
TABLE
2
STYLE
5
3
100
AcDbSymbolTable
70
1
0
STYLE
5
11
100
AcDbSymbolTableRecord
100
AcDbTextStyleTableRecord
2
STANDARD
70
0
0
ENDTAB
0
TABLE
2
VIEW
5
6
100
AcDbSymbolTable
70
0
0
ENDTAB
0
TABLE
2
UCS
5
7
100
AcDbSymbolTable
70
0
0
ENDTAB
0
TABLE
2
APPID
5
9
100
AcDbSymbolTable
70
2
0
APPID
5
12
100
AcDbSymbolTableRecord
100
AcDbRegAppTableRecord
2
ACAD
70
0
0
ENDTAB
0
TABLE
2
DIMSTYLE
5
A
100
AcDbSymbolTable
70
1
0
ENDTAB
0
TABLE
2
BLOCK_RECORD
5
1
100
AcDbSymbolTable
70
1
0
BLOCK_RECORD
5
1F
100
AcDbSymbolTableRecord
100
AcDbBlockTableRecord
2
*MODEL_SPACE
0
BLOCK_RECORD
5
1B
100
AcDbSymbolTableRecord
100
AcDbBlockTableRecord
2
*PAPER_SPACE
0
ENDTAB
0
ENDSEC
0
SECTION
2
BLOCKS
0
BLOCK
5
20
100
AcDbEntity
100
AcDbBlockBegin
2
*MODEL_SPACE
0
ENDBLK
5
21
100
AcDbEntity
100
AcDbBlockEnd
0
BLOCK
5
1C
100
AcDbEntity
100
AcDbBlockBegin
2
*PAPER_SPACE
0
ENDBLK
5
1D
100
AcDbEntity
100
AcDbBlockEnd
0
ENDSEC
0
SECTION
2
ENTITIES
0
CIRCLE
5
100
100
AcDbEntity
8
0
100
AcDbCircle
10
0.39999861120068592
20
-10.499999999999854
30
0
40
1.4999999999999996
0
CIRCLE
5
101
100
AcDbEntity
8
0
100
AcDbCircle
10
7.3999986112006706
20
1.3398136766706887e-13
30
0
40
1.4999999999999996
0
CIRCLE
5
102
100
AcDbEntity
8
0
100
AcDbCircle
10
-6.6000013887992957
20
1.3483862042647202e-13
30
0
40
1.4999999999999993
0
CIRCLE
5
103
100
AcDbEntity
8
0
100
AcDbCircle
10
0.39999861120068814
20
10.500000000000124
30
0
40
1.4999999999999987
0
ARC
5
104
100
AcDbEntity
8
0
100
AcDbCircle
10
-6.6000013887992974
20
-10.499999999999854
30
-1.7763568394002505e-14
40
1.9999999999999973
100
AcDbArc
50
-90
51
180
0
LINE
5
105
100
AcDbEntity
8
0
100
AcDbLine
10
-6.6000013887992974
20
-12.499999999999851
30
-1.7763568394002505e-14
11
7.3999986112006866
21
-12.499999999999854
31
-1.7763568394002505e-14
0
ARC
5
106
100
AcDbEntity
8
0
100
AcDbCircle
10
7.3999986112006866
20
-10.499999999999858
30
-5.4738221262688167e-47
40
1.9999999999999973
100
AcDbArc
50
0
51
270
0
LINE
5
107
100
AcDbEntity
8
0
100
AcDbLine
10
9.399998611200683
20
-10.499999999999858
30
-3.6723783114156746e-31
11
9.3999986112006759
21
10.500000000000124
31
0
0
ARC
5
108
100
AcDbEntity
8
0
100
AcDbCircle
10
7.3999986112006724
20
10.500000000000124
30
4.1053665947016125e-47
40
1.99999997019769
100
AcDbArc
50
90
51
360
0
LINE
5
109
100
AcDbEntity
8
0
100
AcDbLine
10
7.3999986112006724
20
12.500000000000126
30
0
11
-6.600001388799309
21
12.500000000000126
31
-1.9034835028256435e-31
0
ARC
5
110
100
AcDbEntity
8
0
100
AcDbCircle
10
-6.600001388799309
20
10.500000000000131
30
0
40
1.9999999999999996
100
AcDbArc
50
-180
51
90
0
LINE
5
111
100
AcDbEntity
8
0
100
AcDbLine
10
-8.6000013887993081
20
10.500000000000131
30
3.1285258820369199e-31
11
-8.6000013887992939
21
-10.499999999999854
31
-1.7763568394002505e-14
0
CIRCLE
5
112
100
AcDbEntity
8
0
100
AcDbCircle
10
0.39999861120068814
20
10.500000000000124
30
0
40
3.2499999999999996
0
CIRCLE
5
113
100
AcDbEntity
8
0
100
AcDbCircle
10
7.3999986112006706
20
1.3398136766706887e-13
30
0
40
3.2500000000000009
0
CIRCLE
5
114
100
AcDbEntity
8
0
100
AcDbCircle
10
0.39999861120068592
20
-10.499999999999854
30
0
40
3.2500000000000009
0
CIRCLE
5
115
100
AcDbEntity
8
0
100
AcDbCircle
10
-6.6000013887992957
20
1.3483862042647202e-13
30
0
40
3.2500000000000009
0
LINE
5
116
100
AcDbEntity
8
0
100
AcDbLine
10
-6.600001388799309
20
10.500000000000131
30
0
11
-4.100001388799309
21
10.500000000000131
31
0
0
LINE
5
117
100
AcDbEntity
8
0
100
AcDbLine
10
-4.100001388799309
20
10.500000000000131
30
0
11
-4.100001388799309
21
8.0000000000001315
31
0
0
LINE
5
118
100
AcDbEntity
8
0
100
AcDbLine
10
-4.100001388799309
20
8.0000000000001315
30
0
11
-6.600001388799309
21
8.0000000000001315
31
0
0
LINE
5
119
100
AcDbEntity
8
0
100
AcDbLine
10
-6.600001388799309
20
8.0000000000001315
30
0
11
-6.600001388799309
21
10.500000000000131
31
0
0
LINE
5
120
100
AcDbEntity
8
0
100
AcDbLine
10
7.3999986112006724
20
10.500000000000124
30
4.1053665947016125e-47
11
4.8999986112006724
21
10.500000000000124
31
-4.5408079535907281e-46
0
LINE
5
121
100
AcDbEntity
8
0
100
AcDbLine
10
4.8999986112006724
20
10.500000000000124
30
-4.5408079535907281e-46
11
4.8999986112006724
21
8.0000000000001243
31
-4.5408079535907281e-46
0
LINE
5
122
100
AcDbEntity
8
0
100
AcDbLine
10
4.8999986112006724
20
8.0000000000001243
30
-4.5408079535907281e-46
11
7.3999986112006724
21
8.0000000000001243
31
-4.5408079535907281e-46
0
LINE
5
123
100
AcDbEntity
8
0
100
AcDbLine
10
7.3999986112006724
20
8.0000000000001243
30
-4.5408079535907281e-46
11
7.3999986112006724
21
10.500000000000124
31
4.1053665947016125e-47
0
LINE
5
124
100
AcDbEntity
8
0
100
AcDbLine
10
7.3999986112006866
20
-10.499999999999858
30
-5.4738221262688167e-47
11
4.8999986112006866
21
-10.499999999999858
31
1.0525182715600691e-45
0
LINE
5
125
100
AcDbEntity
8
0
100
AcDbLine
10
4.8999986112006866
20
-10.499999999999858
30
1.0525182715600691e-45
11
4.8999986112006866
21
-7.9999999999998579
31
1.0525182715600691e-45
0
LINE
5
126
100
AcDbEntity
8
0
100
AcDbLine
10
4.8999986112006866
20
-7.9999999999998579
30
1.0525182715600691e-45
11
7.3999986112006866
21
-7.9999999999998579
31
1.0525182715600691e-45
0
LINE
5
127
100
AcDbEntity
8
0
100
AcDbLine
10
7.3999986112006866
20
-7.9999999999998579
30
1.0525182715600691e-45
11
7.3999986112006866
21
-10.499999999999858
31
-5.4738221262688167e-47
0
LINE
5
128
100
AcDbEntity
8
0
100
AcDbLine
10
-6.6000013887992974
20
-10.499999999999854
30
-1.7763568394002505e-14
11
-4.1000013887992974
21
-10.499999999999854
31
2.6847053696652785e-13
0
LINE
5
129
100
AcDbEntity
8
0
100
AcDbLine
10
-4.1000013887992974
20
-10.499999999999854
30
2.6847053696652785e-13
11
-4.1000013887992974
21
-7.9999999999998543
31
2.6847053696652785e-13
0
LINE
5
130
100
AcDbEntity
8
0
100
AcDbLine
10
-4.1000013887992974
20
-7.9999999999998543
30
2.6847053696652785e-13
11
-6.6000013887992974
21
-7.9999999999998543
31
2.6847053696652785e-13
0
LINE
5
131
100
AcDbEntity
8
0
100
AcDbLine
10
-6.6000013887992974
20
-7.9999999999998543
30
2.6847053696652785e-13
11
-6.6000013887992974
21
-10.499999999999854
31
-1.7763568394002505e-14
0
LINE
5
132
100
AcDbEntity
8
0
100
AcDbLine
10
-6.6000013887992974
20
-7.9999999999998543
30
2.6847053696652785e-13
11
-8.5999998077750206
21
-7.9999999999998552
31
2.6847053696652785e-13
0
LINE
5
133
100
AcDbEntity
8
0
100
AcDbLine
10
-8.5999998077750206
20
-7.9999999999998552
30
2.6847053696652785e-13
11
-8.6000013887992992
21
-2.5617376914897627
31
0
0
LINE
5
134
100
AcDbEntity
8
0
100
AcDbLine
10
-4.1000013887992974
20
-10.499999999999854
30
2.6847053696652785e-13
11
-4.1000013887992974
21
-12.500000186264515
31
2.6847053696652785e-13
0
LINE
5
135
100
AcDbEntity
8
0
100
AcDbLine
10
-4.1000013887992974
20
-12.500000186264515
30
2.6847053696652785e-13
11
-2.1617389348686467
21
-12.500000186264515
31
0
0
LINE
5
136
100
AcDbEntity
8
0
100
AcDbLine
10
4.8999986112006866
20
-10.499999999999858
30
1.0525182715600691e-45
11
4.8999986112006857
21
-12.499999720603228
31
1.0525182715600691e-45
0
LINE
5
137
100
AcDbEntity
8
0
100
AcDbLine
10
4.8999986112006857
20
-12.499999720603228
30
1.0525182715600691e-45
11
2.9617363026905874
21
-12.499999999999854
31
0
0
LINE
5
138
100
AcDbEntity
8
0
100
AcDbLine
10
7.3999986112006866
20
-7.9999999999998579
30
1.0525182715600691e-45
11
9.3999997898936272
21
-7.999999999999857
31
1.0525182715600691e-45
0
LINE
5
139
100
AcDbEntity
8
0
100
AcDbLine
10
9.3999997898936272
20
-7.999999999999857
30
1.0525182715600691e-45
11
9.3999986112006813
21
-2.5617376914897596
31
0
0
LINE
5
140
100
AcDbEntity
8
0
100
AcDbLine
10
7.3999986112006724
20
8.0000000000001243
30
-4.5408079535907281e-46
11
9.3999997898936272
21
8.0000000000001261
31
-4.5408079535907281e-46
0
LINE
5
141
100
AcDbEntity
8
0
100
AcDbLine
10
9.3999997898936272
20
8.0000000000001261
30
-4.5408079535907281e-46
11
9.3999986112006777
21
2.5617376914900278
31
0
0
LINE
5
142
100
AcDbEntity
8
0
100
AcDbLine
10
4.8999986112006724
20
10.500000000000124
30
-4.5408079535907281e-46
11
4.8999986112006724
21
12.500000186264515
31
-4.5408079535907281e-46
0
LINE
5
143
100
AcDbEntity
8
0
100
AcDbLine
10
4.8999986112006724
20
12.500000186264515
30
-4.5408079535907281e-46
11
2.9617363026905865
21
12.500000000000126
31
0
0
LINE
5
144
100
AcDbEntity
8
0
100
AcDbLine
10
-4.100001388799309
20
10.500000000000131
30
0
11
-4.100001388799309
21
12.499999720603228
31
0
0
LINE
5
145
100
AcDbEntity
8
0
100
AcDbLine
10
-4.100001388799309
20
12.499999720603228
30
0
11
-2.1617392984199486
21
12.499999720603228
31
0
0
LINE
5
146
100
AcDbEntity
8
0
100
AcDbLine
10
-6.600001388799309
20
8.0000000000001315
30
0
11
-8.5999998077750206
21
8.0000000000001297
31
0
0
LINE
5
147
100
AcDbEntity
8
0
100
AcDbLine
10
-8.5999998077750206
20
8.0000000000001297
30
0
11
-8.6000013887993028
21
2.5617376914900296
31
0
0
LINE
5
148
100
AcDbEntity
8
0
100
AcDbLine
10
4.8999986112006724
20
8.0000000000001243
30
-4.5408079535907281e-46
11
2.4766545769302062
21
8.0000000000001243
31
0
0
LINE
5
149
100
AcDbEntity
8
0
100
AcDbLine
10
-4.100001388799309
20
8.0000000000001315
30
0
11
-1.6766573545288379
21
8.0000000000001315
31
0
0
LINE
5
150
100
AcDbEntity
8
0
100
AcDbLine
10
-4.1000013887992974
20
-7.9999999999998543
30
2.6847053696652785e-13
11
-1.6766573545288341
21
-7.9999999999998543
31
0
0
LINE
5
151
100
AcDbEntity
8
0
100
AcDbLine
10
4.8999986112006866
20
-7.9999999999998579
30
1.0525182715600691e-45
11
2.4766545769302111
21
-7.9999999999998579
31
0
0
CIRCLE
5
152
100
AcDbEntity
8
0
100
AcDbCircle
10
0
20
0
30
0
40
1.1000000000000001
0
LINE
5
153
100
AcDbEntity
8
0
100
AcDbLine
10
9.3999997898936272
20
8.0000000000001261
30
-4.5408079535907281e-46
11
4.8999997898936272
21
8.0000000000001261
31
-4.5408079535907281e-46
0
LINE
5
154
100
AcDbEntity
8
0
100
AcDbLine
10
4.8999997898936272
20
8.0000000000001261
30
-4.5408079535907281e-46
11
4.8999997898936272
21
5.5000000000001261
31
-4.5408079535907281e-46
0
LINE
5
155
100
AcDbEntity
8
0
100
AcDbLine
10
4.8999997898936272
20
5.5000000000001261
30
-4.5408079535907281e-46
11
9.3999997898936272
21
5.5000000000001261
31
-4.5408079535907281e-46
0
LINE
5
156
100
AcDbEntity
8
0
100
AcDbLine
10
9.3999997898936272
20
5.5000000000001261
30
-4.5408079535907281e-46
11
9.3999997898936272
21
8.0000000000001261
31
-4.5408079535907281e-46
0
CIRCLE
5
157
100
AcDbEntity
8
0
100
AcDbCircle
10
4.8999997898936272
20
5.5000000000001261
30
-4.5408079535907281e-46
40
1.1000000000000003
0
LINE
5
158
100
AcDbEntity
8
0
100
AcDbLine
10
9.3999997898936272
20
-7.999999999999857
30
1.0525182715600691e-45
11
4.8999997898936272
21
-7.999999999999857
31
-1.0157837346058122e-44
0
LINE
5
159
100
AcDbEntity
8
0
100
AcDbLine
10
4.8999997898936272
20
-7.999999999999857
30
-1.0157837346058122e-44
11
4.8999997898936272
21
-5.499999999999857
31
-1.0157837346058122e-44
0
LINE
5
160
100
AcDbEntity
8
0
100
AcDbLine
10
4.8999997898936272
20
-5.499999999999857
30
-1.0157837346058122e-44
11
9.3999997898936272
21
-5.499999999999857
31
-1.0157837346058122e-44
0
LINE
5
161
100
AcDbEntity
8
0
100
AcDbLine
10
9.3999997898936272
20
-5.499999999999857
30
-1.0157837346058122e-44
11
9.3999997898936272
21
-7.999999999999857
31
1.0525182715600691e-45
0
CIRCLE
5
162
100
AcDbEntity
8
0
100
AcDbCircle
10
4.8999997898936272
20
-5.499999999999857
30
-1.0157837346058122e-44
40
1.0999999999999996
0
LINE
5
163
100
AcDbEntity
8
0
100
AcDbLine
10
7.1499997898936272
20
8.0000000000001261
30
-4.5408079535907281e-46
11
2.6499997898936267
21
8.0000000000001261
31
-4.5408079535907281e-46
0
LINE
5
164
100
AcDbEntity
8
0
100
AcDbLine
10
2.6499997898936267
20
8.0000000000001261
30
-4.5408079535907281e-46
11
2.6499997898936267
21
3.0000000000001261
31
-4.5408079535907281e-46
0
LINE
5
165
100
AcDbEntity
8
0
100
AcDbLine
10
2.6499997898936267
20
3.0000000000001261
30
-4.5408079535907281e-46
11
7.1499997898936272
21
3.0000000000001261
31
-4.5408079535907281e-46
0
LINE
5
166
100
AcDbEntity
8
0
100
AcDbLine
10
7.1499997898936272
20
3.0000000000001261
30
-4.5408079535907281e-46
11
7.1499997898936272
21
8.0000000000001261
31
-4.5408079535907281e-46
0
LINE
5
167
100
AcDbEntity
8
0
100
AcDbLine
10
7.1499997898936272
20
8.0000000000001261
30
-4.5408079535907281e-46
11
2.6499997898936267
21
3.0000000000001261
31
-4.5408079535907281e-46
0
LINE
5
168
100
AcDbEntity
8
0
100
AcDbLine
10
2.6499997898936267
20
8.0000000000001261
30
-4.5408079535907281e-46
11
7.1499997898936272
21
3.0000000000001261
31
-4.5408079535907281e-46
0
LINE
5
169
100
AcDbEntity
8
0
100
AcDbLine
10
7.1499997898936272
20
-7.999999999999857
30
-4.5526595372490263e-45
11
2.6499997898936267
21
-7.999999999999857
31
-4.5526595372490263e-45
0
LINE
5
170
100
AcDbEntity
8
0
100
AcDbLine
10
2.6499997898936267
20
-7.999999999999857
30
-4.5526595372490263e-45
11
2.6499997898936267
21
-2.999999999999857
31
-1.5763015154867218e-44
0
LINE
5
171
100
AcDbEntity
8
0
100
AcDbLine
10
2.6499997898936267
20
-2.999999999999857
30
-1.5763015154867218e-44
11
7.1499997898936272
21
-2.999999999999857
31
-4.5526595372490263e-45
0
LINE
5
172
100
AcDbEntity
8
0
100
AcDbLine
10
7.1499997898936272
20
-2.999999999999857
30
-4.5526595372490263e-45
11
7.1499997898936272
21
-7.999999999999857
31
-4.5526595372490263e-45
0
LINE
5
173
100
AcDbEntity
8
0
100
AcDbLine
10
7.1499997898936272
20
-7.999999999999857
30
-4.5526595372490263e-45
11
2.6499997898936267
21
-2.999999999999857
31
-1.5763015154867218e-44
0
LINE
5
174
100
AcDbEntity
8
0
100
AcDbLine
10
2.6499997898936267
20
-7.999999999999857
30
-4.5526595372490263e-45
11
7.1499997898936272
21
-2.999999999999857
31
-4.5526595372490263e-45
0
CIRCLE
5
175
100
AcDbEntity
8
0
100
AcDbCircle
10
0
20
0
30
0
40
2.25
0
CIRCLE
5
176
100
AcDbEntity
8
0
100
AcDbCircle
10
0.3999986112006787
20
9.0000000000001243
30
0
40
2.25
0
CIRCLE
5
177
100
AcDbEntity
8
0
100
AcDbCircle
10
0.39999861120069174
20
-8.999999999999865
30
0
40
0.749999999999999
0
CIRCLE
5
178
100
AcDbEntity
8
0
100
AcDbCircle
10
0.39999861120069174
20
-8.999999999999865
30
0
40
2.2499999999999996
0
LINE
5
179
100
AcDbEntity
8
0
100
AcDbLine
10
2.6499997898936272
20
-6.499999999999865
30
0
11
-1.8500025674922438
21
-6.499999999999865
31
0
0
LINE
5
180
100
AcDbEntity
8
0
100
AcDbLine
10
-1.8500025674922438
20
-6.499999999999865
30
0
11
-1.8500025674922438
21
-11.499999999999865
31
0
0
LINE
5
181
100
AcDbEntity
8
0
100
AcDbLine
10
-1.8500025674922438
20
-11.499999999999865
30
0
11
2.6499997898936272
21
-11.499999999999865
31
0
0
LINE
5
182
100
AcDbEntity
8
0
100
AcDbLine
10
2.6499997898936272
20
-11.499999999999865
30
0
11
2.6499997898936272
21
-6.499999999999865
31
0
0
LINE
5
183
100
AcDbEntity
8
0
100
AcDbLine
10
2.6499997898936272
20
-6.499999999999865
30
0
11
-1.8500025674922438
21
-11.499999999999865
31
0
0
LINE
5
184
100
AcDbEntity
8
0
100
AcDbLine
10
-1.8500025674922438
20
-6.499999999999865
30
0
11
2.6499997898936272
21
-11.499999999999865
31
0
0
LINE
5
185
100
AcDbEntity
8
0
100
AcDbLine
10
2.6499997898936178
20
6.5000000000001243
30
-8.7282390551244541e-46
11
-1.8500025674922427
21
6.5000000000001243
31
-8.7282390551244541e-46
0
LINE
5
186
100
AcDbEntity
8
0
100
AcDbLine
10
-1.8500025674922427
20
6.5000000000001243
30
-8.7282390551244541e-46
11
-1.8500025674922427
21
11.500000000000124
31
8.7282390551244541e-46
0
LINE
5
187
100
AcDbEntity
8
0
100
AcDbLine
10
-1.8500025674922427
20
11.500000000000124
30
8.7282390551244541e-46
11
2.6499997898936178
21
11.500000000000124
31
-8.7282390551244541e-46
0
LINE
5
188
100
AcDbEntity
8
0
100
AcDbLine
10
2.6499997898936178
20
11.500000000000124
30
-8.7282390551244541e-46
11
2.6499997898936178
21
6.5000000000001243
31
-8.7282390551244541e-46
0
LINE
5
189
100
AcDbEntity
8
0
100
AcDbLine
10
2.6499997898936178
20
6.5000000000001243
30
-8.7282390551244541e-46
11
-1.8500025674922427
21
11.500000000000124
31
8.7282390551244541e-46
0
LINE
5
190
100
AcDbEntity
8
0
100
AcDbLine
10
-1.8500025674922427
20
6.5000000000001243
30
-8.7282390551244541e-46
11
2.6499997898936178
21
11.500000000000124
31
-8.7282390551244541e-46
0
ENDSEC
0
SECTION
2
OBJECTS
0
DICTIONARY
5
C
100
AcDbDictionary
3
ACAD_GROUP
350
D
3
ACAD_MLINESTYLE
350
17
0
DICTIONARY
5
D
100
AcDbDictionary
0
DICTIONARY
5
1A
330
C
100
AcDbDictionary
0
DICTIONARY
5
17
100
AcDbDictionary
0
ENDSEC
0
EOF
