  0
SECTION
  2
HEADER
  9
$EXTMIN
 10
-0.152000
 20
-0.419000
  9
$EXTMAX
 10
1.105000
 20
1.805000
  9
$LIMMIN
 10
-0.152000
 20
-0.419000
  9
$LIMMAX
 10
1.105000
 20
1.805000
  9
$FILLMODE
 70
  1
  0
ENDSEC
  0
SECTION
  2
TABLES
  0
TABLE
  2
LTYPE
 70
  1
  0
LTYPE
  2
CONTINUOUS
 70
 64
  3
Solid line
 72
 65
 73
  0
 40
0.0
  0
ENDTAB
  0
TABLE
  2
LAYER
 70
 1
  0
LAYER
  2
0
 70
  0
 62
7
  6
CONTINUOUS
  0
LAYER
  2
gg1
 70
  0
 62
1
  6
CONTINUOUS
  0
ENDTAB
  0
TABLE
  2
STYLE
 70
  1
  0
STYLE
  2
STANDARD
 70
  0
 40
0.0
 41
1.0
 50
0.0
 71
  0
 42
0.2
  3
txt
  4

  0
ENDTAB
  0
ENDSEC
  0
SECTION
  2
BLOCKS
  0
BLOCK
  8
0
  2
D10
 70
64
 10
0.0
 20
0.0
  3
D10
  0
CIRCLE
  8
0
 10
0.000000
 20
0.000000
 40
0.005000
 0
ENDBLK
  8
0
  0
BLOCK
  8
0
  2
D11
 70
64
 10
0.0
 20
0.0
  3
D11
  0
CIRCLE
  8
0
 10
0.000000
 20
0.000000
 40
0.004000
 0
ENDBLK
  8
0
  0
BLOCK
  8
0
  2
D12
 70
64
 10
0.0
 20
0.0
  3
D12
  0
CIRCLE
  8
0
 10
0.000000
 20
0.000000
 40
0.003000
 0
ENDBLK
  8
0
  0
BLOCK
  8
0
  2
D13
 70
64
 10
0.0
 20
0.0
  3
D13
  0
CIRCLE
  8
0
 10
0.000000
 20
0.000000
 40
0.002500
 0
ENDBLK
  8
0
  0
ENDSEC
  0
SECTION
  2
ENTITIES
  0
POLYLINE
  8
gg1
 62
1
 40
0.000000
 41
0.000000
 66
  1
  0
VERTEX
  8
gg1
 10
1.100000
 20
-0.390000
  0
VERTEX
  8
gg1
 10
1.100000
 20
-0.010000
  0
SEQEND
  8
gg1
  0
POLYLINE
  8
gg1
 62
1
 40
0.000000
 41
0.000000
 66
  1
  0
VERTEX
  8
gg1
 10
0.000000
 20
-0.390000
  0
VERTEX
  8
gg1
 10
0.000000
 20
-0.010000
  0
SEQEND
  8
gg1
  0
POLYLINE
  8
gg1
 62
1
 40
0.000000
 41
0.000000
 66
  1
  0
VERTEX
  8
gg1
 10
0.724900
 20
-0.380000
  0
VERTEX
  8
gg1
 10
1.100000
 20
-0.380000
  0
SEQEND
  8
gg1
  0
POLYLINE
  8
gg1
 62
1
 40
0.000000
 41
0.000000
 66
  1
  0
VERTEX
  8
gg1
 10
0.000000
 20
-0.380000
  0
VERTEX
  8
gg1
 10
0.343100
 20
-0.380000
  0
SEQEND
  8
gg1
  0
POLYLINE
  8
gg1
 62
1
 40
0.000000
 41
0.000000
 66
  1
  0
VERTEX
  8
gg1
 10
1.040000
 20
-0.360000
  0
VERTEX
  8
gg1
 10
1.100000
 20
-0.380000
  0
SEQEND
  8
gg1
  0
POLYLINE
  8
gg1
 62
1
 40
0.000000
 41
0.000000
 66
  1
  0
VERTEX
  8
gg1
 10
1.040000
 20
-0.400000
  0
VERTEX
  8
gg1
 10
1.100000
 20
-0.380000
  0
SEQEND
  8
gg1
  0
POLYLINE
  8
gg1
 62
1
 40
0.000000
 41
0.000000
 66
  1
  0
VERTEX
  8
gg1
 10
0.000000
 20
-0.380000
  0
VERTEX
  8
gg1
 10
0.060000
 20
-0.400000
  0
SEQEND
  8
gg1
  0
POLYLINE
  8
gg1
 62
1
 40
0.000000
 41
0.000000
 66
  1
  0
VERTEX
  8
gg1
 10
0.000000
 20
-0.380000
  0
VERTEX
  8
gg1
 10
0.060000
 20
-0.360000
  0
SEQEND
  8
gg1
  0
POLYLINE
  8
gg1
 62
1
 40
0.000000
 41
0.000000
 66
  1
  0
VERTEX
  8
gg1
 10
-0.135000
 20
1.800000
  0
VERTEX
  8
gg1
 10
-0.010000
 20
1.800000
  0
SEQEND
  8
gg1
  0
POLYLINE
  8
gg1
 62
1
 40
0.000000
 41
0.000000
 66
  1
  0
VERTEX
  8
gg1
 10
-0.135000
 20
0.000000
  0
VERTEX
  8
gg1
 10
-0.010000
 20
0.000000
  0
SEQEND
  8
gg1
  0
POLYLINE
  8
gg1
 62
1
 40
0.000000
 41
0.000000
 66
  1
  0
VERTEX
  8
gg1
 10
-0.125000
 20
1.079900
  0
VERTEX
  8
gg1
 10
-0.125000
 20
1.800000
  0
SEQEND
  8
gg1
  0
POLYLINE
  8
gg1
 62
1
 40
0.000000
 41
0.000000
 66
  1
  0
VERTEX
  8
gg1
 10
-0.125000
 20
0.000000
  0
VERTEX
  8
gg1
 10
-0.125000
 20
0.688100
  0
SEQEND
  8
gg1
  0
POLYLINE
  8
gg1
 62
1
 40
0.000000
 41
0.000000
 66
  1
  0
VERTEX
  8
gg1
 10
-0.145000
 20
1.740000
  0
VERTEX
  8
gg1
 10
-0.125000
 20
1.800000
  0
VERTEX
  8
gg1
 10
-0.105000
 20
1.740000
  0
SEQEND
  8
gg1
  0
POLYLINE
  8
gg1
 62
1
 40
0.000000
 41
0.000000
 66
  1
  0
VERTEX
  8
gg1
 10
-0.125000
 20
0.000000
  0
VERTEX
  8
gg1
 10
-0.105000
 20
0.060000
  0
SEQEND
  8
gg1
  0
POLYLINE
  8
gg1
 62
1
 40
0.000000
 41
0.000000
 66
  1
  0
VERTEX
  8
gg1
 10
-0.145000
 20
0.060000
  0
VERTEX
  8
gg1
 10
-0.125000
 20
0.000000
  0
SEQEND
  8
gg1
  0
POLYLINE
  8
gg1
 62
1
 40
0.000000
 41
0.000000
 66
  1
  0
VERTEX
  8
gg1
 10
0.000000
 20
0.000000
  0
VERTEX
  8
gg1
 10
1.100000
 20
0.000000
  0
VERTEX
  8
gg1
 10
1.100000
 20
1.800000
  0
SEQEND
  8
gg1
  0
POLYLINE
  8
gg1
 62
1
 40
0.000000
 41
0.000000
 66
  1
  0
VERTEX
  8
gg1
 10
0.000000
 20
1.800000
  0
VERTEX
  8
gg1
 10
1.100000
 20
1.800000
  0
SEQEND
  8
gg1
  0
POLYLINE
  8
gg1
 62
1
 40
0.000000
 41
0.000000
 66
  1
  0
VERTEX
  8
gg1
 10
0.000000
 20
0.000000
  0
VERTEX
  8
gg1
 10
0.000000
 20
1.800000
  0
SEQEND
  8
gg1
  0
POLYLINE
  8
gg1
 62
1
 40
0.000000
 41
0.000000
 66
  1
  0
VERTEX
  8
gg1
 10
0.359100
 20
-0.416000
  0
VERTEX
  8
gg1
 10
0.379000
 20
-0.416000
  0
VERTEX
  8
gg1
 10
0.369100
 20
-0.416000
  0
VERTEX
  8
gg1
 10
0.369100
 20
-0.356000
  0
VERTEX
  8
gg1
 10
0.359100
 20
-0.366000
  0
SEQEND
  8
gg1
  0
POLYLINE
  8
gg1
 62
1
 40
0.000000
 41
0.000000
 66
  1
  0
VERTEX
  8
gg1
 10
0.409000
 20
-0.416000
  0
VERTEX
  8
gg1
 10
0.429000
 20
-0.416000
  0
VERTEX
  8
gg1
 10
0.419000
 20
-0.416000
  0
VERTEX
  8
gg1
 10
0.419000
 20
-0.356000
  0
VERTEX
  8
gg1
 10
0.409000
 20
-0.366000
  0
SEQEND
  8
gg1
  0
POLYLINE
  8
gg1
 62
1
 40
0.000000
 41
0.000000
 66
  1
  0
VERTEX
  8
gg1
 10
0.459000
 20
-0.366000
  0
VERTEX
  8
gg1
 10
0.469000
 20
-0.356000
  0
VERTEX
  8
gg1
 10
0.489000
 20
-0.356000
  0
VERTEX
  8
gg1
 10
0.499000
 20
-0.366000
  0
VERTEX
  8
gg1
 10
0.499000
 20
-0.406000
  0
VERTEX
  8
gg1
 10
0.489000
 20
-0.416000
  0
VERTEX
  8
gg1
 10
0.469000
 20
-0.416000
  0
VERTEX
  8
gg1
 10
0.459000
 20
-0.406000
  0
VERTEX
  8
gg1
 10
0.459000
 20
-0.366000
  0
SEQEND
  8
gg1
  0
POLYLINE
  8
gg1
 62
1
 40
0.000000
 41
0.000000
 66
  1
  0
VERTEX
  8
gg1
 10
0.519000
 20
-0.366000
  0
VERTEX
  8
gg1
 10
0.529000
 20
-0.356000
  0
VERTEX
  8
gg1
 10
0.549000
 20
-0.356000
  0
VERTEX
  8
gg1
 10
0.559000
 20
-0.366000
  0
VERTEX
  8
gg1
 10
0.559000
 20
-0.406000
  0
VERTEX
  8
gg1
 10
0.549000
 20
-0.416000
  0
VERTEX
  8
gg1
 10
0.529000
 20
-0.416000
  0
VERTEX
  8
gg1
 10
0.519000
 20
-0.406000
  0
VERTEX
  8
gg1
 10
0.519000
 20
-0.366000
  0
SEQEND
  8
gg1
  0
POLYLINE
  8
gg1
 62
1
 40
0.000000
 41
0.000000
 66
  1
  0
VERTEX
  8
gg1
 10
0.579000
 20
-0.416000
  0
VERTEX
  8
gg1
 10
0.579000
 20
-0.376000
  0
VERTEX
  8
gg1
 10
0.589000
 20
-0.376000
  0
VERTEX
  8
gg1
 10
0.599000
 20
-0.386000
  0
VERTEX
  8
gg1
 10
0.599000
 20
-0.416000
  0
VERTEX
  8
gg1
 10
0.599000
 20
-0.386000
  0
VERTEX
  8
gg1
 10
0.609000
 20
-0.376000
  0
VERTEX
  8
gg1
 10
0.619000
 20
-0.386000
  0
VERTEX
  8
gg1
 10
0.619000
 20
-0.416000
  0
SEQEND
  8
gg1
  0
POLYLINE
  8
gg1
 62
1
 40
0.000000
 41
0.000000
 66
  1
  0
VERTEX
  8
gg1
 10
0.639000
 20
-0.416000
  0
VERTEX
  8
gg1
 10
0.659000
 20
-0.416000
  0
VERTEX
  8
gg1
 10
0.649000
 20
-0.416000
  0
VERTEX
  8
gg1
 10
0.649000
 20
-0.376000
  0
VERTEX
  8
gg1
 10
0.639000
 20
-0.376000
  0
SEQEND
  8
gg1
  0
POLYLINE
  8
gg1
 62
1
 40
0.000000
 41
0.000000
 66
  1
  0
VERTEX
  8
gg1
 10
0.689000
 20
-0.416000
  0
VERTEX
  8
gg1
 10
0.708900
 20
-0.416000
  0
VERTEX
  8
gg1
 10
0.698900
 20
-0.416000
  0
VERTEX
  8
gg1
 10
0.698900
 20
-0.356000
  0
VERTEX
  8
gg1
 10
0.689000
 20
-0.356000
  0
SEQEND
  8
gg1
  0
POLYLINE
  8
gg1
 62
1
 40
0.000000
 41
0.000000
 66
  1
  0
VERTEX
  8
gg1
 10
-0.089000
 20
0.704100
  0
VERTEX
  8
gg1
 10
-0.089000
 20
0.724100
  0
VERTEX
  8
gg1
 10
-0.089000
 20
0.714100
  0
VERTEX
  8
gg1
 10
-0.149000
 20
0.714100
  0
VERTEX
  8
gg1
 10
-0.139000
 20
0.704100
  0
SEQEND
  8
gg1
  0
POLYLINE
  8
gg1
 62
1
 40
0.000000
 41
0.000000
 66
  1
  0
VERTEX
  8
gg1
 10
-0.139000
 20
0.754000
  0
VERTEX
  8
gg1
 10
-0.149000
 20
0.764000
  0
VERTEX
  8
gg1
 10
-0.149000
 20
0.784000
  0
VERTEX
  8
gg1
 10
-0.139000
 20
0.794000
  0
VERTEX
  8
gg1
 10
-0.129000
 20
0.794000
  0
VERTEX
  8
gg1
 10
-0.119000
 20
0.784000
  0
VERTEX
  8
gg1
 10
-0.109000
 20
0.794000
  0
VERTEX
  8
gg1
 10
-0.099000
 20
0.794000
  0
VERTEX
  8
gg1
 10
-0.089000
 20
0.784000
  0
VERTEX
  8
gg1
 10
-0.089000
 20
0.764000
  0
VERTEX
  8
gg1
 10
-0.099000
 20
0.754000
  0
VERTEX
  8
gg1
 10
-0.109000
 20
0.754000
  0
VERTEX
  8
gg1
 10
-0.119000
 20
0.764000
  0
VERTEX
  8
gg1
 10
-0.129000
 20
0.754000
  0
VERTEX
  8
gg1
 10
-0.139000
 20
0.754000
  0
SEQEND
  8
gg1
  0
POLYLINE
  8
gg1
 62
1
 40
0.000000
 41
0.000000
 66
  1
  0
VERTEX
  8
gg1
 10
-0.119000
 20
0.764000
  0
VERTEX
  8
gg1
 10
-0.119000
 20
0.784000
  0
SEQEND
  8
gg1
  0
POLYLINE
  8
gg1
 62
1
 40
0.000000
 41
0.000000
 66
  1
  0
VERTEX
  8
gg1
 10
-0.139000
 20
0.814000
  0
VERTEX
  8
gg1
 10
-0.149000
 20
0.824000
  0
VERTEX
  8
gg1
 10
-0.149000
 20
0.844000
  0
VERTEX
  8
gg1
 10
-0.139000
 20
0.854000
  0
VERTEX
  8
gg1
 10
-0.099000
 20
0.854000
  0
VERTEX
  8
gg1
 10
-0.089000
 20
0.844000
  0
VERTEX
  8
gg1
 10
-0.089000
 20
0.824000
  0
VERTEX
  8
gg1
 10
-0.099000
 20
0.814000
  0
VERTEX
  8
gg1
 10
-0.139000
 20
0.814000
  0
SEQEND
  8
gg1
  0
POLYLINE
  8
gg1
 62
1
 40
0.000000
 41
0.000000
 66
  1
  0
VERTEX
  8
gg1
 10
-0.139000
 20
0.874000
  0
VERTEX
  8
gg1
 10
-0.149000
 20
0.884000
  0
VERTEX
  8
gg1
 10
-0.149000
 20
0.904000
  0
VERTEX
  8
gg1
 10
-0.139000
 20
0.914000
  0
VERTEX
  8
gg1
 10
-0.099000
 20
0.914000
  0
VERTEX
  8
gg1
 10
-0.089000
 20
0.904000
  0
VERTEX
  8
gg1
 10
-0.089000
 20
0.884000
  0
VERTEX
  8
gg1
 10
-0.099000
 20
0.874000
  0
VERTEX
  8
gg1
 10
-0.139000
 20
0.874000
  0
SEQEND
  8
gg1
  0
POLYLINE
  8
gg1
 62
1
 40
0.000000
 41
0.000000
 66
  1
  0
VERTEX
  8
gg1
 10
-0.089000
 20
0.934000
  0
VERTEX
  8
gg1
 10
-0.129000
 20
0.934000
  0
VERTEX
  8
gg1
 10
-0.129000
 20
0.944000
  0
VERTEX
  8
gg1
 10
-0.119000
 20
0.954000
  0
VERTEX
  8
gg1
 10
-0.089000
 20
0.954000
  0
VERTEX
  8
gg1
 10
-0.119000
 20
0.954000
  0
VERTEX
  8
gg1
 10
-0.129000
 20
0.964000
  0
VERTEX
  8
gg1
 10
-0.119000
 20
0.974000
  0
VERTEX
  8
gg1
 10
-0.089000
 20
0.974000
  0
SEQEND
  8
gg1
  0
POLYLINE
  8
gg1
 62
1
 40
0.000000
 41
0.000000
 66
  1
  0
VERTEX
  8
gg1
 10
-0.089000
 20
0.994000
  0
VERTEX
  8
gg1
 10
-0.089000
 20
1.014000
  0
VERTEX
  8
gg1
 10
-0.089000
 20
1.004000
  0
VERTEX
  8
gg1
 10
-0.129000
 20
1.004000
  0
VERTEX
  8
gg1
 10
-0.129000
 20
0.994000
  0
SEQEND
  8
gg1
  0
POLYLINE
  8
gg1
 62
1
 40
0.000000
 41
0.000000
 66
  1
  0
VERTEX
  8
gg1
 10
-0.089000
 20
1.043900
  0
VERTEX
  8
gg1
 10
-0.089000
 20
1.063900
  0
VERTEX
  8
gg1
 10
-0.089000
 20
1.053900
  0
VERTEX
  8
gg1
 10
-0.149000
 20
1.053900
  0
VERTEX
  8
gg1
 10
-0.149000
 20
1.043900
  0
SEQEND
  8
gg1
  0
POLYLINE
  8
gg1
 62
1
 40
0.000000
 41
0.000000
 66
  1
  0
VERTEX
  8
gg1
 10
0.130000
 20
1.550000
  0
VERTEX
  8
gg1
 10
0.170000
 20
1.550000
  0
SEQEND
  8
gg1
  0
POLYLINE
  8
gg1
 62
1
 40
0.000000
 41
0.000000
 66
  1
  0
VERTEX
  8
gg1
 10
0.150000
 20
1.530000
  0
VERTEX
  8
gg1
 10
0.150000
 20
1.570000
  0
SEQEND
  8
gg1
  0
POLYLINE
  8
gg1
 62
1
 40
0.000000
 41
0.000000
 66
  1
  0
VERTEX
  8
gg1
 10
0.130000
 20
1.450000
  0
VERTEX
  8
gg1
 10
0.170000
 20
1.450000
  0
SEQEND
  8
gg1
  0
POLYLINE
  8
gg1
 62
1
 40
0.000000
 41
0.000000
 66
  1
  0
VERTEX
  8
gg1
 10
0.150000
 20
1.430000
  0
VERTEX
  8
gg1
 10
0.150000
 20
1.470000
  0
SEQEND
  8
gg1
  0
POLYLINE
  8
gg1
 62
1
 40
0.000000
 41
0.000000
 66
  1
  0
VERTEX
  8
gg1
 10
0.030000
 20
1.250000
  0
VERTEX
  8
gg1
 10
0.070000
 20
1.250000
  0
SEQEND
  8
gg1
  0
POLYLINE
  8
gg1
 62
1
 40
0.000000
 41
0.000000
 66
  1
  0
VERTEX
  8
gg1
 10
0.050000
 20
1.230000
  0
VERTEX
  8
gg1
 10
0.050000
 20
1.270000
  0
SEQEND
  8
gg1
  0
POLYLINE
  8
gg1
 62
1
 40
0.000000
 41
0.000000
 66
  1
  0
VERTEX
  8
gg1
 10
0.030000
 20
1.350000
  0
VERTEX
  8
gg1
 10
0.070000
 20
1.350000
  0
SEQEND
  8
gg1
  0
POLYLINE
  8
gg1
 62
1
 40
0.000000
 41
0.000000
 66
  1
  0
VERTEX
  8
gg1
 10
0.050000
 20
1.330000
  0
VERTEX
  8
gg1
 10
0.050000
 20
1.370000
  0
SEQEND
  8
gg1
  0
POLYLINE
  8
gg1
 62
1
 40
0.000000
 41
0.000000
 66
  1
  0
VERTEX
  8
gg1
 10
0.030000
 20
1.450000
  0
VERTEX
  8
gg1
 10
0.070000
 20
1.450000
  0
SEQEND
  8
gg1
  0
POLYLINE
  8
gg1
 62
1
 40
0.000000
 41
0.000000
 66
  1
  0
VERTEX
  8
gg1
 10
0.050000
 20
1.430000
  0
VERTEX
  8
gg1
 10
0.050000
 20
1.470000
  0
SEQEND
  8
gg1
  0
POLYLINE
  8
gg1
 62
1
 40
0.000000
 41
0.000000
 66
  1
  0
VERTEX
  8
gg1
 10
0.030000
 20
1.550000
  0
VERTEX
  8
gg1
 10
0.070000
 20
1.550000
  0
SEQEND
  8
gg1
  0
POLYLINE
  8
gg1
 62
1
 40
0.000000
 41
0.000000
 66
  1
  0
VERTEX
  8
gg1
 10
0.050000
 20
1.530000
  0
VERTEX
  8
gg1
 10
0.050000
 20
1.570000
  0
SEQEND
  8
gg1
  0
POLYLINE
  8
gg1
 62
1
 40
0.000000
 41
0.000000
 66
  1
  0
VERTEX
  8
gg1
 10
0.030000
 20
1.650000
  0
VERTEX
  8
gg1
 10
0.070000
 20
1.650000
  0
SEQEND
  8
gg1
  0
POLYLINE
  8
gg1
 62
1
 40
0.000000
 41
0.000000
 66
  1
  0
VERTEX
  8
gg1
 10
0.050000
 20
1.630000
  0
VERTEX
  8
gg1
 10
0.050000
 20
1.670000
  0
SEQEND
  8
gg1
  0
POLYLINE
  8
gg1
 62
1
 40
0.000000
 41
0.000000
 66
  1
  0
VERTEX
  8
gg1
 10
0.030000
 20
1.750000
  0
VERTEX
  8
gg1
 10
0.070000
 20
1.750000
  0
SEQEND
  8
gg1
  0
POLYLINE
  8
gg1
 62
1
 40
0.000000
 41
0.000000
 66
  1
  0
VERTEX
  8
gg1
 10
0.050000
 20
1.730000
  0
VERTEX
  8
gg1
 10
0.050000
 20
1.770000
  0
SEQEND
  8
gg1
  0
POLYLINE
  8
gg1
 62
1
 40
0.000000
 41
0.000000
 66
  1
  0
VERTEX
  8
gg1
 10
0.030000
 20
0.850000
  0
VERTEX
  8
gg1
 10
0.070000
 20
0.850000
  0
SEQEND
  8
gg1
  0
POLYLINE
  8
gg1
 62
1
 40
0.000000
 41
0.000000
 66
  1
  0
VERTEX
  8
gg1
 10
0.050000
 20
0.830000
  0
VERTEX
  8
gg1
 10
0.050000
 20
0.870000
  0
SEQEND
  8
gg1
  0
POLYLINE
  8
gg1
 62
1
 40
0.000000
 41
0.000000
 66
  1
  0
VERTEX
  8
gg1
 10
0.030000
 20
0.750000
  0
VERTEX
  8
gg1
 10
0.070000
 20
0.750000
  0
SEQEND
  8
gg1
  0
POLYLINE
  8
gg1
 62
1
 40
0.000000
 41
0.000000
 66
  1
  0
VERTEX
  8
gg1
 10
0.050000
 20
0.730000
  0
VERTEX
  8
gg1
 10
0.050000
 20
0.770000
  0
SEQEND
  8
gg1
  0
POLYLINE
  8
gg1
 62
1
 40
0.000000
 41
0.000000
 66
  1
  0
VERTEX
  8
gg1
 10
0.030000
 20
0.650000
  0
VERTEX
  8
gg1
 10
0.070000
 20
0.650000
  0
SEQEND
  8
gg1
  0
POLYLINE
  8
gg1
 62
1
 40
0.000000
 41
0.000000
 66
  1
  0
VERTEX
  8
gg1
 10
0.050000
 20
0.630000
  0
VERTEX
  8
gg1
 10
0.050000
 20
0.670000
  0
SEQEND
  8
gg1
  0
POLYLINE
  8
gg1
 62
1
 40
0.000000
 41
0.000000
 66
  1
  0
VERTEX
  8
gg1
 10
0.030000
 20
0.550000
  0
VERTEX
  8
gg1
 10
0.070000
 20
0.550000
  0
SEQEND
  8
gg1
  0
POLYLINE
  8
gg1
 62
1
 40
0.000000
 41
0.000000
 66
  1
  0
VERTEX
  8
gg1
 10
0.050000
 20
0.530000
  0
VERTEX
  8
gg1
 10
0.050000
 20
0.570000
  0
SEQEND
  8
gg1
  0
POLYLINE
  8
gg1
 62
1
 40
0.000000
 41
0.000000
 66
  1
  0
VERTEX
  8
gg1
 10
0.030000
 20
0.050000
  0
VERTEX
  8
gg1
 10
0.070000
 20
0.050000
  0
SEQEND
  8
gg1
  0
POLYLINE
  8
gg1
 62
1
 40
0.000000
 41
0.000000
 66
  1
  0
VERTEX
  8
gg1
 10
0.050000
 20
0.030000
  0
VERTEX
  8
gg1
 10
0.050000
 20
0.070000
  0
SEQEND
  8
gg1
  0
POLYLINE
  8
gg1
 62
1
 40
0.000000
 41
0.000000
 66
  1
  0
VERTEX
  8
gg1
 10
0.030000
 20
0.150000
  0
VERTEX
  8
gg1
 10
0.070000
 20
0.150000
  0
SEQEND
  8
gg1
  0
POLYLINE
  8
gg1
 62
1
 40
0.000000
 41
0.000000
 66
  1
  0
VERTEX
  8
gg1
 10
0.050000
 20
0.130000
  0
VERTEX
  8
gg1
 10
0.050000
 20
0.170000
  0
SEQEND
  8
gg1
  0
POLYLINE
  8
gg1
 62
1
 40
0.000000
 41
0.000000
 66
  1
  0
VERTEX
  8
gg1
 10
0.030000
 20
0.250000
  0
VERTEX
  8
gg1
 10
0.070000
 20
0.250000
  0
SEQEND
  8
gg1
  0
POLYLINE
  8
gg1
 62
1
 40
0.000000
 41
0.000000
 66
  1
  0
VERTEX
  8
gg1
 10
0.050000
 20
0.230000
  0
VERTEX
  8
gg1
 10
0.050000
 20
0.270000
  0
SEQEND
  8
gg1
  0
POLYLINE
  8
gg1
 62
1
 40
0.000000
 41
0.000000
 66
  1
  0
VERTEX
  8
gg1
 10
0.030000
 20
0.350000
  0
VERTEX
  8
gg1
 10
0.070000
 20
0.350000
  0
SEQEND
  8
gg1
  0
POLYLINE
  8
gg1
 62
1
 40
0.000000
 41
0.000000
 66
  1
  0
VERTEX
  8
gg1
 10
0.050000
 20
0.330000
  0
VERTEX
  8
gg1
 10
0.050000
 20
0.370000
  0
SEQEND
  8
gg1
  0
POLYLINE
  8
gg1
 62
1
 40
0.000000
 41
0.000000
 66
  1
  0
VERTEX
  8
gg1
 10
0.030000
 20
0.450000
  0
VERTEX
  8
gg1
 10
0.070000
 20
0.450000
  0
SEQEND
  8
gg1
  0
POLYLINE
  8
gg1
 62
1
 40
0.000000
 41
0.000000
 66
  1
  0
VERTEX
  8
gg1
 10
0.050000
 20
0.430000
  0
VERTEX
  8
gg1
 10
0.050000
 20
0.470000
  0
SEQEND
  8
gg1
  0
POLYLINE
  8
gg1
 62
1
 40
0.000000
 41
0.000000
 66
  1
  0
VERTEX
  8
gg1
 10
0.030000
 20
0.950000
  0
VERTEX
  8
gg1
 10
0.070000
 20
0.950000
  0
SEQEND
  8
gg1
  0
POLYLINE
  8
gg1
 62
1
 40
0.000000
 41
0.000000
 66
  1
  0
VERTEX
  8
gg1
 10
0.050000
 20
0.930000
  0
VERTEX
  8
gg1
 10
0.050000
 20
0.970000
  0
SEQEND
  8
gg1
  0
POLYLINE
  8
gg1
 62
1
 40
0.000000
 41
0.000000
 66
  1
  0
VERTEX
  8
gg1
 10
0.030000
 20
1.050000
  0
VERTEX
  8
gg1
 10
0.070000
 20
1.050000
  0
SEQEND
  8
gg1
  0
POLYLINE
  8
gg1
 62
1
 40
0.000000
 41
0.000000
 66
  1
  0
VERTEX
  8
gg1
 10
0.050000
 20
1.030000
  0
VERTEX
  8
gg1
 10
0.050000
 20
1.070000
  0
SEQEND
  8
gg1
  0
POLYLINE
  8
gg1
 62
1
 40
0.000000
 41
0.000000
 66
  1
  0
VERTEX
  8
gg1
 10
0.030000
 20
1.150000
  0
VERTEX
  8
gg1
 10
0.070000
 20
1.150000
  0
SEQEND
  8
gg1
  0
POLYLINE
  8
gg1
 62
1
 40
0.000000
 41
0.000000
 66
  1
  0
VERTEX
  8
gg1
 10
0.050000
 20
1.130000
  0
VERTEX
  8
gg1
 10
0.050000
 20
1.170000
  0
SEQEND
  8
gg1
  0
POLYLINE
  8
gg1
 62
1
 40
0.000000
 41
0.000000
 66
  1
  0
VERTEX
  8
gg1
 10
0.927000
 20
0.537000
  0
VERTEX
  8
gg1
 10
0.987000
 20
0.537000
  0
SEQEND
  8
gg1
  0
POLYLINE
  8
gg1
 62
1
 40
0.000000
 41
0.000000
 66
  1
  0
VERTEX
  8
gg1
 10
0.957000
 20
0.507000
  0
VERTEX
  8
gg1
 10
0.957000
 20
0.567000
  0
SEQEND
  8
gg1
  0
POLYLINE
  8
gg1
 62
1
 40
0.000000
 41
0.000000
 66
  1
  0
VERTEX
  8
gg1
 10
0.927000
 20
0.674800
  0
VERTEX
  8
gg1
 10
0.987000
 20
0.674800
  0
SEQEND
  8
gg1
  0
POLYLINE
  8
gg1
 62
1
 40
0.000000
 41
0.000000
 66
  1
  0
VERTEX
  8
gg1
 10
0.957000
 20
0.644800
  0
VERTEX
  8
gg1
 10
0.957000
 20
0.704800
  0
SEQEND
  8
gg1
  0
POLYLINE
  8
gg1
 62
1
 40
0.000000
 41
0.000000
 66
  1
  0
VERTEX
  8
gg1
 10
0.927000
 20
0.948000
  0
VERTEX
  8
gg1
 10
0.987000
 20
0.948000
  0
SEQEND
  8
gg1
  0
POLYLINE
  8
gg1
 62
1
 40
0.000000
 41
0.000000
 66
  1
  0
VERTEX
  8
gg1
 10
0.957000
 20
0.918000
  0
VERTEX
  8
gg1
 10
0.957000
 20
0.978000
  0
SEQEND
  8
gg1
  0
POLYLINE
  8
gg1
 62
1
 40
0.000000
 41
0.000000
 66
  1
  0
VERTEX
  8
gg1
 10
0.927000
 20
0.810200
  0
VERTEX
  8
gg1
 10
0.987000
 20
0.810200
  0
SEQEND
  8
gg1
  0
POLYLINE
  8
gg1
 62
1
 40
0.000000
 41
0.000000
 66
  1
  0
VERTEX
  8
gg1
 10
0.957000
 20
0.780200
  0
VERTEX
  8
gg1
 10
0.957000
 20
0.840200
  0
SEQEND
  8
gg1
  0
POLYLINE
  8
gg1
 62
1
 40
0.000000
 41
0.000000
 66
  1
  0
VERTEX
  8
gg1
 10
0.927000
 20
1.087000
  0
VERTEX
  8
gg1
 10
0.987000
 20
1.087000
  0
SEQEND
  8
gg1
  0
POLYLINE
  8
gg1
 62
1
 40
0.000000
 41
0.000000
 66
  1
  0
VERTEX
  8
gg1
 10
0.957000
 20
1.057000
  0
VERTEX
  8
gg1
 10
0.957000
 20
1.117000
  0
SEQEND
  8
gg1
  0
POLYLINE
  8
gg1
 62
1
 40
0.000000
 41
0.000000
 66
  1
  0
VERTEX
  8
gg1
 10
0.927000
 20
1.224800
  0
VERTEX
  8
gg1
 10
0.987000
 20
1.224800
  0
SEQEND
  8
gg1
  0
POLYLINE
  8
gg1
 62
1
 40
0.000000
 41
0.000000
 66
  1
  0
VERTEX
  8
gg1
 10
0.957000
 20
1.194800
  0
VERTEX
  8
gg1
 10
0.957000
 20
1.254800
  0
SEQEND
  8
gg1
  0
POLYLINE
  8
gg1
 62
1
 40
0.000000
 41
0.000000
 66
  1
  0
VERTEX
  8
gg1
 10
0.130000
 20
0.550000
  0
VERTEX
  8
gg1
 10
0.170000
 20
0.550000
  0
SEQEND
  8
gg1
  0
POLYLINE
  8
gg1
 62
1
 40
0.000000
 41
0.000000
 66
  1
  0
VERTEX
  8
gg1
 10
0.150000
 20
0.530000
  0
VERTEX
  8
gg1
 10
0.150000
 20
0.570000
  0
SEQEND
  8
gg1
  0
POLYLINE
  8
gg1
 62
1
 40
0.000000
 41
0.000000
 66
  1
  0
VERTEX
  8
gg1
 10
0.130000
 20
0.650000
  0
VERTEX
  8
gg1
 10
0.170000
 20
0.650000
  0
SEQEND
  8
gg1
  0
POLYLINE
  8
gg1
 62
1
 40
0.000000
 41
0.000000
 66
  1
  0
VERTEX
  8
gg1
 10
0.150000
 20
0.630000
  0
VERTEX
  8
gg1
 10
0.150000
 20
0.670000
  0
SEQEND
  8
gg1
  0
POLYLINE
  8
gg1
 62
1
 40
0.000000
 41
0.000000
 66
  1
  0
VERTEX
  8
gg1
 10
0.130000
 20
0.950000
  0
VERTEX
  8
gg1
 10
0.170000
 20
0.950000
  0
SEQEND
  8
gg1
  0
POLYLINE
  8
gg1
 62
1
 40
0.000000
 41
0.000000
 66
  1
  0
VERTEX
  8
gg1
 10
0.150000
 20
0.930000
  0
VERTEX
  8
gg1
 10
0.150000
 20
0.970000
  0
SEQEND
  8
gg1
  0
POLYLINE
  8
gg1
 62
1
 40
0.000000
 41
0.000000
 66
  1
  0
VERTEX
  8
gg1
 10
0.130000
 20
1.050000
  0
VERTEX
  8
gg1
 10
0.170000
 20
1.050000
  0
SEQEND
  8
gg1
  0
POLYLINE
  8
gg1
 62
1
 40
0.000000
 41
0.000000
 66
  1
  0
VERTEX
  8
gg1
 10
0.150000
 20
1.030000
  0
VERTEX
  8
gg1
 10
0.150000
 20
1.070000
  0
SEQEND
  8
gg1
  0
POLYLINE
  8
gg1
 62
1
 40
0.000000
 41
0.000000
 66
  1
  0
VERTEX
  8
gg1
 10
0.130000
 20
1.150000
  0
VERTEX
  8
gg1
 10
0.170000
 20
1.150000
  0
SEQEND
  8
gg1
  0
POLYLINE
  8
gg1
 62
1
 40
0.000000
 41
0.000000
 66
  1
  0
VERTEX
  8
gg1
 10
0.150000
 20
1.130000
  0
VERTEX
  8
gg1
 10
0.150000
 20
1.170000
  0
SEQEND
  8
gg1
  0
POLYLINE
  8
gg1
 62
1
 40
0.000000
 41
0.000000
 66
  1
  0
VERTEX
  8
gg1
 10
0.957000
 20
1.700000
  0
VERTEX
  8
gg1
 10
1.043000
 20
1.700000
  0
SEQEND
  8
gg1
  0
POLYLINE
  8
gg1
 62
1
 40
0.000000
 41
0.000000
 66
  1
  0
VERTEX
  8
gg1
 10
1.000000
 20
1.657000
  0
VERTEX
  8
gg1
 10
1.000000
 20
1.743000
  0
SEQEND
  8
gg1
  0
POLYLINE
  8
gg1
 62
1
 40
0.000000
 41
0.000000
 66
  1
  0
VERTEX
  8
gg1
 10
0.957000
 20
0.100000
  0
VERTEX
  8
gg1
 10
1.043000
 20
0.100000
  0
SEQEND
  8
gg1
  0
POLYLINE
  8
gg1
 62
1
 40
0.000000
 41
0.000000
 66
  1
  0
VERTEX
  8
gg1
 10
1.000000
 20
0.057000
  0
VERTEX
  8
gg1
 10
1.000000
 20
0.143000
  0
SEQEND
  8
gg1
  0
POLYLINE
  8
gg1
 62
1
 40
0.000000
 41
0.000000
 66
  1
  0
VERTEX
  8
gg1
 10
0.271500
 20
1.129000
  0
VERTEX
  8
gg1
 10
0.286500
 20
1.129000
  0
SEQEND
  8
gg1
  0
POLYLINE
  8
gg1
 62
1
 40
0.000000
 41
0.000000
 66
  1
  0
VERTEX
  8
gg1
 10
0.279000
 20
1.121500
  0
VERTEX
  8
gg1
 10
0.279000
 20
1.136500
  0
SEQEND
  8
gg1
  0
POLYLINE
  8
gg1
 62
1
 40
0.000000
 41
0.000000
 66
  1
  0
VERTEX
  8
gg1
 10
1.037500
 20
1.540000
  0
VERTEX
  8
gg1
 10
1.052500
 20
1.540000
  0
SEQEND
  8
gg1
  0
POLYLINE
  8
gg1
 62
1
 40
0.000000
 41
0.000000
 66
  1
  0
VERTEX
  8
gg1
 10
1.045000
 20
1.532500
  0
VERTEX
  8
gg1
 10
1.045000
 20
1.547500
  0
SEQEND
  8
gg1
  0
POLYLINE
  8
gg1
 62
1
 40
0.000000
 41
0.000000
 66
  1
  0
VERTEX
  8
gg1
 10
0.347500
 20
1.130000
  0
VERTEX
  8
gg1
 10
0.362500
 20
1.130000
  0
SEQEND
  8
gg1
  0
POLYLINE
  8
gg1
 62
1
 40
0.000000
 41
0.000000
 66
  1
  0
VERTEX
  8
gg1
 10
0.355000
 20
1.122500
  0
VERTEX
  8
gg1
 10
0.355000
 20
1.137500
  0
SEQEND
  8
gg1
  0
POLYLINE
  8
gg1
 62
1
 40
0.000000
 41
0.000000
 66
  1
  0
VERTEX
  8
gg1
 10
0.302500
 20
1.225000
  0
VERTEX
  8
gg1
 10
0.317500
 20
1.225000
  0
SEQEND
  8
gg1
  0
POLYLINE
  8
gg1
 62
1
 40
0.000000
 41
0.000000
 66
  1
  0
VERTEX
  8
gg1
 10
0.310000
 20
1.217500
  0
VERTEX
  8
gg1
 10
0.310000
 20
1.232500
  0
SEQEND
  8
gg1
  0
POLYLINE
  8
gg1
 62
1
 40
0.000000
 41
0.000000
 66
  1
  0
VERTEX
  8
gg1
 10
0.367500
 20
1.420000
  0
VERTEX
  8
gg1
 10
0.382500
 20
1.420000
  0
SEQEND
  8
gg1
  0
POLYLINE
  8
gg1
 62
1
 40
0.000000
 41
0.000000
 66
  1
  0
VERTEX
  8
gg1
 10
0.375000
 20
1.412500
  0
VERTEX
  8
gg1
 10
0.375000
 20
1.427500
  0
SEQEND
  8
gg1
  0
POLYLINE
  8
gg1
 62
1
 40
0.000000
 41
0.000000
 66
  1
  0
VERTEX
  8
gg1
 10
0.407500
 20
1.435000
  0
VERTEX
  8
gg1
 10
0.422500
 20
1.435000
  0
SEQEND
  8
gg1
  0
POLYLINE
  8
gg1
 62
1
 40
0.000000
 41
0.000000
 66
  1
  0
VERTEX
  8
gg1
 10
0.415000
 20
1.427500
  0
VERTEX
  8
gg1
 10
0.415000
 20
1.442500
  0
SEQEND
  8
gg1
  0
POLYLINE
  8
gg1
 62
1
 40
0.000000
 41
0.000000
 66
  1
  0
VERTEX
  8
gg1
 10
0.112500
 20
0.100000
  0
VERTEX
  8
gg1
 10
0.127500
 20
0.100000
  0
SEQEND
  8
gg1
  0
POLYLINE
  8
gg1
 62
1
 40
0.000000
 41
0.000000
 66
  1
  0
VERTEX
  8
gg1
 10
0.120000
 20
0.092500
  0
VERTEX
  8
gg1
 10
0.120000
 20
0.107500
  0
SEQEND
  8
gg1
  0
POLYLINE
  8
gg1
 62
1
 40
0.000000
 41
0.000000
 66
  1
  0
VERTEX
  8
gg1
 10
0.203500
 20
0.716000
  0
VERTEX
  8
gg1
 10
0.218500
 20
0.716000
  0
SEQEND
  8
gg1
  0
POLYLINE
  8
gg1
 62
1
 40
0.000000
 41
0.000000
 66
  1
  0
VERTEX
  8
gg1
 10
0.211000
 20
0.708500
  0
VERTEX
  8
gg1
 10
0.211000
 20
0.723500
  0
SEQEND
  8
gg1
  0
POLYLINE
  8
gg1
 62
1
 40
0.000000
 41
0.000000
 66
  1
  0
VERTEX
  8
gg1
 10
0.967500
 20
0.350000
  0
VERTEX
  8
gg1
 10
0.982500
 20
0.350000
  0
SEQEND
  8
gg1
  0
POLYLINE
  8
gg1
 62
1
 40
0.000000
 41
0.000000
 66
  1
  0
VERTEX
  8
gg1
 10
0.975000
 20
0.342500
  0
VERTEX
  8
gg1
 10
0.975000
 20
0.357500
  0
SEQEND
  8
gg1
  0
POLYLINE
  8
gg1
 62
1
 40
0.000000
 41
0.000000
 66
  1
  0
VERTEX
  8
gg1
 10
0.932500
 20
0.315000
  0
VERTEX
  8
gg1
 10
0.947500
 20
0.315000
  0
SEQEND
  8
gg1
  0
POLYLINE
  8
gg1
 62
1
 40
0.000000
 41
0.000000
 66
  1
  0
VERTEX
  8
gg1
 10
0.940000
 20
0.307500
  0
VERTEX
  8
gg1
 10
0.940000
 20
0.322500
  0
SEQEND
  8
gg1
  0
POLYLINE
  8
gg1
 62
1
 40
0.000000
 41
0.000000
 66
  1
  0
VERTEX
  8
gg1
 10
0.967500
 20
0.315000
  0
VERTEX
  8
gg1
 10
0.982500
 20
0.315000
  0
SEQEND
  8
gg1
  0
POLYLINE
  8
gg1
 62
1
 40
0.000000
 41
0.000000
 66
  1
  0
VERTEX
  8
gg1
 10
0.975000
 20
0.307500
  0
VERTEX
  8
gg1
 10
0.975000
 20
0.322500
  0
SEQEND
  8
gg1
  0
POLYLINE
  8
gg1
 62
1
 40
0.000000
 41
0.000000
 66
  1
  0
VERTEX
  8
gg1
 10
0.897500
 20
0.180000
  0
VERTEX
  8
gg1
 10
0.912500
 20
0.180000
  0
SEQEND
  8
gg1
  0
POLYLINE
  8
gg1
 62
1
 40
0.000000
 41
0.000000
 66
  1
  0
VERTEX
  8
gg1
 10
0.905000
 20
0.172500
  0
VERTEX
  8
gg1
 10
0.905000
 20
0.187500
  0
SEQEND
  8
gg1
  0
POLYLINE
  8
gg1
 62
1
 40
0.000000
 41
0.000000
 66
  1
  0
VERTEX
  8
gg1
 10
0.967500
 20
0.210000
  0
VERTEX
  8
gg1
 10
0.982500
 20
0.210000
  0
SEQEND
  8
gg1
  0
POLYLINE
  8
gg1
 62
1
 40
0.000000
 41
0.000000
 66
  1
  0
VERTEX
  8
gg1
 10
0.975000
 20
0.202500
  0
VERTEX
  8
gg1
 10
0.975000
 20
0.217500
  0
SEQEND
  8
gg1
  0
POLYLINE
  8
gg1
 62
1
 40
0.000000
 41
0.000000
 66
  1
  0
VERTEX
  8
gg1
 10
0.932500
 20
0.210000
  0
VERTEX
  8
gg1
 10
0.947500
 20
0.210000
  0
SEQEND
  8
gg1
  0
POLYLINE
  8
gg1
 62
1
 40
0.000000
 41
0.000000
 66
  1
  0
VERTEX
  8
gg1
 10
0.940000
 20
0.202500
  0
VERTEX
  8
gg1
 10
0.940000
 20
0.217500
  0
SEQEND
  8
gg1
  0
POLYLINE
  8
gg1
 62
1
 40
0.000000
 41
0.000000
 66
  1
  0
VERTEX
  8
gg1
 10
0.897500
 20
0.210000
  0
VERTEX
  8
gg1
 10
0.912500
 20
0.210000
  0
SEQEND
  8
gg1
  0
POLYLINE
  8
gg1
 62
1
 40
0.000000
 41
0.000000
 66
  1
  0
VERTEX
  8
gg1
 10
0.905000
 20
0.202500
  0
VERTEX
  8
gg1
 10
0.905000
 20
0.217500
  0
SEQEND
  8
gg1
  0
POLYLINE
  8
gg1
 62
1
 40
0.000000
 41
0.000000
 66
  1
  0
VERTEX
  8
gg1
 10
0.402500
 20
1.025000
  0
VERTEX
  8
gg1
 10
0.417500
 20
1.025000
  0
SEQEND
  8
gg1
  0
POLYLINE
  8
gg1
 62
1
 40
0.000000
 41
0.000000
 66
  1
  0
VERTEX
  8
gg1
 10
0.410000
 20
1.017500
  0
VERTEX
  8
gg1
 10
0.410000
 20
1.032500
  0
SEQEND
  8
gg1
  0
POLYLINE
  8
gg1
 62
1
 40
0.000000
 41
0.000000
 66
  1
  0
VERTEX
  8
gg1
 10
0.242500
 20
0.755000
  0
VERTEX
  8
gg1
 10
0.257500
 20
0.755000
  0
SEQEND
  8
gg1
  0
POLYLINE
  8
gg1
 62
1
 40
0.000000
 41
0.000000
 66
  1
  0
VERTEX
  8
gg1
 10
0.250000
 20
0.747500
  0
VERTEX
  8
gg1
 10
0.250000
 20
0.762500
  0
SEQEND
  8
gg1
  0
POLYLINE
  8
gg1
 62
1
 40
0.000000
 41
0.000000
 66
  1
  0
VERTEX
  8
gg1
 10
0.590900
 20
0.675700
  0
VERTEX
  8
gg1
 10
0.605900
 20
0.675700
  0
SEQEND
  8
gg1
  0
POLYLINE
  8
gg1
 62
1
 40
0.000000
 41
0.000000
 66
  1
  0
VERTEX
  8
gg1
 10
0.598400
 20
0.668200
  0
VERTEX
  8
gg1
 10
0.598400
 20
0.683200
  0
SEQEND
  8
gg1
  0
POLYLINE
  8
gg1
 62
1
 40
0.000000
 41
0.000000
 66
  1
  0
VERTEX
  8
gg1
 10
0.535800
 20
0.675700
  0
VERTEX
  8
gg1
 10
0.550800
 20
0.675700
  0
SEQEND
  8
gg1
  0
POLYLINE
  8
gg1
 62
1
 40
0.000000
 41
0.000000
 66
  1
  0
VERTEX
  8
gg1
 10
0.543300
 20
0.668200
  0
VERTEX
  8
gg1
 10
0.543300
 20
0.683200
  0
SEQEND
  8
gg1
  0
POLYLINE
  8
gg1
 62
1
 40
0.000000
 41
0.000000
 66
  1
  0
VERTEX
  8
gg1
 10
0.646100
 20
0.675700
  0
VERTEX
  8
gg1
 10
0.661100
 20
0.675700
  0
SEQEND
  8
gg1
  0
POLYLINE
  8
gg1
 62
1
 40
0.000000
 41
0.000000
 66
  1
  0
VERTEX
  8
gg1
 10
0.653600
 20
0.668200
  0
VERTEX
  8
gg1
 10
0.653600
 20
0.683200
  0
SEQEND
  8
gg1
  0
POLYLINE
  8
gg1
 62
1
 40
0.000000
 41
0.000000
 66
  1
  0
VERTEX
  8
gg1
 10
0.701200
 20
0.675700
  0
VERTEX
  8
gg1
 10
0.716200
 20
0.675700
  0
SEQEND
  8
gg1
  0
POLYLINE
  8
gg1
 62
1
 40
0.000000
 41
0.000000
 66
  1
  0
VERTEX
  8
gg1
 10
0.708700
 20
0.668200
  0
VERTEX
  8
gg1
 10
0.708700
 20
0.683200
  0
SEQEND
  8
gg1
  0
POLYLINE
  8
gg1
 62
1
 40
0.000000
 41
0.000000
 66
  1
  0
VERTEX
  8
gg1
 10
0.535800
 20
0.620600
  0
VERTEX
  8
gg1
 10
0.550800
 20
0.620600
  0
SEQEND
  8
gg1
  0
POLYLINE
  8
gg1
 62
1
 40
0.000000
 41
0.000000
 66
  1
  0
VERTEX
  8
gg1
 10
0.543300
 20
0.613100
  0
VERTEX
  8
gg1
 10
0.543300
 20
0.628100
  0
SEQEND
  8
gg1
  0
POLYLINE
  8
gg1
 62
1
 40
0.000000
 41
0.000000
 66
  1
  0
VERTEX
  8
gg1
 10
0.590900
 20
0.620600
  0
VERTEX
  8
gg1
 10
0.605900
 20
0.620600
  0
SEQEND
  8
gg1
  0
POLYLINE
  8
gg1
 62
1
 40
0.000000
 41
0.000000
 66
  1
  0
VERTEX
  8
gg1
 10
0.598400
 20
0.613100
  0
VERTEX
  8
gg1
 10
0.598400
 20
0.628100
  0
SEQEND
  8
gg1
  0
POLYLINE
  8
gg1
 62
1
 40
0.000000
 41
0.000000
 66
  1
  0
VERTEX
  8
gg1
 10
0.646100
 20
0.620600
  0
VERTEX
  8
gg1
 10
0.661100
 20
0.620600
  0
SEQEND
  8
gg1
  0
POLYLINE
  8
gg1
 62
1
 40
0.000000
 41
0.000000
 66
  1
  0
VERTEX
  8
gg1
 10
0.653600
 20
0.613100
  0
VERTEX
  8
gg1
 10
0.653600
 20
0.628100
  0
SEQEND
  8
gg1
  0
POLYLINE
  8
gg1
 62
1
 40
0.000000
 41
0.000000
 66
  1
  0
VERTEX
  8
gg1
 10
0.701200
 20
0.620600
  0
VERTEX
  8
gg1
 10
0.716200
 20
0.620600
  0
SEQEND
  8
gg1
  0
POLYLINE
  8
gg1
 62
1
 40
0.000000
 41
0.000000
 66
  1
  0
VERTEX
  8
gg1
 10
0.708700
 20
0.613100
  0
VERTEX
  8
gg1
 10
0.708700
 20
0.628100
  0
SEQEND
  8
gg1
  0
POLYLINE
  8
gg1
 62
1
 40
0.000000
 41
0.000000
 66
  1
  0
VERTEX
  8
gg1
 10
0.535800
 20
0.565400
  0
VERTEX
  8
gg1
 10
0.550800
 20
0.565400
  0
SEQEND
  8
gg1
  0
POLYLINE
  8
gg1
 62
1
 40
0.000000
 41
0.000000
 66
  1
  0
VERTEX
  8
gg1
 10
0.543300
 20
0.557900
  0
VERTEX
  8
gg1
 10
0.543300
 20
0.572900
  0
SEQEND
  8
gg1
  0
POLYLINE
  8
gg1
 62
1
 40
0.000000
 41
0.000000
 66
  1
  0
VERTEX
  8
gg1
 10
0.590900
 20
0.565400
  0
VERTEX
  8
gg1
 10
0.605900
 20
0.565400
  0
SEQEND
  8
gg1
  0
POLYLINE
  8
gg1
 62
1
 40
0.000000
 41
0.000000
 66
  1
  0
VERTEX
  8
gg1
 10
0.598400
 20
0.557900
  0
VERTEX
  8
gg1
 10
0.598400
 20
0.572900
  0
SEQEND
  8
gg1
  0
POLYLINE
  8
gg1
 62
1
 40
0.000000
 41
0.000000
 66
  1
  0
VERTEX
  8
gg1
 10
0.646100
 20
0.565400
  0
VERTEX
  8
gg1
 10
0.661100
 20
0.565400
  0
SEQEND
  8
gg1
  0
POLYLINE
  8
gg1
 62
1
 40
0.000000
 41
0.000000
 66
  1
  0
VERTEX
  8
gg1
 10
0.653600
 20
0.557900
  0
VERTEX
  8
gg1
 10
0.653600
 20
0.572900
  0
SEQEND
  8
gg1
  0
POLYLINE
  8
gg1
 62
1
 40
0.000000
 41
0.000000
 66
  1
  0
VERTEX
  8
gg1
 10
0.701200
 20
0.565400
  0
VERTEX
  8
gg1
 10
0.716200
 20
0.565400
  0
SEQEND
  8
gg1
  0
POLYLINE
  8
gg1
 62
1
 40
0.000000
 41
0.000000
 66
  1
  0
VERTEX
  8
gg1
 10
0.708700
 20
0.557900
  0
VERTEX
  8
gg1
 10
0.708700
 20
0.572900
  0
SEQEND
  8
gg1
  0
POLYLINE
  8
gg1
 62
1
 40
0.000000
 41
0.000000
 66
  1
  0
VERTEX
  8
gg1
 10
0.535800
 20
0.510300
  0
VERTEX
  8
gg1
 10
0.550800
 20
0.510300
  0
SEQEND
  8
gg1
  0
POLYLINE
  8
gg1
 62
1
 40
0.000000
 41
0.000000
 66
  1
  0
VERTEX
  8
gg1
 10
0.543300
 20
0.502800
  0
VERTEX
  8
gg1
 10
0.543300
 20
0.517800
  0
SEQEND
  8
gg1
  0
POLYLINE
  8
gg1
 62
1
 40
0.000000
 41
0.000000
 66
  1
  0
VERTEX
  8
gg1
 10
0.590900
 20
0.510300
  0
VERTEX
  8
gg1
 10
0.605900
 20
0.510300
  0
SEQEND
  8
gg1
  0
POLYLINE
  8
gg1
 62
1
 40
0.000000
 41
0.000000
 66
  1
  0
VERTEX
  8
gg1
 10
0.598400
 20
0.502800
  0
VERTEX
  8
gg1
 10
0.598400
 20
0.517800
  0
SEQEND
  8
gg1
  0
POLYLINE
  8
gg1
 62
1
 40
0.000000
 41
0.000000
 66
  1
  0
VERTEX
  8
gg1
 10
0.646100
 20
0.510300
  0
VERTEX
  8
gg1
 10
0.661100
 20
0.510300
  0
SEQEND
  8
gg1
  0
POLYLINE
  8
gg1
 62
1
 40
0.000000
 41
0.000000
 66
  1
  0
VERTEX
  8
gg1
 10
0.653600
 20
0.502800
  0
VERTEX
  8
gg1
 10
0.653600
 20
0.517800
  0
SEQEND
  8
gg1
  0
POLYLINE
  8
gg1
 62
1
 40
0.000000
 41
0.000000
 66
  1
  0
VERTEX
  8
gg1
 10
0.701200
 20
0.510300
  0
VERTEX
  8
gg1
 10
0.716200
 20
0.510300
  0
SEQEND
  8
gg1
  0
POLYLINE
  8
gg1
 62
1
 40
0.000000
 41
0.000000
 66
  1
  0
VERTEX
  8
gg1
 10
0.708700
 20
0.502800
  0
VERTEX
  8
gg1
 10
0.708700
 20
0.517800
  0
SEQEND
  8
gg1
  0
POLYLINE
  8
gg1
 62
1
 40
0.000000
 41
0.000000
 66
  1
  0
VERTEX
  8
gg1
 10
0.197500
 20
0.120000
  0
VERTEX
  8
gg1
 10
0.212500
 20
0.120000
  0
SEQEND
  8
gg1
  0
POLYLINE
  8
gg1
 62
1
 40
0.000000
 41
0.000000
 66
  1
  0
VERTEX
  8
gg1
 10
0.205000
 20
0.112500
  0
VERTEX
  8
gg1
 10
0.205000
 20
0.127500
  0
SEQEND
  8
gg1
  0
POLYLINE
  8
gg1
 62
1
 40
0.000000
 41
0.000000
 66
  1
  0
VERTEX
  8
gg1
 10
0.197500
 20
0.080000
  0
VERTEX
  8
gg1
 10
0.212500
 20
0.080000
  0
SEQEND
  8
gg1
  0
POLYLINE
  8
gg1
 62
1
 40
0.000000
 41
0.000000
 66
  1
  0
VERTEX
  8
gg1
 10
0.205000
 20
0.072500
  0
VERTEX
  8
gg1
 10
0.205000
 20
0.087500
  0
SEQEND
  8
gg1
  0
POLYLINE
  8
gg1
 62
1
 40
0.000000
 41
0.000000
 66
  1
  0
VERTEX
  8
gg1
 10
0.307500
 20
0.080000
  0
VERTEX
  8
gg1
 10
0.322500
 20
0.080000
  0
SEQEND
  8
gg1
  0
POLYLINE
  8
gg1
 62
1
 40
0.000000
 41
0.000000
 66
  1
  0
VERTEX
  8
gg1
 10
0.315000
 20
0.072500
  0
VERTEX
  8
gg1
 10
0.315000
 20
0.087500
  0
SEQEND
  8
gg1
  0
POLYLINE
  8
gg1
 62
1
 40
0.000000
 41
0.000000
 66
  1
  0
VERTEX
  8
gg1
 10
0.392500
 20
0.080000
  0
VERTEX
  8
gg1
 10
0.407500
 20
0.080000
  0
SEQEND
  8
gg1
  0
POLYLINE
  8
gg1
 62
1
 40
0.000000
 41
0.000000
 66
  1
  0
VERTEX
  8
gg1
 10
0.400000
 20
0.072500
  0
VERTEX
  8
gg1
 10
0.400000
 20
0.087500
  0
SEQEND
  8
gg1
  0
POLYLINE
  8
gg1
 62
1
 40
0.000000
 41
0.000000
 66
  1
  0
VERTEX
  8
gg1
 10
0.307500
 20
0.120000
  0
VERTEX
  8
gg1
 10
0.322500
 20
0.120000
  0
SEQEND
  8
gg1
  0
POLYLINE
  8
gg1
 62
1
 40
0.000000
 41
0.000000
 66
  1
  0
VERTEX
  8
gg1
 10
0.315000
 20
0.112500
  0
VERTEX
  8
gg1
 10
0.315000
 20
0.127500
  0
SEQEND
  8
gg1
  0
POLYLINE
  8
gg1
 62
1
 40
0.000000
 41
0.000000
 66
  1
  0
VERTEX
  8
gg1
 10
0.307500
 20
0.160000
  0
VERTEX
  8
gg1
 10
0.322500
 20
0.160000
  0
SEQEND
  8
gg1
  0
POLYLINE
  8
gg1
 62
1
 40
0.000000
 41
0.000000
 66
  1
  0
VERTEX
  8
gg1
 10
0.315000
 20
0.152500
  0
VERTEX
  8
gg1
 10
0.315000
 20
0.167500
  0
SEQEND
  8
gg1
  0
POLYLINE
  8
gg1
 62
1
 40
0.000000
 41
0.000000
 66
  1
  0
VERTEX
  8
gg1
 10
0.392500
 20
0.185000
  0
VERTEX
  8
gg1
 10
0.407500
 20
0.185000
  0
SEQEND
  8
gg1
  0
POLYLINE
  8
gg1
 62
1
 40
0.000000
 41
0.000000
 66
  1
  0
VERTEX
  8
gg1
 10
0.400000
 20
0.177500
  0
VERTEX
  8
gg1
 10
0.400000
 20
0.192500
  0
SEQEND
  8
gg1
  0
POLYLINE
  8
gg1
 62
1
 40
0.000000
 41
0.000000
 66
  1
  0
VERTEX
  8
gg1
 10
0.472500
 20
0.080000
  0
VERTEX
  8
gg1
 10
0.487500
 20
0.080000
  0
SEQEND
  8
gg1
  0
POLYLINE
  8
gg1
 62
1
 40
0.000000
 41
0.000000
 66
  1
  0
VERTEX
  8
gg1
 10
0.480000
 20
0.072500
  0
VERTEX
  8
gg1
 10
0.480000
 20
0.087500
  0
SEQEND
  8
gg1
  0
POLYLINE
  8
gg1
 62
1
 40
0.000000
 41
0.000000
 66
  1
  0
VERTEX
  8
gg1
 10
0.472500
 20
0.125000
  0
VERTEX
  8
gg1
 10
0.487500
 20
0.125000
  0
SEQEND
  8
gg1
  0
POLYLINE
  8
gg1
 62
1
 40
0.000000
 41
0.000000
 66
  1
  0
VERTEX
  8
gg1
 10
0.480000
 20
0.117500
  0
VERTEX
  8
gg1
 10
0.480000
 20
0.132500
  0
SEQEND
  8
gg1
  0
POLYLINE
  8
gg1
 62
1
 40
0.000000
 41
0.000000
 66
  1
  0
VERTEX
  8
gg1
 10
0.472500
 20
0.165000
  0
VERTEX
  8
gg1
 10
0.487500
 20
0.165000
  0
SEQEND
  8
gg1
  0
POLYLINE
  8
gg1
 62
1
 40
0.000000
 41
0.000000
 66
  1
  0
VERTEX
  8
gg1
 10
0.480000
 20
0.157500
  0
VERTEX
  8
gg1
 10
0.480000
 20
0.172500
  0
SEQEND
  8
gg1
  0
POLYLINE
  8
gg1
 62
1
 40
0.000000
 41
0.000000
 66
  1
  0
VERTEX
  8
gg1
 10
0.582500
 20
0.080000
  0
VERTEX
  8
gg1
 10
0.597500
 20
0.080000
  0
SEQEND
  8
gg1
  0
POLYLINE
  8
gg1
 62
1
 40
0.000000
 41
0.000000
 66
  1
  0
VERTEX
  8
gg1
 10
0.590000
 20
0.072500
  0
VERTEX
  8
gg1
 10
0.590000
 20
0.087500
  0
SEQEND
  8
gg1
  0
POLYLINE
  8
gg1
 62
1
 40
0.000000
 41
0.000000
 66
  1
  0
VERTEX
  8
gg1
 10
0.582500
 20
0.125000
  0
VERTEX
  8
gg1
 10
0.597500
 20
0.125000
  0
SEQEND
  8
gg1
  0
POLYLINE
  8
gg1
 62
1
 40
0.000000
 41
0.000000
 66
  1
  0
VERTEX
  8
gg1
 10
0.590000
 20
0.117500
  0
VERTEX
  8
gg1
 10
0.590000
 20
0.132500
  0
SEQEND
  8
gg1
  0
POLYLINE
  8
gg1
 62
1
 40
0.000000
 41
0.000000
 66
  1
  0
VERTEX
  8
gg1
 10
0.707500
 20
0.200000
  0
VERTEX
  8
gg1
 10
0.722500
 20
0.200000
  0
SEQEND
  8
gg1
  0
POLYLINE
  8
gg1
 62
1
 40
0.000000
 41
0.000000
 66
  1
  0
VERTEX
  8
gg1
 10
0.715000
 20
0.192500
  0
VERTEX
  8
gg1
 10
0.715000
 20
0.207500
  0
SEQEND
  8
gg1
  0
POLYLINE
  8
gg1
 62
1
 40
0.000000
 41
0.000000
 66
  1
  0
VERTEX
  8
gg1
 10
0.672500
 20
0.235000
  0
VERTEX
  8
gg1
 10
0.687500
 20
0.235000
  0
SEQEND
  8
gg1
  0
POLYLINE
  8
gg1
 62
1
 40
0.000000
 41
0.000000
 66
  1
  0
VERTEX
  8
gg1
 10
0.680000
 20
0.227500
  0
VERTEX
  8
gg1
 10
0.680000
 20
0.242500
  0
SEQEND
  8
gg1
  0
POLYLINE
  8
gg1
 62
1
 40
0.000000
 41
0.000000
 66
  1
  0
VERTEX
  8
gg1
 10
0.582500
 20
0.165000
  0
VERTEX
  8
gg1
 10
0.597500
 20
0.165000
  0
SEQEND
  8
gg1
  0
POLYLINE
  8
gg1
 62
1
 40
0.000000
 41
0.000000
 66
  1
  0
VERTEX
  8
gg1
 10
0.590000
 20
0.157500
  0
VERTEX
  8
gg1
 10
0.590000
 20
0.172500
  0
SEQEND
  8
gg1
  0
POLYLINE
  8
gg1
 62
1
 40
0.000000
 41
0.000000
 66
  1
  0
VERTEX
  8
gg1
 10
0.602500
 20
0.235000
  0
VERTEX
  8
gg1
 10
0.617500
 20
0.235000
  0
SEQEND
  8
gg1
  0
POLYLINE
  8
gg1
 62
1
 40
0.000000
 41
0.000000
 66
  1
  0
VERTEX
  8
gg1
 10
0.610000
 20
0.227500
  0
VERTEX
  8
gg1
 10
0.610000
 20
0.242500
  0
SEQEND
  8
gg1
  0
POLYLINE
  8
gg1
 62
1
 40
0.000000
 41
0.000000
 66
  1
  0
VERTEX
  8
gg1
 10
0.637500
 20
0.200000
  0
VERTEX
  8
gg1
 10
0.652500
 20
0.200000
  0
SEQEND
  8
gg1
  0
POLYLINE
  8
gg1
 62
1
 40
0.000000
 41
0.000000
 66
  1
  0
VERTEX
  8
gg1
 10
0.645000
 20
0.192500
  0
VERTEX
  8
gg1
 10
0.645000
 20
0.207500
  0
SEQEND
  8
gg1
  0
POLYLINE
  8
gg1
 62
1
 40
0.000000
 41
0.000000
 66
  1
  0
VERTEX
  8
gg1
 10
0.735500
 20
0.235000
  0
VERTEX
  8
gg1
 10
0.750500
 20
0.235000
  0
SEQEND
  8
gg1
  0
POLYLINE
  8
gg1
 62
1
 40
0.000000
 41
0.000000
 66
  1
  0
VERTEX
  8
gg1
 10
0.743000
 20
0.227500
  0
VERTEX
  8
gg1
 10
0.743000
 20
0.242500
  0
SEQEND
  8
gg1
  0
POLYLINE
  8
gg1
 62
1
 40
0.000000
 41
0.000000
 66
  1
  0
VERTEX
  8
gg1
 10
0.761500
 20
0.202000
  0
VERTEX
  8
gg1
 10
0.776500
 20
0.202000
  0
SEQEND
  8
gg1
  0
POLYLINE
  8
gg1
 62
1
 40
0.000000
 41
0.000000
 66
  1
  0
VERTEX
  8
gg1
 10
0.769000
 20
0.194500
  0
VERTEX
  8
gg1
 10
0.769000
 20
0.209500
  0
SEQEND
  8
gg1
  0
POLYLINE
  8
gg1
 62
1
 40
0.000000
 41
0.000000
 66
  1
  0
VERTEX
  8
gg1
 10
1.037500
 20
1.495000
  0
VERTEX
  8
gg1
 10
1.052500
 20
1.495000
  0
SEQEND
  8
gg1
  0
POLYLINE
  8
gg1
 62
1
 40
0.000000
 41
0.000000
 66
  1
  0
VERTEX
  8
gg1
 10
1.045000
 20
1.487500
  0
VERTEX
  8
gg1
 10
1.045000
 20
1.502500
  0
SEQEND
  8
gg1
  0
POLYLINE
  8
gg1
 62
1
 40
0.000000
 41
0.000000
 66
  1
  0
VERTEX
  8
gg1
 10
1.037500
 20
1.450000
  0
VERTEX
  8
gg1
 10
1.052500
 20
1.450000
  0
SEQEND
  8
gg1
  0
POLYLINE
  8
gg1
 62
1
 40
0.000000
 41
0.000000
 66
  1
  0
VERTEX
  8
gg1
 10
1.045000
 20
1.442500
  0
VERTEX
  8
gg1
 10
1.045000
 20
1.457500
  0
SEQEND
  8
gg1
  0
POLYLINE
  8
gg1
 62
1
 40
0.000000
 41
0.000000
 66
  1
  0
VERTEX
  8
gg1
 10
0.672500
 20
1.540000
  0
VERTEX
  8
gg1
 10
0.687500
 20
1.540000
  0
SEQEND
  8
gg1
  0
POLYLINE
  8
gg1
 62
1
 40
0.000000
 41
0.000000
 66
  1
  0
VERTEX
  8
gg1
 10
0.680000
 20
1.532500
  0
VERTEX
  8
gg1
 10
0.680000
 20
1.547500
  0
SEQEND
  8
gg1
  0
POLYLINE
  8
gg1
 62
1
 40
0.000000
 41
0.000000
 66
  1
  0
VERTEX
  8
gg1
 10
0.637500
 20
1.540000
  0
VERTEX
  8
gg1
 10
0.652500
 20
1.540000
  0
SEQEND
  8
gg1
  0
POLYLINE
  8
gg1
 62
1
 40
0.000000
 41
0.000000
 66
  1
  0
VERTEX
  8
gg1
 10
0.645000
 20
1.532500
  0
VERTEX
  8
gg1
 10
0.645000
 20
1.547500
  0
SEQEND
  8
gg1
  0
POLYLINE
  8
gg1
 62
1
 40
0.000000
 41
0.000000
 66
  1
  0
VERTEX
  8
gg1
 10
0.602500
 20
1.540000
  0
VERTEX
  8
gg1
 10
0.617500
 20
1.540000
  0
SEQEND
  8
gg1
  0
POLYLINE
  8
gg1
 62
1
 40
0.000000
 41
0.000000
 66
  1
  0
VERTEX
  8
gg1
 10
0.610000
 20
1.532500
  0
VERTEX
  8
gg1
 10
0.610000
 20
1.547500
  0
SEQEND
  8
gg1
  0
POLYLINE
  8
gg1
 62
1
 40
0.000000
 41
0.000000
 66
  1
  0
VERTEX
  8
gg1
 10
0.637500
 20
1.500000
  0
VERTEX
  8
gg1
 10
0.652500
 20
1.500000
  0
SEQEND
  8
gg1
  0
POLYLINE
  8
gg1
 62
1
 40
0.000000
 41
0.000000
 66
  1
  0
VERTEX
  8
gg1
 10
0.645000
 20
1.492500
  0
VERTEX
  8
gg1
 10
0.645000
 20
1.507500
  0
SEQEND
  8
gg1
  0
POLYLINE
  8
gg1
 62
1
 40
0.000000
 41
0.000000
 66
  1
  0
VERTEX
  8
gg1
 10
0.602500
 20
1.500000
  0
VERTEX
  8
gg1
 10
0.617500
 20
1.500000
  0
SEQEND
  8
gg1
  0
POLYLINE
  8
gg1
 62
1
 40
0.000000
 41
0.000000
 66
  1
  0
VERTEX
  8
gg1
 10
0.610000
 20
1.492500
  0
VERTEX
  8
gg1
 10
0.610000
 20
1.507500
  0
SEQEND
  8
gg1
  0
POLYLINE
  8
gg1
 62
1
 40
0.000000
 41
0.000000
 66
  1
  0
VERTEX
  8
gg1
 10
0.672500
 20
1.500000
  0
VERTEX
  8
gg1
 10
0.687500
 20
1.500000
  0
SEQEND
  8
gg1
  0
POLYLINE
  8
gg1
 62
1
 40
0.000000
 41
0.000000
 66
  1
  0
VERTEX
  8
gg1
 10
0.680000
 20
1.492500
  0
VERTEX
  8
gg1
 10
0.680000
 20
1.507500
  0
SEQEND
  8
gg1
  0
POLYLINE
  8
gg1
 62
1
 40
0.000000
 41
0.000000
 66
  1
  0
VERTEX
  8
gg1
 10
0.822500
 20
1.715000
  0
VERTEX
  8
gg1
 10
0.837500
 20
1.715000
  0
SEQEND
  8
gg1
  0
POLYLINE
  8
gg1
 62
1
 40
0.000000
 41
0.000000
 66
  1
  0
VERTEX
  8
gg1
 10
0.830000
 20
1.707500
  0
VERTEX
  8
gg1
 10
0.830000
 20
1.722500
  0
SEQEND
  8
gg1
  0
POLYLINE
  8
gg1
 62
1
 40
0.000000
 41
0.000000
 66
  1
  0
VERTEX
  8
gg1
 10
0.822500
 20
1.665000
  0
VERTEX
  8
gg1
 10
0.837500
 20
1.665000
  0
SEQEND
  8
gg1
  0
POLYLINE
  8
gg1
 62
1
 40
0.000000
 41
0.000000
 66
  1
  0
VERTEX
  8
gg1
 10
0.830000
 20
1.657500
  0
VERTEX
  8
gg1
 10
0.830000
 20
1.672500
  0
SEQEND
  8
gg1
  0
POLYLINE
  8
gg1
 62
1
 40
0.000000
 41
0.000000
 66
  1
  0
VERTEX
  8
gg1
 10
0.822500
 20
1.615000
  0
VERTEX
  8
gg1
 10
0.837500
 20
1.615000
  0
SEQEND
  8
gg1
  0
POLYLINE
  8
gg1
 62
1
 40
0.000000
 41
0.000000
 66
  1
  0
VERTEX
  8
gg1
 10
0.830000
 20
1.607500
  0
VERTEX
  8
gg1
 10
0.830000
 20
1.622500
  0
SEQEND
  8
gg1
  0
POLYLINE
  8
gg1
 62
1
 40
0.000000
 41
0.000000
 66
  1
  0
VERTEX
  8
gg1
 10
0.707500
 20
1.645000
  0
VERTEX
  8
gg1
 10
0.722500
 20
1.645000
  0
SEQEND
  8
gg1
  0
POLYLINE
  8
gg1
 62
1
 40
0.000000
 41
0.000000
 66
  1
  0
VERTEX
  8
gg1
 10
0.715000
 20
1.637500
  0
VERTEX
  8
gg1
 10
0.715000
 20
1.652500
  0
SEQEND
  8
gg1
  0
POLYLINE
  8
gg1
 62
1
 40
0.000000
 41
0.000000
 66
  1
  0
VERTEX
  8
gg1
 10
0.297500
 20
1.640000
  0
VERTEX
  8
gg1
 10
0.312500
 20
1.640000
  0
SEQEND
  8
gg1
  0
POLYLINE
  8
gg1
 62
1
 40
0.000000
 41
0.000000
 66
  1
  0
VERTEX
  8
gg1
 10
0.305000
 20
1.632500
  0
VERTEX
  8
gg1
 10
0.305000
 20
1.647500
  0
SEQEND
  8
gg1
  0
POLYLINE
  8
gg1
 62
1
 40
0.000000
 41
0.000000
 66
  1
  0
VERTEX
  8
gg1
 10
0.552500
 20
1.635000
  0
VERTEX
  8
gg1
 10
0.567500
 20
1.635000
  0
SEQEND
  8
gg1
  0
POLYLINE
  8
gg1
 62
1
 40
0.000000
 41
0.000000
 66
  1
  0
VERTEX
  8
gg1
 10
0.560000
 20
1.627500
  0
VERTEX
  8
gg1
 10
0.560000
 20
1.642500
  0
SEQEND
  8
gg1
  0
POLYLINE
  8
gg1
 62
1
 40
0.000000
 41
0.000000
 66
  1
  0
VERTEX
  8
gg1
 10
0.657500
 20
1.675000
  0
VERTEX
  8
gg1
 10
0.672500
 20
1.675000
  0
SEQEND
  8
gg1
  0
POLYLINE
  8
gg1
 62
1
 40
0.000000
 41
0.000000
 66
  1
  0
VERTEX
  8
gg1
 10
0.665000
 20
1.667500
  0
VERTEX
  8
gg1
 10
0.665000
 20
1.682500
  0
SEQEND
  8
gg1
  0
POLYLINE
  8
gg1
 62
1
 40
0.000000
 41
0.000000
 66
  1
  0
VERTEX
  8
gg1
 10
0.707500
 20
1.715000
  0
VERTEX
  8
gg1
 10
0.722500
 20
1.715000
  0
SEQEND
  8
gg1
  0
POLYLINE
  8
gg1
 62
1
 40
0.000000
 41
0.000000
 66
  1
  0
VERTEX
  8
gg1
 10
0.715000
 20
1.707500
  0
VERTEX
  8
gg1
 10
0.715000
 20
1.722500
  0
SEQEND
  8
gg1
  0
POLYLINE
  8
gg1
 62
1
 40
0.000000
 41
0.000000
 66
  1
  0
VERTEX
  8
gg1
 10
0.707500
 20
1.680000
  0
VERTEX
  8
gg1
 10
0.722500
 20
1.680000
  0
SEQEND
  8
gg1
  0
POLYLINE
  8
gg1
 62
1
 40
0.000000
 41
0.000000
 66
  1
  0
VERTEX
  8
gg1
 10
0.715000
 20
1.672500
  0
VERTEX
  8
gg1
 10
0.715000
 20
1.687500
  0
SEQEND
  8
gg1
  0
POLYLINE
  8
gg1
 62
1
 40
0.000000
 41
0.000000
 66
  1
  0
VERTEX
  8
gg1
 10
0.552500
 20
1.680000
  0
VERTEX
  8
gg1
 10
0.567500
 20
1.680000
  0
SEQEND
  8
gg1
  0
POLYLINE
  8
gg1
 62
1
 40
0.000000
 41
0.000000
 66
  1
  0
VERTEX
  8
gg1
 10
0.560000
 20
1.672500
  0
VERTEX
  8
gg1
 10
0.560000
 20
1.687500
  0
SEQEND
  8
gg1
  0
POLYLINE
  8
gg1
 62
1
 40
0.000000
 41
0.000000
 66
  1
  0
VERTEX
  8
gg1
 10
0.437500
 20
1.635000
  0
VERTEX
  8
gg1
 10
0.452500
 20
1.635000
  0
SEQEND
  8
gg1
  0
POLYLINE
  8
gg1
 62
1
 40
0.000000
 41
0.000000
 66
  1
  0
VERTEX
  8
gg1
 10
0.445000
 20
1.627500
  0
VERTEX
  8
gg1
 10
0.445000
 20
1.642500
  0
SEQEND
  8
gg1
  0
POLYLINE
  8
gg1
 62
1
 40
0.000000
 41
0.000000
 66
  1
  0
VERTEX
  8
gg1
 10
0.377500
 20
1.685000
  0
VERTEX
  8
gg1
 10
0.392500
 20
1.685000
  0
SEQEND
  8
gg1
  0
POLYLINE
  8
gg1
 62
1
 40
0.000000
 41
0.000000
 66
  1
  0
VERTEX
  8
gg1
 10
0.385000
 20
1.677500
  0
VERTEX
  8
gg1
 10
0.385000
 20
1.692500
  0
SEQEND
  8
gg1
  0
POLYLINE
  8
gg1
 62
1
 40
0.000000
 41
0.000000
 66
  1
  0
VERTEX
  8
gg1
 10
0.437500
 20
1.680000
  0
VERTEX
  8
gg1
 10
0.452500
 20
1.680000
  0
SEQEND
  8
gg1
  0
POLYLINE
  8
gg1
 62
1
 40
0.000000
 41
0.000000
 66
  1
  0
VERTEX
  8
gg1
 10
0.445000
 20
1.672500
  0
VERTEX
  8
gg1
 10
0.445000
 20
1.687500
  0
SEQEND
  8
gg1
  0
POLYLINE
  8
gg1
 62
1
 40
0.000000
 41
0.000000
 66
  1
  0
VERTEX
  8
gg1
 10
0.247500
 20
1.685000
  0
VERTEX
  8
gg1
 10
0.262500
 20
1.685000
  0
SEQEND
  8
gg1
  0
POLYLINE
  8
gg1
 62
1
 40
0.000000
 41
0.000000
 66
  1
  0
VERTEX
  8
gg1
 10
0.255000
 20
1.677500
  0
VERTEX
  8
gg1
 10
0.255000
 20
1.692500
  0
SEQEND
  8
gg1
  0
POLYLINE
  8
gg1
 62
1
 40
0.000000
 41
0.000000
 66
  1
  0
VERTEX
  8
gg1
 10
0.382500
 20
1.633000
  0
VERTEX
  8
gg1
 10
0.397500
 20
1.633000
  0
SEQEND
  8
gg1
  0
POLYLINE
  8
gg1
 62
1
 40
0.000000
 41
0.000000
 66
  1
  0
VERTEX
  8
gg1
 10
0.390000
 20
1.625500
  0
VERTEX
  8
gg1
 10
0.390000
 20
1.640500
  0
SEQEND
  8
gg1
  0
POLYLINE
  8
gg1
 62
1
 40
0.000000
 41
0.000000
 66
  1
  0
VERTEX
  8
gg1
 10
0.327500
 20
1.685000
  0
VERTEX
  8
gg1
 10
0.342500
 20
1.685000
  0
SEQEND
  8
gg1
  0
POLYLINE
  8
gg1
 62
1
 40
0.000000
 41
0.000000
 66
  1
  0
VERTEX
  8
gg1
 10
0.335000
 20
1.677500
  0
VERTEX
  8
gg1
 10
0.335000
 20
1.692500
  0
SEQEND
  8
gg1
  0
POLYLINE
  8
gg1
 62
1
 40
0.000000
 41
0.000000
 66
  1
  0
VERTEX
  8
gg1
 10
0.622500
 20
1.720000
  0
VERTEX
  8
gg1
 10
0.637500
 20
1.720000
  0
SEQEND
  8
gg1
  0
POLYLINE
  8
gg1
 62
1
 40
0.000000
 41
0.000000
 66
  1
  0
VERTEX
  8
gg1
 10
0.630000
 20
1.712500
  0
VERTEX
  8
gg1
 10
0.630000
 20
1.727500
  0
SEQEND
  8
gg1
  0
POLYLINE
  8
gg1
 62
1
 40
0.000000
 41
0.000000
 66
  1
  0
VERTEX
  8
gg1
 10
0.552500
 20
1.720000
  0
VERTEX
  8
gg1
 10
0.567500
 20
1.720000
  0
SEQEND
  8
gg1
  0
POLYLINE
  8
gg1
 62
1
 40
0.000000
 41
0.000000
 66
  1
  0
VERTEX
  8
gg1
 10
0.560000
 20
1.712500
  0
VERTEX
  8
gg1
 10
0.560000
 20
1.727500
  0
SEQEND
  8
gg1
  0
POLYLINE
  8
gg1
 62
1
 40
0.000000
 41
0.000000
 66
  1
  0
VERTEX
  8
gg1
 10
0.617500
 20
1.635000
  0
VERTEX
  8
gg1
 10
0.632500
 20
1.635000
  0
SEQEND
  8
gg1
  0
POLYLINE
  8
gg1
 62
1
 40
0.000000
 41
0.000000
 66
  1
  0
VERTEX
  8
gg1
 10
0.625000
 20
1.627500
  0
VERTEX
  8
gg1
 10
0.625000
 20
1.642500
  0
SEQEND
  8
gg1
  0
POLYLINE
  8
gg1
 62
1
 40
0.000000
 41
0.000000
 66
  1
  0
VERTEX
  8
gg1
 10
0.353500
 20
0.467000
  0
VERTEX
  8
gg1
 10
0.368500
 20
0.467000
  0
SEQEND
  8
gg1
  0
POLYLINE
  8
gg1
 62
1
 40
0.000000
 41
0.000000
 66
  1
  0
VERTEX
  8
gg1
 10
0.361000
 20
0.459500
  0
VERTEX
  8
gg1
 10
0.361000
 20
0.474500
  0
SEQEND
  8
gg1
  0
POLYLINE
  8
gg1
 62
1
 40
0.000000
 41
0.000000
 66
  1
  0
VERTEX
  8
gg1
 10
0.818500
 20
0.593000
  0
VERTEX
  8
gg1
 10
0.833500
 20
0.593000
  0
SEQEND
  8
gg1
  0
POLYLINE
  8
gg1
 62
1
 40
0.000000
 41
0.000000
 66
  1
  0
VERTEX
  8
gg1
 10
0.826000
 20
0.585500
  0
VERTEX
  8
gg1
 10
0.826000
 20
0.600500
  0
SEQEND
  8
gg1
  0
POLYLINE
  8
gg1
 62
1
 40
0.000000
 41
0.000000
 66
  1
  0
VERTEX
  8
gg1
 10
0.528500
 20
0.818000
  0
VERTEX
  8
gg1
 10
0.543500
 20
0.818000
  0
SEQEND
  8
gg1
  0
POLYLINE
  8
gg1
 62
1
 40
0.000000
 41
0.000000
 66
  1
  0
VERTEX
  8
gg1
 10
0.536000
 20
0.810500
  0
VERTEX
  8
gg1
 10
0.536000
 20
0.825500
  0
SEQEND
  8
gg1
  0
POLYLINE
  8
gg1
 62
1
 40
0.000000
 41
0.000000
 66
  1
  0
VERTEX
  8
gg1
 10
0.464500
 20
0.818000
  0
VERTEX
  8
gg1
 10
0.479500
 20
0.818000
  0
SEQEND
  8
gg1
  0
POLYLINE
  8
gg1
 62
1
 40
0.000000
 41
0.000000
 66
  1
  0
VERTEX
  8
gg1
 10
0.472000
 20
0.810500
  0
VERTEX
  8
gg1
 10
0.472000
 20
0.825500
  0
SEQEND
  8
gg1
  0
POLYLINE
  8
gg1
 62
1
 40
0.000000
 41
0.000000
 66
  1
  0
VERTEX
  8
gg1
 10
0.547500
 20
0.950000
  0
VERTEX
  8
gg1
 10
0.562500
 20
0.950000
  0
SEQEND
  8
gg1
  0
POLYLINE
  8
gg1
 62
1
 40
0.000000
 41
0.000000
 66
  1
  0
VERTEX
  8
gg1
 10
0.555000
 20
0.942500
  0
VERTEX
  8
gg1
 10
0.555000
 20
0.957500
  0
SEQEND
  8
gg1
  0
POLYLINE
  8
gg1
 62
1
 40
0.000000
 41
0.000000
 66
  1
  0
VERTEX
  8
gg1
 10
0.352500
 20
0.970000
  0
VERTEX
  8
gg1
 10
0.367500
 20
0.970000
  0
SEQEND
  8
gg1
  0
POLYLINE
  8
gg1
 62
1
 40
0.000000
 41
0.000000
 66
  1
  0
VERTEX
  8
gg1
 10
0.360000
 20
0.962500
  0
VERTEX
  8
gg1
 10
0.360000
 20
0.977500
  0
SEQEND
  8
gg1
  0
POLYLINE
  8
gg1
 62
1
 40
0.000000
 41
0.000000
 66
  1
  0
VERTEX
  8
gg1
 10
0.452500
 20
0.995000
  0
VERTEX
  8
gg1
 10
0.467500
 20
0.995000
  0
SEQEND
  8
gg1
  0
POLYLINE
  8
gg1
 62
1
 40
0.000000
 41
0.000000
 66
  1
  0
VERTEX
  8
gg1
 10
0.460000
 20
0.987500
  0
VERTEX
  8
gg1
 10
0.460000
 20
1.002500
  0
SEQEND
  8
gg1
  0
POLYLINE
  8
gg1
 62
1
 40
0.000000
 41
0.000000
 66
  1
  0
VERTEX
  8
gg1
 10
0.502500
 20
0.970000
  0
VERTEX
  8
gg1
 10
0.517500
 20
0.970000
  0
SEQEND
  8
gg1
  0
POLYLINE
  8
gg1
 62
1
 40
0.000000
 41
0.000000
 66
  1
  0
VERTEX
  8
gg1
 10
0.510000
 20
0.962500
  0
VERTEX
  8
gg1
 10
0.510000
 20
0.977500
  0
SEQEND
  8
gg1
  0
POLYLINE
  8
gg1
 62
1
 40
0.000000
 41
0.000000
 66
  1
  0
VERTEX
  8
gg1
 10
0.667500
 20
0.340000
  0
VERTEX
  8
gg1
 10
0.682500
 20
0.340000
  0
SEQEND
  8
gg1
  0
POLYLINE
  8
gg1
 62
1
 40
0.000000
 41
0.000000
 66
  1
  0
VERTEX
  8
gg1
 10
0.675000
 20
0.332500
  0
VERTEX
  8
gg1
 10
0.675000
 20
0.347500
  0
SEQEND
  8
gg1
  0
POLYLINE
  8
gg1
 62
1
 40
0.000000
 41
0.000000
 66
  1
  0
VERTEX
  8
gg1
 10
0.632500
 20
0.340000
  0
VERTEX
  8
gg1
 10
0.647500
 20
0.340000
  0
SEQEND
  8
gg1
  0
POLYLINE
  8
gg1
 62
1
 40
0.000000
 41
0.000000
 66
  1
  0
VERTEX
  8
gg1
 10
0.640000
 20
0.332500
  0
VERTEX
  8
gg1
 10
0.640000
 20
0.347500
  0
SEQEND
  8
gg1
  0
POLYLINE
  8
gg1
 62
1
 40
0.000000
 41
0.000000
 66
  1
  0
VERTEX
  8
gg1
 10
0.667500
 20
0.370000
  0
VERTEX
  8
gg1
 10
0.682500
 20
0.370000
  0
SEQEND
  8
gg1
  0
POLYLINE
  8
gg1
 62
1
 40
0.000000
 41
0.000000
 66
  1
  0
VERTEX
  8
gg1
 10
0.675000
 20
0.362500
  0
VERTEX
  8
gg1
 10
0.675000
 20
0.377500
  0
SEQEND
  8
gg1
  0
POLYLINE
  8
gg1
 62
1
 40
0.000000
 41
0.000000
 66
  1
  0
VERTEX
  8
gg1
 10
0.597500
 20
0.340000
  0
VERTEX
  8
gg1
 10
0.612500
 20
0.340000
  0
SEQEND
  8
gg1
  0
POLYLINE
  8
gg1
 62
1
 40
0.000000
 41
0.000000
 66
  1
  0
VERTEX
  8
gg1
 10
0.605000
 20
0.332500
  0
VERTEX
  8
gg1
 10
0.605000
 20
0.347500
  0
SEQEND
  8
gg1
  0
POLYLINE
  8
gg1
 62
1
 40
0.000000
 41
0.000000
 66
  1
  0
VERTEX
  8
gg1
 10
0.632500
 20
0.370000
  0
VERTEX
  8
gg1
 10
0.647500
 20
0.370000
  0
SEQEND
  8
gg1
  0
POLYLINE
  8
gg1
 62
1
 40
0.000000
 41
0.000000
 66
  1
  0
VERTEX
  8
gg1
 10
0.640000
 20
0.362500
  0
VERTEX
  8
gg1
 10
0.640000
 20
0.377500
  0
SEQEND
  8
gg1
  0
POLYLINE
  8
gg1
 62
1
 40
0.000000
 41
0.000000
 66
  1
  0
VERTEX
  8
gg1
 10
0.597500
 20
0.370000
  0
VERTEX
  8
gg1
 10
0.612500
 20
0.370000
  0
SEQEND
  8
gg1
  0
POLYLINE
  8
gg1
 62
1
 40
0.000000
 41
0.000000
 66
  1
  0
VERTEX
  8
gg1
 10
0.605000
 20
0.362500
  0
VERTEX
  8
gg1
 10
0.605000
 20
0.377500
  0
SEQEND
  8
gg1
  0
POLYLINE
  8
gg1
 62
1
 40
0.000000
 41
0.000000
 66
  1
  0
VERTEX
  8
gg1
 10
0.667500
 20
0.400000
  0
VERTEX
  8
gg1
 10
0.682500
 20
0.400000
  0
SEQEND
  8
gg1
  0
POLYLINE
  8
gg1
 62
1
 40
0.000000
 41
0.000000
 66
  1
  0
VERTEX
  8
gg1
 10
0.675000
 20
0.392500
  0
VERTEX
  8
gg1
 10
0.675000
 20
0.407500
  0
SEQEND
  8
gg1
  0
POLYLINE
  8
gg1
 62
1
 40
0.000000
 41
0.000000
 66
  1
  0
VERTEX
  8
gg1
 10
0.632500
 20
0.400000
  0
VERTEX
  8
gg1
 10
0.647500
 20
0.400000
  0
SEQEND
  8
gg1
  0
POLYLINE
  8
gg1
 62
1
 40
0.000000
 41
0.000000
 66
  1
  0
VERTEX
  8
gg1
 10
0.640000
 20
0.392500
  0
VERTEX
  8
gg1
 10
0.640000
 20
0.407500
  0
SEQEND
  8
gg1
  0
POLYLINE
  8
gg1
 62
1
 40
0.000000
 41
0.000000
 66
  1
  0
VERTEX
  8
gg1
 10
0.672500
 20
0.835000
  0
VERTEX
  8
gg1
 10
0.687500
 20
0.835000
  0
SEQEND
  8
gg1
  0
POLYLINE
  8
gg1
 62
1
 40
0.000000
 41
0.000000
 66
  1
  0
VERTEX
  8
gg1
 10
0.680000
 20
0.827500
  0
VERTEX
  8
gg1
 10
0.680000
 20
0.842500
  0
SEQEND
  8
gg1
  0
POLYLINE
  8
gg1
 62
1
 40
0.000000
 41
0.000000
 66
  1
  0
VERTEX
  8
gg1
 10
0.612500
 20
0.835000
  0
VERTEX
  8
gg1
 10
0.627500
 20
0.835000
  0
SEQEND
  8
gg1
  0
POLYLINE
  8
gg1
 62
1
 40
0.000000
 41
0.000000
 66
  1
  0
VERTEX
  8
gg1
 10
0.620000
 20
0.827500
  0
VERTEX
  8
gg1
 10
0.620000
 20
0.842500
  0
SEQEND
  8
gg1
  0
POLYLINE
  8
gg1
 62
1
 40
0.000000
 41
0.000000
 66
  1
  0
VERTEX
  8
gg1
 10
0.672500
 20
0.800000
  0
VERTEX
  8
gg1
 10
0.687500
 20
0.800000
  0
SEQEND
  8
gg1
  0
POLYLINE
  8
gg1
 62
1
 40
0.000000
 41
0.000000
 66
  1
  0
VERTEX
  8
gg1
 10
0.680000
 20
0.792500
  0
VERTEX
  8
gg1
 10
0.680000
 20
0.807500
  0
SEQEND
  8
gg1
  0
POLYLINE
  8
gg1
 62
1
 40
0.000000
 41
0.000000
 66
  1
  0
VERTEX
  8
gg1
 10
0.642500
 20
0.800000
  0
VERTEX
  8
gg1
 10
0.657500
 20
0.800000
  0
SEQEND
  8
gg1
  0
POLYLINE
  8
gg1
 62
1
 40
0.000000
 41
0.000000
 66
  1
  0
VERTEX
  8
gg1
 10
0.650000
 20
0.792500
  0
VERTEX
  8
gg1
 10
0.650000
 20
0.807500
  0
SEQEND
  8
gg1
  0
POLYLINE
  8
gg1
 62
1
 40
0.000000
 41
0.000000
 66
  1
  0
VERTEX
  8
gg1
 10
0.612500
 20
0.800000
  0
VERTEX
  8
gg1
 10
0.627500
 20
0.800000
  0
SEQEND
  8
gg1
  0
POLYLINE
  8
gg1
 62
1
 40
0.000000
 41
0.000000
 66
  1
  0
VERTEX
  8
gg1
 10
0.620000
 20
0.792500
  0
VERTEX
  8
gg1
 10
0.620000
 20
0.807500
  0
SEQEND
  8
gg1
  0
POLYLINE
  8
gg1
 62
1
 40
0.000000
 41
0.000000
 66
  1
  0
VERTEX
  8
gg1
 10
0.349500
 20
0.668000
  0
VERTEX
  8
gg1
 10
0.364500
 20
0.668000
  0
SEQEND
  8
gg1
  0
POLYLINE
  8
gg1
 62
1
 40
0.000000
 41
0.000000
 66
  1
  0
VERTEX
  8
gg1
 10
0.357000
 20
0.660500
  0
VERTEX
  8
gg1
 10
0.357000
 20
0.675500
  0
SEQEND
  8
gg1
  0
POLYLINE
  8
gg1
 62
1
 40
0.000000
 41
0.000000
 66
  1
  0
VERTEX
  8
gg1
 10
0.370500
 20
0.614000
  0
VERTEX
  8
gg1
 10
0.385500
 20
0.614000
  0
SEQEND
  8
gg1
  0
POLYLINE
  8
gg1
 62
1
 40
0.000000
 41
0.000000
 66
  1
  0
VERTEX
  8
gg1
 10
0.378000
 20
0.606500
  0
VERTEX
  8
gg1
 10
0.378000
 20
0.621500
  0
SEQEND
  8
gg1
  0
POLYLINE
  8
gg1
 62
1
 40
0.000000
 41
0.000000
 66
  1
  0
VERTEX
  8
gg1
 10
0.354500
 20
0.576000
  0
VERTEX
  8
gg1
 10
0.369500
 20
0.576000
  0
SEQEND
  8
gg1
  0
POLYLINE
  8
gg1
 62
1
 40
0.000000
 41
0.000000
 66
  1
  0
VERTEX
  8
gg1
 10
0.362000
 20
0.568500
  0
VERTEX
  8
gg1
 10
0.362000
 20
0.583500
  0
SEQEND
  8
gg1
  0
POLYLINE
  8
gg1
 62
1
 40
0.000000
 41
0.000000
 66
  1
  0
VERTEX
  8
gg1
 10
0.323500
 20
0.621000
  0
VERTEX
  8
gg1
 10
0.338500
 20
0.621000
  0
SEQEND
  8
gg1
  0
POLYLINE
  8
gg1
 62
1
 40
0.000000
 41
0.000000
 66
  1
  0
VERTEX
  8
gg1
 10
0.331000
 20
0.613500
  0
VERTEX
  8
gg1
 10
0.331000
 20
0.628500
  0
SEQEND
  8
gg1
  0
POLYLINE
  8
gg1
 62
1
 40
0.000000
 41
0.000000
 66
  1
  0
VERTEX
  8
gg1
 10
0.394500
 20
0.652000
  0
VERTEX
  8
gg1
 10
0.409500
 20
0.652000
  0
SEQEND
  8
gg1
  0
POLYLINE
  8
gg1
 62
1
 40
0.000000
 41
0.000000
 66
  1
  0
VERTEX
  8
gg1
 10
0.402000
 20
0.644500
  0
VERTEX
  8
gg1
 10
0.402000
 20
0.659500
  0
SEQEND
  8
gg1
  0
POLYLINE
  8
gg1
 62
1
 40
0.000000
 41
0.000000
 66
  1
  0
VERTEX
  8
gg1
 10
0.416500
 20
0.597000
  0
VERTEX
  8
gg1
 10
0.431500
 20
0.597000
  0
SEQEND
  8
gg1
  0
POLYLINE
  8
gg1
 62
1
 40
0.000000
 41
0.000000
 66
  1
  0
VERTEX
  8
gg1
 10
0.424000
 20
0.589500
  0
VERTEX
  8
gg1
 10
0.424000
 20
0.604500
  0
SEQEND
  8
gg1
  0
POLYLINE
  8
gg1
 62
1
 40
0.000000
 41
0.000000
 66
  1
  0
VERTEX
  8
gg1
 10
0.262500
 20
1.400000
  0
VERTEX
  8
gg1
 10
0.277500
 20
1.400000
  0
SEQEND
  8
gg1
  0
POLYLINE
  8
gg1
 62
1
 40
0.000000
 41
0.000000
 66
  1
  0
VERTEX
  8
gg1
 10
0.270000
 20
1.392500
  0
VERTEX
  8
gg1
 10
0.270000
 20
1.407500
  0
SEQEND
  8
gg1
  0
POLYLINE
  8
gg1
 62
1
 40
0.000000
 41
0.000000
 66
  1
  0
VERTEX
  8
gg1
 10
0.397500
 20
1.240000
  0
VERTEX
  8
gg1
 10
0.412500
 20
1.240000
  0
SEQEND
  8
gg1
  0
POLYLINE
  8
gg1
 62
1
 40
0.000000
 41
0.000000
 66
  1
  0
VERTEX
  8
gg1
 10
0.405000
 20
1.232500
  0
VERTEX
  8
gg1
 10
0.405000
 20
1.247500
  0
SEQEND
  8
gg1
  0
POLYLINE
  8
gg1
 62
1
 40
0.000000
 41
0.000000
 66
  1
  0
VERTEX
  8
gg1
 10
0.417500
 20
1.195000
  0
VERTEX
  8
gg1
 10
0.432500
 20
1.195000
  0
SEQEND
  8
gg1
  0
POLYLINE
  8
gg1
 62
1
 40
0.000000
 41
0.000000
 66
  1
  0
VERTEX
  8
gg1
 10
0.425000
 20
1.187500
  0
VERTEX
  8
gg1
 10
0.425000
 20
1.202500
  0
SEQEND
  8
gg1
  0
POLYLINE
  8
gg1
 62
1
 40
0.000000
 41
0.000000
 66
  1
  0
VERTEX
  8
gg1
 10
0.357500
 20
1.195000
  0
VERTEX
  8
gg1
 10
0.372500
 20
1.195000
  0
SEQEND
  8
gg1
  0
POLYLINE
  8
gg1
 62
1
 40
0.000000
 41
0.000000
 66
  1
  0
VERTEX
  8
gg1
 10
0.365000
 20
1.187500
  0
VERTEX
  8
gg1
 10
0.365000
 20
1.202500
  0
SEQEND
  8
gg1
  0
POLYLINE
  8
gg1
 62
1
 40
0.000000
 41
0.000000
 66
  1
  0
VERTEX
  8
gg1
 10
0.647500
 20
1.445000
  0
VERTEX
  8
gg1
 10
0.662500
 20
1.445000
  0
SEQEND
  8
gg1
  0
POLYLINE
  8
gg1
 62
1
 40
0.000000
 41
0.000000
 66
  1
  0
VERTEX
  8
gg1
 10
0.655000
 20
1.437500
  0
VERTEX
  8
gg1
 10
0.655000
 20
1.452500
  0
SEQEND
  8
gg1
  0
POLYLINE
  8
gg1
 62
1
 40
0.000000
 41
0.000000
 66
  1
  0
VERTEX
  8
gg1
 10
0.617500
 20
1.445000
  0
VERTEX
  8
gg1
 10
0.632500
 20
1.445000
  0
SEQEND
  8
gg1
  0
POLYLINE
  8
gg1
 62
1
 40
0.000000
 41
0.000000
 66
  1
  0
VERTEX
  8
gg1
 10
0.625000
 20
1.437500
  0
VERTEX
  8
gg1
 10
0.625000
 20
1.452500
  0
SEQEND
  8
gg1
  0
POLYLINE
  8
gg1
 62
1
 40
0.000000
 41
0.000000
 66
  1
  0
VERTEX
  8
gg1
 10
0.437500
 20
1.720000
  0
VERTEX
  8
gg1
 10
0.452500
 20
1.720000
  0
SEQEND
  8
gg1
  0
POLYLINE
  8
gg1
 62
1
 40
0.000000
 41
0.000000
 66
  1
  0
VERTEX
  8
gg1
 10
0.445000
 20
1.712500
  0
VERTEX
  8
gg1
 10
0.445000
 20
1.727500
  0
SEQEND
  8
gg1
  0
POLYLINE
  8
gg1
 62
1
 40
0.000000
 41
0.000000
 66
  1
  0
VERTEX
  8
gg1
 10
0.602500
 20
0.975000
  0
VERTEX
  8
gg1
 10
0.617500
 20
0.975000
  0
SEQEND
  8
gg1
  0
POLYLINE
  8
gg1
 62
1
 40
0.000000
 41
0.000000
 66
  1
  0
VERTEX
  8
gg1
 10
0.610000
 20
0.967500
  0
VERTEX
  8
gg1
 10
0.610000
 20
0.982500
  0
SEQEND
  8
gg1
  0
POLYLINE
  8
gg1
 62
1
 40
0.000000
 41
0.000000
 66
  1
  0
VERTEX
  8
gg1
 10
0.632500
 20
0.975000
  0
VERTEX
  8
gg1
 10
0.647500
 20
0.975000
  0
SEQEND
  8
gg1
  0
POLYLINE
  8
gg1
 62
1
 40
0.000000
 41
0.000000
 66
  1
  0
VERTEX
  8
gg1
 10
0.640000
 20
0.967500
  0
VERTEX
  8
gg1
 10
0.640000
 20
0.982500
  0
SEQEND
  8
gg1
  0
POLYLINE
  8
gg1
 62
1
 40
0.000000
 41
0.000000
 66
  1
  0
VERTEX
  8
gg1
 10
0.662500
 20
0.975000
  0
VERTEX
  8
gg1
 10
0.677500
 20
0.975000
  0
SEQEND
  8
gg1
  0
POLYLINE
  8
gg1
 62
1
 40
0.000000
 41
0.000000
 66
  1
  0
VERTEX
  8
gg1
 10
0.670000
 20
0.967500
  0
VERTEX
  8
gg1
 10
0.670000
 20
0.982500
  0
SEQEND
  8
gg1
  0
POLYLINE
  8
gg1
 62
1
 40
0.000000
 41
0.000000
 66
  1
  0
VERTEX
  8
gg1
 10
0.397500
 20
0.950000
  0
VERTEX
  8
gg1
 10
0.412500
 20
0.950000
  0
SEQEND
  8
gg1
  0
POLYLINE
  8
gg1
 62
1
 40
0.000000
 41
0.000000
 66
  1
  0
VERTEX
  8
gg1
 10
0.405000
 20
0.942500
  0
VERTEX
  8
gg1
 10
0.405000
 20
0.957500
  0
SEQEND
  8
gg1
  0
POLYLINE
  8
gg1
 62
1
 40
0.000000
 41
0.000000
 66
  1
  0
VERTEX
  8
gg1
 10
0.452500
 20
0.950000
  0
VERTEX
  8
gg1
 10
0.467500
 20
0.950000
  0
SEQEND
  8
gg1
  0
POLYLINE
  8
gg1
 62
1
 40
0.000000
 41
0.000000
 66
  1
  0
VERTEX
  8
gg1
 10
0.460000
 20
0.942500
  0
VERTEX
  8
gg1
 10
0.460000
 20
0.957500
  0
SEQEND
  8
gg1
  0
POLYLINE
  8
gg1
 62
1
 40
0.000000
 41
0.000000
 66
  1
  0
VERTEX
  8
gg1
 10
0.555500
 20
0.864000
  0
VERTEX
  8
gg1
 10
0.570500
 20
0.864000
  0
SEQEND
  8
gg1
  0
POLYLINE
  8
gg1
 62
1
 40
0.000000
 41
0.000000
 66
  1
  0
VERTEX
  8
gg1
 10
0.563000
 20
0.856500
  0
VERTEX
  8
gg1
 10
0.563000
 20
0.871500
  0
SEQEND
  8
gg1
  0
POLYLINE
  8
gg1
 62
1
 40
0.000000
 41
0.000000
 66
  1
  0
VERTEX
  8
gg1
 10
0.498500
 20
0.861000
  0
VERTEX
  8
gg1
 10
0.513500
 20
0.861000
  0
SEQEND
  8
gg1
  0
POLYLINE
  8
gg1
 62
1
 40
0.000000
 41
0.000000
 66
  1
  0
VERTEX
  8
gg1
 10
0.506000
 20
0.853500
  0
VERTEX
  8
gg1
 10
0.506000
 20
0.868500
  0
SEQEND
  8
gg1
  0
POLYLINE
  8
gg1
 62
1
 40
0.000000
 41
0.000000
 66
  1
  0
VERTEX
  8
gg1
 10
0.932500
 20
0.280000
  0
VERTEX
  8
gg1
 10
0.947500
 20
0.280000
  0
SEQEND
  8
gg1
  0
POLYLINE
  8
gg1
 62
1
 40
0.000000
 41
0.000000
 66
  1
  0
VERTEX
  8
gg1
 10
0.940000
 20
0.272500
  0
VERTEX
  8
gg1
 10
0.940000
 20
0.287500
  0
SEQEND
  8
gg1
  0
POLYLINE
  8
gg1
 62
1
 40
0.000000
 41
0.000000
 66
  1
  0
VERTEX
  8
gg1
 10
0.967500
 20
0.280000
  0
VERTEX
  8
gg1
 10
0.982500
 20
0.280000
  0
SEQEND
  8
gg1
  0
POLYLINE
  8
gg1
 62
1
 40
0.000000
 41
0.000000
 66
  1
  0
VERTEX
  8
gg1
 10
0.975000
 20
0.272500
  0
VERTEX
  8
gg1
 10
0.975000
 20
0.287500
  0
SEQEND
  8
gg1
  0
POLYLINE
  8
gg1
 62
1
 40
0.000000
 41
0.000000
 66
  1
  0
VERTEX
  8
gg1
 10
0.967500
 20
0.245000
  0
VERTEX
  8
gg1
 10
0.982500
 20
0.245000
  0
SEQEND
  8
gg1
  0
POLYLINE
  8
gg1
 62
1
 40
0.000000
 41
0.000000
 66
  1
  0
VERTEX
  8
gg1
 10
0.975000
 20
0.237500
  0
VERTEX
  8
gg1
 10
0.975000
 20
0.252500
  0
SEQEND
  8
gg1
  0
POLYLINE
  8
gg1
 62
1
 40
0.000000
 41
0.000000
 66
  1
  0
VERTEX
  8
gg1
 10
0.932500
 20
0.245000
  0
VERTEX
  8
gg1
 10
0.947500
 20
0.245000
  0
SEQEND
  8
gg1
  0
POLYLINE
  8
gg1
 62
1
 40
0.000000
 41
0.000000
 66
  1
  0
VERTEX
  8
gg1
 10
0.940000
 20
0.237500
  0
VERTEX
  8
gg1
 10
0.940000
 20
0.252500
  0
SEQEND
  8
gg1
  0
POLYLINE
  8
gg1
 62
1
 40
0.000000
 41
0.000000
 66
  1
  0
VERTEX
  8
gg1
 10
0.602500
 20
1.420000
  0
VERTEX
  8
gg1
 10
0.617500
 20
1.420000
  0
SEQEND
  8
gg1
  0
POLYLINE
  8
gg1
 62
1
 40
0.000000
 41
0.000000
 66
  1
  0
VERTEX
  8
gg1
 10
0.610000
 20
1.412500
  0
VERTEX
  8
gg1
 10
0.610000
 20
1.427500
  0
SEQEND
  8
gg1
  0
POLYLINE
  8
gg1
 62
1
 40
0.000000
 41
0.000000
 66
  1
  0
VERTEX
  8
gg1
 10
0.632500
 20
1.420000
  0
VERTEX
  8
gg1
 10
0.647500
 20
1.420000
  0
SEQEND
  8
gg1
  0
POLYLINE
  8
gg1
 62
1
 40
0.000000
 41
0.000000
 66
  1
  0
VERTEX
  8
gg1
 10
0.640000
 20
1.412500
  0
VERTEX
  8
gg1
 10
0.640000
 20
1.427500
  0
SEQEND
  8
gg1
  0
POLYLINE
  8
gg1
 62
1
 40
0.000000
 41
0.000000
 66
  1
  0
VERTEX
  8
gg1
 10
0.662500
 20
1.420000
  0
VERTEX
  8
gg1
 10
0.677500
 20
1.420000
  0
SEQEND
  8
gg1
  0
POLYLINE
  8
gg1
 62
1
 40
0.000000
 41
0.000000
 66
  1
  0
VERTEX
  8
gg1
 10
0.670000
 20
1.412500
  0
VERTEX
  8
gg1
 10
0.670000
 20
1.427500
  0
SEQEND
  8
gg1
  0
POLYLINE
  8
gg1
 62
1
 40
0.000000
 41
0.000000
 66
  1
  0
VERTEX
  8
gg1
 10
0.677500
 20
1.395000
  0
VERTEX
  8
gg1
 10
0.692500
 20
1.395000
  0
SEQEND
  8
gg1
  0
POLYLINE
  8
gg1
 62
1
 40
0.000000
 41
0.000000
 66
  1
  0
VERTEX
  8
gg1
 10
0.685000
 20
1.387500
  0
VERTEX
  8
gg1
 10
0.685000
 20
1.402500
  0
SEQEND
  8
gg1
  0
POLYLINE
  8
gg1
 62
1
 40
0.000000
 41
0.000000
 66
  1
  0
VERTEX
  8
gg1
 10
0.647500
 20
1.395000
  0
VERTEX
  8
gg1
 10
0.662500
 20
1.395000
  0
SEQEND
  8
gg1
  0
POLYLINE
  8
gg1
 62
1
 40
0.000000
 41
0.000000
 66
  1
  0
VERTEX
  8
gg1
 10
0.655000
 20
1.387500
  0
VERTEX
  8
gg1
 10
0.655000
 20
1.402500
  0
SEQEND
  8
gg1
  0
POLYLINE
  8
gg1
 62
1
 40
0.000000
 41
0.000000
 66
  1
  0
VERTEX
  8
gg1
 10
0.617500
 20
1.395000
  0
VERTEX
  8
gg1
 10
0.632500
 20
1.395000
  0
SEQEND
  8
gg1
  0
POLYLINE
  8
gg1
 62
1
 40
0.000000
 41
0.000000
 66
  1
  0
VERTEX
  8
gg1
 10
0.625000
 20
1.387500
  0
VERTEX
  8
gg1
 10
0.625000
 20
1.402500
  0
SEQEND
  8
gg1
  0
POLYLINE
  8
gg1
 62
1
 40
0.000000
 41
0.000000
 66
  1
  0
VERTEX
  8
gg1
 10
0.707500
 20
1.445000
  0
VERTEX
  8
gg1
 10
0.722500
 20
1.445000
  0
SEQEND
  8
gg1
  0
POLYLINE
  8
gg1
 62
1
 40
0.000000
 41
0.000000
 66
  1
  0
VERTEX
  8
gg1
 10
0.715000
 20
1.437500
  0
VERTEX
  8
gg1
 10
0.715000
 20
1.452500
  0
SEQEND
  8
gg1
  0
POLYLINE
  8
gg1
 62
1
 40
0.000000
 41
0.000000
 66
  1
  0
VERTEX
  8
gg1
 10
0.707500
 20
1.605000
  0
VERTEX
  8
gg1
 10
0.722500
 20
1.605000
  0
SEQEND
  8
gg1
  0
POLYLINE
  8
gg1
 62
1
 40
0.000000
 41
0.000000
 66
  1
  0
VERTEX
  8
gg1
 10
0.715000
 20
1.597500
  0
VERTEX
  8
gg1
 10
0.715000
 20
1.612500
  0
SEQEND
  8
gg1
  0
POLYLINE
  8
gg1
 62
1
 40
0.000000
 41
0.000000
 66
  1
  0
VERTEX
  8
gg1
 10
0.422500
 20
1.395000
  0
VERTEX
  8
gg1
 10
0.437500
 20
1.395000
  0
SEQEND
  8
gg1
  0
POLYLINE
  8
gg1
 62
1
 40
0.000000
 41
0.000000
 66
  1
  0
VERTEX
  8
gg1
 10
0.430000
 20
1.387500
  0
VERTEX
  8
gg1
 10
0.430000
 20
1.402500
  0
SEQEND
  8
gg1
  0
POLYLINE
  8
gg1
 62
1
 40
0.000000
 41
0.000000
 66
  1
  0
VERTEX
  8
gg1
 10
0.215500
 20
1.399000
  0
VERTEX
  8
gg1
 10
0.230500
 20
1.399000
  0
SEQEND
  8
gg1
  0
POLYLINE
  8
gg1
 62
1
 40
0.000000
 41
0.000000
 66
  1
  0
VERTEX
  8
gg1
 10
0.223000
 20
1.391500
  0
VERTEX
  8
gg1
 10
0.223000
 20
1.406500
  0
SEQEND
  8
gg1
  0
POLYLINE
  8
gg1
 62
1
 40
0.000000
 41
0.000000
 66
  1
  0
VERTEX
  8
gg1
 10
0.244500
 20
0.943000
  0
VERTEX
  8
gg1
 10
0.259500
 20
0.943000
  0
SEQEND
  8
gg1
  0
POLYLINE
  8
gg1
 62
1
 40
0.000000
 41
0.000000
 66
  1
  0
VERTEX
  8
gg1
 10
0.252000
 20
0.935500
  0
VERTEX
  8
gg1
 10
0.252000
 20
0.950500
  0
SEQEND
  8
gg1
  0
POLYLINE
  8
gg1
 62
1
 40
0.000000
 41
0.000000
 66
  1
  0
VERTEX
  8
gg1
 10
0.662500
 20
0.100000
  0
VERTEX
  8
gg1
 10
0.677500
 20
0.100000
  0
SEQEND
  8
gg1
  0
POLYLINE
  8
gg1
 62
1
 40
0.000000
 41
0.000000
 66
  1
  0
VERTEX
  8
gg1
 10
0.670000
 20
0.092500
  0
VERTEX
  8
gg1
 10
0.670000
 20
0.107500
  0
SEQEND
  8
gg1
  0
POLYLINE
  8
gg1
 62
1
 40
0.000000
 41
0.000000
 66
  1
  0
VERTEX
  8
gg1
 10
0.092500
 20
0.800000
  0
VERTEX
  8
gg1
 10
0.107500
 20
0.800000
  0
SEQEND
  8
gg1
  0
POLYLINE
  8
gg1
 62
1
 40
0.000000
 41
0.000000
 66
  1
  0
VERTEX
  8
gg1
 10
0.100000
 20
0.792500
  0
VERTEX
  8
gg1
 10
0.100000
 20
0.807500
  0
SEQEND
  8
gg1
  0
POLYLINE
  8
gg1
 62
1
 40
0.000000
 41
0.000000
 66
  1
  0
VERTEX
  8
gg1
 10
0.606500
 20
0.279000
  0
VERTEX
  8
gg1
 10
0.621500
 20
0.279000
  0
SEQEND
  8
gg1
  0
POLYLINE
  8
gg1
 62
1
 40
0.000000
 41
0.000000
 66
  1
  0
VERTEX
  8
gg1
 10
0.614000
 20
0.271500
  0
VERTEX
  8
gg1
 10
0.614000
 20
0.286500
  0
SEQEND
  8
gg1
  0
POLYLINE
  8
gg1
 62
1
 40
0.000000
 41
0.000000
 66
  1
  0
VERTEX
  8
gg1
 10
0.700200
 20
1.112300
  0
VERTEX
  8
gg1
 10
0.715200
 20
1.112300
  0
SEQEND
  8
gg1
  0
POLYLINE
  8
gg1
 62
1
 40
0.000000
 41
0.000000
 66
  1
  0
VERTEX
  8
gg1
 10
0.707700
 20
1.104800
  0
VERTEX
  8
gg1
 10
0.707700
 20
1.119800
  0
SEQEND
  8
gg1
  0
POLYLINE
  8
gg1
 62
1
 40
0.000000
 41
0.000000
 66
  1
  0
VERTEX
  8
gg1
 10
0.645100
 20
1.112300
  0
VERTEX
  8
gg1
 10
0.660100
 20
1.112300
  0
SEQEND
  8
gg1
  0
POLYLINE
  8
gg1
 62
1
 40
0.000000
 41
0.000000
 66
  1
  0
VERTEX
  8
gg1
 10
0.652600
 20
1.104800
  0
VERTEX
  8
gg1
 10
0.652600
 20
1.119800
  0
SEQEND
  8
gg1
  0
POLYLINE
  8
gg1
 62
1
 40
0.000000
 41
0.000000
 66
  1
  0
VERTEX
  8
gg1
 10
0.589900
 20
1.112300
  0
VERTEX
  8
gg1
 10
0.604900
 20
1.112300
  0
SEQEND
  8
gg1
  0
POLYLINE
  8
gg1
 62
1
 40
0.000000
 41
0.000000
 66
  1
  0
VERTEX
  8
gg1
 10
0.597400
 20
1.104800
  0
VERTEX
  8
gg1
 10
0.597400
 20
1.119800
  0
SEQEND
  8
gg1
  0
POLYLINE
  8
gg1
 62
1
 40
0.000000
 41
0.000000
 66
  1
  0
VERTEX
  8
gg1
 10
0.534800
 20
1.112300
  0
VERTEX
  8
gg1
 10
0.549800
 20
1.112300
  0
SEQEND
  8
gg1
  0
POLYLINE
  8
gg1
 62
1
 40
0.000000
 41
0.000000
 66
  1
  0
VERTEX
  8
gg1
 10
0.542300
 20
1.104800
  0
VERTEX
  8
gg1
 10
0.542300
 20
1.119800
  0
SEQEND
  8
gg1
  0
POLYLINE
  8
gg1
 62
1
 40
0.000000
 41
0.000000
 66
  1
  0
VERTEX
  8
gg1
 10
0.700200
 20
1.167400
  0
VERTEX
  8
gg1
 10
0.715200
 20
1.167400
  0
SEQEND
  8
gg1
  0
POLYLINE
  8
gg1
 62
1
 40
0.000000
 41
0.000000
 66
  1
  0
VERTEX
  8
gg1
 10
0.707700
 20
1.159900
  0
VERTEX
  8
gg1
 10
0.707700
 20
1.174900
  0
SEQEND
  8
gg1
  0
POLYLINE
  8
gg1
 62
1
 40
0.000000
 41
0.000000
 66
  1
  0
VERTEX
  8
gg1
 10
0.645100
 20
1.167400
  0
VERTEX
  8
gg1
 10
0.660100
 20
1.167400
  0
SEQEND
  8
gg1
  0
POLYLINE
  8
gg1
 62
1
 40
0.000000
 41
0.000000
 66
  1
  0
VERTEX
  8
gg1
 10
0.652600
 20
1.159900
  0
VERTEX
  8
gg1
 10
0.652600
 20
1.174900
  0
SEQEND
  8
gg1
  0
POLYLINE
  8
gg1
 62
1
 40
0.000000
 41
0.000000
 66
  1
  0
VERTEX
  8
gg1
 10
0.589900
 20
1.167400
  0
VERTEX
  8
gg1
 10
0.604900
 20
1.167400
  0
SEQEND
  8
gg1
  0
POLYLINE
  8
gg1
 62
1
 40
0.000000
 41
0.000000
 66
  1
  0
VERTEX
  8
gg1
 10
0.597400
 20
1.159900
  0
VERTEX
  8
gg1
 10
0.597400
 20
1.174900
  0
SEQEND
  8
gg1
  0
POLYLINE
  8
gg1
 62
1
 40
0.000000
 41
0.000000
 66
  1
  0
VERTEX
  8
gg1
 10
0.534800
 20
1.167400
  0
VERTEX
  8
gg1
 10
0.549800
 20
1.167400
  0
SEQEND
  8
gg1
  0
POLYLINE
  8
gg1
 62
1
 40
0.000000
 41
0.000000
 66
  1
  0
VERTEX
  8
gg1
 10
0.542300
 20
1.159900
  0
VERTEX
  8
gg1
 10
0.542300
 20
1.174900
  0
SEQEND
  8
gg1
  0
POLYLINE
  8
gg1
 62
1
 40
0.000000
 41
0.000000
 66
  1
  0
VERTEX
  8
gg1
 10
0.700200
 20
1.222600
  0
VERTEX
  8
gg1
 10
0.715200
 20
1.222600
  0
SEQEND
  8
gg1
  0
POLYLINE
  8
gg1
 62
1
 40
0.000000
 41
0.000000
 66
  1
  0
VERTEX
  8
gg1
 10
0.707700
 20
1.215100
  0
VERTEX
  8
gg1
 10
0.707700
 20
1.230100
  0
SEQEND
  8
gg1
  0
POLYLINE
  8
gg1
 62
1
 40
0.000000
 41
0.000000
 66
  1
  0
VERTEX
  8
gg1
 10
0.645100
 20
1.222600
  0
VERTEX
  8
gg1
 10
0.660100
 20
1.222600
  0
SEQEND
  8
gg1
  0
POLYLINE
  8
gg1
 62
1
 40
0.000000
 41
0.000000
 66
  1
  0
VERTEX
  8
gg1
 10
0.652600
 20
1.215100
  0
VERTEX
  8
gg1
 10
0.652600
 20
1.230100
  0
SEQEND
  8
gg1
  0
POLYLINE
  8
gg1
 62
1
 40
0.000000
 41
0.000000
 66
  1
  0
VERTEX
  8
gg1
 10
0.589900
 20
1.222600
  0
VERTEX
  8
gg1
 10
0.604900
 20
1.222600
  0
SEQEND
  8
gg1
  0
POLYLINE
  8
gg1
 62
1
 40
0.000000
 41
0.000000
 66
  1
  0
VERTEX
  8
gg1
 10
0.597400
 20
1.215100
  0
VERTEX
  8
gg1
 10
0.597400
 20
1.230100
  0
SEQEND
  8
gg1
  0
POLYLINE
  8
gg1
 62
1
 40
0.000000
 41
0.000000
 66
  1
  0
VERTEX
  8
gg1
 10
0.534800
 20
1.222600
  0
VERTEX
  8
gg1
 10
0.549800
 20
1.222600
  0
SEQEND
  8
gg1
  0
POLYLINE
  8
gg1
 62
1
 40
0.000000
 41
0.000000
 66
  1
  0
VERTEX
  8
gg1
 10
0.542300
 20
1.215100
  0
VERTEX
  8
gg1
 10
0.542300
 20
1.230100
  0
SEQEND
  8
gg1
  0
POLYLINE
  8
gg1
 62
1
 40
0.000000
 41
0.000000
 66
  1
  0
VERTEX
  8
gg1
 10
0.700200
 20
1.277700
  0
VERTEX
  8
gg1
 10
0.715200
 20
1.277700
  0
SEQEND
  8
gg1
  0
POLYLINE
  8
gg1
 62
1
 40
0.000000
 41
0.000000
 66
  1
  0
VERTEX
  8
gg1
 10
0.707700
 20
1.270200
  0
VERTEX
  8
gg1
 10
0.707700
 20
1.285200
  0
SEQEND
  8
gg1
  0
POLYLINE
  8
gg1
 62
1
 40
0.000000
 41
0.000000
 66
  1
  0
VERTEX
  8
gg1
 10
0.645100
 20
1.277700
  0
VERTEX
  8
gg1
 10
0.660100
 20
1.277700
  0
SEQEND
  8
gg1
  0
POLYLINE
  8
gg1
 62
1
 40
0.000000
 41
0.000000
 66
  1
  0
VERTEX
  8
gg1
 10
0.652600
 20
1.270200
  0
VERTEX
  8
gg1
 10
0.652600
 20
1.285200
  0
SEQEND
  8
gg1
  0
POLYLINE
  8
gg1
 62
1
 40
0.000000
 41
0.000000
 66
  1
  0
VERTEX
  8
gg1
 10
0.534800
 20
1.277700
  0
VERTEX
  8
gg1
 10
0.549800
 20
1.277700
  0
SEQEND
  8
gg1
  0
POLYLINE
  8
gg1
 62
1
 40
0.000000
 41
0.000000
 66
  1
  0
VERTEX
  8
gg1
 10
0.542300
 20
1.270200
  0
VERTEX
  8
gg1
 10
0.542300
 20
1.285200
  0
SEQEND
  8
gg1
  0
POLYLINE
  8
gg1
 62
1
 40
0.000000
 41
0.000000
 66
  1
  0
VERTEX
  8
gg1
 10
0.589900
 20
1.277700
  0
VERTEX
  8
gg1
 10
0.604900
 20
1.277700
  0
SEQEND
  8
gg1
  0
POLYLINE
  8
gg1
 62
1
 40
0.000000
 41
0.000000
 66
  1
  0
VERTEX
  8
gg1
 10
0.597400
 20
1.270200
  0
VERTEX
  8
gg1
 10
0.597400
 20
1.285200
  0
SEQEND
  8
gg1
  0
POLYLINE
  8
gg1
 62
1
 40
0.000000
 41
0.000000
 66
  1
  0
VERTEX
  8
gg1
 10
0.436500
 20
0.862000
  0
VERTEX
  8
gg1
 10
0.451500
 20
0.862000
  0
SEQEND
  8
gg1
  0
POLYLINE
  8
gg1
 62
1
 40
0.000000
 41
0.000000
 66
  1
  0
VERTEX
  8
gg1
 10
0.444000
 20
0.854500
  0
VERTEX
  8
gg1
 10
0.444000
 20
0.869500
  0
SEQEND
  8
gg1
  0
POLYLINE
  8
gg1
 62
1
 40
0.000000
 41
0.000000
 66
  1
  0
VERTEX
  8
gg1
 10
0.642500
 20
0.835000
  0
VERTEX
  8
gg1
 10
0.657500
 20
0.835000
  0
SEQEND
  8
gg1
  0
POLYLINE
  8
gg1
 62
1
 40
0.000000
 41
0.000000
 66
  1
  0
VERTEX
  8
gg1
 10
0.650000
 20
0.827500
  0
VERTEX
  8
gg1
 10
0.650000
 20
0.842500
  0
SEQEND
  8
gg1
  0
POLYLINE
  8
gg1
 62
1
 40
0.000000
 41
0.000000
 66
  1
  0
VERTEX
  8
gg1
 10
0.597500
 20
0.400000
  0
VERTEX
  8
gg1
 10
0.612500
 20
0.400000
  0
SEQEND
  8
gg1
  0
POLYLINE
  8
gg1
 62
1
 40
0.000000
 41
0.000000
 66
  1
  0
VERTEX
  8
gg1
 10
0.605000
 20
0.392500
  0
VERTEX
  8
gg1
 10
0.605000
 20
0.407500
  0
SEQEND
  8
gg1
  0
POLYLINE
  8
gg1
 62
1
 40
0.000000
 41
0.000000
 66
  1
  0
VERTEX
  8
gg1
 10
0.275500
 20
0.971000
  0
VERTEX
  8
gg1
 10
0.290500
 20
0.971000
  0
SEQEND
  8
gg1
  0
POLYLINE
  8
gg1
 62
1
 40
0.000000
 41
0.000000
 66
  1
  0
VERTEX
  8
gg1
 10
0.283000
 20
0.963500
  0
VERTEX
  8
gg1
 10
0.283000
 20
0.978500
  0
SEQEND
  8
gg1
  0
POLYLINE
  8
gg1
 62
1
 40
0.000000
 41
0.000000
 66
  1
  0
VERTEX
  8
gg1
 10
0.352500
 20
1.245000
  0
VERTEX
  8
gg1
 10
0.367500
 20
1.245000
  0
SEQEND
  8
gg1
  0
POLYLINE
  8
gg1
 62
1
 40
0.000000
 41
0.000000
 66
  1
  0
VERTEX
  8
gg1
 10
0.360000
 20
1.237500
  0
VERTEX
  8
gg1
 10
0.360000
 20
1.252500
  0
SEQEND
  8
gg1
  0
POLYLINE
  8
gg1
 62
1
 40
0.000000
 41
0.000000
 66
  1
  0
VERTEX
  8
gg1
 10
0.662500
 20
1.005000
  0
VERTEX
  8
gg1
 10
0.677500
 20
1.005000
  0
SEQEND
  8
gg1
  0
POLYLINE
  8
gg1
 62
1
 40
0.000000
 41
0.000000
 66
  1
  0
VERTEX
  8
gg1
 10
0.670000
 20
0.997500
  0
VERTEX
  8
gg1
 10
0.670000
 20
1.012500
  0
SEQEND
  8
gg1
  0
POLYLINE
  8
gg1
 62
1
 40
0.000000
 41
0.000000
 66
  1
  0
VERTEX
  8
gg1
 10
0.632500
 20
1.005000
  0
VERTEX
  8
gg1
 10
0.647500
 20
1.005000
  0
SEQEND
  8
gg1
  0
POLYLINE
  8
gg1
 62
1
 40
0.000000
 41
0.000000
 66
  1
  0
VERTEX
  8
gg1
 10
0.640000
 20
0.997500
  0
VERTEX
  8
gg1
 10
0.640000
 20
1.012500
  0
SEQEND
  8
gg1
  0
POLYLINE
  8
gg1
 62
1
 40
0.000000
 41
0.000000
 66
  1
  0
VERTEX
  8
gg1
 10
0.602500
 20
1.005000
  0
VERTEX
  8
gg1
 10
0.617500
 20
1.005000
  0
SEQEND
  8
gg1
  0
POLYLINE
  8
gg1
 62
1
 40
0.000000
 41
0.000000
 66
  1
  0
VERTEX
  8
gg1
 10
0.610000
 20
0.997500
  0
VERTEX
  8
gg1
 10
0.610000
 20
1.012500
  0
SEQEND
  8
gg1
  0
POLYLINE
  8
gg1
 62
1
 40
0.000000
 41
0.000000
 66
  1
  0
VERTEX
  8
gg1
 10
0.347500
 20
0.714000
  0
VERTEX
  8
gg1
 10
0.362500
 20
0.714000
  0
SEQEND
  8
gg1
  0
POLYLINE
  8
gg1
 62
1
 40
0.000000
 41
0.000000
 66
  1
  0
VERTEX
  8
gg1
 10
0.355000
 20
0.706500
  0
VERTEX
  8
gg1
 10
0.355000
 20
0.721500
  0
SEQEND
  8
gg1
  0
POLYLINE
  8
gg1
 62
1
 40
0.000000
 41
0.000000
 66
  1
  0
VERTEX
  8
gg1
 10
0.349500
 20
0.530000
  0
VERTEX
  8
gg1
 10
0.364500
 20
0.530000
  0
SEQEND
  8
gg1
  0
POLYLINE
  8
gg1
 62
1
 40
0.000000
 41
0.000000
 66
  1
  0
VERTEX
  8
gg1
 10
0.357000
 20
0.522500
  0
VERTEX
  8
gg1
 10
0.357000
 20
0.537500
  0
SEQEND
  8
gg1
  0
POLYLINE
  8
gg1
 62
1
 40
0.000000
 41
0.000000
 66
  1
  0
VERTEX
  8
gg1
 10
0.391500
 20
0.560000
  0
VERTEX
  8
gg1
 10
0.406500
 20
0.560000
  0
SEQEND
  8
gg1
  0
POLYLINE
  8
gg1
 62
1
 40
0.000000
 41
0.000000
 66
  1
  0
VERTEX
  8
gg1
 10
0.399000
 20
0.552500
  0
VERTEX
  8
gg1
 10
0.399000
 20
0.567500
  0
SEQEND
  8
gg1
  0
POLYLINE
  8
gg1
 62
1
 40
0.000000
 41
0.000000
 66
  1
  0
VERTEX
  8
gg1
 10
0.192500
 20
1.000000
  0
VERTEX
  8
gg1
 10
0.207500
 20
1.000000
  0
SEQEND
  8
gg1
  0
POLYLINE
  8
gg1
 62
1
 40
0.000000
 41
0.000000
 66
  1
  0
VERTEX
  8
gg1
 10
0.200000
 20
0.992500
  0
VERTEX
  8
gg1
 10
0.200000
 20
1.007500
  0
SEQEND
  8
gg1
  0
POLYLINE
  8
gg1
 62
1
 40
0.000000
 41
0.000000
 66
  1
  0
VERTEX
  8
gg1
 10
0.342500
 20
1.057000
  0
VERTEX
  8
gg1
 10
0.357500
 20
1.057000
  0
SEQEND
  8
gg1
  0
POLYLINE
  8
gg1
 62
1
 40
0.000000
 41
0.000000
 66
  1
  0
VERTEX
  8
gg1
 10
0.350000
 20
1.049500
  0
VERTEX
  8
gg1
 10
0.350000
 20
1.064500
  0
SEQEND
  8
gg1
  0
POLYLINE
  8
gg1
 62
1
 40
0.000000
 41
0.000000
 66
  1
  0
VERTEX
  8
gg1
 10
0.271500
 20
1.046000
  0
VERTEX
  8
gg1
 10
0.286500
 20
1.046000
  0
SEQEND
  8
gg1
  0
POLYLINE
  8
gg1
 62
1
 40
0.000000
 41
0.000000
 66
  1
  0
VERTEX
  8
gg1
 10
0.279000
 20
1.038500
  0
VERTEX
  8
gg1
 10
0.279000
 20
1.053500
  0
SEQEND
  8
gg1
  0
POLYLINE
  8
gg1
 62
1
 40
0.000000
 41
0.000000
 66
  1
  0
VERTEX
  8
gg1
 10
0.137500
 20
0.350000
  0
VERTEX
  8
gg1
 10
0.152500
 20
0.350000
  0
SEQEND
  8
gg1
  0
POLYLINE
  8
gg1
 62
1
 40
0.000000
 41
0.000000
 66
  1
  0
VERTEX
  8
gg1
 10
0.145000
 20
0.342500
  0
VERTEX
  8
gg1
 10
0.145000
 20
0.357500
  0
SEQEND
  8
gg1
  0
POLYLINE
  8
gg1
 62
1
 40
0.000000
 41
0.000000
 66
  1
  0
VERTEX
  8
gg1
 10
0.169500
 20
0.263000
  0
VERTEX
  8
gg1
 10
0.184500
 20
0.263000
  0
SEQEND
  8
gg1
  0
POLYLINE
  8
gg1
 62
1
 40
0.000000
 41
0.000000
 66
  1
  0
VERTEX
  8
gg1
 10
0.177000
 20
0.255500
  0
VERTEX
  8
gg1
 10
0.177000
 20
0.270500
  0
SEQEND
  8
gg1
  0
POLYLINE
  8
gg1
 62
1
 40
0.000000
 41
0.000000
 66
  1
  0
VERTEX
  8
gg1
 10
0.137500
 20
0.295000
  0
VERTEX
  8
gg1
 10
0.152500
 20
0.295000
  0
SEQEND
  8
gg1
  0
POLYLINE
  8
gg1
 62
1
 40
0.000000
 41
0.000000
 66
  1
  0
VERTEX
  8
gg1
 10
0.145000
 20
0.287500
  0
VERTEX
  8
gg1
 10
0.145000
 20
0.302500
  0
SEQEND
  8
gg1
  0
POLYLINE
  8
gg1
 62
1
 40
0.000000
 41
0.000000
 66
  1
  0
VERTEX
  8
gg1
 10
0.475500
 20
0.331000
  0
VERTEX
  8
gg1
 10
0.490500
 20
0.331000
  0
SEQEND
  8
gg1
  0
POLYLINE
  8
gg1
 62
1
 40
0.000000
 41
0.000000
 66
  1
  0
VERTEX
  8
gg1
 10
0.483000
 20
0.323500
  0
VERTEX
  8
gg1
 10
0.483000
 20
0.338500
  0
SEQEND
  8
gg1
  0
POLYLINE
  8
gg1
 62
1
 40
0.000000
 41
0.000000
 66
  1
  0
VERTEX
  8
gg1
 10
0.305500
 20
0.375000
  0
VERTEX
  8
gg1
 10
0.320500
 20
0.375000
  0
SEQEND
  8
gg1
  0
POLYLINE
  8
gg1
 62
1
 40
0.000000
 41
0.000000
 66
  1
  0
VERTEX
  8
gg1
 10
0.313000
 20
0.367500
  0
VERTEX
  8
gg1
 10
0.313000
 20
0.382500
  0
SEQEND
  8
gg1
  0
POLYLINE
  8
gg1
 62
1
 40
0.000000
 41
0.000000
 66
  1
  0
VERTEX
  8
gg1
 10
0.433500
 20
0.331000
  0
VERTEX
  8
gg1
 10
0.448500
 20
0.331000
  0
SEQEND
  8
gg1
  0
POLYLINE
  8
gg1
 62
1
 40
0.000000
 41
0.000000
 66
  1
  0
VERTEX
  8
gg1
 10
0.441000
 20
0.323500
  0
VERTEX
  8
gg1
 10
0.441000
 20
0.338500
  0
SEQEND
  8
gg1
  0
POLYLINE
  8
gg1
 62
1
 40
0.000000
 41
0.000000
 66
  1
  0
VERTEX
  8
gg1
 10
0.372500
 20
0.376000
  0
VERTEX
  8
gg1
 10
0.387500
 20
0.376000
  0
SEQEND
  8
gg1
  0
POLYLINE
  8
gg1
 62
1
 40
0.000000
 41
0.000000
 66
  1
  0
VERTEX
  8
gg1
 10
0.380000
 20
0.368500
  0
VERTEX
  8
gg1
 10
0.380000
 20
0.383500
  0
SEQEND
  8
gg1
  0
POLYLINE
  8
gg1
 62
1
 40
0.000000
 41
0.000000
 66
  1
  0
VERTEX
  8
gg1
 10
0.391500
 20
0.325000
  0
VERTEX
  8
gg1
 10
0.406500
 20
0.325000
  0
SEQEND
  8
gg1
  0
POLYLINE
  8
gg1
 62
1
 40
0.000000
 41
0.000000
 66
  1
  0
VERTEX
  8
gg1
 10
0.399000
 20
0.317500
  0
VERTEX
  8
gg1
 10
0.399000
 20
0.332500
  0
SEQEND
  8
gg1
  0
POLYLINE
  8
gg1
 62
1
 40
0.000000
 41
0.000000
 66
  1
  0
VERTEX
  8
gg1
 10
0.475500
 20
0.364000
  0
VERTEX
  8
gg1
 10
0.490500
 20
0.364000
  0
SEQEND
  8
gg1
  0
POLYLINE
  8
gg1
 62
1
 40
0.000000
 41
0.000000
 66
  1
  0
VERTEX
  8
gg1
 10
0.483000
 20
0.356500
  0
VERTEX
  8
gg1
 10
0.483000
 20
0.371500
  0
SEQEND
  8
gg1
  0
POLYLINE
  8
gg1
 62
1
 40
0.000000
 41
0.000000
 66
  1
  0
VERTEX
  8
gg1
 10
0.422500
 20
0.405000
  0
VERTEX
  8
gg1
 10
0.437500
 20
0.405000
  0
SEQEND
  8
gg1
  0
POLYLINE
  8
gg1
 62
1
 40
0.000000
 41
0.000000
 66
  1
  0
VERTEX
  8
gg1
 10
0.430000
 20
0.397500
  0
VERTEX
  8
gg1
 10
0.430000
 20
0.412500
  0
SEQEND
  8
gg1
  0
POLYLINE
  8
gg1
 62
1
 40
0.000000
 41
0.000000
 66
  1
  0
VERTEX
  8
gg1
 10
0.386500
 20
0.431000
  0
VERTEX
  8
gg1
 10
0.401500
 20
0.431000
  0
SEQEND
  8
gg1
  0
POLYLINE
  8
gg1
 62
1
 40
0.000000
 41
0.000000
 66
  1
  0
VERTEX
  8
gg1
 10
0.394000
 20
0.423500
  0
VERTEX
  8
gg1
 10
0.394000
 20
0.438500
  0
SEQEND
  8
gg1
  0
POLYLINE
  8
gg1
 62
1
 40
0.000000
 41
0.000000
 66
  1
  0
VERTEX
  8
gg1
 10
0.392500
 20
1.150000
  0
VERTEX
  8
gg1
 10
0.407500
 20
1.150000
  0
SEQEND
  8
gg1
  0
POLYLINE
  8
gg1
 62
1
 40
0.000000
 41
0.000000
 66
  1
  0
VERTEX
  8
gg1
 10
0.400000
 20
1.142500
  0
VERTEX
  8
gg1
 10
0.400000
 20
1.157500
  0
SEQEND
  8
gg1
  0
POLYLINE
  8
gg1
 62
1
 40
0.000000
 41
0.000000
 66
  1
  0
VERTEX
  8
gg1
 10
0.552500
 20
1.445000
  0
VERTEX
  8
gg1
 10
0.567500
 20
1.445000
  0
SEQEND
  8
gg1
  0
POLYLINE
  8
gg1
 62
1
 40
0.000000
 41
0.000000
 66
  1
  0
VERTEX
  8
gg1
 10
0.560000
 20
1.437500
  0
VERTEX
  8
gg1
 10
0.560000
 20
1.452500
  0
SEQEND
  8
gg1
  0
ENDSEC
  0
EOF
