0
SECTION
2
HEADER
9
$INSUNITS
70
4
9
$ACADVER
1
AC1014
9
$HANDSEED
5
FFFF
0
ENDSEC
0
SECTION
2
TABLES
0
TABLE
2
VPORT
5
8
100
AcDbSymbolTable
0
ENDTAB
0
TABLE
2
LTYPE
5
5
100
AcDbSymbolTable
0
LTYPE
5
14
100
AcDbSymbolTableRecord
100
AcDbLinetypeTableRecord
2
BYBLOCK
70
0
0
LTYPE
5
15
100
AcDbSymbolTableRecord
100
AcDbLinetypeTableRecord
2
BYLAYER
70
0
0
ENDTAB
0
TABLE
2
LAYER
5
2
100
AcDbSymbolTable
70
2
0
LAYER
5
50
100
AcDbSymbolTableRecord
100
AcDbLayerTableRecord
2
0
70
0
6
CONTINUOUS
0
ENDTAB
0
TABLE
2
STYLE
5
3
100
AcDbSymbolTable
70
1
0
STYLE
5
11
100
AcDbSymbolTableRecord
100
AcDbTextStyleTableRecord
2
STANDARD
70
0
0
ENDTAB
0
TABLE
2
VIEW
5
6
100
AcDbSymbolTable
70
0
0
ENDTAB
0
TABLE
2
UCS
5
7
100
AcDbSymbolTable
70
0
0
ENDTAB
0
TABLE
2
APPID
5
9
100
AcDbSymbolTable
70
2
0
APPID
5
12
100
AcDbSymbolTableRecord
100
AcDbRegAppTableRecord
2
ACAD
70
0
0
ENDTAB
0
TABLE
2
DIMSTYLE
5
A
100
AcDbSymbolTable
70
1
0
ENDTAB
0
TABLE
2
BLOCK_RECORD
5
1
100
AcDbSymbolTable
70
1
0
BLOCK_RECORD
5
1F
100
AcDbSymbolTableRecord
100
AcDbBlockTableRecord
2
*MODEL_SPACE
0
BLOCK_RECORD
5
1B
100
AcDbSymbolTableRecord
100
AcDbBlockTableRecord
2
*PAPER_SPACE
0
ENDTAB
0
ENDSEC
0
SECTION
2
BLOCKS
0
BLOCK
5
20
100
AcDbEntity
100
AcDbBlockBegin
2
*MODEL_SPACE
0
ENDBLK
5
21
100
AcDbEntity
100
AcDbBlockEnd
0
BLOCK
5
1C
100
AcDbEntity
100
AcDbBlockBegin
2
*PAPER_SPACE
0
ENDBLK
5
1D
100
AcDbEntity
100
AcDbBlockEnd
0
ENDSEC
0
SECTION
2
ENTITIES
0
CIRCLE
5
100
100
AcDbEntity
8
0
100
AcDbCircle
10
69.07626093681516
20
58.356406460551042
30
0
40
2.5
0
CIRCLE
5
101
100
AcDbEntity
8
0
100
AcDbCircle
10
-62.937599349386836
20
9.3741938627502073
30
0
40
1.5000000000000036
0
CIRCLE
5
102
100
AcDbEntity
8
0
100
AcDbCircle
10
-74.650412270488943
20
-34.338619058351753
30
0
40
1.5000000000000036
0
LWPOLYLINE
5
103
100
AcDbEntity
8
0
100
AcDbPolyline
90
11
70
1
43
0.0
10
-87.75836474456915
20
-10.209969169276329
42
-1.0939392994782491
10
-50.539069240530345
20
-18.100690224961738
10
-49.535675560740209
20
-19.83861905835176
42
0.41421356237309492
10
-45.4375993493869
20
-20.936695269705076
10
-35.806253408239705
20
-15.37603509792536
10
-28.306253408239066
20
-28.366416154693077
10
-68.058099829064759
20
-51.317155386541344
10
-71.664759288626712
20
-34.631665593730062
42
0.61043683830165563
10
-76.150412270488943
20
-31.740542846998437
10
-87.841755221578779
20
-38.490542846998395
10
-100.06675522157856
20
-17.316221724468743
0
CIRCLE
5
104
100
AcDbEntity
8
0
100
AcDbCircle
10
85.076260936815117
20
30.643593539448965
30
0
40
2.5
0
LWPOLYLINE
5
105
100
AcDbEntity
8
0
100
AcDbPolyline
90
5
70
1
43
0.0
10
-22.806253408239129
20
-37.892695596321815
10
-69.781758211635619
20
-65.014015939881332
10
-58.221098039855626
20
-85.037666726442339
10
-11.107457502205724
20
-57.832280280719033
10
-12.99559323645906
20
-54.885257469637381
0
CIRCLE
5
106
100
AcDbEntity
8
0
100
AcDbCircle
10
46.156340416424946
20
61.097564356397456
30
0
40
6.1000000000000032
0
CIRCLE
5
107
100
AcDbEntity
8
0
100
AcDbCircle
10
27.221871471508059
20
-12.595988890832405
30
0
40
1.4999999999999991
0
CIRCLE
5
108
100
AcDbEntity
8
0
100
AcDbCircle
10
-16.000000000000071
20
-89.000000000000085
30
0
40
2.5000000000000022
0
CIRCLE
5
109
100
AcDbEntity
8
0
100
AcDbCircle
10
-69.076260936815117
20
58.356406460551106
30
0
40
2.5
0
CIRCLE
5
110
100
AcDbEntity
8
0
100
AcDbCircle
10
38.346871531112249
20
6.673076446609981
30
0
40
1.4999999999999991
0
CIRCLE
5
111
100
AcDbEntity
8
0
100
AcDbCircle
10
36.336839561343218
20
-89.93683389297874
30
0
40
1.4999999999999991
0
CIRCLE
5
112
100
AcDbEntity
8
0
100
AcDbCircle
10
-95.278838786550438
20
11.522496819168245
30
0
40
1.5000000000000036
0
CIRCLE
5
113
100
AcDbEntity
8
0
100
AcDbCircle
10
-95.953472535630979
20
2.9884960019973104
30
0
40
1.5000000000000036
0
CIRCLE
5
114
100
AcDbEntity
8
0
100
AcDbCircle
10
-16.000000000000018
20
15.999999999999968
30
0
40
1.3999999999999968
0
LWPOLYLINE
5
115
100
AcDbEntity
8
0
100
AcDbPolyline
90
4
70
1
43
0.0
10
13.575661888004742
20
-69.901185062085304
10
36.958347790184582
20
-83.40118506208529
10
90.458347790184632
20
9.2635331428495871
10
67.075661888004873
20
22.763533142849735
0
CIRCLE
5
116
100
AcDbEntity
8
0
100
AcDbCircle
10
15.031433253944808
20
-49.379715092073162
30
0
40
1.5000000000000036
0
ELLIPSE
5
117
100
AcDbEntity
8
0
100
AcDbEllipse
10
18.742546229624978
20
48.729693478033987
30
0
11
-0.68456086441391395
21
1.3346821430261486
31
0.0
40
0.99999998467414031
41
0
42
6.2831853071795862
0
CIRCLE
5
118
100
AcDbEntity
8
0
100
AcDbCircle
10
46.90763918370741
20
83.759616678988195
30
0
40
1.4999999999999947
0
CIRCLE
5
119
100
AcDbEntity
8
0
100
AcDbCircle
10
15.999999999999975
20
15.999999999999968
30
0
40
1.4000000000000035
0
CIRCLE
5
120
100
AcDbEntity
8
0
100
AcDbCircle
10
54.002576424244538
20
-71.879715092073212
30
0
40
1.4999999999999947
0
CIRCLE
5
121
100
AcDbEntity
8
0
100
AcDbCircle
10
52.531433253944904
20
15.572190191759816
30
0
40
1.5000000000000036
0
LWPOLYLINE
5
122
100
AcDbEntity
8
0
100
AcDbPolyline
90
4
70
1
43
0.0
10
52.73476376105986
20
42.788462905923417
10
69.008658711025689
20
52.184200536049879
10
64.008658711025674
20
60.844454573894268
10
47.734763761059853
20
51.448716943767813
0
CIRCLE
5
123
100
AcDbEntity
8
0
100
AcDbCircle
10
91.502576424244651
20
-6.9278098082402249
30
0
40
1.5000000000000036
0
CIRCLE
5
124
100
AcDbEntity
8
0
100
AcDbCircle
10
3.555250257760075e-13
20
5.5853912979654609e-13
30
0
40
19.5
0
CIRCLE
5
125
100
AcDbEntity
8
0
100
AcDbCircle
10
21.213203435596434
20
-21.213203435596405
30
0
40
1.4999999999999991
0
CIRCLE
5
126
100
AcDbEntity
8
0
100
AcDbCircle
10
-30.000000447034843
20
34.500000514090054
30
0
40
1.5000000000000036
0
CIRCLE
5
127
100
AcDbEntity
8
0
100
AcDbCircle
10
31.213203435596434
20
2.1191185877970302e-14
30
0
40
1.4999999999999991
0
CIRCLE
5
128
100
AcDbEntity
8
0
100
AcDbCircle
10
15.999999999999964
20
-89.000000000000128
30
0
40
2.5000000000000022
0
CIRCLE
5
129
100
AcDbEntity
8
0
100
AcDbCircle
10
21.213203435596434
20
21.213203435596451
30
0
40
1.4999999999999991
0
CIRCLE
5
130
100
AcDbEntity
8
0
100
AcDbCircle
10
56.087967901193529
20
77.911102268640803
30
0
40
1.5000000000000036
0
CIRCLE
5
131
100
AcDbEntity
8
0
100
AcDbCircle
10
0.87699718151478012
20
61.751293216534194
30
0
40
1.5000000000000011
0
CIRCLE
5
132
100
AcDbEntity
8
0
100
AcDbCircle
10
-46.937599349386893
20
-18.33861905835176
30
0
40
1.5000000000000036
0
CIRCLE
5
133
100
AcDbEntity
8
0
100
AcDbCircle
10
-16.000000000000007
20
-16.000000000000021
30
0
40
1.3999999999999968
0
CIRCLE
5
134
100
AcDbEntity
8
0
100
AcDbCircle
10
-98.01162820265661
20
-10.875806137249649
30
0
40
1.5000000000000036
0
LWPOLYLINE
5
135
100
AcDbEntity
8
0
100
AcDbPolyline
90
8
70
1
43
0.0
10
40.559218700906499
20
35.758908687913468
42
-0.41421492819607947
10
33.72908002400861
20
37.589055899150608
10
30.704820348092113
20
42.827227313011022
42
-0.99999999999999989
10
39.365074385936502
20
47.827227313011036
10
39.456857647429182
20
47.668254040821346
42
0.38634455017226987
10
40.714102226410908
20
47.395336116848988
10
43.404636742137662
20
48.948716943767813
10
48.404636742137662
20
40.288462905923417
0
CIRCLE
5
136
100
AcDbEntity
8
0
100
AcDbCircle
10
-12.500000439584237
20
66.00008695442429
30
0
40
1.5000000000000013
0
CIRCLE
5
137
100
AcDbEntity
8
0
100
AcDbCircle
10
1.3562308084969469e-14
20
-31.213203435596402
30
0
40
1.5000000000000004
0
CIRCLE
5
138
100
AcDbEntity
8
0
100
AcDbCircle
10
15.999999999999988
20
-15.999999999999996
30
0
40
1.4000000000000012
0
CIRCLE
5
139
100
AcDbEntity
8
0
100
AcDbCircle
10
95.278838786550239
20
11.522496819168115
30
0
40
1.5000000000000036
0
CIRCLE
5
140
100
AcDbEntity
8
0
100
AcDbCircle
10
-36.336839561343716
20
-89.936833892978768
30
0
40
1.5000000000000036
0
CIRCLE
5
141
100
AcDbEntity
8
0
100
AcDbCircle
10
25.499999560415748
20
66.00008695442429
30
0
40
1.5000000000000036
0
LWPOLYLINE
5
142
100
AcDbEntity
8
0
100
AcDbPolyline
90
7
70
1
43
0.0
10
-32.179392089843788
20
-75.428170288085923
10
-32.179392089843788
20
-84.228317387317105
10
-30.179392089843773
20
-84.228317387317105
10
-30.179392089843773
20
-84.228170288085934
10
-9.6793920898437769
20
-84.228170288085934
10
-9.679392089843768
20
-71.428170288085909
10
-30.179392089843773
20
-71.428170288085923
0
CIRCLE
5
143
100
AcDbEntity
8
0
100
AcDbCircle
10
24.356601717798437
20
9.9252335146073057e-15
30
0
40
2.9999999999999982
0
CIRCLE
5
144
100
AcDbEntity
8
0
100
AcDbCircle
10
-58.376057245748939
20
77.467644474587033
30
0
40
1.5000000000000036
0
CIRCLE
5
145
100
AcDbEntity
8
0
100
AcDbCircle
10
-90.650412270488943
20
-6.6258061372497092
30
0
40
1.5000000000000036
0
LWPOLYLINE
5
146
100
AcDbEntity
8
0
100
AcDbPolyline
90
5
70
1
43
0.0
10
-42.040850844486847
20
-2.8200362607237839
10
-35.212469679021183
20
-10.047179731818998
10
-35.21208136329048
20
-10.047852327104696
10
-35.213203435592007
20
7.4489248972653321
10
-54.34785578222823
20
18.496321580445645
0
CIRCLE
5
147
100
AcDbEntity
8
0
100
AcDbCircle
10
-21.213203435596412
20
-21.213203435596402
30
0
40
1.4999999999999991
0
CIRCLE
5
148
100
AcDbEntity
8
0
100
AcDbCircle
10
39.453454378352383
20
88.61390939133193
30
0
40
1.4999999999999991
0
CIRCLE
5
149
100
AcDbEntity
8
0
100
AcDbCircle
10
95.953124999999773
20
2.9996337667076647
30
0
40
1.5000000000000036
0
CIRCLE
5
150
100
AcDbEntity
8
0
100
AcDbCircle
10
44.713118308517188
20
-84.687485305326021
30
0
40
1.5000000000000036
0
CIRCLE
5
151
100
AcDbEntity
8
0
100
AcDbCircle
10
-21.213203435596419
20
21.213203435596448
30
0
40
1.4999999999999991
0
CIRCLE
5
152
100
AcDbEntity
8
0
100
AcDbCircle
10
-85.07626093681516
20
30.643593539449046
30
0
40
2.5
0
CIRCLE
5
153
100
AcDbEntity
8
0
100
AcDbCircle
10
-44.713118308517672
20
-84.687485305326021
30
0
40
1.5000000000000036
0
CIRCLE
5
154
100
AcDbEntity
8
0
100
AcDbCircle
10
-31.213203435596416
20
1.9935111911023275e-14
30
0
40
1.4999999999999991
0
CIRCLE
5
155
100
AcDbEntity
8
0
100
AcDbCircle
10
-55.576383417219162
20
13.62419386275014
30
0
40
1.5000000000000036
0
CIRCLE
5
156
100
AcDbEntity
8
0
100
AcDbCircle
10
-69.011628202656027
20
-61.105279556748201
30
0
40
1.5000000000000036
0
CIRCLE
5
157
100
AcDbEntity
8
0
100
AcDbCircle
10
8.0085255064449026
20
28.213203435596444
30
0
40
1.5000000000000013
0
LWPOLYLINE
5
158
100
AcDbEntity
8
0
100
AcDbPolyline
90
23
70
1
43
0.0
10
-16.023902494889953
20
60.883233258071385
10
-16.02390249488996
20
69.697108786687352
42
-0.41421356237309553
10
-11.02390249488996
20
74.697108786687366
10
32.946722137041647
20
74.697108786687352
10
32.946722137041654
20
99.697108786687352
42
-0.10496784565068992
10
70.606870397215047
20
77.715312858605159
10
64.540362551952896
20
74.212812921102099
10
96.540362551952867
20
18.787187078898029
10
102.60687039721589
20
22.289687016401302
42
-0.38643105108466963
10
32.000000000000014
20
-100.00499987500625
10
32.000000000000021
20
-93.000000000000114
10
-31.999999999999986
20
-93.000000000000114
10
-31.999999999999847
20
-100.00499987500589
42
-0.38643105108466752
10
-102.60687039721503
20
22.289687016401128
10
-96.54036255195291
20
18.787187078898022
10
-64.540362551952896
20
74.212812921102099
10
-70.606870397214024
20
77.715312858606111
42
-0.0061085804386542507
10
-68.687086146019723
20
79.417153038680951
42
-0.12780451386264863
10
-57.203555340253239
20
84.541644967959556
42
-0.4635606096710419
10
-51.379838594140843
20
79.609962625981922
10
-51.379838594140864
20
60.883233258071385
42
0.41421356237309453
10
-46.379838594140878
20
55.883233258071385
10
-21.023902494889953
20
55.883233258071385
42
0.41421356237309531
0
ENDSEC
0
SECTION
2
OBJECTS
0
DICTIONARY
5
C
100
AcDbDictionary
3
ACAD_GROUP
350
D
3
ACAD_MLINESTYLE
350
17
0
DICTIONARY
5
D
100
AcDbDictionary
0
DICTIONARY
5
1A
330
C
100
AcDbDictionary
0
DICTIONARY
5
17
100
AcDbDictionary
0
ENDSEC
0
EOF
