0
SECTION
2
HEADER
9
$INSUNITS
70
4
9
$ACADVER
1
AC1014
9
$HANDSEED
5
FFFF
0
ENDSEC
0
SECTION
2
TABLES
0
TABLE
2
VPORT
5
8
100
AcDbSymbolTable
0
ENDTAB
0
TABLE
2
LTYPE
5
5
100
AcDbSymbolTable
0
LTYPE
5
14
100
AcDbSymbolTableRecord
100
AcDbLinetypeTableRecord
2
BYBLOCK
70
0
0
LTYPE
5
15
100
AcDbSymbolTableRecord
100
AcDbLinetypeTableRecord
2
BYLAYER
70
0
0
ENDTAB
0
TABLE
2
LAYER
5
2
100
AcDbSymbolTable
70
2
0
LAYER
5
50
100
AcDbSymbolTableRecord
100
AcDbLayerTableRecord
2
0
70
0
6
CONTINUOUS
0
ENDTAB
0
TABLE
2
STYLE
5
3
100
AcDbSymbolTable
70
1
0
STYLE
5
11
100
AcDbSymbolTableRecord
100
AcDbTextStyleTableRecord
2
STANDARD
70
0
0
ENDTAB
0
TABLE
2
VIEW
5
6
100
AcDbSymbolTable
70
0
0
ENDTAB
0
TABLE
2
UCS
5
7
100
AcDbSymbolTable
70
0
0
ENDTAB
0
TABLE
2
APPID
5
9
100
AcDbSymbolTable
70
2
0
APPID
5
12
100
AcDbSymbolTableRecord
100
AcDbRegAppTableRecord
2
ACAD
70
0
0
ENDTAB
0
TABLE
2
DIMSTYLE
5
A
100
AcDbSymbolTable
70
1
0
ENDTAB
0
TABLE
2
BLOCK_RECORD
5
1
100
AcDbSymbolTable
70
1
0
BLOCK_RECORD
5
1F
100
AcDbSymbolTableRecord
100
AcDbBlockTableRecord
2
*MODEL_SPACE
0
BLOCK_RECORD
5
1B
100
AcDbSymbolTableRecord
100
AcDbBlockTableRecord
2
*PAPER_SPACE
0
ENDTAB
0
ENDSEC
0
SECTION
2
BLOCKS
0
BLOCK
5
20
100
AcDbEntity
100
AcDbBlockBegin
2
*MODEL_SPACE
0
ENDBLK
5
21
100
AcDbEntity
100
AcDbBlockEnd
0
BLOCK
5
1C
100
AcDbEntity
100
AcDbBlockBegin
2
*PAPER_SPACE
0
ENDBLK
5
1D
100
AcDbEntity
100
AcDbBlockEnd
0
ENDSEC
0
SECTION
2
ENTITIES
0
CIRCLE
5
100
100
AcDbEntity
8
0
100
AcDbCircle
10
-24.580000000000002
20
-51.070000000000007
30
0
40
0.50800000000000167
0
CIRCLE
5
101
100
AcDbEntity
8
0
100
AcDbCircle
10
-22.040000000000003
20
-51.070000000000007
30
0
40
0.50800000000000167
0
CIRCLE
5
102
100
AcDbEntity
8
0
100
AcDbCircle
10
-19.5
20
-51.070000000000007
30
0
40
0.50799999999999956
0
CIRCLE
5
103
100
AcDbEntity
8
0
100
AcDbCircle
10
-16.960000000000001
20
-51.070000000000007
30
0
40
0.50799999999999956
0
CIRCLE
5
104
100
AcDbEntity
8
0
100
AcDbCircle
10
-14.420000000000002
20
-51.070000000000007
30
0
40
0.50799999999999956
0
CIRCLE
5
105
100
AcDbEntity
8
0
100
AcDbCircle
10
-39.713679656440362
20
-72.140679656440355
30
0
40
0.89999999999999858
0
CIRCLE
5
106
100
AcDbEntity
8
0
100
AcDbCircle
10
-45.454359312880719
20
-65.82135931288073
30
0
40
0.89999999999999858
0
CIRCLE
5
107
100
AcDbEntity
8
0
100
AcDbCircle
10
-49.697000000000003
20
-70.064000000000007
30
0
40
0.89999999999999858
0
CIRCLE
5
108
100
AcDbEntity
8
0
100
AcDbCircle
10
-82.079999999999998
20
-25.030000000000001
30
0
40
0.89999999999999858
0
CIRCLE
5
109
100
AcDbEntity
8
0
100
AcDbCircle
10
-86.739999999999995
20
-17.640000000000001
30
0
40
0.89999999999999858
0
CIRCLE
5
110
100
AcDbEntity
8
0
100
AcDbCircle
10
-80.739999999999995
20
-17.640000000000001
30
0
40
0.89999999999999858
0
CIRCLE
5
111
100
AcDbEntity
8
0
100
AcDbCircle
10
-80.010000000000019
20
20.909409051224948
30
0
40
0.50799999999999734
0
CIRCLE
5
112
100
AcDbEntity
8
0
100
AcDbCircle
10
-82.550000000000011
20
16.510000000000002
30
0
40
0.50800000000000622
0
CIRCLE
5
113
100
AcDbEntity
8
0
100
AcDbCircle
10
-33.02000000000001
20
-43.13000000000001
30
0
40
0.49999999999999822
0
CIRCLE
5
114
100
AcDbEntity
8
0
100
AcDbCircle
10
-33.020000000000003
20
-38.050000000000004
30
0
40
0.49999999999999822
0
CIRCLE
5
115
100
AcDbEntity
8
0
100
AcDbCircle
10
-33.020000000000003
20
-21.370000000000005
30
0
40
0.49999999999999822
0
CIRCLE
5
116
100
AcDbEntity
8
0
100
AcDbCircle
10
-33.020000000000003
20
-26.450000000000003
30
0
40
0.49999999999999822
0
CIRCLE
5
117
100
AcDbEntity
8
0
100
AcDbCircle
10
-33.020000000000003
20
-31.530000000000005
30
0
40
0.49999999999999822
0
CIRCLE
5
118
100
AcDbEntity
8
0
100
AcDbCircle
10
77.184705454388066
20
-37.74159944638761
30
0
40
0.65000000000000391
0
CIRCLE
5
119
100
AcDbEntity
8
0
100
AcDbCircle
10
-83.989999999999995
20
-13.69
30
0
40
0.64999999999999503
0
CIRCLE
5
120
100
AcDbEntity
8
0
100
AcDbCircle
10
82.679000000000002
20
-13.373999999999999
30
0
40
0.64999999999999503
0
CIRCLE
5
121
100
AcDbEntity
8
0
100
AcDbCircle
10
39.525999999999996
20
-39.771000000000001
30
0
40
0.64999999999999947
0
CIRCLE
5
122
100
AcDbEntity
8
0
100
AcDbCircle
10
-54.009999999999998
20
-12.450000000000001
30
0
40
0.37499999999999645
0
CIRCLE
5
123
100
AcDbEntity
8
0
100
AcDbCircle
10
-77.010000000000005
20
8.889999999999997
30
0
40
0.37499999999999645
0
CIRCLE
5
124
100
AcDbEntity
8
0
100
AcDbCircle
10
-77.010000000000005
20
3.8100000000000023
30
0
40
0.37499999999999645
0
CIRCLE
5
125
100
AcDbEntity
8
0
100
AcDbCircle
10
-77.010000000000005
20
-1.2700000000000022
30
0
40
0.37499999999999645
0
CIRCLE
5
126
100
AcDbEntity
8
0
100
AcDbCircle
10
-77.010000000000005
20
-6.3499999999999979
30
0
40
0.37499999999999645
0
CIRCLE
5
127
100
AcDbEntity
8
0
100
AcDbCircle
10
-77.010000000000005
20
-11.430000000000003
30
0
40
0.37499999999999645
0
CIRCLE
5
128
100
AcDbEntity
8
0
100
AcDbCircle
10
-77.010000000000005
20
-16.510000000000002
30
0
40
0.37499999999999645
0
CIRCLE
5
129
100
AcDbEntity
8
0
100
AcDbCircle
10
-77.010000000000005
20
-21.590000000000003
30
0
40
0.37499999999999645
0
CIRCLE
5
130
100
AcDbEntity
8
0
100
AcDbCircle
10
-77.010000000000005
20
-26.670000000000002
30
0
40
0.37499999999999645
0
CIRCLE
5
131
100
AcDbEntity
8
0
100
AcDbCircle
10
-77.010000000000005
20
-31.750000000000004
30
0
40
0.37499999999999645
0
CIRCLE
5
132
100
AcDbEntity
8
0
100
AcDbCircle
10
51.939999999999991
20
-7.2299999999999915
30
0
40
0.37499999999999645
0
CIRCLE
5
133
100
AcDbEntity
8
0
100
AcDbCircle
10
74.939999999999984
20
-28.57
30
0
40
0.37499999999999645
0
CIRCLE
5
134
100
AcDbEntity
8
0
100
AcDbCircle
10
74.939999999999984
20
-23.490000000000002
30
0
40
0.37499999999999645
0
CIRCLE
5
135
100
AcDbEntity
8
0
100
AcDbCircle
10
74.939999999999984
20
-18.41
30
0
40
0.37499999999999645
0
CIRCLE
5
136
100
AcDbEntity
8
0
100
AcDbCircle
10
74.939999999999984
20
-13.330000000000004
30
0
40
0.37499999999999645
0
CIRCLE
5
137
100
AcDbEntity
8
0
100
AcDbCircle
10
74.939999999999984
20
-8.25
30
0
40
0.37499999999999645
0
CIRCLE
5
138
100
AcDbEntity
8
0
100
AcDbCircle
10
74.939999999999984
20
-3.1699999999999995
30
0
40
0.37499999999999645
0
CIRCLE
5
139
100
AcDbEntity
8
0
100
AcDbCircle
10
74.939999999999998
20
1.9100000000000006
30
0
40
0.37499999999999645
0
CIRCLE
5
140
100
AcDbEntity
8
0
100
AcDbCircle
10
74.939999999999998
20
6.9900000000000002
30
0
40
0.37499999999999645
0
CIRCLE
5
141
100
AcDbEntity
8
0
100
AcDbCircle
10
74.939999999999998
20
12.07
30
0
40
0.37499999999999645
0
CIRCLE
5
142
100
AcDbEntity
8
0
100
AcDbCircle
10
-2.5399999999999978
20
36.830000000000005
30
0
40
0.55900000000000005
0
CIRCLE
5
143
100
AcDbEntity
8
0
100
AcDbCircle
10
2.5400000000000023
20
36.829999999999998
30
0
40
0.55900000000000005
0
CIRCLE
5
144
100
AcDbEntity
8
0
100
AcDbCircle
10
-26.137
20
-0.079999999999997851
30
0
40
0.48249999999999904
0
CIRCLE
5
145
100
AcDbEntity
8
0
100
AcDbCircle
10
-26.137
20
5
30
0
40
0.48249999999999904
0
CIRCLE
5
146
100
AcDbEntity
8
0
100
AcDbCircle
10
-21.589999999999996
20
-44.530000000000001
30
0
40
0.48249999999999904
0
CIRCLE
5
147
100
AcDbEntity
8
0
100
AcDbCircle
10
-21.589999999999996
20
-39.450000000000003
30
0
40
0.48249999999999904
0
CIRCLE
5
148
100
AcDbEntity
8
0
100
AcDbCircle
10
-21.589999999999996
20
-34.370000000000005
30
0
40
0.48249999999999904
0
CIRCLE
5
149
100
AcDbEntity
8
0
100
AcDbCircle
10
-19.050000000000001
20
-41.989999999999995
30
0
40
0.48249999999999904
0
CIRCLE
5
150
100
AcDbEntity
8
0
100
AcDbCircle
10
-19.050000000000001
20
-36.910000000000004
30
0
40
0.48249999999999904
0
CIRCLE
5
151
100
AcDbEntity
8
0
100
AcDbCircle
10
-13.969999999999999
20
-44.530000000000001
30
0
40
0.48249999999999904
0
CIRCLE
5
152
100
AcDbEntity
8
0
100
AcDbCircle
10
-13.969999999999999
20
-39.450000000000003
30
0
40
0.48249999999999904
0
CIRCLE
5
153
100
AcDbEntity
8
0
100
AcDbCircle
10
-13.969999999999999
20
-34.370000000000005
30
0
40
0.48249999999999904
0
CIRCLE
5
154
100
AcDbEntity
8
0
100
AcDbCircle
10
-13.969999999999999
20
-29.290000000000003
30
0
40
0.48249999999999904
0
CIRCLE
5
155
100
AcDbEntity
8
0
100
AcDbCircle
10
-13.969999999999999
20
-24.210000000000001
30
0
40
0.48249999999999904
0
CIRCLE
5
156
100
AcDbEntity
8
0
100
AcDbCircle
10
-29.210000000000001
20
-44.530000000000001
30
0
40
0.48249999999999904
0
CIRCLE
5
157
100
AcDbEntity
8
0
100
AcDbCircle
10
-29.210000000000001
20
-39.450000000000003
30
0
40
0.48249999999999904
0
CIRCLE
5
158
100
AcDbEntity
8
0
100
AcDbCircle
10
-29.210000000000001
20
-34.370000000000005
30
0
40
0.48249999999999904
0
CIRCLE
5
159
100
AcDbEntity
8
0
100
AcDbCircle
10
-29.210000000000001
20
-29.290000000000003
30
0
40
0.48249999999999904
0
CIRCLE
5
160
100
AcDbEntity
8
0
100
AcDbCircle
10
-29.210000000000001
20
-24.210000000000001
30
0
40
0.48249999999999904
0
CIRCLE
5
161
100
AcDbEntity
8
0
100
AcDbCircle
10
-21.589999999999996
20
-1.3499999999999979
30
0
40
0.48249999999999904
0
CIRCLE
5
162
100
AcDbEntity
8
0
100
AcDbCircle
10
-19.050000000000001
20
-1.3499999999999979
30
0
40
0.48249999999999904
0
CIRCLE
5
163
100
AcDbEntity
8
0
100
AcDbCircle
10
-19.050000000000001
20
-6.4299999999999997
30
0
40
0.48249999999999904
0
CIRCLE
5
164
100
AcDbEntity
8
0
100
AcDbCircle
10
-19.050000000000001
20
-29.290000000000003
30
0
40
0.48249999999999904
0
CIRCLE
5
165
100
AcDbEntity
8
0
100
AcDbCircle
10
-21.589999999999996
20
-6.4299999999999997
30
0
40
0.48249999999999904
0
CIRCLE
5
166
100
AcDbEntity
8
0
100
AcDbCircle
10
62.541000000000004
20
57.103127018922194
30
0
40
0.54999999999999716
0
CIRCLE
5
167
100
AcDbEntity
8
0
100
AcDbCircle
10
-21.589999999999996
20
-26.750000000000004
30
0
40
0.48249999999999904
0
CIRCLE
5
168
100
AcDbEntity
8
0
100
AcDbCircle
10
-21.589999999999996
20
-29.290000000000003
30
0
40
0.48249999999999904
0
CIRCLE
5
169
100
AcDbEntity
8
0
100
AcDbCircle
10
-16.510000000000002
20
3.7300000000000022
30
0
40
0.48249999999999904
0
CIRCLE
5
170
100
AcDbEntity
8
0
100
AcDbCircle
10
-16.510000000000002
20
11.350000000000001
30
0
40
0.48249999999999904
0
CIRCLE
5
171
100
AcDbEntity
8
0
100
AcDbCircle
10
-13.969999999999999
20
11.350000000000001
30
0
40
0.48249999999999904
0
CIRCLE
5
172
100
AcDbEntity
8
0
100
AcDbCircle
10
-13.969999999999999
20
6.2700000000000022
30
0
40
0.48249999999999904
0
CIRCLE
5
173
100
AcDbEntity
8
0
100
AcDbCircle
10
-13.969999999999999
20
1.1900000000000022
30
0
40
0.48249999999999904
0
CIRCLE
5
174
100
AcDbEntity
8
0
100
AcDbCircle
10
-13.969999999999999
20
-3.8899999999999979
30
0
40
0.48249999999999904
0
CIRCLE
5
175
100
AcDbEntity
8
0
100
AcDbCircle
10
-13.969999999999999
20
-8.9699999999999989
30
0
40
0.48249999999999904
0
CIRCLE
5
176
100
AcDbEntity
8
0
100
AcDbCircle
10
-13.969999999999999
20
-14.050000000000001
30
0
40
0.48249999999999904
0
CIRCLE
5
177
100
AcDbEntity
8
0
100
AcDbCircle
10
-13.969999999999999
20
-19.129999999999999
30
0
40
0.48249999999999904
0
CIRCLE
5
178
100
AcDbEntity
8
0
100
AcDbCircle
10
-19.050000000000001
20
-31.830000000000002
30
0
40
0.48249999999999904
0
CIRCLE
5
179
100
AcDbEntity
8
0
100
AcDbCircle
10
-24.130000000000003
20
-31.830000000000002
30
0
40
0.48249999999999904
0
CIRCLE
5
180
100
AcDbEntity
8
0
100
AcDbCircle
10
-29.210000000000001
20
-19.129999999999999
30
0
40
0.48249999999999904
0
CIRCLE
5
181
100
AcDbEntity
8
0
100
AcDbCircle
10
-29.210000000000001
20
-14.050000000000001
30
0
40
0.48249999999999904
0
CIRCLE
5
182
100
AcDbEntity
8
0
100
AcDbCircle
10
-29.210000000000001
20
-8.9699999999999989
30
0
40
0.48249999999999904
0
CIRCLE
5
183
100
AcDbEntity
8
0
100
AcDbCircle
10
-29.210000000000001
20
-3.8899999999999979
30
0
40
0.48249999999999904
0
CIRCLE
5
184
100
AcDbEntity
8
0
100
AcDbCircle
10
-29.210000000000001
20
1.1900000000000022
30
0
40
0.48249999999999904
0
CIRCLE
5
185
100
AcDbEntity
8
0
100
AcDbCircle
10
-29.210000000000001
20
6.2700000000000022
30
0
40
0.48249999999999904
0
CIRCLE
5
186
100
AcDbEntity
8
0
100
AcDbCircle
10
-29.210000000000001
20
11.350000000000001
30
0
40
0.48249999999999904
0
CIRCLE
5
187
100
AcDbEntity
8
0
100
AcDbCircle
10
17.042999999999999
20
-2.6200000000000001
30
0
40
0.48249999999999904
0
CIRCLE
5
188
100
AcDbEntity
8
0
100
AcDbCircle
10
17.042999999999999
20
2.46
30
0
40
0.48249999999999904
0
CIRCLE
5
189
100
AcDbEntity
8
0
100
AcDbCircle
10
17.042999999999999
20
7.5400000000000045
30
0
40
0.48249999999999904
0
CIRCLE
5
190
100
AcDbEntity
8
0
100
AcDbCircle
10
21.589999999999996
20
-41.989999999999995
30
0
40
0.48249999999999904
0
CIRCLE
5
191
100
AcDbEntity
8
0
100
AcDbCircle
10
21.589999999999996
20
-36.910000000000004
30
0
40
0.48249999999999904
0
CIRCLE
5
192
100
AcDbEntity
8
0
100
AcDbCircle
10
24.130000000000003
20
-44.530000000000001
30
0
40
0.48249999999999904
0
CIRCLE
5
193
100
AcDbEntity
8
0
100
AcDbCircle
10
24.130000000000003
20
-39.450000000000003
30
0
40
0.48249999999999904
0
CIRCLE
5
194
100
AcDbEntity
8
0
100
AcDbCircle
10
24.130000000000003
20
-34.370000000000005
30
0
40
0.48249999999999904
0
CIRCLE
5
195
100
AcDbEntity
8
0
100
AcDbCircle
10
29.210000000000001
20
-41.989999999999995
30
0
40
0.48249999999999904
0
CIRCLE
5
196
100
AcDbEntity
8
0
100
AcDbCircle
10
29.210000000000001
20
-36.910000000000004
30
0
40
0.48249999999999904
0
CIRCLE
5
197
100
AcDbEntity
8
0
100
AcDbCircle
10
29.210000000000001
20
-31.830000000000002
30
0
40
0.48249999999999904
0
CIRCLE
5
198
100
AcDbEntity
8
0
100
AcDbCircle
10
29.210000000000001
20
-26.750000000000004
30
0
40
0.48249999999999904
0
CIRCLE
5
199
100
AcDbEntity
8
0
100
AcDbCircle
10
29.210000000000001
20
-21.669999999999998
30
0
40
0.48249999999999904
0
CIRCLE
5
200
100
AcDbEntity
8
0
100
AcDbCircle
10
13.969999999999999
20
-41.989999999999995
30
0
40
0.48249999999999904
0
CIRCLE
5
201
100
AcDbEntity
8
0
100
AcDbCircle
10
13.969999999999999
20
-36.910000000000004
30
0
40
0.48249999999999904
0
CIRCLE
5
202
100
AcDbEntity
8
0
100
AcDbCircle
10
13.969999999999999
20
-31.830000000000002
30
0
40
0.48249999999999904
0
CIRCLE
5
203
100
AcDbEntity
8
0
100
AcDbCircle
10
13.969999999999999
20
-26.750000000000004
30
0
40
0.48249999999999904
0
CIRCLE
5
204
100
AcDbEntity
8
0
100
AcDbCircle
10
13.969999999999999
20
-21.669999999999998
30
0
40
0.48249999999999904
0
CIRCLE
5
205
100
AcDbEntity
8
0
100
AcDbCircle
10
21.589999999999996
20
-3.8899999999999979
30
0
40
0.48249999999999904
0
CIRCLE
5
206
100
AcDbEntity
8
0
100
AcDbCircle
10
24.130000000000003
20
-3.8899999999999979
30
0
40
0.48249999999999904
0
CIRCLE
5
207
100
AcDbEntity
8
0
100
AcDbCircle
10
24.130000000000003
20
-8.9699999999999989
30
0
40
0.48249999999999904
0
CIRCLE
5
208
100
AcDbEntity
8
0
100
AcDbCircle
10
24.130000000000003
20
-26.750000000000004
30
0
40
0.48249999999999904
0
CIRCLE
5
209
100
AcDbEntity
8
0
100
AcDbCircle
10
21.589999999999996
20
-8.9699999999999989
30
0
40
0.48249999999999904
0
CIRCLE
5
210
100
AcDbEntity
8
0
100
AcDbCircle
10
21.589999999999996
20
-26.750000000000004
30
0
40
0.48249999999999904
0
CIRCLE
5
211
100
AcDbEntity
8
0
100
AcDbCircle
10
21.589999999999996
20
-29.290000000000003
30
0
40
0.48249999999999904
0
CIRCLE
5
212
100
AcDbEntity
8
0
100
AcDbCircle
10
26.669999999999998
20
3.7300000000000022
30
0
40
0.48249999999999904
0
CIRCLE
5
213
100
AcDbEntity
8
0
100
AcDbCircle
10
26.669999999999998
20
11.350000000000001
30
0
40
0.48249999999999904
0
CIRCLE
5
214
100
AcDbEntity
8
0
100
AcDbCircle
10
29.210000000000001
20
11.350000000000001
30
0
40
0.48249999999999904
0
CIRCLE
5
215
100
AcDbEntity
8
0
100
AcDbCircle
10
29.210000000000001
20
6.2700000000000022
30
0
40
0.48249999999999904
0
CIRCLE
5
216
100
AcDbEntity
8
0
100
AcDbCircle
10
29.210000000000001
20
1.1900000000000022
30
0
40
0.48249999999999904
0
CIRCLE
5
217
100
AcDbEntity
8
0
100
AcDbCircle
10
29.210000000000001
20
-3.8899999999999979
30
0
40
0.48249999999999904
0
CIRCLE
5
218
100
AcDbEntity
8
0
100
AcDbCircle
10
29.210000000000001
20
-8.9699999999999989
30
0
40
0.48249999999999904
0
CIRCLE
5
219
100
AcDbEntity
8
0
100
AcDbCircle
10
29.210000000000001
20
-14.050000000000001
30
0
40
0.48249999999999904
0
CIRCLE
5
220
100
AcDbEntity
8
0
100
AcDbCircle
10
29.210000000000001
20
-19.129999999999999
30
0
40
0.48249999999999904
0
CIRCLE
5
221
100
AcDbEntity
8
0
100
AcDbCircle
10
24.130000000000003
20
-31.830000000000002
30
0
40
0.48249999999999904
0
CIRCLE
5
222
100
AcDbEntity
8
0
100
AcDbCircle
10
19.050000000000001
20
-31.830000000000002
30
0
40
0.48249999999999904
0
CIRCLE
5
223
100
AcDbEntity
8
0
100
AcDbCircle
10
13.969999999999999
20
-19.129999999999999
30
0
40
0.48249999999999904
0
CIRCLE
5
224
100
AcDbEntity
8
0
100
AcDbCircle
10
13.969999999999999
20
-14.050000000000001
30
0
40
0.48249999999999904
0
CIRCLE
5
225
100
AcDbEntity
8
0
100
AcDbCircle
10
13.969999999999999
20
-8.9699999999999989
30
0
40
0.48249999999999904
0
CIRCLE
5
226
100
AcDbEntity
8
0
100
AcDbCircle
10
13.969999999999999
20
-3.8899999999999979
30
0
40
0.48249999999999904
0
CIRCLE
5
227
100
AcDbEntity
8
0
100
AcDbCircle
10
13.969999999999999
20
1.1900000000000022
30
0
40
0.48249999999999904
0
CIRCLE
5
228
100
AcDbEntity
8
0
100
AcDbCircle
10
13.969999999999999
20
6.2700000000000022
30
0
40
0.48249999999999904
0
CIRCLE
5
229
100
AcDbEntity
8
0
100
AcDbCircle
10
13.969999999999999
20
11.350000000000001
30
0
40
0.48249999999999904
0
CIRCLE
5
230
100
AcDbEntity
8
0
100
AcDbCircle
10
7.6200000000000001
20
44.450000000000003
30
0
40
0.74949999999999961
0
CIRCLE
5
231
100
AcDbEntity
8
0
100
AcDbCircle
10
35.632000000000005
20
34.38000000000001
30
0
40
0.5500000000000016
0
CIRCLE
5
232
100
AcDbEntity
8
0
100
AcDbCircle
10
65.040999999999997
20
52.773000000000003
30
0
40
0.54999999999999716
0
CIRCLE
5
233
100
AcDbEntity
8
0
100
AcDbCircle
10
33.131999999999998
20
38.710127018922201
30
0
40
0.5500000000000016
0
CIRCLE
5
234
100
AcDbEntity
8
0
100
AcDbCircle
10
-7.6200000000000001
20
44.450000000000003
30
0
40
0.74949999999999961
0
CIRCLE
5
235
100
AcDbEntity
8
0
100
AcDbCircle
10
13.969999999999999
20
13.890000000000002
30
0
40
0.48249999999999904
0
CIRCLE
5
236
100
AcDbEntity
8
0
100
AcDbCircle
10
13.969999999999999
20
8.8100000000000023
30
0
40
0.48249999999999904
0
CIRCLE
5
237
100
AcDbEntity
8
0
100
AcDbCircle
10
13.969999999999999
20
3.7300000000000022
30
0
40
0.48249999999999904
0
CIRCLE
5
238
100
AcDbEntity
8
0
100
AcDbCircle
10
13.969999999999999
20
-1.3499999999999979
30
0
40
0.48249999999999904
0
CIRCLE
5
239
100
AcDbEntity
8
0
100
AcDbCircle
10
13.969999999999999
20
-6.4299999999999997
30
0
40
0.48249999999999904
0
CIRCLE
5
240
100
AcDbEntity
8
0
100
AcDbCircle
10
13.969999999999999
20
-11.509999999999998
30
0
40
0.48249999999999904
0
CIRCLE
5
241
100
AcDbEntity
8
0
100
AcDbCircle
10
13.969999999999999
20
-16.59
30
0
40
0.48249999999999904
0
CIRCLE
5
242
100
AcDbEntity
8
0
100
AcDbCircle
10
16.509999999999998
20
-31.830000000000002
30
0
40
0.48249999999999904
0
CIRCLE
5
243
100
AcDbEntity
8
0
100
AcDbCircle
10
21.589999999999996
20
-31.830000000000002
30
0
40
0.48249999999999904
0
CIRCLE
5
244
100
AcDbEntity
8
0
100
AcDbCircle
10
26.669999999999998
20
-31.830000000000002
30
0
40
0.48249999999999904
0
CIRCLE
5
245
100
AcDbEntity
8
0
100
AcDbCircle
10
29.210000000000001
20
-16.59
30
0
40
0.48249999999999904
0
CIRCLE
5
246
100
AcDbEntity
8
0
100
AcDbCircle
10
29.210000000000001
20
-11.509999999999998
30
0
40
0.48249999999999904
0
CIRCLE
5
247
100
AcDbEntity
8
0
100
AcDbCircle
10
29.210000000000001
20
-6.4299999999999997
30
0
40
0.48249999999999904
0
CIRCLE
5
248
100
AcDbEntity
8
0
100
AcDbCircle
10
29.210000000000001
20
-1.3499999999999979
30
0
40
0.48249999999999904
0
CIRCLE
5
249
100
AcDbEntity
8
0
100
AcDbCircle
10
29.210000000000001
20
3.7300000000000022
30
0
40
0.48249999999999904
0
CIRCLE
5
250
100
AcDbEntity
8
0
100
AcDbCircle
10
29.210000000000001
20
8.8100000000000023
30
0
40
0.48249999999999904
0
CIRCLE
5
251
100
AcDbEntity
8
0
100
AcDbCircle
10
29.210000000000001
20
13.890000000000002
30
0
40
0.48249999999999904
0
CIRCLE
5
252
100
AcDbEntity
8
0
100
AcDbCircle
10
26.669999999999998
20
6.2700000000000022
30
0
40
0.48249999999999904
0
CIRCLE
5
253
100
AcDbEntity
8
0
100
AcDbCircle
10
26.669999999999998
20
1.1900000000000022
30
0
40
0.48249999999999904
0
CIRCLE
5
254
100
AcDbEntity
8
0
100
AcDbCircle
10
24.130000000000003
20
-24.210000000000001
30
0
40
0.48249999999999904
0
CIRCLE
5
255
100
AcDbEntity
8
0
100
AcDbCircle
10
21.589999999999996
20
-24.210000000000001
30
0
40
0.48249999999999904
0
CIRCLE
5
256
100
AcDbEntity
8
0
100
AcDbCircle
10
21.589999999999996
20
-6.4299999999999997
30
0
40
0.48249999999999904
0
CIRCLE
5
257
100
AcDbEntity
8
0
100
AcDbCircle
10
24.130000000000003
20
-29.290000000000003
30
0
40
0.48249999999999904
0
CIRCLE
5
258
100
AcDbEntity
8
0
100
AcDbCircle
10
24.130000000000003
20
-6.4299999999999997
30
0
40
0.48249999999999904
0
CIRCLE
5
259
100
AcDbEntity
8
0
100
AcDbCircle
10
24.130000000000003
20
-1.3499999999999979
30
0
40
0.48249999999999904
0
CIRCLE
5
260
100
AcDbEntity
8
0
100
AcDbCircle
10
21.589999999999996
20
-1.3499999999999979
30
0
40
0.48249999999999904
0
CIRCLE
5
261
100
AcDbEntity
8
0
100
AcDbCircle
10
13.969999999999999
20
-24.210000000000001
30
0
40
0.48249999999999904
0
CIRCLE
5
262
100
AcDbEntity
8
0
100
AcDbCircle
10
13.969999999999999
20
-29.290000000000003
30
0
40
0.48249999999999904
0
CIRCLE
5
263
100
AcDbEntity
8
0
100
AcDbCircle
10
13.969999999999999
20
-34.370000000000005
30
0
40
0.48249999999999904
0
CIRCLE
5
264
100
AcDbEntity
8
0
100
AcDbCircle
10
13.969999999999999
20
-39.450000000000003
30
0
40
0.48249999999999904
0
CIRCLE
5
265
100
AcDbEntity
8
0
100
AcDbCircle
10
13.969999999999999
20
-44.530000000000001
30
0
40
0.48249999999999904
0
CIRCLE
5
266
100
AcDbEntity
8
0
100
AcDbCircle
10
29.210000000000001
20
-24.210000000000001
30
0
40
0.48249999999999904
0
CIRCLE
5
267
100
AcDbEntity
8
0
100
AcDbCircle
10
29.210000000000001
20
-29.290000000000003
30
0
40
0.48249999999999904
0
CIRCLE
5
268
100
AcDbEntity
8
0
100
AcDbCircle
10
29.210000000000001
20
-34.370000000000005
30
0
40
0.48249999999999904
0
CIRCLE
5
269
100
AcDbEntity
8
0
100
AcDbCircle
10
29.210000000000001
20
-39.450000000000003
30
0
40
0.48249999999999904
0
CIRCLE
5
270
100
AcDbEntity
8
0
100
AcDbCircle
10
29.210000000000001
20
-44.530000000000001
30
0
40
0.48249999999999904
0
CIRCLE
5
271
100
AcDbEntity
8
0
100
AcDbCircle
10
24.130000000000003
20
-36.910000000000004
30
0
40
0.48249999999999904
0
CIRCLE
5
272
100
AcDbEntity
8
0
100
AcDbCircle
10
24.130000000000003
20
-41.989999999999995
30
0
40
0.48249999999999904
0
CIRCLE
5
273
100
AcDbEntity
8
0
100
AcDbCircle
10
21.589999999999996
20
-34.370000000000005
30
0
40
0.48249999999999904
0
CIRCLE
5
274
100
AcDbEntity
8
0
100
AcDbCircle
10
21.589999999999996
20
-39.450000000000003
30
0
40
0.48249999999999904
0
CIRCLE
5
275
100
AcDbEntity
8
0
100
AcDbCircle
10
21.589999999999996
20
-44.530000000000001
30
0
40
0.48249999999999904
0
CIRCLE
5
276
100
AcDbEntity
8
0
100
AcDbCircle
10
17.042999999999999
20
5
30
0
40
0.48249999999999904
0
CIRCLE
5
277
100
AcDbEntity
8
0
100
AcDbCircle
10
17.042999999999999
20
-0.079999999999997851
30
0
40
0.48249999999999904
0
CIRCLE
5
278
100
AcDbEntity
8
0
100
AcDbCircle
10
-29.210000000000001
20
13.890000000000002
30
0
40
0.48249999999999904
0
CIRCLE
5
279
100
AcDbEntity
8
0
100
AcDbCircle
10
-29.210000000000001
20
8.8100000000000023
30
0
40
0.48249999999999904
0
CIRCLE
5
280
100
AcDbEntity
8
0
100
AcDbCircle
10
-29.210000000000001
20
3.7300000000000022
30
0
40
0.48249999999999904
0
CIRCLE
5
281
100
AcDbEntity
8
0
100
AcDbCircle
10
-29.210000000000001
20
-1.3499999999999979
30
0
40
0.48249999999999904
0
CIRCLE
5
282
100
AcDbEntity
8
0
100
AcDbCircle
10
-29.210000000000001
20
-6.4299999999999997
30
0
40
0.48249999999999904
0
CIRCLE
5
283
100
AcDbEntity
8
0
100
AcDbCircle
10
-29.210000000000001
20
-11.509999999999998
30
0
40
0.48249999999999904
0
CIRCLE
5
284
100
AcDbEntity
8
0
100
AcDbCircle
10
-29.210000000000001
20
-16.59
30
0
40
0.48249999999999904
0
CIRCLE
5
285
100
AcDbEntity
8
0
100
AcDbCircle
10
-26.670000000000002
20
-31.830000000000002
30
0
40
0.48249999999999904
0
CIRCLE
5
286
100
AcDbEntity
8
0
100
AcDbCircle
10
-21.589999999999996
20
-31.830000000000002
30
0
40
0.48249999999999904
0
CIRCLE
5
287
100
AcDbEntity
8
0
100
AcDbCircle
10
-16.510000000000002
20
-31.830000000000002
30
0
40
0.48249999999999904
0
CIRCLE
5
288
100
AcDbEntity
8
0
100
AcDbCircle
10
-13.969999999999999
20
-16.59
30
0
40
0.48249999999999904
0
CIRCLE
5
289
100
AcDbEntity
8
0
100
AcDbCircle
10
-13.969999999999999
20
-11.509999999999998
30
0
40
0.48249999999999904
0
CIRCLE
5
290
100
AcDbEntity
8
0
100
AcDbCircle
10
-13.969999999999999
20
-6.4299999999999997
30
0
40
0.48249999999999904
0
CIRCLE
5
291
100
AcDbEntity
8
0
100
AcDbCircle
10
-13.969999999999999
20
-1.3499999999999979
30
0
40
0.48249999999999904
0
CIRCLE
5
292
100
AcDbEntity
8
0
100
AcDbCircle
10
-13.969999999999999
20
3.7300000000000022
30
0
40
0.48249999999999904
0
CIRCLE
5
293
100
AcDbEntity
8
0
100
AcDbCircle
10
-13.969999999999999
20
8.8100000000000023
30
0
40
0.48249999999999904
0
CIRCLE
5
294
100
AcDbEntity
8
0
100
AcDbCircle
10
-13.969999999999999
20
13.890000000000002
30
0
40
0.48249999999999904
0
CIRCLE
5
295
100
AcDbEntity
8
0
100
AcDbCircle
10
-16.510000000000002
20
6.2700000000000022
30
0
40
0.48249999999999904
0
CIRCLE
5
296
100
AcDbEntity
8
0
100
AcDbCircle
10
-16.510000000000002
20
1.1900000000000022
30
0
40
0.48249999999999904
0
CIRCLE
5
297
100
AcDbEntity
8
0
100
AcDbCircle
10
-19.050000000000001
20
-24.210000000000001
30
0
40
0.48249999999999904
0
CIRCLE
5
298
100
AcDbEntity
8
0
100
AcDbCircle
10
-21.589999999999996
20
-24.210000000000001
30
0
40
0.48249999999999904
0
CIRCLE
5
299
100
AcDbEntity
8
0
100
AcDbCircle
10
-21.589999999999996
20
-8.9699999999999989
30
0
40
0.48249999999999904
0
CIRCLE
5
300
100
AcDbEntity
8
0
100
AcDbCircle
10
-19.050000000000001
20
-26.750000000000004
30
0
40
0.48249999999999904
0
CIRCLE
5
301
100
AcDbEntity
8
0
100
AcDbCircle
10
-19.050000000000001
20
-8.9699999999999989
30
0
40
0.48249999999999904
0
CIRCLE
5
302
100
AcDbEntity
8
0
100
AcDbCircle
10
-19.050000000000001
20
-3.8899999999999979
30
0
40
0.48249999999999904
0
CIRCLE
5
303
100
AcDbEntity
8
0
100
AcDbCircle
10
-21.589999999999996
20
-3.8899999999999979
30
0
40
0.48249999999999904
0
CIRCLE
5
304
100
AcDbEntity
8
0
100
AcDbCircle
10
-29.210000000000001
20
-21.669999999999998
30
0
40
0.48249999999999904
0
CIRCLE
5
305
100
AcDbEntity
8
0
100
AcDbCircle
10
-29.210000000000001
20
-26.750000000000004
30
0
40
0.48249999999999904
0
CIRCLE
5
306
100
AcDbEntity
8
0
100
AcDbCircle
10
-29.210000000000001
20
-31.830000000000002
30
0
40
0.48249999999999904
0
CIRCLE
5
307
100
AcDbEntity
8
0
100
AcDbCircle
10
-29.210000000000001
20
-36.910000000000004
30
0
40
0.48249999999999904
0
CIRCLE
5
308
100
AcDbEntity
8
0
100
AcDbCircle
10
-29.210000000000001
20
-41.989999999999995
30
0
40
0.48249999999999904
0
CIRCLE
5
309
100
AcDbEntity
8
0
100
AcDbCircle
10
-13.969999999999999
20
-21.669999999999998
30
0
40
0.48249999999999904
0
CIRCLE
5
310
100
AcDbEntity
8
0
100
AcDbCircle
10
-13.969999999999999
20
-26.750000000000004
30
0
40
0.48249999999999904
0
CIRCLE
5
311
100
AcDbEntity
8
0
100
AcDbCircle
10
-13.969999999999999
20
-31.830000000000002
30
0
40
0.48249999999999904
0
CIRCLE
5
312
100
AcDbEntity
8
0
100
AcDbCircle
10
-13.969999999999999
20
-36.910000000000004
30
0
40
0.48249999999999904
0
CIRCLE
5
313
100
AcDbEntity
8
0
100
AcDbCircle
10
-13.969999999999999
20
-41.989999999999995
30
0
40
0.48249999999999904
0
CIRCLE
5
314
100
AcDbEntity
8
0
100
AcDbCircle
10
-19.050000000000001
20
-34.370000000000005
30
0
40
0.48249999999999904
0
CIRCLE
5
315
100
AcDbEntity
8
0
100
AcDbCircle
10
-19.050000000000001
20
-39.450000000000003
30
0
40
0.48249999999999904
0
CIRCLE
5
316
100
AcDbEntity
8
0
100
AcDbCircle
10
-19.050000000000001
20
-44.530000000000001
30
0
40
0.48249999999999904
0
CIRCLE
5
317
100
AcDbEntity
8
0
100
AcDbCircle
10
-21.589999999999996
20
-36.910000000000004
30
0
40
0.48249999999999904
0
CIRCLE
5
318
100
AcDbEntity
8
0
100
AcDbCircle
10
-21.589999999999996
20
-41.989999999999995
30
0
40
0.48249999999999904
0
CIRCLE
5
319
100
AcDbEntity
8
0
100
AcDbCircle
10
-26.137
20
7.5400000000000045
30
0
40
0.48249999999999904
0
CIRCLE
5
320
100
AcDbEntity
8
0
100
AcDbCircle
10
-26.137
20
2.46
30
0
40
0.48249999999999904
0
CIRCLE
5
321
100
AcDbEntity
8
0
100
AcDbCircle
10
-26.137
20
-2.6200000000000001
30
0
40
0.48249999999999904
0
CIRCLE
5
322
100
AcDbEntity
8
0
100
AcDbCircle
10
2.3328751040316293e-15
20
36.830000000000005
30
0
40
0.55900000000000005
0
CIRCLE
5
323
100
AcDbEntity
8
0
100
AcDbCircle
10
-4.1058601830956677e-15
20
19.303999999999998
30
0
40
1.6510000000000002
0
CIRCLE
5
324
100
AcDbEntity
8
0
100
AcDbCircle
10
74.939999999999998
20
9.5300000000000011
30
0
40
0.37499999999999645
0
CIRCLE
5
325
100
AcDbEntity
8
0
100
AcDbCircle
10
74.939999999999998
20
4.4500000000000011
30
0
40
0.37499999999999645
0
CIRCLE
5
326
100
AcDbEntity
8
0
100
AcDbCircle
10
74.939999999999984
20
-0.63000000000000167
30
0
40
0.37499999999999645
0
CIRCLE
5
327
100
AcDbEntity
8
0
100
AcDbCircle
10
74.939999999999984
20
-5.7100000000000017
30
0
40
0.37499999999999645
0
CIRCLE
5
328
100
AcDbEntity
8
0
100
AcDbCircle
10
74.939999999999984
20
-10.789999999999999
30
0
40
0.37499999999999645
0
CIRCLE
5
329
100
AcDbEntity
8
0
100
AcDbCircle
10
74.939999999999984
20
-15.870000000000005
30
0
40
0.37499999999999645
0
CIRCLE
5
330
100
AcDbEntity
8
0
100
AcDbCircle
10
74.939999999999984
20
-20.950000000000006
30
0
40
0.37499999999999645
0
CIRCLE
5
331
100
AcDbEntity
8
0
100
AcDbCircle
10
74.939999999999984
20
-26.030000000000008
30
0
40
0.37499999999999645
0
CIRCLE
5
332
100
AcDbEntity
8
0
100
AcDbCircle
10
74.939999999999984
20
-31.110000000000007
30
0
40
0.37499999999999645
0
CIRCLE
5
333
100
AcDbEntity
8
0
100
AcDbCircle
10
51.939999999999991
20
-10.729999999999993
30
0
40
0.37499999999999645
0
CIRCLE
5
334
100
AcDbEntity
8
0
100
AcDbCircle
10
-77.010000000000005
20
-29.210000000000001
30
0
40
0.37499999999999645
0
CIRCLE
5
335
100
AcDbEntity
8
0
100
AcDbCircle
10
-77.010000000000005
20
-24.130000000000003
30
0
40
0.37499999999999645
0
CIRCLE
5
336
100
AcDbEntity
8
0
100
AcDbCircle
10
-77.010000000000005
20
-19.050000000000001
30
0
40
0.37499999999999645
0
CIRCLE
5
337
100
AcDbEntity
8
0
100
AcDbCircle
10
-77.010000000000005
20
-13.970000000000001
30
0
40
0.37499999999999645
0
CIRCLE
5
338
100
AcDbEntity
8
0
100
AcDbCircle
10
-77.010000000000005
20
-8.8900000000000023
30
0
40
0.37499999999999645
0
CIRCLE
5
339
100
AcDbEntity
8
0
100
AcDbCircle
10
-77.010000000000005
20
-3.8099999999999978
30
0
40
0.37499999999999645
0
CIRCLE
5
340
100
AcDbEntity
8
0
100
AcDbCircle
10
-77.010000000000005
20
1.2700000000000022
30
0
40
0.37499999999999645
0
CIRCLE
5
341
100
AcDbEntity
8
0
100
AcDbCircle
10
-77.010000000000005
20
6.3500000000000023
30
0
40
0.37499999999999645
0
CIRCLE
5
342
100
AcDbEntity
8
0
100
AcDbCircle
10
-77.010000000000005
20
11.430000000000003
30
0
40
0.37499999999999645
0
CIRCLE
5
343
100
AcDbEntity
8
0
100
AcDbCircle
10
-54.009999999999998
20
-8.9499999999999993
30
0
40
0.37499999999999645
0
CIRCLE
5
344
100
AcDbEntity
8
0
100
AcDbCircle
10
39.52600000000001
20
-14.771000000000001
30
0
40
0.64999999999999947
0
CIRCLE
5
345
100
AcDbEntity
8
0
100
AcDbCircle
10
82.679000000000002
20
11.626000000000001
30
0
40
0.64999999999999503
0
CIRCLE
5
346
100
AcDbEntity
8
0
100
AcDbCircle
10
-83.989999999999995
20
11.31
30
0
40
0.64999999999999503
0
CIRCLE
5
347
100
AcDbEntity
8
0
100
AcDbCircle
10
62.845294545611935
20
-58.220400553612407
30
0
40
0.65000000000000391
0
CIRCLE
5
348
100
AcDbEntity
8
0
100
AcDbCircle
10
-33.020000000000003
20
-28.990000000000006
30
0
40
0.49999999999999822
0
CIRCLE
5
349
100
AcDbEntity
8
0
100
AcDbCircle
10
-33.020000000000003
20
-23.910000000000004
30
0
40
0.49999999999999822
0
CIRCLE
5
350
100
AcDbEntity
8
0
100
AcDbCircle
10
-33.020000000000003
20
-35.510000000000005
30
0
40
0.49999999999999822
0
CIRCLE
5
351
100
AcDbEntity
8
0
100
AcDbCircle
10
-33.020000000000003
20
-40.590000000000003
30
0
40
0.49999999999999822
0
CIRCLE
5
352
100
AcDbEntity
8
0
100
AcDbCircle
10
-33.02000000000001
20
-45.670000000000002
30
0
40
0.49999999999999822
0
CIRCLE
5
353
100
AcDbEntity
8
0
100
AcDbCircle
10
-81.280000000000001
20
18.709704525612477
30
0
40
0.50800000000000622
0
CIRCLE
5
354
100
AcDbEntity
8
0
100
AcDbCircle
10
-78.740000000000009
20
23.109113576837423
30
0
40
0.50799999999999734
0
CIRCLE
5
355
100
AcDbEntity
8
0
100
AcDbCircle
10
-83.740000000000009
20
-17.640000000000001
30
0
40
0.89999999999999858
0
CIRCLE
5
356
100
AcDbEntity
8
0
100
AcDbCircle
10
-82.079999999999998
20
-28.030000000000005
30
0
40
0.89999999999999858
0
CIRCLE
5
357
100
AcDbEntity
8
0
100
AcDbCircle
10
-82.079999999999998
20
-22.030000000000001
30
0
40
0.89999999999999858
0
CIRCLE
5
358
100
AcDbEntity
8
0
100
AcDbCircle
10
-47.575679656440357
20
-67.942679656440376
30
0
40
0.89999999999999858
0
CIRCLE
5
359
100
AcDbEntity
8
0
100
AcDbCircle
10
-41.835000000000008
20
-74.262
30
0
40
0.89999999999999858
0
CIRCLE
5
360
100
AcDbEntity
8
0
100
AcDbCircle
10
-37.592359312880717
20
-70.019359312880724
30
0
40
0.89999999999999858
0
CIRCLE
5
361
100
AcDbEntity
8
0
100
AcDbCircle
10
-14.420000000000002
20
-53.610000000000007
30
0
40
0.50799999999999956
0
CIRCLE
5
362
100
AcDbEntity
8
0
100
AcDbCircle
10
-16.960000000000001
20
-53.610000000000007
30
0
40
0.50799999999999956
0
CIRCLE
5
363
100
AcDbEntity
8
0
100
AcDbCircle
10
-19.5
20
-53.610000000000007
30
0
40
0.50799999999999956
0
CIRCLE
5
364
100
AcDbEntity
8
0
100
AcDbCircle
10
-22.040000000000003
20
-53.610000000000007
30
0
40
0.50800000000000167
0
CIRCLE
5
365
100
AcDbEntity
8
0
100
AcDbCircle
10
-24.580000000000002
20
-53.610000000000007
30
0
40
0.50800000000000167
0
CIRCLE
5
366
100
AcDbEntity
8
0
100
AcDbCircle
10
-33.000000000000007
20
-90.133244969080252
30
0
40
1.4999999999999991
0
CIRCLE
5
367
100
AcDbEntity
8
0
100
AcDbCircle
10
94.557679868749489
20
16.487784159653618
30
0
40
1.5000000000000036
0
CIRCLE
5
368
100
AcDbEntity
8
0
100
AcDbCircle
10
-28.429112576655058
20
68.000001072883578
30
0
40
1.5000000000000036
0
CIRCLE
5
369
100
AcDbEntity
8
0
100
AcDbCircle
10
33.000000000000028
20
-90.133244969080252
30
0
40
1.5000000000000036
0
CIRCLE
5
370
100
AcDbEntity
8
0
100
AcDbCircle
10
-44.713118308517679
20
-84.687485305326007
30
0
40
1.5000000000000036
0
CIRCLE
5
371
100
AcDbEntity
8
0
100
AcDbCircle
10
-30.00000044703485
20
34.500000514090054
30
0
40
1.4999999999999991
0
CIRCLE
5
372
100
AcDbEntity
8
0
100
AcDbCircle
10
54.719689209244756
20
78.878106042447456
30
0
40
1.4999999999999858
0
CIRCLE
5
373
100
AcDbEntity
8
0
100
AcDbCircle
10
-95.953472535630993
20
2.988496001997305
30
0
40
1.5000000000000036
0
CIRCLE
5
374
100
AcDbEntity
8
0
100
AcDbCircle
10
61.557679868749474
20
73.645460809426609
30
0
40
1.5000000000000036
0
CIRCLE
5
375
100
AcDbEntity
8
0
100
AcDbCircle
10
-62.478184725461773
20
63.784609690826642
30
0
40
1.5000000000000036
0
CIRCLE
5
376
100
AcDbEntity
8
0
100
AcDbCircle
10
39.499999560415787
20
76.310514243611863
30
0
40
1.5000000000000036
0
CIRCLE
5
377
100
AcDbEntity
8
0
100
AcDbCircle
10
-94.557679868749446
20
16.487784159653692
30
0
40
1.5000000000000036
0
CIRCLE
5
378
100
AcDbEntity
8
0
100
AcDbCircle
10
46.907639183707381
20
83.759616678988195
30
0
40
1.4999999999999947
0
CIRCLE
5
379
100
AcDbEntity
8
0
100
AcDbCircle
10
95.953124999999773
20
2.9996337667076567
30
0
40
1.5000000000000036
0
CIRCLE
5
380
100
AcDbEntity
8
0
100
AcDbCircle
10
44.713118308517188
20
-84.687485305326007
30
0
40
1.5000000000000036
0
LWPOLYLINE
5
381
100
AcDbEntity
8
0
100
AcDbPolyline
90
14
70
1
43
0.0
10
-61.199127914670811
20
72.000001072883606
10
-92.076260936815146
20
18.519237886466907
10
-97.613558209291526
20
21.716197957314129
42
0.38930472693274598
10
-29.999999999999979
20
-95.393920141694579
10
-29.999999999999972
20
-89.000000000000128
10
30.000000000000028
20
-89.000000000000128
10
30.000000000000018
20
-95.393920141694565
42
0.38930472693274581
10
97.61355820929154
20
21.716197957314126
10
92.076260936815132
20
18.519237886466904
10
62.076260936815153
20
70.480762113533231
10
67.61355820929154
20
73.677722184380457
42
0.080943777811640416
10
40.724370058118723
20
91.331953244028341
42
0.51496093879296156
10
35.49999956041578
20
87.604537504690029
10
35.49999956041578
20
72.000001072883606
0
ENDSEC
0
SECTION
2
OBJECTS
0
DICTIONARY
5
C
100
AcDbDictionary
3
ACAD_GROUP
350
D
3
ACAD_MLINESTYLE
350
17
0
DICTIONARY
5
D
100
AcDbDictionary
0
DICTIONARY
5
1A
330
C
100
AcDbDictionary
0
DICTIONARY
5
17
100
AcDbDictionary
0
ENDSEC
0
EOF
