0
SECTION
2
HEADER
9
$INSUNITS
70
4
9
$ACADVER
1
AC1014
9
$HANDSEED
5
FFFF
0
ENDSEC
0
SECTION
2
TABLES
0
TABLE
2
VPORT
5
8
100
AcDbSymbolTable
0
ENDTAB
0
TABLE
2
LTYPE
5
5
100
AcDbSymbolTable
0
LTYPE
5
14
100
AcDbSymbolTableRecord
100
AcDbLinetypeTableRecord
2
BYBLOCK
70
0
0
LTYPE
5
15
100
AcDbSymbolTableRecord
100
AcDbLinetypeTableRecord
2
BYLAYER
70
0
0
ENDTAB
0
TABLE
2
LAYER
5
2
100
AcDbSymbolTable
70
2
0
LAYER
5
50
100
AcDbSymbolTableRecord
100
AcDbLayerTableRecord
2
0
70
0
6
CONTINUOUS
0
ENDTAB
0
TABLE
2
STYLE
5
3
100
AcDbSymbolTable
70
1
0
STYLE
5
11
100
AcDbSymbolTableRecord
100
AcDbTextStyleTableRecord
2
STANDARD
70
0
0
ENDTAB
0
TABLE
2
VIEW
5
6
100
AcDbSymbolTable
70
0
0
ENDTAB
0
TABLE
2
UCS
5
7
100
AcDbSymbolTable
70
0
0
ENDTAB
0
TABLE
2
APPID
5
9
100
AcDbSymbolTable
70
2
0
APPID
5
12
100
AcDbSymbolTableRecord
100
AcDbRegAppTableRecord
2
ACAD
70
0
0
ENDTAB
0
TABLE
2
DIMSTYLE
5
A
100
AcDbSymbolTable
70
1
0
ENDTAB
0
TABLE
2
BLOCK_RECORD
5
1
100
AcDbSymbolTable
70
1
0
BLOCK_RECORD
5
1F
100
AcDbSymbolTableRecord
100
AcDbBlockTableRecord
2
*MODEL_SPACE
0
BLOCK_RECORD
5
1B
100
AcDbSymbolTableRecord
100
AcDbBlockTableRecord
2
*PAPER_SPACE
0
ENDTAB
0
ENDSEC
0
SECTION
2
BLOCKS
0
BLOCK
5
20
100
AcDbEntity
100
AcDbBlockBegin
2
*MODEL_SPACE
0
ENDBLK
5
21
100
AcDbEntity
100
AcDbBlockEnd
0
BLOCK
5
1C
100
AcDbEntity
100
AcDbBlockBegin
2
*PAPER_SPACE
0
ENDBLK
5
1D
100
AcDbEntity
100
AcDbBlockEnd
0
ENDSEC
0
SECTION
2
ENTITIES
0
LWPOLYLINE
5
100
100
AcDbEntity
8
0
100
AcDbPolyline
90
8
70
1
43
0.0
10
18.213203435596405
20
21.213203435596391
42
-2.4142135623730949
10
21.213203435596402
20
18.213203435596395
10
21.213203435596412
20
-18.213203435596455
42
-2.4142135623730949
10
18.213203435596412
20
-21.213203435596455
10
-18.213203435596441
20
-21.213203435596462
42
-2.4142135623730918
10
-21.213203435596441
20
-18.213203435596455
10
-21.213203435596441
20
18.213203435596398
42
-2.4142135623730949
10
-18.213203435596441
20
21.213203435596398
0
LWPOLYLINE
5
101
100
AcDbEntity
8
0
100
AcDbPolyline
90
8
70
1
43
0.0
10
27.213203435596398
20
21.213203435596384
10
27.213203435596412
20
-21.213203435596455
42
-0.76732698797896037
10
16.01705101288978
20
-24.213203435596455
10
-16.017051012889805
20
-24.213203435596455
42
-0.7673269879789606
10
-27.213203435596441
20
-21.213203435596458
10
-27.213203435596437
20
21.213203435596398
42
-0.41421356237309503
10
-21.213203435596441
20
27.213203435596395
10
21.213203435596405
20
27.213203435596391
42
-0.41421356237309531
0
LINE
5
102
100
AcDbEntity
8
0
100
AcDbLine
10
27.213203435596405
20
-2.9623275657986989e-14
30
-4.4408920985006262e-15
11
27.213203435596402
21
18.213203435596398
31
8.3248671183448278e-48
0
LINE
5
103
100
AcDbEntity
8
0
100
AcDbLine
10
-27.213203435596441
20
-3.1086244689504383e-14
30
4.4408920985006262e-15
11
-27.213203435596441
21
18.213203435596398
31
8.8817841970012523e-15
0
LINE
5
104
100
AcDbEntity
8
0
100
AcDbLine
10
-1.1859707263984484e-14
20
-27.213203435596462
30
-8.8817841970012523e-15
11
18.213203435596416
21
-27.213203435596455
31
-8.8817841970012523e-15
0
LINE
5
105
100
AcDbEntity
8
0
100
AcDbLine
10
-1.9984014443252818e-14
20
27.213203435596391
30
4.4408920985006262e-15
11
18.213203435596405
21
27.213203435596391
31
-6.7977698746617648e-32
0
LINE
5
106
100
AcDbEntity
8
0
100
AcDbLine
10
13.106601717798192
20
35.213203435596384
30
2.2204460492503131e-15
11
5.1066017177981919
21
35.213203435596384
31
2.2204460492503131e-15
0
LINE
5
107
100
AcDbEntity
8
0
100
AcDbLine
10
5.1066017177981919
20
35.213203435596384
30
2.2204460492503131e-15
11
5.1066017177981919
21
19.213203435596391
31
2.2204460492503131e-15
0
LINE
5
108
100
AcDbEntity
8
0
100
AcDbLine
10
5.1066017177981919
20
19.213203435596391
30
2.2204460492503131e-15
11
13.106601717798192
21
19.213203435596391
31
2.2204460492503131e-15
0
LINE
5
109
100
AcDbEntity
8
0
100
AcDbLine
10
13.106601717798192
20
19.213203435596391
30
2.2204460492503131e-15
11
13.106601717798192
21
35.213203435596384
31
2.2204460492503131e-15
0
LINE
5
110
100
AcDbEntity
8
0
100
AcDbLine
10
13.106601717798192
20
35.213203435596384
30
2.2204460492503131e-15
11
5.1066017177981919
21
19.213203435596391
31
2.2204460492503131e-15
0
LINE
5
111
100
AcDbEntity
8
0
100
AcDbLine
10
5.1066017177981919
20
35.213203435596384
30
2.2204460492503131e-15
11
13.106601717798192
21
19.213203435596391
31
2.2204460492503131e-15
0
LINE
5
112
100
AcDbEntity
8
0
100
AcDbLine
10
19.213203435596409
20
5.1066017177981831
30
7.1170148686205615e-14
11
35.213203435596405
21
5.1066017177981831
31
7.1170148686205615e-14
0
LINE
5
113
100
AcDbEntity
8
0
100
AcDbLine
10
35.213203435596405
20
5.1066017177981831
30
7.1170148686205615e-14
11
35.213203435596405
21
13.106601717798183
31
-7.5611040784706241e-14
0
LINE
5
114
100
AcDbEntity
8
0
100
AcDbLine
10
35.213203435596405
20
13.106601717798183
30
-7.5611040784706241e-14
11
19.213203435596409
21
13.106601717798183
31
7.1170148686205615e-14
0
LINE
5
115
100
AcDbEntity
8
0
100
AcDbLine
10
19.213203435596409
20
13.106601717798183
30
7.1170148686205615e-14
11
19.213203435596409
21
5.1066017177981831
31
7.1170148686205615e-14
0
LINE
5
116
100
AcDbEntity
8
0
100
AcDbLine
10
19.213203435596409
20
5.1066017177981831
30
7.1170148686205615e-14
11
35.213203435596405
21
13.106601717798183
31
-7.5611040784706241e-14
0
LINE
5
117
100
AcDbEntity
8
0
100
AcDbLine
10
35.213203435596405
20
5.1066017177981831
30
7.1170148686205615e-14
11
19.213203435596409
21
13.106601717798183
31
7.1170148686205615e-14
0
LINE
5
118
100
AcDbEntity
8
0
100
AcDbLine
10
5.1066017177982008
20
-35.213203435596455
30
1.1824243057892614e-11
11
13.106601717798201
21
-35.213203435596455
31
1.1824243057892614e-11
0
LINE
5
119
100
AcDbEntity
8
0
100
AcDbLine
10
13.106601717798201
20
-35.213203435596455
30
1.1824243057892614e-11
11
13.106601717798201
21
-19.213203435596462
31
-1.1842006626286617e-11
0
LINE
5
120
100
AcDbEntity
8
0
100
AcDbLine
10
13.106601717798201
20
-19.213203435596462
30
-1.1842006626286617e-11
11
5.1066017177982008
21
-19.213203435596462
31
1.1824243057892614e-11
0
LINE
5
121
100
AcDbEntity
8
0
100
AcDbLine
10
5.1066017177982008
20
-19.213203435596462
30
1.1824243057892614e-11
11
5.1066017177982008
21
-35.213203435596455
31
1.1824243057892614e-11
0
LINE
5
122
100
AcDbEntity
8
0
100
AcDbLine
10
5.1066017177982008
20
-35.213203435596455
30
1.1824243057892614e-11
11
13.106601717798201
21
-19.213203435596462
31
-1.1842006626286617e-11
0
LINE
5
123
100
AcDbEntity
8
0
100
AcDbLine
10
13.106601717798201
20
-35.213203435596455
30
1.1824243057892614e-11
11
5.1066017177982008
21
-19.213203435596462
31
1.1824243057892614e-11
0
LINE
5
124
100
AcDbEntity
8
0
100
AcDbLine
10
-35.213203435596441
20
5.1066017177981831
30
-2.0825162230457141e-13
11
-19.213203435596444
21
5.1066017177981831
31
-2.0825162230457141e-13
0
LINE
5
125
100
AcDbEntity
8
0
100
AcDbLine
10
-19.213203435596444
20
5.1066017177981831
30
-2.0825162230457141e-13
11
-19.213203435596444
21
13.106601717798183
31
2.2157429860007329e-13
0
LINE
5
126
100
AcDbEntity
8
0
100
AcDbLine
10
-19.213203435596444
20
13.106601717798183
30
2.2157429860007329e-13
11
-35.213203435596441
21
13.106601717798183
31
-2.0825162230457141e-13
0
LINE
5
127
100
AcDbEntity
8
0
100
AcDbLine
10
-35.213203435596441
20
13.106601717798183
30
-2.0825162230457141e-13
11
-35.213203435596441
21
5.1066017177981831
31
-2.0825162230457141e-13
0
LINE
5
128
100
AcDbEntity
8
0
100
AcDbLine
10
-35.213203435596441
20
5.1066017177981831
30
-2.0825162230457141e-13
11
-19.213203435596444
21
13.106601717798183
31
2.2157429860007329e-13
0
LINE
5
129
100
AcDbEntity
8
0
100
AcDbLine
10
-19.213203435596444
20
5.1066017177981831
30
-2.0825162230457141e-13
11
-35.213203435596441
21
13.106601717798183
31
-2.0825162230457141e-13
0
LINE
5
130
100
AcDbEntity
8
0
100
AcDbLine
10
13.106601717798201
20
-27.213203435596462
30
-8.8817841970012523e-15
11
5.1066017177982008
21
-35.213203435596455
31
1.1824243057892614e-11
0
LINE
5
131
100
AcDbEntity
8
0
100
AcDbLine
10
27.213203435596405
20
13.106601717798183
30
-2.2204460492503131e-15
11
35.213203435596405
21
5.1066017177981831
31
7.1170148686205615e-14
0
LINE
5
132
100
AcDbEntity
8
0
100
AcDbLine
10
5.1066017177981919
20
27.213203435596391
30
2.2204460492503131e-15
11
13.106601717798192
21
35.213203435596384
31
2.2204460492503131e-15
0
LINE
5
133
100
AcDbEntity
8
0
100
AcDbLine
10
-35.213203435596441
20
5.1066017177981831
30
-2.0825162230457141e-13
11
-27.213203435596441
21
13.106601717798183
31
6.6613381477509392e-15
0
CIRCLE
5
134
100
AcDbEntity
8
0
100
AcDbCircle
10
31.213203435596405
20
9.1066017177981831
30
3.4474851318477651e-14
40
1.6000000000000014
0
CIRCLE
5
135
100
AcDbEntity
8
0
100
AcDbCircle
10
9.1066017177982008
20
-31.213203435596458
30
5.9076806368478065e-12
40
1.5999999999999996
0
CIRCLE
5
136
100
AcDbEntity
8
0
100
AcDbCircle
10
-31.213203435596441
20
9.1066017177981831
30
-1.0079514207841024e-13
40
1.5999999999999994
0
CIRCLE
5
137
100
AcDbEntity
8
0
100
AcDbCircle
10
9.1066017177981919
20
31.213203435596387
30
2.2204460492503131e-15
40
1.6000000000000014
0
ENDSEC
0
SECTION
2
OBJECTS
0
DICTIONARY
5
C
100
AcDbDictionary
3
ACAD_GROUP
350
D
3
ACAD_MLINESTYLE
350
17
0
DICTIONARY
5
D
100
AcDbDictionary
0
DICTIONARY
5
1A
330
C
100
AcDbDictionary
0
DICTIONARY
5
17
100
AcDbDictionary
0
ENDSEC
0
EOF
