0
SECTION
2
HEADER
9
$INSUNITS
70
4
9
$ACADVER
1
AC1014
9
$HANDSEED
5
FFFF
0
ENDSEC
0
SECTION
2
TABLES
0
TABLE
2
VPORT
5
8
100
AcDbSymbolTable
0
ENDTAB
0
TABLE
2
LTYPE
5
5
100
AcDbSymbolTable
0
LTYPE
5
14
100
AcDbSymbolTableRecord
100
AcDbLinetypeTableRecord
2
BYBLOCK
70
0
0
LTYPE
5
15
100
AcDbSymbolTableRecord
100
AcDbLinetypeTableRecord
2
BYLAYER
70
0
0
ENDTAB
0
TABLE
2
LAYER
5
2
100
AcDbSymbolTable
70
2
0
LAYER
5
50
100
AcDbSymbolTableRecord
100
AcDbLayerTableRecord
2
0
70
0
6
CONTINUOUS
0
ENDTAB
0
TABLE
2
STYLE
5
3
100
AcDbSymbolTable
70
1
0
STYLE
5
11
100
AcDbSymbolTableRecord
100
AcDbTextStyleTableRecord
2
STANDARD
70
0
0
ENDTAB
0
TABLE
2
VIEW
5
6
100
AcDbSymbolTable
70
0
0
ENDTAB
0
TABLE
2
UCS
5
7
100
AcDbSymbolTable
70
0
0
ENDTAB
0
TABLE
2
APPID
5
9
100
AcDbSymbolTable
70
2
0
APPID
5
12
100
AcDbSymbolTableRecord
100
AcDbRegAppTableRecord
2
ACAD
70
0
0
ENDTAB
0
TABLE
2
DIMSTYLE
5
A
100
AcDbSymbolTable
70
1
0
ENDTAB
0
TABLE
2
BLOCK_RECORD
5
1
100
AcDbSymbolTable
70
1
0
BLOCK_RECORD
5
1F
100
AcDbSymbolTableRecord
100
AcDbBlockTableRecord
2
*MODEL_SPACE
0
BLOCK_RECORD
5
1B
100
AcDbSymbolTableRecord
100
AcDbBlockTableRecord
2
*PAPER_SPACE
0
ENDTAB
0
ENDSEC
0
SECTION
2
BLOCKS
0
BLOCK
5
20
100
AcDbEntity
100
AcDbBlockBegin
2
*MODEL_SPACE
0
ENDBLK
5
21
100
AcDbEntity
100
AcDbBlockEnd
0
BLOCK
5
1C
100
AcDbEntity
100
AcDbBlockBegin
2
*PAPER_SPACE
0
ENDBLK
5
1D
100
AcDbEntity
100
AcDbBlockEnd
0
ENDSEC
0
SECTION
2
ENTITIES
0
CIRCLE
5
100
100
AcDbEntity
8
0
100
AcDbCircle
10
30.480000000004431
20
-3.0000000000055138
30
0
40
0.40000000000000063
0
CIRCLE
5
101
100
AcDbEntity
8
0
100
AcDbCircle
10
30.480000000004431
20
0.99999999999448996
30
0
40
0.40000000000000063
0
CIRCLE
5
102
100
AcDbEntity
8
0
100
AcDbCircle
10
-21.000128060530187
20
-34.135923163684787
30
0
40
0.50800000000000212
0
CIRCLE
5
103
100
AcDbEntity
8
0
100
AcDbCircle
10
-19.204076836316354
20
-35.931974387898613
30
0
40
0.5079999999999999
0
CIRCLE
5
104
100
AcDbEntity
8
0
100
AcDbCircle
10
-17.40802561210252
20
-37.728025612112447
30
0
40
0.5079999999999999
0
CIRCLE
5
105
100
AcDbEntity
8
0
100
AcDbCircle
10
-15.611974387888687
20
-39.52407683632628
30
0
40
0.5079999999999999
0
CIRCLE
5
106
100
AcDbEntity
8
0
100
AcDbCircle
10
-13.815923163674849
20
-41.320128060540107
30
0
40
0.5079999999999999
0
CIRCLE
5
107
100
AcDbEntity
8
0
100
AcDbCircle
10
5.0800000000044108
20
-52.07000000000555
30
0
40
0.50000000000000022
0
CIRCLE
5
108
100
AcDbEntity
8
0
100
AcDbCircle
10
4.4056495639772118e-12
20
-52.07000000000555
30
0
40
0.50000000000000033
0
CIRCLE
5
109
100
AcDbEntity
8
0
100
AcDbCircle
10
-5.0799999999955983
20
-52.07000000000555
30
0
40
0.50000000000000078
0
CIRCLE
5
110
100
AcDbEntity
8
0
100
AcDbCircle
10
-7.6199999999955867
20
50.799999999994547
30
0
40
0.50000000000000078
0
CIRCLE
5
111
100
AcDbEntity
8
0
100
AcDbCircle
10
-5.0799999999955867
20
50.799999999994547
30
0
40
0.50000000000000078
0
CIRCLE
5
112
100
AcDbEntity
8
0
100
AcDbCircle
10
4.4182475056000409e-12
20
50.79999999999454
30
0
40
0.50000000000000033
0
CIRCLE
5
113
100
AcDbEntity
8
0
100
AcDbCircle
10
5.0800000000044223
20
50.79999999999454
30
0
40
0.50000000000000022
0
CIRCLE
5
114
100
AcDbEntity
8
0
100
AcDbCircle
10
-33.019999999995619
20
29.209999999994519
30
0
40
0.49999999999999856
0
CIRCLE
5
115
100
AcDbEntity
8
0
100
AcDbCircle
10
-33.019999999995619
20
34.289999999994521
30
0
40
0.49999999999999856
0
CIRCLE
5
116
100
AcDbEntity
8
0
100
AcDbCircle
10
-33.019999999995605
20
39.369999999994526
30
0
40
0.49999999999999856
0
CIRCLE
5
117
100
AcDbEntity
8
0
100
AcDbCircle
10
-33.019999999995605
20
44.449999999994525
30
0
40
0.49999999999999856
0
CIRCLE
5
118
100
AcDbEntity
8
0
100
AcDbCircle
10
33.020000000004444
20
41.909999999994525
30
0
40
0.49999999999999856
0
CIRCLE
5
119
100
AcDbEntity
8
0
100
AcDbCircle
10
33.020000000004444
20
36.82999999999452
30
0
40
0.49999999999999856
0
CIRCLE
5
120
100
AcDbEntity
8
0
100
AcDbCircle
10
33.020000000004444
20
31.749999999994515
30
0
40
0.49999999999999856
0
CIRCLE
5
121
100
AcDbEntity
8
0
100
AcDbCircle
10
18.700000000004422
20
-50.800000000005554
30
0
40
0.90000000000000135
0
CIRCLE
5
122
100
AcDbEntity
8
0
100
AcDbCircle
10
15.700000000004419
20
-50.800000000005554
30
0
40
0.90000000000000135
0
CIRCLE
5
123
100
AcDbEntity
8
0
100
AcDbCircle
10
33.020000000004444
20
29.209999999994508
30
0
40
0.49999999999999856
0
CIRCLE
5
124
100
AcDbEntity
8
0
100
AcDbCircle
10
33.020000000004444
20
34.289999999994514
30
0
40
0.49999999999999856
0
CIRCLE
5
125
100
AcDbEntity
8
0
100
AcDbCircle
10
33.020000000004444
20
39.369999999994519
30
0
40
0.49999999999999856
0
CIRCLE
5
126
100
AcDbEntity
8
0
100
AcDbCircle
10
33.020000000004444
20
44.449999999994525
30
0
40
0.49999999999999856
0
CIRCLE
5
127
100
AcDbEntity
8
0
100
AcDbCircle
10
-33.019999999995605
20
41.909999999994525
30
0
40
0.49999999999999856
0
CIRCLE
5
128
100
AcDbEntity
8
0
100
AcDbCircle
10
-33.019999999995619
20
36.829999999994527
30
0
40
0.49999999999999856
0
CIRCLE
5
129
100
AcDbEntity
8
0
100
AcDbCircle
10
-33.019999999995619
20
31.749999999994518
30
0
40
0.49999999999999856
0
CIRCLE
5
130
100
AcDbEntity
8
0
100
AcDbCircle
10
7.6200000000044241
20
50.79999999999454
30
0
40
0.50000000000000078
0
CIRCLE
5
131
100
AcDbEntity
8
0
100
AcDbCircle
10
2.5400000000044196
20
50.79999999999454
30
0
40
0.50000000000000022
0
CIRCLE
5
132
100
AcDbEntity
8
0
100
AcDbCircle
10
-2.5399999999955836
20
50.79999999999454
30
0
40
0.50000000000000022
0
CIRCLE
5
133
100
AcDbEntity
8
0
100
AcDbCircle
10
12.700000000004417
20
-50.800000000005554
30
0
40
0.90000000000000135
0
CIRCLE
5
134
100
AcDbEntity
8
0
100
AcDbCircle
10
-7.6199999999956001
20
-52.07000000000555
30
0
40
0.50000000000000078
0
CIRCLE
5
135
100
AcDbEntity
8
0
100
AcDbCircle
10
-2.5399999999955956
20
-52.07000000000555
30
0
40
0.50000000000000022
0
CIRCLE
5
136
100
AcDbEntity
8
0
100
AcDbCircle
10
2.5400000000044076
20
-52.07000000000555
30
0
40
0.50000000000000022
0
CIRCLE
5
137
100
AcDbEntity
8
0
100
AcDbCircle
10
7.6200000000044108
20
-52.07000000000555
30
0
40
0.50000000000000078
0
CIRCLE
5
138
100
AcDbEntity
8
0
100
AcDbCircle
10
-12.019871939461023
20
-39.524076836326273
30
0
40
0.5079999999999999
0
CIRCLE
5
139
100
AcDbEntity
8
0
100
AcDbCircle
10
-13.815923163674857
20
-37.72802561211244
30
0
40
0.5079999999999999
0
CIRCLE
5
140
100
AcDbEntity
8
0
100
AcDbCircle
10
-15.611974387888692
20
-35.931974387898606
30
0
40
0.5079999999999999
0
CIRCLE
5
141
100
AcDbEntity
8
0
100
AcDbCircle
10
-17.408025612102524
20
-34.13592316368478
30
0
40
0.5079999999999999
0
CIRCLE
5
142
100
AcDbEntity
8
0
100
AcDbCircle
10
30.480000000004431
20
2.9999999999944915
30
0
40
0.40000000000000063
0
CIRCLE
5
143
100
AcDbEntity
8
0
100
AcDbCircle
10
30.480000000004431
20
-1.0000000000055116
30
0
40
0.40000000000000063
0
CIRCLE
5
144
100
AcDbEntity
8
0
100
AcDbCircle
10
-19.204076836316361
20
-32.339871939470946
30
0
40
0.5079999999999999
0
LWPOLYLINE
5
145
100
AcDbEntity
8
0
100
AcDbPolyline
90
11
70
1
43
0.0
10
35.209000000004444
20
-32.431000000005533
10
22.678000000004396
20
-54.136000000005566
42
-0.0194104984792756
10
21.593000000004427
20
-54.208000000005548
10
-21.59299999999557
20
-54.208000000005534
42
-0.41421356237309648
10
-35.207999999995614
20
-39.833000000005526
10
-35.212999999995617
20
-5.107000000005506
10
-35.212999999995624
20
50.21299999999453
42
-0.41421356237309731
10
-31.212999999995603
20
54.212999999994544
10
31.213000000004438
20
54.212999999994537
42
-0.41421356237309404
10
35.213000000004442
20
50.212999999994523
10
35.213000000004435
20
-5.1070000000055149
0
LWPOLYLINE
5
146
100
AcDbEntity
8
0
100
AcDbPolyline
90
8
70
1
43
0.0
10
24.213000000004424
20
-21.213000000005525
42
-0.41421356237309681
10
21.213000000004421
20
-24.213000000005529
10
-21.212999999995603
20
-24.213000000005522
42
-0.41421356237309764
10
-24.212999999995613
20
-21.213000000005518
10
-24.212999999995603
20
21.212999999994512
42
-0.41421356237309681
10
-21.212999999995603
20
24.212999999994516
10
21.213000000004428
20
24.212999999994508
42
-0.41421356237309681
10
24.213000000004431
20
21.212999999994505
0
CIRCLE
5
147
100
AcDbEntity
8
0
100
AcDbCircle
10
-9.1069999999955957
20
-31.213000000005529
30
0
40
1.5000000000000013
0
CIRCLE
5
148
100
AcDbEntity
8
0
100
AcDbCircle
10
-31.21299999999561
20
-9.1070000000055078
30
0
40
1.5000000000000002
0
CIRCLE
5
149
100
AcDbEntity
8
0
100
AcDbCircle
10
31.213000000004438
20
-9.1070000000055149
30
0
40
1.5000000000000002
0
CIRCLE
5
150
100
AcDbEntity
8
0
100
AcDbCircle
10
-9.1069999999955904
20
31.212999999994516
30
0
40
1.5000000000000013
0
ENDSEC
0
SECTION
2
OBJECTS
0
DICTIONARY
5
C
100
AcDbDictionary
3
ACAD_GROUP
350
D
3
ACAD_MLINESTYLE
350
17
0
DICTIONARY
5
D
100
AcDbDictionary
0
DICTIONARY
5
1A
330
C
100
AcDbDictionary
0
DICTIONARY
5
17
100
AcDbDictionary
0
ENDSEC
0
EOF
