0
SECTION
2
HEADER
9
$INSUNITS
70
4
9
$ACADVER
1
AC1014
9
$HANDSEED
5
FFFF
0
ENDSEC
0
SECTION
2
TABLES
0
TABLE
2
VPORT
5
8
100
AcDbSymbolTable
0
ENDTAB
0
TABLE
2
LTYPE
5
5
100
AcDbSymbolTable
0
LTYPE
5
14
100
AcDbSymbolTableRecord
100
AcDbLinetypeTableRecord
2
BYBLOCK
70
0
0
LTYPE
5
15
100
AcDbSymbolTableRecord
100
AcDbLinetypeTableRecord
2
BYLAYER
70
0
0
ENDTAB
0
TABLE
2
LAYER
5
2
100
AcDbSymbolTable
70
2
0
LAYER
5
50
100
AcDbSymbolTableRecord
100
AcDbLayerTableRecord
2
0
70
0
6
CONTINUOUS
0
ENDTAB
0
TABLE
2
STYLE
5
3
100
AcDbSymbolTable
70
1
0
STYLE
5
11
100
AcDbSymbolTableRecord
100
AcDbTextStyleTableRecord
2
STANDARD
70
0
0
ENDTAB
0
TABLE
2
VIEW
5
6
100
AcDbSymbolTable
70
0
0
ENDTAB
0
TABLE
2
UCS
5
7
100
AcDbSymbolTable
70
0
0
ENDTAB
0
TABLE
2
APPID
5
9
100
AcDbSymbolTable
70
2
0
APPID
5
12
100
AcDbSymbolTableRecord
100
AcDbRegAppTableRecord
2
ACAD
70
0
0
ENDTAB
0
TABLE
2
DIMSTYLE
5
A
100
AcDbSymbolTable
70
1
0
ENDTAB
0
TABLE
2
BLOCK_RECORD
5
1
100
AcDbSymbolTable
70
1
0
BLOCK_RECORD
5
1F
100
AcDbSymbolTableRecord
100
AcDbBlockTableRecord
2
*MODEL_SPACE
0
BLOCK_RECORD
5
1B
100
AcDbSymbolTableRecord
100
AcDbBlockTableRecord
2
*PAPER_SPACE
0
ENDTAB
0
ENDSEC
0
SECTION
2
BLOCKS
0
BLOCK
5
20
100
AcDbEntity
100
AcDbBlockBegin
2
*MODEL_SPACE
0
ENDBLK
5
21
100
AcDbEntity
100
AcDbBlockEnd
0
BLOCK
5
1C
100
AcDbEntity
100
AcDbBlockBegin
2
*PAPER_SPACE
0
ENDBLK
5
1D
100
AcDbEntity
100
AcDbBlockEnd
0
ENDSEC
0
SECTION
2
ENTITIES
0
ARC
5
100
100
AcDbEntity
8
0
100
AcDbCircle
10
-43.924712806936405
20
41.840628645868911
30
0
40
40.000000000000007
100
AcDbArc
50
60.787350661983226
51
126.31479036132767
0
ARC
5
101
100
AcDbEntity
8
0
100
AcDbCircle
10
8.3266726846886883e-15
20
120.39392014169459
30
0
40
50.000000000000014
100
AcDbArc
50
240.78735066198323
51
299.21264933801677
0
ARC
5
102
100
AcDbEntity
8
0
100
AcDbCircle
10
43.924712806936377
20
41.840628645868854
30
0
40
40.000000000000036
100
AcDbArc
50
53.685209638672212
51
119.2126493380167
0
LINE
5
103
100
AcDbEntity
8
0
100
AcDbLine
10
67.613558209291554
20
74.071642326075008
30
0
11
61.118367680908264
21
70.321642326075008
31
0
0
LINE
5
104
100
AcDbEntity
8
0
100
AcDbLine
10
61.118367680908264
20
70.321642326075008
30
0
11
91.118367680908278
21
18.360118099008666
31
0
0
LINE
5
105
100
AcDbEntity
8
0
100
AcDbLine
10
91.118367680908278
20
18.360118099008666
30
0
11
97.613558209291554
21
22.110118099008666
31
0
0
ARC
5
106
100
AcDbEntity
8
0
100
AcDbCircle
10
-5.5511151231257531e-16
20
0.39392014169456085
30
0
40
100
100
AcDbArc
50
-72.542396876277905
51
12.542396876277882
0
LINE
5
107
100
AcDbEntity
8
0
100
AcDbLine
10
29.999999999999993
20
-95
30
0
11
30.000000000000004
21
-87.500000000000014
31
0
0
LINE
5
108
100
AcDbEntity
8
0
100
AcDbLine
10
30.000000000000004
20
-87.500000000000014
30
0
11
-30.000000000000018
21
-87.500000000000028
31
0
0
LINE
5
109
100
AcDbEntity
8
0
100
AcDbLine
10
-30.000000000000018
20
-87.500000000000028
30
0
11
-30.000000000000018
21
-95.000000000000028
31
0
0
ARC
5
110
100
AcDbEntity
8
0
100
AcDbCircle
10
-5.5511151231257531e-16
20
0.39392014169456085
30
0
40
100.00000000000001
100
AcDbArc
50
167.45760312372204
51
252.54239687627791
0
LINE
5
111
100
AcDbEntity
8
0
100
AcDbLine
10
-97.61355820929154
20
22.110118099008758
30
0
11
-91.11836768090825
21
18.36011809900873
31
0
0
LINE
5
112
100
AcDbEntity
8
0
100
AcDbLine
10
-91.11836768090825
20
18.36011809900873
30
0
11
-61.118367680908207
21
70.32164232607505
31
0
0
LINE
5
113
100
AcDbEntity
8
0
100
AcDbLine
10
-61.118367680908207
20
70.32164232607505
30
0
11
-67.613558209291512
21
74.07164232607505
31
0
0
CIRCLE
5
114
100
AcDbEntity
8
0
100
AcDbCircle
10
44.713118308517181
20
-84.687485305326021
30
0
40
1.5000000000000036
0
CIRCLE
5
115
100
AcDbEntity
8
0
100
AcDbCircle
10
95.953124999999773
20
2.9996337667076567
30
0
40
1.5000000000000036
0
LWPOLYLINE
5
116
100
AcDbEntity
8
0
100
AcDbPolyline
90
8
70
1
43
0.0
10
103.03342373752194
20
20.226556625492563
42
-0.37494469368317102
10
34.000000000000043
20
-99.342840708327444
10
33.999999999999993
20
-94.042543564070243
42
0.0080232057886991965
10
37.000001057982516
20
-92.90317498185594
10
37.000001057982637
20
-84.23182250022478
42
0.32767979226399679
10
91.446898494727009
20
10.072971542454621
10
98.956509991423303
20
14.408647761581827
42
0.0080232029415137976
10
98.443231762989072
20
17.576408053363949
0
CIRCLE
5
117
100
AcDbEntity
8
0
100
AcDbCircle
10
94.557679868749474
20
16.487784159653621
30
0
40
1.6000000000000014
0
CIRCLE
5
118
100
AcDbEntity
8
0
100
AcDbCircle
10
61.557679868749474
20
73.645460809426609
30
0
40
1.6000000000000014
0
LWPOLYLINE
5
119
100
AcDbEntity
8
0
100
AcDbPolyline
90
14
70
1
43
0.0
10
98.251146780947366
20
18.620208275654246
42
-0.007991249671403227
10
98.796039506896619
20
15.470700622522966
10
91.321211119293508
20
11.155106440793684
42
0.03650932681601872
10
88.727441134546098
20
24.319563929389716
10
65.425080739084237
20
64.680436070610497
42
0.036509326816020635
10
55.32121111929348
20
73.508935513273329
10
62.796039506896676
20
77.824529695002752
42
-0.0079912496714050034
10
65.251146780947423
20
75.77788492542706
10
69.824967419629544
20
78.418581502395384
42
-0.014911023938588109
10
74.37491109526087
20
74.117289478043176
10
66.174337148168462
20
69.382685902179901
10
93.174337148168462
20
22.617314097820174
10
101.37491109526096
20
27.351917673683559
42
-0.014911023938588109
10
102.82496741962896
20
21.260904852621998
0
CIRCLE
5
120
100
AcDbEntity
8
0
100
AcDbCircle
10
-33.000000000000014
20
-90.133244969080266
30
0
40
1.6000000000000014
0
CIRCLE
5
121
100
AcDbEntity
8
0
100
AcDbCircle
10
33.000000000000021
20
-90.133244969080266
30
0
40
1.6000000000000014
0
LWPOLYLINE
5
122
100
AcDbEntity
8
0
100
AcDbPolyline
90
14
70
1
43
0.0
10
-32.999999999999844
20
-94.398093201081252
42
-0.0079912496713980073
10
-35.999999999999673
20
-93.295230317524997
10
-36
20
-84.664041954066988
42
0.036509326815993115
10
-23.302360395461882
20
-89.000000000000128
10
23.302360395461928
20
-89.000000000000142
42
0.036509326816000193
10
36.000000000000163
20
-84.66404195406696
10
36.000000000000504
20
-93.295230317526546
42
-0.0079912496713997836
10
32.999999999999993
20
-94.398093201081181
10
33.000000000001044
20
-99.679486355019819
42
-0.014911023938581115
10
27.000000000000043
20
-101.46920715172661
10
27.000000000000014
20
-92.000000000000114
10
-27.000000000000014
20
-92.000000000000114
10
-27.000000000000167
20
-101.46920715172686
42
-0.014911023938578337
10
-32.999999999999964
20
-99.679486355016934
0
CIRCLE
5
123
100
AcDbEntity
8
0
100
AcDbCircle
10
-95.953472535630979
20
2.988496001997305
30
0
40
1.5000000000000036
0
CIRCLE
5
124
100
AcDbEntity
8
0
100
AcDbCircle
10
-44.713118308517672
20
-84.687485305326021
30
0
40
1.5000000000000036
0
LWPOLYLINE
5
125
100
AcDbEntity
8
0
100
AcDbPolyline
90
8
70
1
43
0.0
10
-98.956509991423545
20
14.408647761581488
42
-0.0080232029415155618
10
-98.443231762989512
20
17.576408053364162
10
-103.03342373752173
20
20.22655662549246
42
0.37494469368317185
10
-33.999999999999979
20
-99.342840708326875
10
-33.999999999999297
20
-94.042543564070314
42
-0.0080232030618199671
10
-37.000000044703469
20
-92.903175385408403
10
-37.000000044703484
20
-84.231822945321255
42
-0.32767979559432775
10
-91.446898494726781
20
10.072971542454709
0
CIRCLE
5
126
100
AcDbEntity
8
0
100
AcDbCircle
10
54.719689209244763
20
78.878106042447456
30
0
40
1.4999999999999858
0
CIRCLE
5
127
100
AcDbEntity
8
0
100
AcDbCircle
10
46.907639183707381
20
83.759616678988181
30
0
40
1.499999999999968
0
LWPOLYLINE
5
128
100
AcDbEntity
8
0
100
AcDbPolyline
90
6
70
1
43
0.0
10
36.499999560415787
20
98.451765002409402
10
36.499999560415766
20
84.449689354607102
42
-0.056396138242426397
10
54.446898494726938
20
74.158851422503105
10
61.956509991422578
20
78.494527641630341
42
-0.0080232029415155618
10
64.443231762988958
20
76.466135510705698
10
69.033423737521929
20
79.116284082834326
42
0.090852181993232028
0
CIRCLE
5
129
100
AcDbEntity
8
0
100
AcDbCircle
10
-61.557679868749418
20
73.645460809426652
30
0
40
1.6000000000000014
0
CIRCLE
5
130
100
AcDbEntity
8
0
100
AcDbCircle
10
-94.55767986874946
20
16.487784159653692
30
0
40
1.6000000000000014
0
LWPOLYLINE
5
131
100
AcDbEntity
8
0
100
AcDbPolyline
90
14
70
1
43
0.0
10
-65.25114678094701
20
75.777884925427486
42
-0.0079912496713971191
10
-62.796039506896932
20
77.82452969500207
10
-55.321211119293487
20
73.508935513273315
42
0.036509326815996938
10
-65.42508073908418
20
64.680436070610469
10
-88.727441134546126
20
24.319563929389687
42
0.036509326816003052
10
-91.321211119293508
20
11.155106440793805
10
-98.796039506898211
20
15.470700622522637
42
-0.0079912496714014507
10
-98.251146780947408
20
18.620208275654178
10
-102.82496741963163
20
21.260904852622403
42
-0.014911023938582447
10
-101.37491109526087
20
27.351917673683456
10
-93.174337148168448
20
22.617314097820255
10
-66.174337148168405
20
69.382685902179958
10
-74.374911095260956
20
74.117289478043432
42
-0.01491102393857967
10
-69.824967419628962
20
78.418581502394929
0
LWPOLYLINE
5
132
100
AcDbEntity
8
0
100
AcDbPolyline
90
4
70
1
43
0.0
10
33.49999956041578
20
74.000086954424305
10
35.49999956041578
20
74.000086954424305
10
35.499999560415787
20
99.000086954424305
10
33.49999956041578
20
99.000086954424305
0
LWPOLYLINE
5
133
100
AcDbEntity
8
0
100
AcDbPolyline
90
4
70
1
43
0.0
10
31.499999560415752
20
72.000086954424333
10
31.499999560415752
20
74.000086954424333
10
-18.500000439584248
20
74.000086954424333
10
-18.500000439584248
20
72.000086954424333
0
ENDSEC
0
SECTION
2
OBJECTS
0
DICTIONARY
5
C
100
AcDbDictionary
3
ACAD_GROUP
350
D
3
ACAD_MLINESTYLE
350
17
0
DICTIONARY
5
D
100
AcDbDictionary
0
DICTIONARY
5
1A
330
C
100
AcDbDictionary
0
DICTIONARY
5
17
100
AcDbDictionary
0
ENDSEC
0
EOF
