0
SECTION
2
HEADER
9
$INSUNITS
70
4
9
$ACADVER
1
AC1014
9
$HANDSEED
5
FFFF
0
ENDSEC
0
SECTION
2
TABLES
0
TABLE
2
VPORT
5
8
100
AcDbSymbolTable
0
ENDTAB
0
TABLE
2
LTYPE
5
5
100
AcDbSymbolTable
0
LTYPE
5
14
100
AcDbSymbolTableRecord
100
AcDbLinetypeTableRecord
2
BYBLOCK
70
0
0
LTYPE
5
15
100
AcDbSymbolTableRecord
100
AcDbLinetypeTableRecord
2
BYLAYER
70
0
0
ENDTAB
0
TABLE
2
LAYER
5
2
100
AcDbSymbolTable
70
2
0
LAYER
5
50
100
AcDbSymbolTableRecord
100
AcDbLayerTableRecord
2
0
70
0
6
CONTINUOUS
0
ENDTAB
0
TABLE
2
STYLE
5
3
100
AcDbSymbolTable
70
1
0
STYLE
5
11
100
AcDbSymbolTableRecord
100
AcDbTextStyleTableRecord
2
STANDARD
70
0
0
ENDTAB
0
TABLE
2
VIEW
5
6
100
AcDbSymbolTable
70
0
0
ENDTAB
0
TABLE
2
UCS
5
7
100
AcDbSymbolTable
70
0
0
ENDTAB
0
TABLE
2
APPID
5
9
100
AcDbSymbolTable
70
2
0
APPID
5
12
100
AcDbSymbolTableRecord
100
AcDbRegAppTableRecord
2
ACAD
70
0
0
ENDTAB
0
TABLE
2
DIMSTYLE
5
A
100
AcDbSymbolTable
70
1
0
ENDTAB
0
TABLE
2
BLOCK_RECORD
5
1
100
AcDbSymbolTable
70
1
0
BLOCK_RECORD
5
1F
100
AcDbSymbolTableRecord
100
AcDbBlockTableRecord
2
*MODEL_SPACE
0
BLOCK_RECORD
5
1B
100
AcDbSymbolTableRecord
100
AcDbBlockTableRecord
2
*PAPER_SPACE
0
ENDTAB
0
ENDSEC
0
SECTION
2
BLOCKS
0
BLOCK
5
20
100
AcDbEntity
100
AcDbBlockBegin
2
*MODEL_SPACE
0
ENDBLK
5
21
100
AcDbEntity
100
AcDbBlockEnd
0
BLOCK
5
1C
100
AcDbEntity
100
AcDbBlockBegin
2
*PAPER_SPACE
0
ENDBLK
5
1D
100
AcDbEntity
100
AcDbBlockEnd
0
ENDSEC
0
SECTION
2
ENTITIES
0
CIRCLE
5
100
100
AcDbEntity
8
0
100
AcDbCircle
10
-95.278838786550253
20
-11.522496819168126
30
0
40
1.5000000000000036
0
CIRCLE
5
101
100
AcDbEntity
8
0
100
AcDbCircle
10
95.278838786550409
20
-11.522496819168255
30
0
40
1.5000000000000036
0
CIRCLE
5
102
100
AcDbEntity
8
0
100
AcDbCircle
10
40.055853747391907
20
-44.504447456500301
30
0
40
1.5000000000000036
0
CIRCLE
5
103
100
AcDbEntity
8
0
100
AcDbCircle
10
-46.907639183707417
20
-83.759616678988209
30
0
40
1.4999999999999947
0
CIRCLE
5
104
100
AcDbEntity
8
0
100
AcDbCircle
10
-56.087967901193537
20
-77.911102268640818
30
0
40
1.5000000000000036
0
CIRCLE
5
105
100
AcDbEntity
8
0
100
AcDbCircle
10
16.000000000000007
20
-15.999999999999979
30
0
40
1.3999999999999968
0
CIRCLE
5
106
100
AcDbEntity
8
0
100
AcDbCircle
10
-15.999999999999982
20
-15.999999999999979
30
8.8817841970012523e-15
40
1.4000000000000035
0
CIRCLE
5
107
100
AcDbEntity
8
0
100
AcDbCircle
10
15.999999999999998
20
16.000000000000011
30
-8.8817841970012523e-15
40
1.3999999999999968
0
CIRCLE
5
108
100
AcDbEntity
8
0
100
AcDbCircle
10
-3.1547972284498643e-16
20
-1.0547767176411001e-14
30
0
40
19.5
0
CIRCLE
5
109
100
AcDbEntity
8
0
100
AcDbCircle
10
-15.999999999999996
20
15.999999999999986
30
0
40
1.4000000000000012
0
CIRCLE
5
110
100
AcDbEntity
8
0
100
AcDbCircle
10
44.713118308517664
20
84.687485305326007
30
0
40
1.5000000000000036
0
CIRCLE
5
111
100
AcDbEntity
8
0
100
AcDbCircle
10
-95.953124999999787
20
-2.9996337667076745
30
0
40
1.5000000000000036
0
CIRCLE
5
112
100
AcDbEntity
8
0
100
AcDbCircle
10
-44.713118308517195
20
84.687485305326007
30
0
40
1.5000000000000036
0
CIRCLE
5
113
100
AcDbEntity
8
0
100
AcDbCircle
10
95.953472535630965
20
-2.9884960019973206
30
0
40
1.5000000000000036
0
CIRCLE
5
114
100
AcDbEntity
8
0
100
AcDbCircle
10
-39.45345437835239
20
-88.613909391331944
30
0
40
1.4999999999999991
0
CIRCLE
5
115
100
AcDbEntity
8
0
100
AcDbCircle
10
36.336839561343709
20
89.93683389297874
30
0
40
1.5000000000000036
0
CIRCLE
5
116
100
AcDbEntity
8
0
100
AcDbCircle
10
58.376057245748932
20
-77.467644474587047
30
0
40
1.5000000000000036
0
CIRCLE
5
117
100
AcDbEntity
8
0
100
AcDbCircle
10
-36.336839561343226
20
89.936833892978726
30
0
40
1.4999999999999991
0
CIRCLE
5
118
100
AcDbEntity
8
0
100
AcDbCircle
10
21.213203435596412
20
-21.213203435596455
30
-8.8817841970012523e-15
40
1.4999999999999991
0
CIRCLE
5
119
100
AcDbEntity
8
0
100
AcDbCircle
10
-21.213203435596441
20
-21.213203435596458
30
0
40
1.4999999999999991
0
CIRCLE
5
120
100
AcDbEntity
8
0
100
AcDbCircle
10
21.213203435596402
20
21.213203435596391
30
0
40
1.4999999999999991
0
CIRCLE
5
121
100
AcDbEntity
8
0
100
AcDbCircle
10
-21.213203435596441
20
21.213203435596398
30
8.8817841970012523e-15
40
1.4999999999999991
0
CIRCLE
5
122
100
AcDbEntity
8
0
100
AcDbCircle
10
-15.031433253944815
20
49.379715092073155
30
0
40
1.5000000000000036
0
CIRCLE
5
123
100
AcDbEntity
8
0
100
AcDbCircle
10
-52.531433253944911
20
-15.572190191759827
30
8.8817841970012523e-15
40
1.5000000000000036
0
CIRCLE
5
124
100
AcDbEntity
8
0
100
AcDbCircle
10
-54.002576424244552
20
71.879715092073212
30
0
40
1.4999999999999947
0
CIRCLE
5
125
100
AcDbEntity
8
0
100
AcDbCircle
10
-91.502576424244666
20
6.9278098082402142
30
0
40
1.5000000000000036
0
CIRCLE
5
126
100
AcDbEntity
8
0
100
AcDbCircle
10
-25.499999560415759
20
-66.000086954424305
30
-8.8817841970012523e-15
40
1.5000000000000036
0
CIRCLE
5
127
100
AcDbEntity
8
0
100
AcDbCircle
10
-0.87699718151478867
20
-61.751293216534208
30
0
40
1.5000000000000011
0
CIRCLE
5
128
100
AcDbEntity
8
0
100
AcDbCircle
10
12.500000439584229
20
-66.000086954424305
30
-8.8817841970012523e-15
40
1.5000000000000013
0
LWPOLYLINE
5
129
100
AcDbEntity
8
0
100
AcDbPolyline
90
23
70
1
43
0.0
10
57.203555340253239
20
-84.541644967959542
42
-0.46356060967104273
10
51.37983859414085
20
-79.609962625981922
10
51.379838594140857
20
-60.883233258071392
42
0.41421356237309503
10
46.379838594140857
20
-55.883233258071392
10
21.023902494889946
20
-55.883233258071392
42
0.41421356237309503
10
16.023902494889946
20
-60.883233258071392
10
16.023902494889942
20
-69.697108786687352
42
-0.41421356237309531
10
11.023902494889954
20
-74.697108786687366
10
-32.946722137041647
20
-74.697108786687366
10
-32.946722137041704
20
-99.697108786687352
42
-0.10496784565068913
10
-70.606870397215047
20
-77.715312858605174
10
-64.54036255195291
20
-74.212812921102099
10
-96.540362551952882
20
-18.787187078898032
10
-102.60687039721503
20
-22.289687016401079
42
-0.3864310510846693
10
-32.000000000000036
20
100.00499987500623
10
-32.000000000000036
20
93.000000000000099
10
31.999999999999972
20
93.000000000000099
10
31.99999999999995
20
100.00499987500626
42
-0.38643105108466969
10
102.60687039721502
20
-22.289687016401114
10
96.54036255195291
20
-18.787187078898022
10
64.540362551952882
20
-74.212812921102099
10
70.606870397214834
20
-77.715312858605444
42
-0.0061085804386542507
10
68.687086146020533
20
-79.417153038680269
42
-0.12780451386265967
0
CIRCLE
5
130
100
AcDbEntity
8
0
100
AcDbCircle
10
-85.076260936815146
20
-30.643593539448975
30
0
40
2.5
0
CIRCLE
5
131
100
AcDbEntity
8
0
100
AcDbCircle
10
85.076260936815146
20
-30.643593539449054
30
0
40
2.5
0
CIRCLE
5
132
100
AcDbEntity
8
0
100
AcDbCircle
10
-15.999999999999975
20
89.000000000000114
30
0
40
2.5000000000000022
0
CIRCLE
5
133
100
AcDbEntity
8
0
100
AcDbCircle
10
-69.07626093681516
20
-58.35640646055105
30
8.8817841970012523e-15
40
2.5
0
CIRCLE
5
134
100
AcDbEntity
8
0
100
AcDbCircle
10
16.000000000000064
20
89.000000000000071
30
-8.8817841970012523e-15
40
2.5000000000000022
0
CIRCLE
5
135
100
AcDbEntity
8
0
100
AcDbCircle
10
69.076260936815103
20
-58.356406460551113
30
0
40
2.5
0
LWPOLYLINE
5
136
100
AcDbEntity
8
0
100
AcDbPolyline
90
4
70
1
43
0.0
10
-90.458347790184632
20
-9.2635331428495942
10
-67.075661888004902
20
-22.763533142849735
10
-13.575661888004756
20
69.90118506208529
10
-36.958347790184604
20
83.40118506208529
0
ELLIPSE
5
137
100
AcDbEntity
8
0
100
AcDbEllipse
10
-18.742546229624985
20
-48.729693478033994
30
8.8817841970012523e-15
11
0.68456086441391395
21
-1.3346821430261486
31
0.0
40
0.99999998467414031
41
0
42
6.2831853071795862
0
LINE
5
138
100
AcDbEntity
8
0
100
AcDbLine
10
-2.2204460492503131e-14
20
27.213203435596395
30
0
11
-2.2204460492503131e-14
21
31.213203435596391
31
0
0
LINE
5
139
100
AcDbEntity
8
0
100
AcDbLine
10
-27.213203435596441
20
-3.1086244689504383e-14
30
0
11
-31.213203435596441
21
-3.1086244689504383e-14
31
0
0
LINE
5
140
100
AcDbEntity
8
0
100
AcDbLine
10
27.213203435596405
20
-3.1086244689504383e-14
30
0
11
31.213203435596405
21
-2.9830170722557359e-14
31
0
0
LINE
5
141
100
AcDbEntity
8
0
100
AcDbLine
10
-8.0085255064449097
20
-24.213203435596455
30
3.318893889813277e-47
11
-8.0085255064449097
21
-28.213203435596451
31
3.318893889813277e-47
0
CIRCLE
5
142
100
AcDbEntity
8
0
100
AcDbCircle
10
-8.0085255064449097
20
-28.213203435596451
30
3.318893889813277e-47
40
1.5000000000000009
0
CIRCLE
5
143
100
AcDbEntity
8
0
100
AcDbCircle
10
31.213203435596405
20
-2.9830170722557359e-14
30
0
40
1.5000000000000009
0
CIRCLE
5
144
100
AcDbEntity
8
0
100
AcDbCircle
10
-2.2204460492503131e-14
20
31.213203435596391
30
0
40
1.5000000000000004
0
CIRCLE
5
145
100
AcDbEntity
8
0
100
AcDbCircle
10
-31.213203435596441
20
-3.1086244689504383e-14
30
0
40
1.4999999999999996
0
ENDSEC
0
SECTION
2
OBJECTS
0
DICTIONARY
5
C
100
AcDbDictionary
3
ACAD_GROUP
350
D
3
ACAD_MLINESTYLE
350
17
0
DICTIONARY
5
D
100
AcDbDictionary
0
DICTIONARY
5
1A
330
C
100
AcDbDictionary
0
DICTIONARY
5
17
100
AcDbDictionary
0
ENDSEC
0
EOF
