0
SECTION
2
HEADER
9
$INSUNITS
70
4
9
$ACADVER
1
AC1014
9
$HANDSEED
5
FFFF
0
ENDSEC
0
SECTION
2
TABLES
0
TABLE
2
VPORT
5
8
100
AcDbSymbolTable
0
ENDTAB
0
TABLE
2
LTYPE
5
5
100
AcDbSymbolTable
0
LTYPE
5
14
100
AcDbSymbolTableRecord
100
AcDbLinetypeTableRecord
2
BYBLOCK
70
0
0
LTYPE
5
15
100
AcDbSymbolTableRecord
100
AcDbLinetypeTableRecord
2
BYLAYER
70
0
0
ENDTAB
0
TABLE
2
LAYER
5
2
100
AcDbSymbolTable
70
2
0
LAYER
5
50
100
AcDbSymbolTableRecord
100
AcDbLayerTableRecord
2
0
70
0
6
CONTINUOUS
0
ENDTAB
0
TABLE
2
STYLE
5
3
100
AcDbSymbolTable
70
1
0
STYLE
5
11
100
AcDbSymbolTableRecord
100
AcDbTextStyleTableRecord
2
STANDARD
70
0
0
ENDTAB
0
TABLE
2
VIEW
5
6
100
AcDbSymbolTable
70
0
0
ENDTAB
0
TABLE
2
UCS
5
7
100
AcDbSymbolTable
70
0
0
ENDTAB
0
TABLE
2
APPID
5
9
100
AcDbSymbolTable
70
2
0
APPID
5
12
100
AcDbSymbolTableRecord
100
AcDbRegAppTableRecord
2
ACAD
70
0
0
ENDTAB
0
TABLE
2
DIMSTYLE
5
A
100
AcDbSymbolTable
70
1
0
ENDTAB
0
TABLE
2
BLOCK_RECORD
5
1
100
AcDbSymbolTable
70
1
0
BLOCK_RECORD
5
1F
100
AcDbSymbolTableRecord
100
AcDbBlockTableRecord
2
*MODEL_SPACE
0
BLOCK_RECORD
5
1B
100
AcDbSymbolTableRecord
100
AcDbBlockTableRecord
2
*PAPER_SPACE
0
ENDTAB
0
ENDSEC
0
SECTION
2
BLOCKS
0
BLOCK
5
20
100
AcDbEntity
100
AcDbBlockBegin
2
*MODEL_SPACE
0
ENDBLK
5
21
100
AcDbEntity
100
AcDbBlockEnd
0
BLOCK
5
1C
100
AcDbEntity
100
AcDbBlockBegin
2
*PAPER_SPACE
0
ENDBLK
5
1D
100
AcDbEntity
100
AcDbBlockEnd
0
ENDSEC
0
SECTION
2
ENTITIES
0
CIRCLE
5
100
100
AcDbEntity
8
0
100
AcDbCircle
10
31.213203435592007
20
5.4226272233867711e-12
30
0
40
1.5000000000000002
0
CIRCLE
5
101
100
AcDbEntity
8
0
100
AcDbCircle
10
-8.0085255064493417
20
-28.213203435591009
30
0
40
1.5000000000000013
0
CIRCLE
5
102
100
AcDbEntity
8
0
100
AcDbCircle
10
-31.213203435600889
20
5.4290161793555317e-12
30
0
40
1.5000000000000002
0
CIRCLE
5
103
100
AcDbEntity
8
0
100
AcDbCircle
10
-4.4408920985006262e-12
20
31.213203435601873
30
0
40
1.5000000000000004
0
LWPOLYLINE
5
104
100
AcDbEntity
8
0
100
AcDbPolyline
90
8
70
1
43
0.0
10
24.213203435592003
20
-21.213203435591016
10
24.213203435591993
20
21.213203435601859
42
0.41421356237309548
10
21.213203435591982
20
24.213203435601862
10
-21.213203435600875
20
24.213203435601876
42
0.4142135623730937
10
-24.213203435600875
20
21.213203435601873
10
-24.213203435600885
20
-21.213203435591012
42
0.4142135623730942
10
-21.213203435600892
20
-24.213203435591897
10
21.213203435591993
20
-24.213203435591019
42
0.41421356237309681
0
LWPOLYLINE
5
105
100
AcDbEntity
8
0
100
AcDbPolyline
90
11
70
1
43
0.0
10
-35.213203435600896
20
-50.213203435591033
10
-35.213203435600889
20
5.1066017178036471
10
-35.20914533189007
20
32.430892592589025
10
-22.677452953135052
20
54.136420497416339
42
-0.019411518454585056
10
-21.59318053372726
20
54.208045964365823
10
21.593180533718382
20
54.208045964365809
42
-0.41421356237309537
10
35.208045964355939
20
39.833226337475466
10
35.213203435592
20
5.1066017178036383
10
35.213203435592014
20
-50.213203435591041
42
-0.4142135623730947
10
31.213203435592
20
-54.213203435591055
10
-31.213203435600892
20
-54.213203435591041
42
-0.4142135623730957
0
CIRCLE
5
106
100
AcDbEntity
8
0
100
AcDbCircle
10
0
20
0
30
0
40
43
0
LINE
5
107
100
AcDbEntity
8
0
100
AcDbLine
10
30.209145760272289
20
-33.190443347224942
30
0
11
29.209145760272289
21
-33.190443347224942
31
0
0
LINE
5
108
100
AcDbEntity
8
0
100
AcDbLine
10
29.209145760272289
20
-33.190443347224942
30
0
11
29.209145760272289
21
-31.556707748990029
31
0
0
LINE
5
109
100
AcDbEntity
8
0
100
AcDbLine
10
8.948493387932615
20
-49.209769774885174
30
0
11
8.948493387932615
21
-48.209769774885174
31
0
0
LINE
5
110
100
AcDbEntity
8
0
100
AcDbLine
10
-30.272407216778092
20
-33.169169711215837
30
0
11
-29.272407216778088
21
-33.169169711215837
31
0
0
LINE
5
111
100
AcDbEntity
8
0
100
AcDbLine
10
-29.272407216778088
20
-33.169169711215837
30
0
11
-29.272407216778088
21
-31.498034474155968
31
0
0
LINE
5
112
100
AcDbEntity
8
0
100
AcDbLine
10
8.948493387932615
20
-48.209769774885174
30
0
11
29.209145760272293
21
-48.209769774885174
31
0
0
LINE
5
113
100
AcDbEntity
8
0
100
AcDbLine
10
29.209145760272293
20
-48.209769774885174
30
0
11
29.209145760272289
21
-33.190443347224942
31
0
0
LINE
5
114
100
AcDbEntity
8
0
100
AcDbLine
10
29.209145760272289
20
-33.190443347224942
30
0
11
8.948493387932615
21
-33.190443347224942
31
0
0
LINE
5
115
100
AcDbEntity
8
0
100
AcDbLine
10
8.948493387932615
20
-33.190443347224942
30
0
11
8.948493387932615
21
-48.209769774885174
31
0
0
LINE
5
116
100
AcDbEntity
8
0
100
AcDbLine
10
8.948493387932615
20
-48.209769774885174
30
0
11
-29.272407216778085
21
-48.209769774885174
31
0
0
LINE
5
117
100
AcDbEntity
8
0
100
AcDbLine
10
-29.272407216778085
20
-48.209769774885174
30
0
11
-29.272407216778088
21
-33.169169711215837
31
0
0
LINE
5
118
100
AcDbEntity
8
0
100
AcDbLine
10
-29.272407216778088
20
-33.169169711215837
30
0
11
8.948493387932615
21
-33.169169711215837
31
0
0
LINE
5
119
100
AcDbEntity
8
0
100
AcDbLine
10
8.948493387932615
20
-33.169169711215837
30
0
11
8.948493387932615
21
-48.209769774885174
31
0
0
LINE
5
120
100
AcDbEntity
8
0
100
AcDbLine
10
29.209145760272293
20
-48.209769774885174
30
0
11
30.209145760272275
21
-48.209769774885174
31
0
0
LINE
5
121
100
AcDbEntity
8
0
100
AcDbLine
10
30.209145760272275
20
-48.209769774885174
30
0
11
30.209145760272275
21
-50.970383265834485
31
0
0
LINE
5
122
100
AcDbEntity
8
0
100
AcDbLine
10
30.209145760272275
20
-50.970383265834485
30
0
11
29.209145760272293
21
-50.970383265834485
31
0
0
LINE
5
123
100
AcDbEntity
8
0
100
AcDbLine
10
29.209145760272293
20
-50.970383265834485
30
0
11
29.209145760272293
21
-48.209769774885174
31
0
0
LINE
5
124
100
AcDbEntity
8
0
100
AcDbLine
10
-29.272407216778085
20
-48.209769774885174
30
0
11
-30.272407216778134
21
-48.209769774885174
31
0
0
LINE
5
125
100
AcDbEntity
8
0
100
AcDbLine
10
-30.272407216778134
20
-48.209769774885174
30
0
11
-30.272407216778134
21
-50.949109629825394
31
0
0
LINE
5
126
100
AcDbEntity
8
0
100
AcDbLine
10
-30.272407216778134
20
-50.949109629825394
30
0
11
-29.272407216778085
21
-50.949109629825394
31
0
0
LINE
5
127
100
AcDbEntity
8
0
100
AcDbLine
10
-29.272407216778085
20
-50.949109629825394
30
0
11
-29.272407216778085
21
-48.209769774885174
31
0
0
LINE
5
128
100
AcDbEntity
8
0
100
AcDbLine
10
-8.8208436397276628
20
-52.019769774885198
30
0
11
-9.8208436397276628
21
-52.019769774885198
31
0
0
LINE
5
129
100
AcDbEntity
8
0
100
AcDbLine
10
-9.8208436397276628
20
-52.019769774885198
30
0
11
-9.8208436397276628
21
-48.209769774885174
31
0
0
LINE
5
130
100
AcDbEntity
8
0
100
AcDbLine
10
-9.8208436397276628
20
-48.209769774885174
30
0
11
-8.8208436397276628
21
-48.209769774885174
31
0
0
LINE
5
131
100
AcDbEntity
8
0
100
AcDbLine
10
-8.8208436397276628
20
-48.209769774885174
30
0
11
-8.8208436397276628
21
-52.019769774885198
31
0
0
LINE
5
132
100
AcDbEntity
8
0
100
AcDbLine
10
8.9591563602722726
20
-52.019769774885198
30
0
11
9.9591563602722726
21
-52.019769774885198
31
0
0
LINE
5
133
100
AcDbEntity
8
0
100
AcDbLine
10
9.9591563602722726
20
-52.019769774885198
30
0
11
9.9591563602722726
21
-48.209769774885174
31
0
0
LINE
5
134
100
AcDbEntity
8
0
100
AcDbLine
10
9.9591563602722726
20
-48.209769774885174
30
0
11
8.9591563602722726
21
-48.209769774885174
31
0
0
LINE
5
135
100
AcDbEntity
8
0
100
AcDbLine
10
8.9591563602722726
20
-48.209769774885174
30
0
11
8.9591563602722726
21
-52.019769774885198
31
0
0
LINE
5
136
100
AcDbEntity
8
0
100
AcDbLine
10
29.209145760272293
20
-50.970383265834485
30
0
11
9.9591563602722726
21
-50.970383265834485
31
0
0
LINE
5
137
100
AcDbEntity
8
0
100
AcDbLine
10
9.9591563602722726
20
-50.970383265834485
30
0
11
9.9591563602722726
21
-52.019769774885198
31
0
0
LINE
5
138
100
AcDbEntity
8
0
100
AcDbLine
10
9.9591563602722726
20
-52.019769774885198
30
0
11
29.209145760272293
21
-52.019769774885198
31
0
0
LINE
5
139
100
AcDbEntity
8
0
100
AcDbLine
10
29.209145760272293
20
-52.019769774885198
30
0
11
29.209145760272293
21
-50.970383265834485
31
0
0
LINE
5
140
100
AcDbEntity
8
0
100
AcDbLine
10
-29.272407216778085
20
-50.949109629825394
30
0
11
-9.8208436397276611
21
-50.949109629825394
31
0
0
LINE
5
141
100
AcDbEntity
8
0
100
AcDbLine
10
-9.8208436397276611
20
-50.949109629825394
30
0
11
-9.8208436397276628
21
-52.019769774885198
31
0
0
LINE
5
142
100
AcDbEntity
8
0
100
AcDbLine
10
-9.8208436397276628
20
-52.019769774885198
30
0
11
-29.272407216778085
21
-52.019769774885198
31
0
0
LINE
5
143
100
AcDbEntity
8
0
100
AcDbLine
10
-29.272407216778085
20
-52.019769774885198
30
0
11
-29.272407216778085
21
-50.949109629825394
31
0
0
LINE
5
144
100
AcDbEntity
8
0
100
AcDbLine
10
-19.546625428252874
20
-52.019769774885198
30
0
11
-22.646625428252875
21
-52.019769774885198
31
0
0
LINE
5
145
100
AcDbEntity
8
0
100
AcDbLine
10
-22.646625428252875
20
-52.019769774885198
30
0
11
-16.446625428252876
21
-52.019769774885198
31
0
0
LINE
5
146
100
AcDbEntity
8
0
100
AcDbLine
10
-16.446625428252876
20
-52.019769774885198
30
0
11
-16.446625428252876
21
-45.819769774885195
31
0
0
LINE
5
147
100
AcDbEntity
8
0
100
AcDbLine
10
-16.446625428252876
20
-45.819769774885195
30
0
11
-22.646625428252875
21
-45.819769774885195
31
0
0
LINE
5
148
100
AcDbEntity
8
0
100
AcDbLine
10
-22.646625428252875
20
-45.819769774885195
30
0
11
-22.646625428252875
21
-52.019769774885198
31
0
0
LINE
5
149
100
AcDbEntity
8
0
100
AcDbLine
10
19.584151060272283
20
-52.019769774885198
30
0
11
16.484151060272282
21
-52.019769774885198
31
0
0
LINE
5
150
100
AcDbEntity
8
0
100
AcDbLine
10
16.484151060272282
20
-52.019769774885198
30
0
11
22.684151060272288
21
-52.019769774885198
31
0
0
LINE
5
151
100
AcDbEntity
8
0
100
AcDbLine
10
22.684151060272288
20
-52.019769774885198
30
0
11
22.684151060272292
21
-45.819769774885195
31
0
0
LINE
5
152
100
AcDbEntity
8
0
100
AcDbLine
10
22.684151060272292
20
-45.819769774885195
30
0
11
16.484151060272282
21
-45.819769774885195
31
0
0
LINE
5
153
100
AcDbEntity
8
0
100
AcDbLine
10
16.484151060272282
20
-45.819769774885195
30
0
11
16.484151060272282
21
-52.019769774885198
31
0
0
LINE
5
154
100
AcDbEntity
8
0
100
AcDbLine
10
22.684151060272292
20
-45.819769774885195
30
0
11
16.484151060272282
21
-52.019769774885198
31
0
0
LINE
5
155
100
AcDbEntity
8
0
100
AcDbLine
10
-22.646625428252875
20
-52.019769774885198
30
0
11
-16.446625428252876
21
-45.819769774885195
31
0
0
CIRCLE
5
156
100
AcDbEntity
8
0
100
AcDbCircle
10
-19.546625428252877
20
-48.919769774885197
30
0
40
1.5999999999999992
0
CIRCLE
5
157
100
AcDbEntity
8
0
100
AcDbCircle
10
19.584151060272287
20
-48.919769774885197
30
0
40
1.5999999999999988
0
ENDSEC
0
SECTION
2
OBJECTS
0
DICTIONARY
5
C
100
AcDbDictionary
3
ACAD_GROUP
350
D
3
ACAD_MLINESTYLE
350
17
0
DICTIONARY
5
D
100
AcDbDictionary
0
DICTIONARY
5
1A
330
C
100
AcDbDictionary
0
DICTIONARY
5
17
100
AcDbDictionary
0
ENDSEC
0
EOF
