<?xml version="1.0" encoding="UTF-8" standalone="no"?>
<!-- Created with Inkscape (http://www.inkscape.org/) -->

<svg
   xmlns:osb="http://www.openswatchbook.org/uri/2009/osb"
   xmlns:dc="http://purl.org/dc/elements/1.1/"
   xmlns:cc="http://creativecommons.org/ns#"
   xmlns:rdf="http://www.w3.org/1999/02/22-rdf-syntax-ns#"
   xmlns:svg="http://www.w3.org/2000/svg"
   xmlns="http://www.w3.org/2000/svg"
   xmlns:sodipodi="http://sodipodi.sourceforge.net/DTD/sodipodi-0.dtd"
   xmlns:inkscape="http://www.inkscape.org/namespaces/inkscape"
   id="svg8"
   version="1.1"
   viewBox="0 0 210 297"
   height="297mm"
   width="210mm"
   inkscape:version="0.92.3 (2405546, 2018-03-11)"
   sodipodi:docname="Spiegel.svg">
  <sodipodi:namedview
     inkscape:window-maximized="1"
     inkscape:window-y="-8"
     inkscape:window-x="-8"
     inkscape:window-height="837"
     inkscape:window-width="1600"
     showgrid="false"
     inkscape:current-layer="layer1"
     inkscape:document-units="mm"
     inkscape:cy="331.42857"
     inkscape:cx="400"
     inkscape:zoom="0.35"
     inkscape:pageshadow="2"
     inkscape:pageopacity="0.0"
     borderopacity="1.0"
     bordercolor="#666666"
     pagecolor="#ffffff"
     id="base" />
  <defs
     id="defs2">
    <linearGradient
       osb:paint="solid"
       id="linearGradient4544">
      <stop
         id="stop4542"
         offset="0"
         style="stop-color:#000000;stop-opacity:1;" />
    </linearGradient>
  </defs>
  <metadata
     id="metadata5">
    <rdf:RDF>
      <cc:Work
         rdf:about="">
        <dc:format>image/svg+xml</dc:format>
        <dc:type
           rdf:resource="http://purl.org/dc/dcmitype/StillImage" />
        <dc:title />
      </cc:Work>
    </rdf:RDF>
  </metadata>
  <g
     id="layer1"
     inkscape:groupmode="layer"
     inkscape:label="Ebene 1">
    <path
       id="path5316"
       title="sqrt(1000+pow(x,2))"
       d=" M 33.261906 157.173070314 C 33.3075607848 157.206946081 33.3532155696 157.240806623 33.3988703544 157.27465189 C 33.4445251391 157.308497157 33.4901799239 157.342327087 33.5358347087 157.376141721 C 33.5814894935 157.409956356 33.6271442783 157.443755603 33.6727990631 157.477539504 C 33.7184538478 157.511323405 33.7641086326 157.545091867 33.8097634174 157.578844933 C 33.8554182022 157.612597998 33.901072987 157.646335574 33.9467277718 157.680057702 C 33.9923825566 157.713779829 34.0380373413 157.747486416 34.0836921261 157.781177503 C 34.1293469109 157.814868591 34.1750016957 157.848544086 34.2206564805 157.88220403 C 34.2663112653 157.915863974 34.31196605 157.949508274 34.3576208348 157.983136971 C 34.4032756196 158.016765669 34.4489304044 158.05037867 34.4945851892 158.083976018 C 34.540239974 158.117573365 34.5858947588 158.151154965 34.6315495435 158.184720858 C 34.6772043283 158.218286751 34.7228591131 158.251836844 34.7685138979 158.285371179 C 34.8141686827 158.318905513 34.8598234675 158.352423995 34.9054782523 158.385926667 C 34.951133037 158.419429338 34.9967878218 158.452916104 35.0424426066 158.486387007 C 35.0880973914 158.51985791 35.1337521762 158.553312855 35.179406961 158.586751884 C 35.2250617457 158.620190913 35.2707165305 158.653613931 35.3163713153 158.68702098 C 35.3620261001 158.72042803 35.4076808849 158.753819015 35.4533356697 158.787193978 C 35.4989904545 158.820568942 35.5446452392 158.853927788 35.590300024 158.887270559 C 35.6359548088 158.92061333 35.6816095936 158.95393993 35.7272643784 158.987250401 C 35.7729191632 159.020560873 35.8185739479 159.05385512 35.8642287327 159.087133185 C 35.9098835175 159.12041125 35.9555383023 159.153673036 36.0011930871 159.186918587 C 36.0468478719 159.220164137 36.0925026567 159.253393355 36.1381574414 159.286606283 C 36.1838122262 159.319819211 36.229467011 159.353015752 36.2751217958 159.386195949 C 36.3207765806 159.419376147 36.3664313654 159.452539902 36.4120861502 159.48568726 C 36.4577409349 159.518834618 36.5033957197 159.551965479 36.5490505045 159.585079888 C 36.5947052893 159.618194297 36.6403600741 159.651292154 36.6860148589 159.684373505 C 36.7316696436 159.717454855 36.7773244284 159.750519599 36.8229792132 159.783567782 C 36.868633998 159.816615964 36.9142887828 159.849647484 36.9599435676 159.882662388 C 37.0055983524 159.915677292 37.0512531371 159.948675478 37.0969079219 159.981656993 C 37.1425627067 160.014638507 37.1882174915 160.047603249 37.2338722763 160.080551263 C 37.2795270611 160.113499277 37.3251818458 160.146430463 37.3708366306 160.179344865 C 37.4164914154 160.212259268 37.4621462002 160.245156785 37.507800985 160.278037464 C 37.5534557698 160.310918143 37.5991105546 160.343781881 37.6447653393 160.376628724 C 37.6904201241 160.409475567 37.7360749089 160.442305413 37.7817296937 160.475118308 C 37.8273844785 160.507931203 37.8730392633 160.540727044 37.918694048 160.573505877 C 37.9643488328 160.606284711 38.0100036176 160.639046434 38.0556584024 160.671791093 C 38.1013131872 160.704535751 38.146967972 160.737263243 38.1926227568 160.769973613 C 38.2382775415 160.802683984 38.2839323263 160.83537713 38.3295871111 160.868053098 C 38.3752418959 160.900729066 38.4208966807 160.933387752 38.4665514655 160.966029203 C 38.5122062503 160.998670654 38.557861035 161.031294766 38.6035158198 161.063901585 C 38.6491706046 161.096508404 38.6948253894 161.129097826 38.7404801742 161.161669898 C 38.786134959 161.19424197 38.8317897437 161.226796587 38.8774445285 161.259333796 C 38.9230993133 161.291871005 38.9687540981 161.324390702 39.0144088829 161.356892932 C 39.0600636677 161.389395162 39.1057184525 161.421879821 39.1513732372 161.454346956 C 39.197028022 161.486814091 39.2426828068 161.519263596 39.2883375916 161.551695519 C 39.3339923764 161.584127442 39.3796471612 161.616541677 39.4253019459 161.64893827 C 39.4709567307 161.681334864 39.5166115155 161.71371371 39.5622663003 161.746074856 C 39.6079210851 161.778436003 39.6535758699 161.810779343 39.6992306547 161.843104924 C 39.7448854394 161.875430506 39.7905402242 161.907738222 39.836195009 161.94002812 C 39.8818497938 161.972318018 39.9275045786 162.004589991 39.9731593634 162.036844087 C 40.0188141481 162.069098183 40.0644689329 162.101334294 40.1101237177 162.133552469 C 40.1557785025 162.165770643 40.2014332873 162.197970773 40.2470880721 162.230152907 C 40.2927428569 162.262335041 40.3383976416 162.294499069 40.3840524264 162.326645042 C 40.4297072112 162.358791015 40.475361996 162.390918822 40.5210167808 162.423028514 C 40.5666715656 162.455138205 40.6123263504 162.487229671 40.6579811351 162.51930296 C 40.7036359199 162.551376249 40.7492907047 162.583431252 40.7949454895 162.615468018 C 40.8406002743 162.647504784 40.8862550591 162.679523203 40.9319098438 162.711523324 C 40.9775646286 162.743523445 41.0232194134 162.775505158 41.0688741982 162.807468512 C 41.114528983 162.839431866 41.1601837678 162.871376751 41.2058385526 162.903303216 C 41.2514933373 162.93522968 41.2971481221 162.967137614 41.3428029069 162.999027067 C 41.3884576917 163.03091652 41.4341124765 163.06278738 41.4797672613 163.094639698 C 41.525422046 163.126492016 41.5710768308 163.158325679 41.6167316156 163.190140738 C 41.6623864004 163.221955797 41.7080411852 163.253752139 41.75369597 163.285529815 C 41.7993507548 163.317307491 41.8450055395 163.349066388 41.8906603243 163.380806557 C 41.9363151091 163.412546726 41.9819698939 163.444268053 42.0276246787 163.47597059 C 42.0732794635 163.507673127 42.1189342482 163.53935676 42.164589033 163.571021539 C 42.2102438178 163.602686319 42.2558986026 163.634332132 42.3015533874 163.665959029 C 42.3472081722 163.697585925 42.392862957 163.729193792 42.4385177417 163.76078268 C 42.4841725265 163.792371568 42.5298273113 163.823941363 42.5754820961 163.855492116 C 42.6211368809 163.887042868 42.6667916657 163.918574464 42.7124464505 163.950086955 C 42.7581012352 163.981599445 42.80375602 164.013092716 42.8494108048 164.044566817 C 42.8950655896 164.076040918 42.9407203744 164.107495735 42.9863751592 164.138931319 C 43.0320299439 164.170366904 43.0776847287 164.201783139 43.1233395135 164.233180079 C 43.1689942983 164.264577018 43.2146490831 164.295954544 43.2603038679 164.32731271 C 43.3059586527 164.358670876 43.3516134374 164.390009564 43.3972682222 164.421328827 C 43.442923007 164.452648091 43.4885777918 164.483947812 43.5342325766 164.515228044 C 43.5798873614 164.546508275 43.6255421461 164.5777689 43.6711969309 164.60900997 C 43.7168517157 164.64025104 43.7625065005 164.671472439 43.8081612853 164.702674217 C 43.8538160701 164.733875996 43.8994708549 164.765058037 43.9451256396 164.796220394 C 43.9907804244 164.827382751 44.0364352092 164.858525304 44.082089994 164.889648108 C 44.1277447788 164.920770912 44.1733995636 164.951873847 44.2190543483 164.982956966 C 44.2647091331 165.014040085 44.3103639179 165.04510327 44.3560187027 165.076146573 C 44.4016734875 165.107189877 44.4473282723 165.138213179 44.4929830571 165.169216534 C 44.5386378418 165.200219889 44.5842926266 165.231203177 44.6299474114 165.262166451 C 44.6756021962 165.293129725 44.721256981 165.324072865 44.7669117658 165.354995925 C 44.8125665506 165.385918986 44.8582213353 165.416821845 44.9038761201 165.447704558 C 44.9495309049 165.478587271 44.9951856897 165.509449716 45.0408404745 165.540291948 C 45.0864952593 165.57113418 45.132150044 165.601956077 45.1778048288 165.632757693 C 45.2234596136 165.66355931 45.2691143984 165.694340524 45.3147691832 165.72510139 C 45.360423968 165.755862257 45.4060787528 165.786602653 45.4517335375 165.817322634 C 45.4973883223 165.848042615 45.5430431071 165.878742059 45.5886978919 165.909421019 C 45.6343526767 165.94009998 45.6800074615 165.970758334 45.7256622462 166.001396138 C 45.771317031 166.032033942 45.8169718158 166.062651072 45.8626266006 166.093247583 C 45.9082813854 166.123844094 45.9539361702 166.154419862 45.999590955 166.184974944 C 46.0452457397 166.215530025 46.0909005245 166.246064295 46.1365553093 166.276577809 C 46.1822100941 166.307091324 46.2278648789 166.337583958 46.2735196637 166.368055768 C 46.3191744484 166.398527578 46.3648292332 166.428978439 46.410484018 166.459408406 C 46.4561388028 166.489838374 46.5017935876 166.520247322 46.5474483724 166.550635309 C 46.5931031572 166.581023296 46.6387579419 166.611390194 46.6844127267 166.641736061 C 46.7300675115 166.672081928 46.7757222963 166.702406636 46.8213770811 166.732710244 C 46.8670318659 166.763013852 46.9126866507 166.793296232 46.9583414354 166.823557441 C 47.0039962202 166.85381865 47.049651005 166.884058561 47.0953057898 166.914277231 C 47.1409605746 166.944495901 47.1866153594 166.974693203 47.2322701441 167.004869194 C 47.2779249289 167.035045185 47.3235797137 167.065199737 47.3692344985 167.095332907 C 47.4148892833 167.125466078 47.4605440681 167.155577738 47.5061988529 167.185667947 C 47.5518536376 167.215758156 47.5975084224 167.245826784 47.6431632072 167.275873889 C 47.688817992 167.305920995 47.7344727768 167.335946448 47.7801275616 167.365950307 C 47.8257823463 167.395954167 47.8714371311 167.425936303 47.9170919159 167.455896774 C 47.9627467007 167.485857246 48.0084014855 167.515795922 48.0540562703 167.545712862 C 48.0997110551 167.575629802 48.1453658398 167.605524875 48.1910206246 167.63539814 C 48.2366754094 167.665271405 48.2823301942 167.695122731 48.327984979 167.724952177 C 48.3736397638 167.754781624 48.4192945485 167.784589059 48.4649493333 167.814374542 C 48.5106041181 167.844160025 48.5562589029 167.873923425 48.6019136877 167.9036648 C 48.6475684725 167.933406176 48.6932232573 167.963125395 48.738878042 167.992822517 C 48.7845328268 168.02251964 48.8301876116 168.052194533 48.8758423964 168.081847257 C 48.9214971812 168.111499981 48.967151966 168.141130402 49.0128067508 168.170738582 C 49.0584615355 168.200346761 49.1041163203 168.229932565 49.1497711051 168.259496054 C 49.1954258899 168.289059542 49.2410806747 168.318600581 49.2867354595 168.348119232 C 49.3323902442 168.377637883 49.378045029 168.407134011 49.4236998138 168.436607677 C 49.4693545986 168.466081342 49.5150093834 168.495532411 49.5606641682 168.524960944 C 49.606318953 168.554389477 49.6519737377 168.583795339 49.6976285225 168.613178592 C 49.7432833073 168.642561844 49.7889380921 168.671922351 49.8345928769 168.701260174 C 49.8802476617 168.730597997 49.9259024464 168.759913 49.9715572312 168.789205245 C 50.017212016 168.818497489 50.0628668008 168.847766839 50.1085215856 168.877013356 C 50.1541763704 168.906259874 50.1998311552 168.935483421 50.2454859399 168.964684061 C 50.2911407247 168.993884701 50.3367955095 169.023062296 50.3824502943 169.052216908 C 50.4281050791 169.08137152 50.4737598639 169.110503012 50.5194146486 169.139611446 C 50.5650694334 169.168719881 50.6107242182 169.197805119 50.656379003 169.226867224 C 50.7020337878 169.255929329 50.7476885726 169.284968162 50.7933433574 169.313983786 C 50.8389981421 169.342999411 50.8846529269 169.371991687 50.9303077117 169.400960679 C 50.9759624965 169.429929672 51.0216172813 169.458875239 51.0672720661 169.487797447 C 51.1129268509 169.516719654 51.1585816356 169.54561836 51.2042364204 169.57449363 C 51.2498912052 169.6033689 51.29554599 169.632220593 51.3412007748 169.661048772 C 51.3868555596 169.689876952 51.4325103443 169.718681477 51.4781651291 169.747462412 C 51.5238199139 169.776243347 51.5694746987 169.805000551 51.6151294835 169.833734089 C 51.6607842683 169.862467626 51.7064390531 169.891177355 51.7520938378 169.91986334 C 51.7977486226 169.948549325 51.8434034074 169.977211424 51.8890581922 170.005849702 C 51.934712977 170.03448798 51.9803677618 170.063102294 52.0260225465 170.091692709 C 52.0716773313 170.120283125 52.1173321161 170.148849499 52.1629869009 170.177391897 C 52.2086416857 170.205934295 52.2542964705 170.234452573 52.2999512553 170.262946797 C 52.34560604 170.291441021 52.3912608248 170.319911046 52.4369156096 170.34835694 C 52.4825703944 170.376802834 52.5282251792 170.405224451 52.573879964 170.433621858 C 52.6195347487 170.462019264 52.6651895335 170.490392315 52.7108443183 170.518741078 C 52.7564991031 170.54708984 52.8021538879 170.575414168 52.8478086727 170.603714128 C 52.8934634575 170.632014089 52.9391182422 170.660289535 52.984773027 170.688540536 C 53.0304278118 170.716791536 53.0760825966 170.745017943 53.1217373814 170.773219825 C 53.1673921662 170.801421707 53.213046951 170.829598916 53.2587017357 170.857751521 C 53.3043565205 170.885904126 53.3500113053 170.914031978 53.3956660901 170.942135146 C 53.4413208749 170.970238314 53.4869756597 170.998316649 53.5326304444 171.026370221 C 53.5782852292 171.054423793 53.623940014 171.082452452 53.6695947988 171.110456267 C 53.7152495836 171.138460082 53.7609043684 171.166438905 53.8065591532 171.194392803 C 53.8522139379 171.222346702 53.8978687227 171.250275526 53.9435235075 171.278179347 C 53.9891782923 171.306083168 54.0348330771 171.333961834 54.0804878619 171.361815416 C 54.1261426466 171.389668998 54.1717974314 171.417497344 54.2174522162 171.445300525 C 54.263107001 171.473103706 54.3087617858 171.50088157 54.3544165706 171.528634188 C 54.4000713554 171.556386806 54.4457261401 171.584114026 54.4913809249 171.611815919 C 54.5370357097 171.639517812 54.5826904945 171.667194225 54.6283452793 171.694845229 C 54.6740000641 171.722496234 54.7196548488 171.750121677 54.7653096336 171.77772163 C 54.8109644184 171.805321583 54.8566192032 171.832895893 54.902273988 171.860444631 C 54.9479287728 171.887993369 54.9935835576 171.915516381 55.0392383423 171.943013739 C 55.0848931271 171.970511098 55.1305479119 171.997982649 55.1762026967 172.025428463 C 55.2218574815 172.052874278 55.2675122663 172.080294202 55.3131670511 172.107688309 C 55.3588218358 172.135082415 55.4044766206 172.162450548 55.4501314054 172.18979278 C 55.4957861902 172.217135013 55.541440975 172.244451189 55.5870957598 172.271741381 C 55.6327505445 172.299031574 55.6784053293 172.326295628 55.7240601141 172.353533615 C 55.7697148989 172.380771602 55.8153696837 172.407983367 55.8610244685 172.435168982 C 55.9066792533 172.462354597 55.952334038 172.489513906 55.9979888228 172.516646983 C 56.0436436076 172.543780059 56.0892983924 172.570886746 56.1349531772 172.597967116 C 56.180607962 172.625047487 56.2262627467 172.652101383 56.2719175315 172.67912888 C 56.3175723163 172.706156377 56.3632271011 172.733157316 56.4088818859 172.760131771 C 56.4545366707 172.787106227 56.5001914555 172.81405404 56.5458462402 172.840975285 C 56.591501025 172.867896531 56.6371558098 172.89479105 56.6828105946 172.921658917 C 56.7284653794 172.948526784 56.7741201642 172.975367839 56.8197749489 173.002182158 C 56.8654297337 173.028996478 56.9110845185 173.055783901 56.9567393033 173.082544503 C 57.0023940881 173.109305105 57.0480488729 173.136038726 57.0937036577 173.162745441 C 57.1393584424 173.189452156 57.1850132272 173.216131804 57.230668012 173.242784463 C 57.2763227968 173.269437121 57.3219775816 173.296062626 57.3676323664 173.322661057 C 57.4132871512 173.349259487 57.4589419359 173.375830679 57.5045967207 173.402374711 C 57.5502515055 173.428918742 57.5959062903 173.45543545 57.6415610751 173.481924911 C 57.6872158599 173.508414373 57.7328706446 173.534876424 57.7785254294 173.561311144 C 57.8241802142 173.587745864 57.869834999 173.614153087 57.9154897838 173.640532893 C 57.9611445686 173.666912699 58.0067993534 173.693264922 58.0524541381 173.719589642 C 58.0981089229 173.745914362 58.1437637077 173.772211412 58.1894184925 173.798480873 C 58.2350732773 173.824750333 58.2807280621 173.850992038 58.3263828468 173.877206067 C 58.3720376316 173.903420095 58.4176924164 173.929606281 58.4633472012 173.955764704 C 58.509001986 173.981923126 58.5546567708 174.008053619 58.6003115556 174.034156263 C 58.6459663403 174.060258906 58.6916211251 174.086333532 58.7372759099 174.112380222 C 58.7829306947 174.138426912 58.8285854795 174.164445497 58.8742402643 174.190436058 C 58.919895049 174.216426619 58.9655498338 174.242388988 59.0112046186 174.268323247 C 59.0568594034 174.294257505 59.1025141882 174.320163483 59.148168973 174.346041263 C 59.1938237578 174.371919043 59.2394785425 174.397768455 59.2851333273 174.423589581 C 59.3307881121 174.449410707 59.3764428969 174.475203376 59.4220976817 174.500967672 C 59.4677524665 174.526731968 59.5134072513 174.55246772 59.559062036 174.57817501 C 59.6047168208 174.603882299 59.6503716056 174.629560956 59.6960263904 174.655211063 C 59.7416811752 174.68086117 59.78733596 174.706482556 59.8329907447 174.732075303 C 59.8786455295 174.75766805 59.9243003143 174.783231987 59.9699550991 174.808767198 C 60.0156098839 174.834302408 60.0612646687 174.859808719 60.1069194535 174.885286214 C 60.1525742382 174.91076371 60.198229023 174.936212217 60.2438838078 174.96163182 C 60.2895385926 174.987051424 60.3351933774 175.012441949 60.3808481622 175.037803481 C 60.4265029469 175.063165014 60.4721577317 175.088497379 60.5178125165 175.113800662 C 60.5634673013 175.139103945 60.6091220861 175.164377971 60.6547768709 175.189622825 C 60.7004316557 175.21486768 60.7460864404 175.240083188 60.7917412252 175.265269435 C 60.83739601 175.290455682 60.8830507948 175.315612493 60.9287055796 175.340739953 C 60.9743603644 175.365867413 61.0200151491 175.390965346 61.0656699339 175.41603384 C 61.1113247187 175.441102333 61.1569795035 175.466141209 61.2026342883 175.491150555 C 61.2482890731 175.516159901 61.2939438579 175.54113954 61.3395986426 175.566089559 C 61.3852534274 175.591039578 61.4309082122 175.615959798 61.476562997 175.640850309 C 61.5222177818 175.665740819 61.5678725666 175.690601441 61.6135273514 175.715432262 C 61.6591821361 175.740263083 61.7048369209 175.765063924 61.7504917057 175.789834875 C 61.7961464905 175.814605825 61.8418012753 175.839346705 61.8874560601 175.864057603 C 61.9331108448 175.888768501 61.9787656296 175.913449237 62.0244204144 175.938099901 C 62.0700751992 175.962750565 62.115729984 175.987370975 62.1613847688 176.011961222 C 62.2070395536 176.036551469 62.2526943383 176.061111372 62.2983491231 176.08564102 C 62.3440039079 176.110170668 62.3896586927 176.13466988 62.4353134775 176.159138746 C 62.4809682623 176.183607612 62.526623047 176.20804595 62.5722778318 176.232453851 C 62.6179326166 176.256861752 62.6635874014 176.281239034 62.7092421862 176.305585786 C 62.754896971 176.329932539 62.8005517558 176.35424858 62.8462065405 176.378534 C 62.8918613253 176.402819421 62.9375161101 176.427074038 62.9831708949 176.451297943 C 63.0288256797 176.475521847 63.0744804645 176.499714856 63.1201352492 176.52387706 C 63.165790034 176.548039265 63.2114448188 176.572170481 63.2570996036 176.596270801 C 63.3027543884 176.620371121 63.3484091732 176.644440359 63.394063958 176.66847861 C 63.4397187427 176.692516861 63.4853735275 176.716523937 63.5310283123 176.740499934 C 63.5766830971 176.76447593 63.6223378819 176.78842066 63.6679926667 176.812334217 C 63.7136474515 176.836247774 63.7593022362 176.860129971 63.804957021 176.883980903 C 63.8506118058 176.907831835 63.8962665906 176.931651314 63.9419213754 176.955439436 C 63.9875761602 176.979227557 64.0332309449 177.002984132 64.0788857297 177.026709257 C 64.1245405145 177.050434382 64.1701952993 177.074127867 64.2158500841 177.097789809 C 64.2615048689 177.121451751 64.3071596537 177.14508196 64.3528144384 177.168680532 C 64.3984692232 177.192279105 64.444124008 177.215845851 64.4897787928 177.239380868 C 64.5354335776 177.262915885 64.5810883624 177.286418981 64.6267431471 177.309890255 C 64.6723979319 177.333361529 64.7180527167 177.356800789 64.7637075015 177.380208133 C 64.8093622863 177.403615477 64.8550170711 177.426990713 64.9006718559 177.45033394 C 64.9463266406 177.473677166 64.9919814254 177.496988191 65.0376362102 177.520267113 C 65.083290995 177.543546035 65.1289457798 177.566792661 65.1746005646 177.59000709 C 65.2202553493 177.613221519 65.2659101341 177.636403558 65.3115649189 177.659553307 C 65.3572197037 177.682703055 65.4028744885 177.705820319 65.4485292733 177.728905199 C 65.4941840581 177.751990079 65.5398388428 177.77504238 65.5854936276 177.798062202 C 65.6311484124 177.821082025 65.6768031972 177.844069174 65.722457982 177.867023751 C 65.7681127668 177.889978328 65.8137675516 177.912900137 65.8594223363 177.935789279 C 65.9050771211 177.958678422 65.9507319059 177.981534701 65.9963866907 178.00435822 C 66.0420414755 178.027181739 66.0876962603 178.0499723 66.133351045 178.072730007 C 66.1790058298 178.095487713 66.2246606146 178.118212367 66.2703153994 178.140904071 C 66.3159701842 178.163595776 66.361624969 178.186254332 66.4072797538 178.208879845 C 66.4529345385 178.231505358 66.4985893233 178.254097629 66.5442441081 178.276656761 C 66.5898988929 178.299215892 66.6355536777 178.321741686 66.6812084625 178.344234247 C 66.7268632472 178.366726808 66.772518032 178.389185936 66.8181728168 178.411611736 C 66.8638276016 178.434037536 66.9094823864 178.456429808 66.9551371712 178.478788657 C 67.000791956 178.501147506 67.0464467407 178.523472731 67.0921015255 178.545764438 C 67.1377563103 178.568056146 67.1834110951 178.590314134 67.2290658799 178.61253851 C 67.2747206647 178.634762886 67.3203754494 178.656953447 67.3660302342 178.6791103 C 67.411685019 178.701267153 67.4573398038 178.723390096 67.5029945886 178.745479237 C 67.5486493734 178.767568377 67.5943041582 178.789623511 67.6399589429 178.811644747 C 67.6856137277 178.833665983 67.7312685125 178.855653117 67.7769232973 178.877606259 C 67.8225780821 178.8995594 67.8682328669 178.921478343 67.9138876517 178.943363198 C 67.9595424364 178.965248054 68.0051972212 178.987098615 68.050852006 179.008914993 C 68.0965067908 179.030731371 68.1421615756 179.052513359 68.1878163604 179.074261068 C 68.2334711451 179.096008777 68.2791259299 179.117722001 68.3247807147 179.139400849 C 68.3704354995 179.161079698 68.4160902843 179.182723966 68.4617450691 179.204333763 C 68.5073998539 179.22594356 68.5530546386 179.24751868 68.5987094234 179.269059234 C 68.6443642082 179.290599788 68.690018993 179.312105568 68.7356737778 179.333576687 C 68.7813285626 179.355047806 68.8269833473 179.376484055 68.8726381321 179.397885546 C 68.9182929169 179.419287038 68.9639477017 179.440653564 69.0096024865 179.461985237 C 69.0552572713 179.48331691 69.1009120561 179.504613521 69.1465668408 179.525875183 C 69.1922216256 179.547136846 69.2378764104 179.568363349 69.2835311952 179.589554809 C 69.32918598 179.610746268 69.3748407648 179.631902472 69.4204955495 179.653023537 C 69.4661503343 179.674144601 69.5118051191 179.695230314 69.5574599039 179.716280791 C 69.6031146887 179.737331269 69.6487694735 179.758346298 69.6944242583 179.779325996 C 69.740079043 179.800305693 69.7857338278 179.821249847 69.8313886126 179.842158573 C 69.8770433974 179.863067299 69.9226981822 179.883940385 69.968352967 179.904777947 C 70.0140077518 179.925615509 70.0596625365 179.946417333 70.1053173213 179.967183539 C 70.1509721061 179.987949745 70.1966268909 180.008680117 70.2422816757 180.029374773 C 70.2879364605 180.05006943 70.3335912452 180.070728157 70.37924603 180.091351072 C 70.4249008148 180.111973988 70.4705555996 180.132560877 70.5162103844 180.153111859 C 70.5618651692 180.17366284 70.607519954 180.194177699 70.6531747387 180.214656555 C 70.6988295235 180.23513541 70.7444843083 180.255578046 70.7901390931 180.275984583 C 70.8357938779 180.296391121 70.8814486627 180.316761341 70.9271034474 180.337095367 C 70.9727582322 180.357429393 71.018413017 180.377727007 71.0640678018 180.397988329 C 71.1097225866 180.418249651 71.1553773714 180.438474464 71.2010321562 180.458662891 C 71.2466869409 180.478851317 71.2923417257 180.499003138 71.3379965105 180.519118476 C 71.3836512953 180.539233814 71.4293060801 180.559312449 71.4749608649 180.579354506 C 71.5206156496 180.599396563 71.5662704344 180.619401822 71.6119252192 180.639370405 C 71.657580004 180.659338989 71.7032347888 180.679270678 71.7488895736 180.699165596 C 71.7945443584 180.719060514 71.8401991431 180.73891844 71.8858539279 180.7587395 C 71.9315087127 180.778560561 71.9771634975 180.798344533 72.0228182823 180.818091543 C 72.0684730671 180.837838553 72.1141278519 180.857548378 72.1597826366 180.877221146 C 72.2054374214 180.896893913 72.2510922062 180.9165294 72.296746991 180.936127733 C 72.3424017758 180.955726066 72.3880565606 180.975287021 72.4337113453 180.994810728 C 72.4793661301 181.014334434 72.5250209149 181.033820667 72.5706756997 181.053269555 C 72.6163304845 181.072718442 72.6619852693 181.09212976 72.7076400541 181.111503637 C 72.7532948388 181.130877514 72.7989496236 181.150213725 72.8446044084 181.1695124 C 72.8902591932 181.188811074 72.935913978 181.208071987 72.9815687628 181.227295267 C 73.0272235475 181.246518548 73.0728783323 181.26570397 73.1185331171 181.284851664 C 73.1641879019 181.303999359 73.2098426867 181.323109099 73.2554974715 181.342181016 C 73.3011522563 181.361252933 73.346807041 181.3802868 73.3924618258 181.399282748 C 73.4381166106 181.418278697 73.4837713954 181.437236499 73.5294261802 181.456156287 C 73.575080965 181.475076075 73.6207357497 181.493957621 73.6663905345 181.512801058 C 73.7120453193 181.531644495 73.7577001041 181.550449594 73.8033548889 181.569216489 C 73.8490096737 181.587983383 73.8946644585 181.606711844 73.9403192432 181.625402005 C 73.985974028 181.644092167 74.0316288128 181.662743798 74.0772835976 181.681357036 C 74.1229383824 181.699970273 74.1685931672 181.718544885 74.214247952 181.737081008 C 74.2599027367 181.755617131 74.3055575215 181.774114533 74.3512123063 181.792573351 C 74.3968670911 181.811032168 74.4425218759 181.82945217 74.4881766607 181.847833492 C 74.5338314454 181.866214815 74.5794862302 181.884557226 74.625141015 181.902860863 C 74.6707957998 181.9211645 74.7164505846 181.93942913 74.7621053694 181.957654892 C 74.8077601542 181.975880654 74.8534149389 181.994067314 74.8990697237 182.012215011 C 74.9447245085 182.030362708 74.9903792933 182.048471207 75.0360340781 182.06654065 C 75.0816888629 182.084610092 75.1273436476 182.102640242 75.1729984324 182.120631241 C 75.2186532172 182.13862224 75.264308002 182.156573851 75.3099627868 182.174486217 C 75.3556175716 182.192398583 75.4012723564 182.210271467 75.4469271411 182.228105011 C 75.4925819259 182.245938555 75.5382367107 182.263732522 75.5838914955 182.281487056 C 75.6295462803 182.299241589 75.6752010651 182.316956452 75.7208558498 182.334631787 C 75.7665106346 182.352307122 75.8121654194 182.369942691 75.8578202042 182.387538639 C 75.903474989 182.405134587 75.9491297738 182.422690676 75.9947845586 182.440207049 C 76.0404393433 182.457723422 76.0860941281 182.475199841 76.1317489129 182.492636452 C 76.1774036977 182.510073063 76.2230584825 182.527469625 76.2687132673 182.544826286 C 76.3143680521 182.562182947 76.3600228368 182.579499466 76.4056776216 182.59677599 C 76.4513324064 182.614052514 76.4969871912 182.631288803 76.542641976 182.648485003 C 76.5882967608 182.665681203 76.6339515455 182.682837074 76.6796063303 182.699952765 C 76.7252611151 182.717068455 76.7709158999 182.734143722 76.8165706847 182.751178716 C 76.8622254695 182.768213709 76.9078802543 182.785208187 76.953535039 182.802162298 C 76.9991898238 182.819116409 77.0448446086 182.836029911 77.0904993934 182.852902954 C 77.1361541782 182.869775998 77.181808963 182.886608339 77.2274637477 182.903400129 C 77.2731185325 182.920191919 77.3187733173 182.936942914 77.3644281021 182.953653266 C 77.4100828869 182.970363618 77.4557376717 182.987033082 77.5013924565 183.003661811 C 77.5470472412 183.02029054 77.592702026 183.036878289 77.6383568108 183.053425211 C 77.6840115956 183.069972133 77.7296663804 183.086477982 77.7753211652 183.102942913 C 77.8209759499 183.119407844 77.8666307347 183.135831611 77.9122855195 183.152214367 C 77.9579403043 183.168597124 78.0035950891 183.184938624 78.0492498739 183.201239023 C 78.0949046587 183.217539422 78.1405594434 183.233798472 78.1862142282 183.250016331 C 78.231869013 183.266234189 78.2775237978 183.282410608 78.3231785826 183.298545744 C 78.3688333674 183.314680879 78.4144881522 183.330774484 78.4601429369 183.346826715 C 78.5057977217 183.362878945 78.5514525065 183.378889554 78.5971072913 183.394858698 C 78.6427620761 183.410827843 78.6884168609 183.426755274 78.7340716456 183.442641151 C 78.7797264304 183.458527027 78.8253812152 183.4743711 78.871036 183.490173529 C 78.9166907848 183.505975957 78.9623455696 183.521736491 79.0080003544 183.537455291 C 79.0536551391 183.55317409 79.0993099239 183.568850905 79.1449647087 183.584485896 C 79.1906194935 183.600120888 79.2362742783 183.615713804 79.2819290631 183.631264807 C 79.3275838478 183.64681581 79.3732386326 183.662324648 79.4188934174 183.677791484 C 79.4645482022 183.693258321 79.510202987 183.708682902 79.5558577718 183.724065393 C 79.6015125566 183.739447883 79.6471673413 183.75478803 79.6928221261 183.770085997 C 79.7384769109 183.785383964 79.7841316957 183.800639498 79.8297864805 183.815852764 C 79.8754412653 183.83106603 79.9210960501 183.846236773 79.9667508348 183.861365161 C 80.0124056196 183.876493549 80.0580604044 183.891579325 80.1037151892 183.906622658 C 80.149369974 183.921665991 80.1950247588 183.936666625 80.2406795435 183.951624727 C 80.2863343283 183.966582828 80.3319891131 183.981498143 80.3776438979 183.996370838 C 80.4232986827 184.011243534 80.4689534675 184.026073354 80.5146082523 184.040860468 C 80.560263037 184.055647582 80.6059178218 184.070391733 80.6515726066 184.085093091 C 80.6972273914 184.099794449 80.7428821762 184.114452756 80.788536961 184.129068184 C 80.8341917457 184.143683612 80.8798465305 184.158255903 80.9255013153 184.172785227 C 80.9711561001 184.187314552 81.0168108849 184.201800652 81.0624656697 184.216243701 C 81.1081204545 184.230686749 81.1537752392 184.245086487 81.199430024 184.259443086 C 81.2450848088 184.273799686 81.2907395936 184.288112889 81.3363943784 184.302382869 C 81.3820491632 184.316652848 81.4277039479 184.330879345 81.4733587327 184.345062533 C 81.5190135175 184.359245721 81.5646683023 184.373385341 81.6103230871 184.387481567 C 81.6559778719 184.401577794 81.7016326567 184.415630366 81.7472874414 184.42963946 C 81.7929422262 184.443648555 81.838597011 184.45761391 81.8842517958 184.471535704 C 81.9299065806 184.485457497 81.9755613654 184.499335467 82.0212161502 184.51316979 C 82.0668709349 184.527004114 82.1125257197 184.540794529 82.1581805045 184.554541215 C 82.2038352893 184.5682879 82.2494900741 184.581990594 82.2951448589 184.595649474 C 82.3407996436 184.609308354 82.3864544284 184.622923158 82.4321092132 184.636494067 C 82.477763998 184.650064975 82.5234187828 184.663591723 82.5690735676 184.677074493 C 82.6147283524 184.690557263 82.6603831371 184.70399579 82.7060379219 184.717390257 C 82.7516927067 184.730784723 82.7973474915 184.744134864 82.8430022763 184.757440861 C 82.8886570611 184.770746859 82.9343118458 184.784008449 82.9799666306 184.797225814 C 83.0256214154 184.810443179 83.0712762002 184.823616054 83.116930985 184.836744623 C 83.1625857698 184.849873193 83.2082405546 184.86295719 83.2538953393 184.8759968 C 83.2995501241 184.889036411 83.3452049089 184.902031367 83.3908596937 184.914981857 C 83.4365144785 184.927932347 83.4821692633 184.940838102 83.527824048 184.95369931 C 83.5734788328 184.966560517 83.6191336176 184.97937691 83.6647884024 184.992148675 C 83.7104431872 185.00492044 83.756097972 185.017647309 83.8017527568 185.030329472 C 83.8474075415 185.043011635 83.8930623263 185.055648822 83.9387171111 185.068241223 C 83.9843718959 185.080833624 84.0300266807 185.09338097 84.0756814655 185.105883451 C 84.1213362503 185.118385933 84.166991035 185.130843279 84.2126458198 185.143255683 C 84.2583006046 185.155668087 84.3039553894 185.168035278 84.3496101742 185.180357448 C 84.395264959 185.192679617 84.4409197437 185.204956495 84.4865745285 185.217188275 C 84.5322293133 185.229420054 84.5778840981 185.241606464 84.6235388829 185.253747698 C 84.6691936677 185.265888932 84.7148484525 185.277984719 84.7605032372 185.290035253 C 84.806158022 185.302085787 84.8518128068 185.314090796 84.8974675916 185.326050477 C 84.9431223764 185.338010158 84.9887771612 185.349924237 85.0344319459 185.361792911 C 85.0800867307 185.373661585 85.1257415155 185.385484582 85.1713963003 185.397262098 C 85.2170510851 185.409039614 85.2627058699 185.420771376 85.3083606547 185.432457582 C 85.3540154394 185.444143789 85.3996702242 185.455784166 85.445325009 185.467378912 C 85.4909797938 185.478973659 85.5366345786 185.490522501 85.5822893634 185.502025639 C 85.6279441481 185.513528776 85.6735989329 185.524985934 85.7192537177 185.536397314 C 85.7649085025 185.547808693 85.8105632873 185.559174019 85.8562180721 185.570493493 C 85.9018728569 185.581812967 85.9475276416 185.593086314 85.9931824264 185.604313735 C 86.0388372112 185.615541157 86.084491996 185.626722378 86.1301467808 185.637857601 C 86.1758015656 185.648992824 86.2214563504 185.660081773 86.2671111351 185.671124653 C 86.3127659199 185.682167533 86.3584207047 185.693164066 86.4040754895 185.704114458 C 86.4497302743 185.71506485 86.4953850591 185.725968823 86.5410398438 185.736826584 C 86.5866946286 185.747684345 86.6323494134 185.758495616 86.6780041982 185.769260604 C 86.723658983 185.780025591 86.7693137678 185.790744018 86.8149685526 185.801416091 C 86.8606233373 185.812088164 86.9062781221 185.822713605 86.9519329069 185.833292623 C 86.9975876917 185.84387164 87.0432424765 185.854403956 87.0888972613 185.864889779 C 87.134552046 185.875375602 87.1802068308 185.885814653 87.2258616156 185.896207143 C 87.2715164004 185.906599633 87.3171711852 185.916945281 87.36282597 185.9272443 C 87.4084807548 185.937543319 87.4541355395 185.947795427 87.4997903243 185.958000839 C 87.5454451091 185.96820625 87.5910998939 185.978364683 87.6367546787 185.988476351 C 87.6824094635 185.998588019 87.7280642482 186.00865264 87.773719033 186.01867043 C 87.8193738178 186.02868822 87.8650286026 186.038658897 87.9106833874 186.048582675 C 87.9563381722 186.058506453 88.001992957 186.068383051 88.0476477417 186.078212685 C 88.0933025265 186.08804232 88.1389573113 186.097824707 88.1846120961 186.107560065 C 88.2302668809 186.117295423 88.2759216657 186.126983469 88.3215764505 186.13662442 C 88.3672312352 186.146265371 88.41288602 186.155858945 88.4585408048 186.16540536 C 88.5041955896 186.174951775 88.5498503744 186.184450748 88.5955051592 186.193902498 C 88.6411599439 186.203354248 88.6868147287 186.212758492 88.7324695135 186.22211545 C 88.7781242983 186.231472408 88.8237790831 186.240781795 88.8694338679 186.250043834 C 88.9150886527 186.259305873 88.9607434374 186.268520278 89.0063982222 186.277687273 C 89.052053007 186.286854268 89.0977077918 186.295973566 89.1433625766 186.305045392 C 89.1890173614 186.314117218 89.2346721461 186.323141286 89.2803269309 186.33211782 C 89.3259817157 186.341094354 89.3716365005 186.350023068 89.4172912853 186.358904188 C 89.4629460701 186.367785308 89.5086008549 186.376618547 89.5542556396 186.385404132 C 89.5999104244 186.394189716 89.6455652092 186.40292736 89.691219994 186.411617289 C 89.7368747788 186.420307218 89.7825295636 186.428949146 89.8281843483 186.437543302 C 89.8738391331 186.446137457 89.9194939179 186.454683552 89.9651487027 186.463181815 C 90.0108034875 186.471680078 90.0564582723 186.480130222 90.1021130571 186.488532477 C 90.1477678418 186.496934732 90.1934226266 186.505288809 90.2390774114 186.51359494 C 90.2847321962 186.521901071 90.330386981 186.530158966 90.3760417658 186.538368858 C 90.4216965506 186.546578751 90.4673513353 186.554740351 90.5130061201 186.562853891 C 90.5586609049 186.570967432 90.6043156897 186.579032624 90.6499704745 186.5870497 C 90.6956252593 186.595066777 90.741280044 186.603035449 90.7869348288 186.610955952 C 90.8325896136 186.618876454 90.8782443984 186.626748496 90.9238991832 186.634572313 C 90.969553968 186.642396131 91.0152087528 186.650171434 91.0608635375 186.657898459 C 91.1065183223 186.665625484 91.1521731071 186.673303939 91.1978278919 186.680934064 C 91.2434826767 186.688564188 91.2891374615 186.69614569 91.3347922462 186.703678808 C 91.380447031 186.711211925 91.4261018158 186.718696368 91.4717566006 186.726132374 C 91.5174113854 186.73356838 91.5630661702 186.740955658 91.608720955 186.748294449 C 91.6543757397 186.75563324 91.7000305245 186.762923251 91.7456853093 186.770164724 C 91.7913400941 186.777406197 91.8369948789 186.784598839 91.8826496637 186.791742892 C 91.9283044484 186.798886946 91.9739592332 186.805982118 92.019614018 186.813028652 C 92.0652688028 186.820075186 92.1109235876 186.827072789 92.1565783724 186.834021705 C 92.2022331572 186.840970621 92.2478879419 186.847870556 92.2935427267 186.854721755 C 92.3391975115 186.861572955 92.3848522963 186.868375126 92.4305070811 186.875128513 C 92.4761618659 186.8818819 92.5218166507 186.88858621 92.5674714354 186.89524169 C 92.6131262202 186.901897169 92.658781005 186.908503525 92.7044357898 186.915061003 C 92.7500905746 186.921618481 92.7957453594 186.928126787 92.8414001441 186.934586171 C 92.8870549289 186.941045555 92.9327097137 186.947455722 92.9783644985 186.95381692 C 93.0240192833 186.960178118 93.0696740681 186.966490054 93.1153288529 186.972752977 C 93.1609836376 186.979015899 93.2066384224 186.985229514 93.2522932072 186.991394073 C 93.297947992 186.997558631 93.3436027768 187.003673837 93.3892575616 187.009739944 C 93.4349123463 187.01580605 93.4805671311 187.021822761 93.5262219159 187.027790329 C 93.5718767007 187.033757897 93.6175314855 187.039676027 93.6631862703 187.045544972 C 93.7088410551 187.051413917 93.7544958398 187.057233381 93.8001506246 187.063003619 C 93.8458054094 187.068773858 93.8914601942 187.074494574 93.937114979 187.080166023 C 93.9827697638 187.085837472 94.0284245485 187.091459358 94.0740793333 187.097031938 C 94.1197341181 187.102604517 94.1653889029 187.108127493 94.2110436877 187.113601122 C 94.2566984725 187.119074752 94.3023532573 187.124498739 94.348008042 187.12987334 C 94.3936628268 187.135247942 94.4393176116 187.140572862 94.4849723964 187.145848358 C 94.5306271812 187.151123855 94.576281966 187.156349631 94.6219367508 187.161525948 C 94.6675915355 187.166702264 94.7132463203 187.171828822 94.7589011051 187.176905883 C 94.8045558899 187.181982944 94.8502106747 187.187010211 94.8958654595 187.191987944 C 94.9415202442 187.196965678 94.987175029 187.20189358 95.0328298138 187.206771914 C 95.0784845986 187.211650248 95.1241393834 187.216478715 95.1697941682 187.22125758 C 95.215448953 187.226036444 95.2611037377 187.230765407 95.3067585225 187.235444733 C 95.3524133073 187.240124058 95.3980680921 187.244753449 95.4437228769 187.249333168 C 95.4893776617 187.253912888 95.5350324464 187.258442639 95.5806872312 187.262922687 C 95.626342016 187.267402734 95.6719968008 187.27183278 95.7176515856 187.276213091 C 95.7633063704 187.280593402 95.8089611552 187.284923679 95.8546159399 187.28920419 C 95.9002707247 187.2934847 95.9459255095 187.297715146 95.9915802943 187.301895794 C 96.0372350791 187.306076443 96.0828898639 187.310206996 96.1285446486 187.314287722 C 96.1741994334 187.318368448 96.2198542182 187.322399048 96.265509003 187.326379792 C 96.3111637878 187.330360536 96.3568185726 187.334291125 96.4024733574 187.338171829 C 96.4481281421 187.342052534 96.4937829269 187.345883055 96.5394377117 187.349663664 C 96.5850924965 187.353444272 96.6307472813 187.357174669 96.6764020661 187.360855127 C 96.7220568509 187.364535585 96.7677116356 187.368165804 96.8133664204 187.371746058 C 96.8590212052 187.375326311 96.90467599 187.378856299 96.9503307748 187.382336297 C 96.9959855596 187.385816294 97.0416403443 187.389246 97.0872951291 187.39262569 C 97.1329499139 187.39600538 97.1786046987 187.399334754 97.2242594835 187.402614088 C 97.2699142683 187.405893422 97.3155690531 187.409122415 97.3612238378 187.412301345 C 97.4068786226 187.415480275 97.4525334074 187.41860884 97.4981881922 187.421687319 C 97.543842977 187.424765799 97.5894977618 187.427793891 97.6351525465 187.430771875 C 97.6808073313 187.433749859 97.7264621161 187.436677433 97.7721169009 187.439554878 C 97.8177716857 187.442432323 97.8634264705 187.445259337 97.9090812553 187.448036201 C 97.95473604 187.450813065 98.0003908248 187.453539478 98.0460456096 187.45621572 C 98.0917003944 187.458891963 98.1373551792 187.461517734 98.183009964 187.464093316 C 98.2286647487 187.466668898 98.2743195335 187.469193988 98.3199743183 187.471668872 C 98.3656291031 187.474143755 98.4112838879 187.476568129 98.4569386727 187.478942278 C 98.5025934575 187.481316427 98.5482482422 187.483640048 98.593903027 187.485913428 C 98.6395578118 187.488186807 98.6852125966 187.490409642 98.7308673814 187.492582219 C 98.7765221662 187.494754796 98.822176951 187.496876812 98.8678317357 187.498948554 C 98.9134865205 187.501020296 98.9591413053 187.503041462 99.0047960901 187.505012339 C 99.0504508749 187.506983216 99.0961056597 187.508903502 99.1417604444 187.510773485 C 99.1874152292 187.512643468 99.233070014 187.514462846 99.2787247988 187.516231908 C 99.3243795836 187.51800097 99.3700343684 187.519719413 99.4156891532 187.521387528 C 99.4613439379 187.523055642 99.5069987227 187.524673125 99.5526535075 187.526240268 C 99.5983082923 187.527807411 99.6439630771 187.52932391 99.6896178619 187.530790058 C 99.7352726466 187.532256206 99.7809274314 187.533671699 99.8265822162 187.535036831 C 99.872237001 187.536401962 99.9178917858 187.537716429 99.9635465706 187.538980523 C 100.009201355 187.540244618 100.05485614 187.541458039 100.100510925 187.542621079 C 100.14616571 187.543784119 100.191820494 187.544896475 100.237475279 187.545958443 C 100.283130064 187.54702041 100.328784849 187.548031686 100.374439634 187.548992566 C 100.420094418 187.549953446 100.465749203 187.550863626 100.511403988 187.551723404 C 100.557058773 187.552583182 100.602713558 187.553392254 100.648368342 187.554150918 C 100.694023127 187.554909581 100.739677912 187.555617532 100.785332697 187.55627507 C 100.830987481 187.556932607 100.876642266 187.557539428 100.922297051 187.55809583 C 100.967951836 187.558652232 101.013606621 187.559157912 101.059261405 187.559613171 C 101.10491619 187.560068429 101.150570975 187.560472962 101.19622576 187.560827071 C 101.241880545 187.561181179 101.287535329 187.561484558 101.333190114 187.561737511 C 101.378844899 187.561990463 101.424499684 187.562192685 101.470154468 187.562344479 C 101.515809253 187.562496272 101.561464038 187.562597333 101.607118823 187.562647965 C 101.652773608 187.562698596 101.698428392 187.562698495 101.744083177 187.562647965 C 101.789737962 187.562597434 101.835392747 187.562496171 101.881047532 187.562344479 C 101.926702316 187.562192787 101.972357101 187.561990362 102.018011886 187.561737511 C 102.063666671 187.56148466 102.109321455 187.561181078 102.15497624 187.560827071 C 102.200631025 187.560473064 102.24628581 187.560068328 102.291940595 187.559613171 C 102.337595379 187.559158014 102.383250164 187.558652131 102.428904949 187.55809583 C 102.474559734 187.557539529 102.520214519 187.556932506 102.565869303 187.55627507 C 102.611524088 187.555617633 102.657178873 187.55490948 102.702833658 187.554150918 C 102.748488442 187.553392355 102.794143227 187.552583081 102.839798012 187.551723404 C 102.885452797 187.550863728 102.931107582 187.549953345 102.976762366 187.548992566 C 103.022417151 187.548031787 103.068071936 187.547020309 103.113726721 187.545958443 C 103.159381506 187.544896576 103.20503629 187.543784017 103.250691075 187.542621079 C 103.29634586 187.54145814 103.342000645 187.540244517 103.387655429 187.538980523 C 103.433310214 187.53771653 103.478964999 187.536401861 103.524619784 187.535036831 C 103.570274569 187.5336718 103.615929353 187.532256105 103.661584138 187.530790058 C 103.707238923 187.529324011 103.752893708 187.52780731 103.798548492 187.526240268 C 103.844203277 187.524673226 103.889858062 187.523055541 103.935512847 187.521387528 C 103.981167632 187.519719514 104.026822416 187.518000869 104.072477201 187.516231908 C 104.118131986 187.514462947 104.163786771 187.512643367 104.209441556 187.510773485 C 104.25509634 187.508903603 104.300751125 187.506983115 104.34640591 187.505012339 C 104.392060695 187.503041563 104.437715479 187.501020195 104.483370264 187.498948554 C 104.529025049 187.496876913 104.574679834 187.494754695 104.620334619 187.492582219 C 104.665989403 187.490409743 104.711644188 187.488186707 104.757298973 187.485913428 C 104.802953758 187.483640149 104.848608543 187.481316326 104.894263327 187.478942278 C 104.939918112 187.47656823 104.985572897 187.474143655 105.031227682 187.471668872 C 105.076882466 187.469194089 105.122537251 187.466668797 105.168192036 187.464093316 C 105.213846821 187.461517834 105.259501606 187.458891862 105.30515639 187.45621572 C 105.350811175 187.453539578 105.39646596 187.450812965 105.442120745 187.448036201 C 105.48777553 187.445259438 105.533430314 187.442432223 105.579085099 187.439554878 C 105.624739884 187.436677534 105.670394669 187.433749758 105.716049453 187.430771875 C 105.761704238 187.427793991 105.807359023 187.424765698 105.853013808 187.421687319 C 105.898668593 187.418608941 105.944323377 187.415480174 105.989978162 187.412301345 C 106.035632947 187.409122515 106.081287732 187.405893322 106.126942517 187.402614088 C 106.172597301 187.399334854 106.218252086 187.39600528 106.263906871 187.39262569 C 106.309561656 187.3892461 106.35521644 187.385816194 106.400871225 187.382336297 C 106.44652601 187.3788564 106.492180795 187.375326211 106.53783558 187.371746058 C 106.583490364 187.368165904 106.629145149 187.364535485 106.674799934 187.360855127 C 106.720454719 187.357174769 106.766109504 187.353444172 106.811764288 187.349663664 C 106.857419073 187.345883155 106.903073858 187.342052434 106.948728643 187.338171829 C 106.994383427 187.334291225 107.040038212 187.330360436 107.085692997 187.326379792 C 107.131347782 187.322399148 107.177002567 187.318368348 107.222657351 187.314287722 C 107.268312136 187.310207096 107.313966921 187.306076343 107.359621706 187.301895794 C 107.40527649 187.297715246 107.450931275 187.293484601 107.49658606 187.28920419 C 107.542240845 187.284923779 107.58789563 187.280593302 107.633550414 187.276213091 C 107.679205199 187.27183288 107.724859984 187.267402635 107.770514769 187.262922687 C 107.816169554 187.258442739 107.861824338 187.253912789 107.907479123 187.249333168 C 107.953133908 187.244753548 107.998788693 187.240123959 108.044443477 187.235444733 C 108.090098262 187.230765506 108.135753047 187.226036344 108.181407832 187.22125758 C 108.227062617 187.216478815 108.272717401 187.211650148 108.318372186 187.206771914 C 108.364026971 187.201893679 108.409681756 187.196965578 108.455336541 187.191987944 C 108.500991325 187.18701031 108.54664611 187.181982845 108.592300895 187.176905883 C 108.63795568 187.171828921 108.683610464 187.166702165 108.729265249 187.161525948 C 108.774920034 187.156349731 108.820574819 187.151123756 108.866229604 187.145848358 C 108.911884388 187.140572961 108.957539173 187.135247843 109.003193958 187.12987334 C 109.048848743 187.124498838 109.094503528 187.119074653 109.140158312 187.113601122 C 109.185813097 187.108127592 109.231467882 187.102604418 109.277122667 187.097031938 C 109.322777451 187.091459457 109.368432236 187.085837373 109.414087021 187.080166023 C 109.459741806 187.074494673 109.505396591 187.068773759 109.551051375 187.063003619 C 109.59670616 187.05723348 109.642360945 187.051413818 109.68801573 187.045544972 C 109.733670515 187.039676125 109.779325299 187.033757798 109.824980084 187.027790329 C 109.870634869 187.021822859 109.916289654 187.015805951 109.961944438 187.009739944 C 110.007599223 187.003673936 110.053254008 186.997558532 110.098908793 186.991394073 C 110.144563578 186.985229613 110.190218362 186.979015801 110.235873147 186.972752977 C 110.281527932 186.966490152 110.327182717 186.96017802 110.372837502 186.95381692 C 110.418492286 186.94745582 110.464147071 186.941045457 110.509801856 186.934586171 C 110.555456641 186.928126886 110.601111425 186.921618383 110.64676621 186.915061003 C 110.692420995 186.908503623 110.73807578 186.901897071 110.783730565 186.89524169 C 110.829385349 186.888586308 110.875040134 186.881881802 110.920694919 186.875128513 C 110.966349704 186.868375224 111.012004488 186.861572857 111.057659273 186.854721755 C 111.103314058 186.847870654 111.148968843 186.840970523 111.194623628 186.834021705 C 111.240278412 186.827072887 111.285933197 186.820075089 111.331587982 186.813028652 C 111.377242767 186.805982216 111.422897552 186.798886848 111.468552336 186.791742892 C 111.514207121 186.784598936 111.559861906 186.777406099 111.605516691 186.770164724 C 111.651171475 186.762923348 111.69682626 186.755633142 111.742481045 186.748294449 C 111.78813583 186.740955756 111.833790615 186.733568283 111.879445399 186.726132374 C 111.925100184 186.718696465 111.970754969 186.711211828 112.016409754 186.703678808 C 112.062064539 186.696145787 112.107719323 186.688564091 112.153374108 186.680934064 C 112.199028893 186.673304036 112.244683678 186.665625387 112.290338462 186.657898459 C 112.335993247 186.650171531 112.381648032 186.642396034 112.427302817 186.634572313 C 112.472957602 186.626748593 112.518612386 186.618876357 112.564267171 186.610955952 C 112.609921956 186.603035546 112.655576741 186.595066681 112.701231526 186.5870497 C 112.74688631 186.57903272 112.792541095 186.570967335 112.83819588 186.562853891 C 112.883850665 186.554740447 112.929505449 186.546578654 112.975160234 186.538368858 C 113.020815019 186.530159063 113.066469804 186.521900974 113.112124589 186.51359494 C 113.157779373 186.505288905 113.203434158 186.496934636 113.249088943 186.488532477 C 113.294743728 186.480130319 113.340398513 186.471679982 113.386053297 186.463181815 C 113.431708082 186.454683648 113.477362867 186.446137361 113.523017652 186.437543302 C 113.568672436 186.428949242 113.614327221 186.420307123 113.659982006 186.411617289 C 113.705636791 186.402927455 113.751291576 186.394189621 113.79694636 186.385404132 C 113.842601145 186.376618642 113.88825593 186.367785212 113.933910715 186.358904188 C 113.979565499 186.350023164 114.025220284 186.341094259 114.070875069 186.33211782 C 114.116529854 186.323141381 114.162184639 186.314117123 114.207839423 186.305045392 C 114.253494208 186.295973661 114.299148993 186.286854173 114.344803778 186.277687273 C 114.390458563 186.268520374 114.436113347 186.259305778 114.481768132 186.250043834 C 114.527422917 186.24078189 114.573077702 186.231472313 114.618732486 186.22211545 C 114.664387271 186.212758587 114.710042056 186.203354154 114.755696841 186.193902498 C 114.801351626 186.184450843 114.84700641 186.174951681 114.892661195 186.16540536 C 114.93831598 186.15585904 114.983970765 186.146265277 115.02962555 186.13662442 C 115.075280334 186.126983563 115.120935119 186.117295329 115.166589904 186.107560065 C 115.212244689 186.097824801 115.257899473 186.088042225 115.303554258 186.078212685 C 115.349209043 186.068383146 115.394863828 186.058506359 115.440518613 186.048582675 C 115.486173397 186.038658991 115.531828182 186.028688126 115.577482967 186.01867043 C 115.623137752 186.008652734 115.668792537 185.998587925 115.714447321 185.988476351 C 115.760102106 185.978364776 115.805756891 185.968206156 115.851411676 185.958000839 C 115.89706646 185.947795521 115.942721245 185.937543225 115.98837603 185.9272443 C 116.034030815 185.916945375 116.0796856 185.906599539 116.125340384 185.896207143 C 116.170995169 185.885814746 116.216649954 185.875375509 116.262304739 185.864889779 C 116.307959524 185.854404049 116.353614308 185.843871547 116.399269093 185.833292623 C 116.444923878 185.822713698 116.490578663 185.812088071 116.536233447 185.801416091 C 116.581888232 185.790744111 116.627543017 185.780025499 116.673197802 185.769260604 C 116.718852587 185.758495709 116.764507371 185.747684252 116.810162156 185.736826584 C 116.855816941 185.725968916 116.901471726 185.715064757 116.947126511 185.704114458 C 116.992781295 185.693164158 117.03843608 185.68216744 117.084090865 185.671124653 C 117.12974565 185.660081866 117.175400434 185.648992732 117.221055219 185.637857601 C 117.266710004 185.62672247 117.312364789 185.615541065 117.358019574 185.604313735 C 117.403674358 185.593086406 117.449329143 185.581812876 117.494983928 185.570493493 C 117.540638713 185.559174111 117.586293497 185.547808602 117.631948282 185.536397314 C 117.677603067 185.524986026 117.723257852 185.513528684 117.768912637 185.502025639 C 117.814567421 185.490522593 117.860222206 185.478973568 117.905876991 185.467378912 C 117.951531776 185.455784257 117.997186561 185.444143697 118.042841345 185.432457582 C 118.08849613 185.420771467 118.134150915 185.409039522 118.1798057 185.397262098 C 118.225460484 185.385484673 118.271115269 185.373661494 118.316770054 185.361792911 C 118.362424839 185.349924328 118.408079624 185.338010067 118.453734408 185.326050477 C 118.499389193 185.314090887 118.545043978 185.302085696 118.590698763 185.290035253 C 118.636353548 185.277984809 118.682008332 185.265888841 118.727663117 185.253747698 C 118.773317902 185.241606555 118.818972687 185.229419964 118.864627471 185.217188275 C 118.910282256 185.204956586 118.955937041 185.192679527 119.001591826 185.180357448 C 119.047246611 185.168035368 119.092901395 185.155667997 119.13855618 185.143255683 C 119.184210965 185.13084337 119.22986575 185.118385843 119.275520535 185.105883451 C 119.321175319 185.09338106 119.366830104 185.080833534 119.412484889 185.068241223 C 119.458139674 185.055648912 119.503794458 185.043011545 119.549449243 185.030329472 C 119.595104028 185.017647399 119.640758813 185.00492035 119.686413598 184.992148675 C 119.732068382 184.979376999 119.777723167 184.966560428 119.823377952 184.95369931 C 119.869032737 184.940838191 119.914687522 184.927932258 119.960342306 184.914981857 C 120.005997091 184.902031457 120.051651876 184.889036322 120.097306661 184.8759968 C 120.142961445 184.862957279 120.18861623 184.849873104 120.234271015 184.836744623 C 120.2799258 184.823616143 120.325580585 184.810443091 120.371235369 184.797225814 C 120.416890154 184.784008538 120.462544939 184.770746771 120.508199724 184.757440861 C 120.553854509 184.744134952 120.599509293 184.730784635 120.645164078 184.717390257 C 120.690818863 184.703995879 120.736473648 184.690557175 120.782128432 184.677074493 C 120.827783217 184.663591812 120.873438002 184.650064887 120.919092787 184.636494067 C 120.964747572 184.622923246 121.010402356 184.609308267 121.056057141 184.595649474 C 121.101711926 184.581990682 121.147366711 184.568287813 121.193021495 184.554541215 C 121.23867628 184.540794617 121.284331065 184.527004026 121.32998585 184.51316979 C 121.375640635 184.499335554 121.421295419 184.48545741 121.466950204 184.471535704 C 121.512604989 184.457613998 121.558259774 184.443648468 121.603914559 184.42963946 C 121.649569343 184.415630453 121.695224128 184.401577707 121.740878913 184.387481567 C 121.786533698 184.373385428 121.832188482 184.359245634 121.877843267 184.345062533 C 121.923498052 184.330879432 121.969152837 184.316652762 122.014807622 184.302382869 C 122.060462406 184.288112976 122.106117191 184.2737996 122.151771976 184.259443086 C 122.197426761 184.245086573 122.243081546 184.230686663 122.28873633 184.216243701 C 122.334391115 184.201800739 122.3800459 184.187314466 122.425700685 184.172785227 C 122.471355469 184.158255989 122.517010254 184.143683526 122.562665039 184.129068184 C 122.608319824 184.114452842 122.653974609 184.099794363 122.699629393 184.085093091 C 122.745284178 184.070391819 122.790938963 184.055647496 122.836593748 184.040860468 C 122.882248533 184.02607344 122.927903317 184.011243448 122.973558102 183.996370838 C 123.019212887 183.981498228 123.064867672 183.966582743 123.110522456 183.951624727 C 123.156177241 183.93666671 123.201832026 183.921665906 123.247486811 183.906622658 C 123.293141596 183.891579411 123.33879638 183.876493464 123.384451165 183.861365161 C 123.43010595 183.846236858 123.475760735 183.831065945 123.52141552 183.815852764 C 123.567070304 183.800639583 123.612725089 183.785383879 123.658379874 183.770085997 C 123.704034659 183.754788115 123.749689443 183.739447799 123.795344228 183.724065393 C 123.840999013 183.708682986 123.886653798 183.693258236 123.932308583 183.677791484 C 123.977963367 183.662324732 124.023618152 183.646815726 124.069272937 183.631264807 C 124.114927722 183.615713888 124.160582507 183.600120804 124.206237291 183.584485896 C 124.251892076 183.568850989 124.297546861 183.553174007 124.343201646 183.537455291 C 124.38885643 183.521736575 124.434511215 183.505975874 124.480166 183.490173529 C 124.525820785 183.474371184 124.57147557 183.458526944 124.617130354 183.442641151 C 124.662785139 183.426755357 124.708439924 183.41082776 124.754094709 183.394858698 C 124.799749493 183.378889637 124.845404278 183.362878862 124.891059063 183.346826715 C 124.936713848 183.330774567 124.982368633 183.314680797 125.028023417 183.298545744 C 125.073678202 183.282410691 125.119332987 183.266234107 125.164987772 183.250016331 C 125.210642557 183.233798555 125.256297341 183.217539339 125.301952126 183.201239023 C 125.347606911 183.184938706 125.393261696 183.168597042 125.43891648 183.152214367 C 125.484571265 183.135831693 125.53022605 183.119407762 125.575880835 183.102942913 C 125.62153562 183.086478064 125.667190404 183.069972051 125.712845189 183.053425211 C 125.758499974 183.036878371 125.804154759 183.020290458 125.849809544 183.003661811 C 125.895464328 182.987033163 125.941119113 182.970363536 125.986773898 182.953653266 C 126.032428683 182.936942995 126.078083467 182.920191838 126.123738252 182.903400129 C 126.169393037 182.88660842 126.215047822 182.869775917 126.260702607 182.852902954 C 126.306357391 182.836029992 126.352012176 182.819116328 126.397666961 182.802162298 C 126.443321746 182.785208268 126.488976531 182.768213628 126.534631315 182.751178716 C 126.5802861 182.734143803 126.625940885 182.717068374 126.67159567 182.699952765 C 126.717250454 182.682837155 126.762905239 182.665681123 126.808560024 182.648485003 C 126.854214809 182.631288883 126.899869594 182.614052434 126.945524378 182.59677599 C 126.991179163 182.579499547 127.036833948 182.562182867 127.082488733 182.544826286 C 127.128143518 182.527469705 127.173798302 182.510072983 127.219453087 182.492636452 C 127.265107872 182.475199921 127.310762657 182.457723342 127.356417441 182.440207049 C 127.402072226 182.422690755 127.447727011 182.405134508 127.493381796 182.387538639 C 127.539036581 182.369942771 127.584691365 182.352307043 127.63034615 182.334631787 C 127.676000935 182.316956531 127.72165572 182.29924151 127.767310505 182.281487056 C 127.812965289 182.263732601 127.858620074 182.245938476 127.904274859 182.228105011 C 127.949929644 182.210271545 127.995584428 182.192398504 128.041239213 182.174486217 C 128.086893998 182.15657393 128.132548783 182.138622161 128.178203568 182.120631241 C 128.223858352 182.102640321 128.269513137 182.084610014 128.315167922 182.06654065 C 128.360822707 182.048471286 128.406477491 182.030362629 128.452132276 182.012215011 C 128.497787061 181.994067392 128.543441846 181.975880576 128.589096631 181.957654892 C 128.634751415 181.939429208 128.6804062 181.921164422 128.726060985 181.902860863 C 128.77171577 181.884557304 128.817370555 181.866214737 128.863025339 181.847833492 C 128.908680124 181.829452248 128.954334909 181.811032091 128.999989694 181.792573351 C 129.045644478 181.77411461 129.091299263 181.755617054 129.136954048 181.737081008 C 129.182608833 181.718544962 129.228263618 181.699970196 129.273918402 181.681357036 C 129.319573187 181.662743875 129.365227972 181.64409209 129.410882757 181.625402005 C 129.456537542 181.606711921 129.502192326 181.587983307 129.547847111 181.569216489 C 129.593501896 181.55044967 129.639156681 181.531644419 129.684811465 181.512801058 C 129.73046625 181.493957698 129.776121035 181.475075999 129.82177582 181.456156287 C 129.867430605 181.437236575 129.913085389 181.418278621 129.958740174 181.399282748 C 130.004394959 181.380286876 130.050049744 181.361252857 130.095704529 181.342181016 C 130.141359313 181.323109175 130.187014098 181.303999283 130.232668883 181.284851664 C 130.278323668 181.265704045 130.323978452 181.246518472 130.369633237 181.227295267 C 130.415288022 181.208072062 130.460942807 181.188810999 130.506597592 181.1695124 C 130.552252376 181.1502138 130.597907161 181.130877439 130.643561946 181.111503637 C 130.689216731 181.092129835 130.734871516 181.072718367 130.7805263 181.053269555 C 130.826181085 181.033820742 130.87183587 181.014334359 130.917490655 180.994810728 C 130.963145439 180.975287096 131.008800224 180.955725991 131.054455009 180.936127733 C 131.100109794 180.916529474 131.145764579 180.896893839 131.191419363 180.877221146 C 131.237074148 180.857548452 131.282728933 180.837838478 131.328383718 180.818091543 C 131.374038503 180.798344607 131.419693287 180.778560487 131.465348072 180.7587395 C 131.511002857 180.738918514 131.556657642 180.71906044 131.602312426 180.699165596 C 131.647967211 180.679270751 131.693621996 180.659338915 131.739276781 180.639370405 C 131.784931566 180.619401895 131.83058635 180.59939649 131.876241135 180.579354506 C 131.92189592 180.559312523 131.967550705 180.53923374 132.013205489 180.519118476 C 132.058860274 180.499003211 132.104515059 180.478851244 132.150169844 180.458662891 C 132.195824629 180.438474537 132.241479413 180.418249579 132.287134198 180.397988329 C 132.332788983 180.377727079 132.378443768 180.357429321 132.424098553 180.337095367 C 132.469753337 180.316761414 132.515408122 180.296391048 132.561062907 180.275984583 C 132.606717692 180.255578119 132.652372476 180.235135338 132.698027261 180.214656555 C 132.743682046 180.194177771 132.789336831 180.173662768 132.834991616 180.153111859 C 132.8806464 180.132560949 132.926301185 180.111973916 132.97195597 180.091351072 C 133.017610755 180.070728229 133.06326554 180.050069358 133.108920324 180.029374773 C 133.154575109 180.008680188 133.200229894 179.987949673 133.245884679 179.967183539 C 133.291539463 179.946417405 133.337194248 179.925615437 133.382849033 179.904777947 C 133.428503818 179.883940456 133.474158603 179.863067228 133.519813387 179.842158573 C 133.565468172 179.821249918 133.611122957 179.800305623 133.656777742 179.779325996 C 133.702432527 179.758346369 133.748087311 179.737331198 133.793742096 179.716280791 C 133.839396881 179.695230385 133.885051666 179.674144531 133.93070645 179.653023537 C 133.976361235 179.631902543 134.02201602 179.610746198 134.067670805 179.589554809 C 134.11332559 179.568363419 134.158980374 179.547136775 134.204635159 179.525875183 C 134.250289944 179.504613591 134.295944729 179.48331684 134.341599514 179.461985237 C 134.387254298 179.440653634 134.432909083 179.419286969 134.478563868 179.397885546 C 134.524218653 179.376484124 134.569873437 179.355047736 134.615528222 179.333576687 C 134.661183007 179.312105638 134.706837792 179.290599718 134.752492577 179.269059234 C 134.798147361 179.247518749 134.843802146 179.225943491 134.889456931 179.204333763 C 134.935111716 179.182724035 134.980766501 179.161079629 135.026421285 179.139400849 C 135.07207607 179.11772207 135.117730855 179.096008708 135.16338564 179.074261068 C 135.209040424 179.052513428 135.254695209 179.030731302 135.300349994 179.008914993 C 135.346004779 178.987098684 135.391659564 178.965247985 135.437314348 178.943363198 C 135.482969133 178.921478412 135.528623918 178.899559332 135.574278703 178.877606259 C 135.619933487 178.855653186 135.665588272 178.833665915 135.711243057 178.811644747 C 135.756897842 178.789623579 135.802552627 178.767568309 135.848207411 178.745479237 C 135.893862196 178.723390164 135.939516981 178.701267086 135.985171766 178.6791103 C 136.030826551 178.656953514 136.076481335 178.634762818 136.12213612 178.61253851 C 136.167790905 178.590314202 136.21344569 178.568056079 136.259100474 178.545764438 C 136.304755259 178.523472798 136.350410044 178.501147439 136.396064829 178.478788657 C 136.441719614 178.456429875 136.487374398 178.434037469 136.533029183 178.411611736 C 136.578683968 178.389186003 136.624338753 178.366726742 136.669993538 178.344234247 C 136.715648322 178.321741753 136.761303107 178.299215826 136.806957892 178.276656761 C 136.852612677 178.254097695 136.898267461 178.231505292 136.943922246 178.208879845 C 136.989577031 178.186254399 137.035231816 178.16359571 137.080886601 178.140904071 C 137.126541385 178.118212433 137.17219617 178.095487647 137.217850955 178.072730007 C 137.26350574 178.049972366 137.309160525 178.027181673 137.354815309 178.00435822 C 137.400470094 177.981534767 137.446124879 177.958678356 137.491779664 177.935789279 C 137.537434448 177.912900202 137.583089233 177.889978263 137.628744018 177.867023751 C 137.674398803 177.84406924 137.720053588 177.82108196 137.765708372 177.798062202 C 137.811363157 177.775042445 137.857017942 177.751990014 137.902672727 177.728905199 C 137.948327512 177.705820384 137.993982296 177.68270299 138.039637081 177.659553307 C 138.085291866 177.636403623 138.130946651 177.613221454 138.176601435 177.59000709 C 138.22225622 177.566792725 138.267911005 177.54354597 138.31356579 177.520267113 C 138.359220575 177.496988256 138.404875359 177.473677102 138.450530144 177.45033394 C 138.496184929 177.426990777 138.541839714 177.403615413 138.587494498 177.380208133 C 138.633149283 177.356800853 138.678804068 177.333361465 138.724458853 177.309890255 C 138.770113638 177.286419045 138.815768422 177.262915821 138.861423207 177.239380868 C 138.907077992 177.215845915 138.952732777 177.192279042 138.998387562 177.168680532 C 139.044042346 177.145082023 139.089697131 177.121451688 139.135351916 177.097789809 C 139.181006701 177.07412793 139.226661485 177.050434319 139.27231627 177.026709257 C 139.317971055 177.002984195 139.36362584 176.979227494 139.409280625 176.955439436 C 139.454935409 176.931651377 139.500590194 176.907831772 139.546244979 176.883980903 C 139.591899764 176.860130034 139.637554549 176.836247711 139.683209333 176.812334217 C 139.728864118 176.788420722 139.774518903 176.764475868 139.820173688 176.740499934 C 139.865828472 176.716524 139.911483257 176.692516799 139.957138042 176.66847861 C 140.002792827 176.644440421 140.048447612 176.620371059 140.094102396 176.596270801 C 140.139757181 176.572170543 140.185411966 176.548039203 140.231066751 176.52387706 C 140.276721536 176.499714917 140.32237632 176.475521786 140.368031105 176.451297943 C 140.41368589 176.427074099 140.459340675 176.40281936 140.504995459 176.378534 C 140.550650244 176.354248641 140.596305029 176.329932478 140.641959814 176.305585786 C 140.687614599 176.281239095 140.733269383 176.256861691 140.778924168 176.232453851 C 140.824578953 176.208046011 140.870233738 176.183607551 140.915888523 176.159138746 C 140.961543307 176.134669941 141.007198092 176.110170607 141.052852877 176.08564102 C 141.098507662 176.061111433 141.144162446 176.036551409 141.189817231 176.011961222 C 141.235472016 175.987371036 141.281126801 175.962750504 141.326781586 175.938099901 C 141.37243637 175.913449298 141.418091155 175.888768441 141.46374594 175.864057603 C 141.509400725 175.839346765 141.55505551 175.814605765 141.600710294 175.789834875 C 141.646365079 175.765063984 141.692019864 175.740263023 141.737674649 175.715432262 C 141.783329433 175.690601501 141.828984218 175.66574076 141.874639003 175.640850309 C 141.920293788 175.615959858 141.965948573 175.591039518 142.011603357 175.566089559 C 142.057258142 175.5411396 142.102912927 175.516159842 142.148567712 175.491150555 C 142.194222496 175.466141268 142.239877281 175.441102274 142.285532066 175.41603384 C 142.331186851 175.390965405 142.376841636 175.365867354 142.42249642 175.340739953 C 142.468151205 175.315612552 142.51380599 175.290455624 142.559460775 175.265269435 C 142.60511556 175.240083247 142.650770344 175.214867621 142.696425129 175.189622825 C 142.742079914 175.164378029 142.787734699 175.139103886 142.833389483 175.113800662 C 142.879044268 175.088497437 142.924699053 175.063164955 142.970353838 175.037803481 C 143.016008623 175.012442007 143.061663407 174.987051366 143.107318192 174.96163182 C 143.152972977 174.936212275 143.198627762 174.910763652 143.244282547 174.885286214 C 143.289937331 174.859808777 143.335592116 174.83430235 143.381246901 174.808767198 C 143.426901686 174.783232045 143.47255647 174.757667993 143.518211255 174.732075303 C 143.56386604 174.706482613 143.609520825 174.680861113 143.65517561 174.655211063 C 143.700830394 174.629561014 143.746485179 174.603882242 143.792139964 174.57817501 C 143.837794749 174.552467777 143.883449534 174.526731911 143.929104318 174.500967672 C 143.974759103 174.475203433 144.020413888 174.44941065 144.066068673 174.423589581 C 144.111723457 174.397768512 144.157378242 174.371918986 144.203033027 174.346041263 C 144.248687812 174.32016354 144.294342597 174.294257449 144.339997381 174.268323247 C 144.385652166 174.242389045 144.431306951 174.216426563 144.476961736 174.190436058 C 144.522616521 174.164445553 144.568271305 174.138426855 144.61392609 174.112380222 C 144.659580875 174.086333588 144.70523566 174.06025885 144.750890444 174.034156263 C 144.796545229 174.008053675 144.842200014 173.981923071 144.887854799 173.955764704 C 144.933509584 173.929606336 144.979164368 173.90342004 145.024819153 173.877206067 C 145.070473938 173.850992094 145.116128723 173.824750278 145.161783508 173.798480873 C 145.207438292 173.772211467 145.253093077 173.745914306 145.298747862 173.719589642 C 145.344402647 173.693264977 145.390057431 173.666912644 145.435712216 173.640532893 C 145.481367001 173.614153142 145.527021786 173.587745809 145.572676571 173.561311144 C 145.618331355 173.534876479 145.66398614 173.508414318 145.709640925 173.481924911 C 145.75529571 173.455435504 145.800950494 173.428918688 145.846605279 173.402374711 C 145.892260064 173.375830733 145.937914849 173.349259433 145.983569634 173.322661057 C 146.029224418 173.296062681 146.074879203 173.269437067 146.120533988 173.242784463 C 146.166188773 173.216131859 146.211843558 173.189452102 146.257498342 173.162745441 C 146.303153127 173.13603878 146.348807912 173.109305051 146.394462697 173.082544503 C 146.440117481 173.055783954 146.485772266 173.028996424 146.531427051 173.002182158 C 146.577081836 172.975367893 146.622736621 172.94852673 146.668391405 172.921658917 C 146.71404619 172.894791103 146.759700975 172.867896478 146.80535576 172.840975285 C 146.851010545 172.814054093 146.896665329 172.787106174 146.942320114 172.760131771 C 146.987974899 172.733157369 147.033629684 172.706156324 147.079284468 172.67912888 C 147.124939253 172.652101436 147.170594038 172.625047434 147.216248823 172.597967116 C 147.261903608 172.570886798 147.307558392 172.543780007 147.353213177 172.516646983 C 147.398867962 172.489513959 147.444522747 172.462354545 147.490177532 172.435168982 C 147.535832316 172.407983419 147.581487101 172.38077155 147.627141886 172.353533615 C 147.672796671 172.32629568 147.718451455 172.299031522 147.76410624 172.271741381 C 147.809761025 172.244451241 147.85541581 172.217134961 147.901070595 172.18979278 C 147.946725379 172.1624506 147.992380164 172.135082363 148.038034949 172.107688309 C 148.083689734 172.080294254 148.129344519 172.052874227 148.174999303 172.025428463 C 148.220654088 171.9979827 148.266308873 171.970511047 148.311963658 171.943013739 C 148.357618442 171.915516432 148.403273227 171.887993317 148.448928012 171.860444631 C 148.494582797 171.832895944 148.540237582 171.805321532 148.585892366 171.77772163 C 148.631547151 171.750121728 148.677201936 171.722496183 148.722856721 171.694845229 C 148.768511506 171.667194276 148.81416629 171.639517761 148.859821075 171.611815919 C 148.90547586 171.584114077 148.951130645 171.556386755 148.996785429 171.528634188 C 149.042440214 171.500881621 149.088094999 171.473103655 149.133749784 171.445300525 C 149.179404569 171.417497394 149.225059353 171.389668947 149.270714138 171.361815416 C 149.316368923 171.333961884 149.362023708 171.306083118 149.407678492 171.278179347 C 149.453333277 171.250275577 149.498988062 171.222346652 149.544642847 171.194392803 C 149.590297632 171.166438955 149.635952416 171.138460033 149.681607201 171.110456267 C 149.727261986 171.082452502 149.772916771 171.054423743 149.818571556 171.026370221 C 149.86422634 170.998316699 149.909881125 170.970238264 149.95553591 170.942135146 C 150.001190695 170.914032027 150.046845479 170.885904076 150.092500264 170.857751521 C 150.138155049 170.829598966 150.183809834 170.801421658 150.229464619 170.773219825 C 150.275119403 170.745017993 150.320774188 170.716791487 150.366428973 170.688540536 C 150.412083758 170.660289584 150.457738543 170.63201404 150.503393327 170.603714128 C 150.549048112 170.575414217 150.594702897 170.547089791 150.640357682 170.518741078 C 150.686012466 170.490392364 150.731667251 170.462019216 150.777322036 170.433621858 C 150.822976821 170.405224499 150.868631606 170.376802786 150.91428639 170.34835694 C 150.959941175 170.319911095 151.00559596 170.291440973 151.051250745 170.262946797 C 151.09690553 170.234452621 151.142560314 170.205934247 151.188215099 170.177391897 C 151.233869884 170.148849547 151.279524669 170.120283077 151.325179453 170.091692709 C 151.370834238 170.063102342 151.416489023 170.034487932 151.462143808 170.005849702 C 151.507798593 169.977211471 151.553453377 169.948549277 151.599108162 169.91986334 C 151.644762947 169.891177402 151.690417732 169.862467579 151.736072517 169.833734089 C 151.781727301 169.805000599 151.827382086 169.7762433 151.873036871 169.747462412 C 151.918691656 169.718681524 151.96434644 169.689876904 152.010001225 169.661048772 C 152.05565601 169.63222064 152.101310795 169.603368853 152.14696558 169.57449363 C 152.192620364 169.545618407 152.238275149 169.516719607 152.283929934 169.487797447 C 152.329584719 169.458875286 152.375239504 169.429929625 152.420894288 169.400960679 C 152.466549073 169.371991734 152.512203858 169.342999364 152.557858643 169.313983786 C 152.603513427 169.284968209 152.649168212 169.255929283 152.694822997 169.226867224 C 152.740477782 169.197805165 152.786132567 169.168719834 152.831787351 169.139611446 C 152.877442136 169.110503058 152.923096921 169.081371474 152.968751706 169.052216908 C 153.01440649 169.023062342 153.060061275 168.993884655 153.10571606 168.964684061 C 153.151370845 168.935483467 153.19702563 168.906259828 153.242680414 168.877013356 C 153.288335199 168.847766885 153.333989984 168.818497444 153.379644769 168.789205245 C 153.425299554 168.759913045 153.470954338 168.730597951 153.516609123 168.701260174 C 153.562263908 168.671922396 153.607918693 168.642561799 153.653573477 168.613178592 C 153.699228262 168.583795385 153.744883047 168.554389432 153.790537832 168.524960944 C 153.836192617 168.495532456 153.881847401 168.466081297 153.927502186 168.436607677 C 153.973156971 168.407134056 154.018811756 168.377637838 154.064466541 168.348119232 C 154.110121325 168.318600626 154.15577611 168.289059497 154.201430895 168.259496054 C 154.24708568 168.22993261 154.292740464 168.200346717 154.338395249 168.170738582 C 154.384050034 168.141130447 154.429704819 168.111499936 154.475359604 168.081847257 C 154.521014388 168.052194577 154.566669173 168.022519595 154.612323958 167.992822517 C 154.657978743 167.963125439 154.703633528 167.933406131 154.749288312 167.9036648 C 154.794943097 167.873923469 154.840597882 167.844159981 154.886252667 167.814374542 C 154.931907451 167.784589103 154.977562236 167.75478158 155.023217021 167.724952177 C 155.068871806 167.695122775 155.114526591 167.665271361 155.160181375 167.63539814 C 155.20583616 167.605524918 155.251490945 167.575629758 155.29714573 167.545712862 C 155.342800515 167.515795966 155.388455299 167.485857202 155.434110084 167.455896774 C 155.479764869 167.425936347 155.525419654 167.395954124 155.571074438 167.365950307 C 155.616729223 167.335946491 155.662384008 167.305920951 155.708038793 167.275873889 C 155.753693578 167.245826827 155.799348362 167.215758113 155.845003147 167.185667947 C 155.890657932 167.155577781 155.936312717 167.125466035 155.981967502 167.095332907 C 156.027622286 167.065199779 156.073277071 167.035045142 156.118931856 167.004869194 C 156.164586641 166.974693246 156.210241425 166.944495859 156.25589621 166.914277231 C 156.301550995 166.884058604 156.34720578 166.853818608 156.392860565 166.823557441 C 156.438515349 166.793296274 156.484170134 166.76301381 156.529824919 166.732710244 C 156.575479704 166.702406679 156.621134488 166.672081885 156.666789273 166.641736061 C 156.712444058 166.611390236 156.758098843 166.581023254 156.803753628 166.550635309 C 156.849408412 166.520247364 156.895063197 166.489838332 156.940717982 166.459408406 C 156.986372767 166.428978481 157.032027552 166.398527536 157.077682336 166.368055768 C 157.123337121 166.337584 157.168991906 166.307091282 157.214646691 166.276577809 C 157.260301475 166.246064337 157.30595626 166.215529984 157.351611045 166.184974944 C 157.39726583 166.154419904 157.442920615 166.123844053 157.488575399 166.093247583 C 157.534230184 166.062651113 157.579884969 166.032033901 157.625539754 166.001396138 C 157.671194539 165.970758376 157.716849323 165.940099939 157.762504108 165.909421019 C 157.808158893 165.8787421 157.853813678 165.848042574 157.899468462 165.817322634 C 157.945123247 165.786602694 157.990778032 165.755862216 158.036432817 165.72510139 C 158.082087602 165.694340565 158.127742386 165.663559269 158.173397171 165.632757693 C 158.219051956 165.601956118 158.264706741 165.57113414 158.310361526 165.540291948 C 158.35601631 165.509449757 158.401671095 165.478587231 158.44732588 165.447704558 C 158.492980665 165.416821886 158.538635449 165.385918945 158.584290234 165.354995925 C 158.629945019 165.324072905 158.675599804 165.293129685 158.721254589 165.262166451 C 158.766909373 165.231203217 158.812564158 165.200219849 158.858218943 165.169216534 C 158.903873728 165.138213219 158.949528513 165.107189837 158.995183297 165.076146573 C 159.040838082 165.04510331 159.086492867 165.014040046 159.132147652 164.982956966 C 159.177802436 164.951873886 159.223457221 164.920770872 159.269112006 164.889648108 C 159.314766791 164.858525344 159.360421576 164.827382711 159.40607636 164.796220394 C 159.451731145 164.765058077 159.49738593 164.733875957 159.543040715 164.702674217 C 159.588695499 164.671472478 159.634350284 164.640251001 159.680005069 164.60900997 C 159.725659854 164.577768939 159.771314639 164.546508236 159.816969423 164.515228044 C 159.862624208 164.483947851 159.908278993 164.452648052 159.953933778 164.421328827 C 159.999588563 164.390009603 160.045243347 164.358670837 160.090898132 164.32731271 C 160.136552917 164.295954583 160.182207702 164.264576979 160.227862486 164.233180079 C 160.273517271 164.201783178 160.319172056 164.170366865 160.364826841 164.138931319 C 160.410481626 164.107495774 160.45613641 164.07604088 160.501791195 164.044566817 C 160.54744598 164.013092754 160.593100765 163.981599407 160.63875555 163.950086955 C 160.684410334 163.918574503 160.730065119 163.88704283 160.775719904 163.855492116 C 160.821374689 163.823941401 160.867029473 163.79237153 160.912684258 163.76078268 C 160.958339043 163.72919383 161.003993828 163.697585887 161.049648613 163.665959029 C 161.095303397 163.63433217 161.140958182 163.602686281 161.186612967 163.571021539 C 161.232267752 163.539356798 161.277922537 163.507673089 161.323577321 163.47597059 C 161.369232106 163.444268091 161.414886891 163.412546688 161.460541676 163.380806557 C 161.50619646 163.349066426 161.551851245 163.317307453 161.59750603 163.285529815 C 161.643160815 163.253752176 161.6888156 163.221955759 161.734470384 163.190140738 C 161.780125169 163.158325716 161.825779954 163.126491978 161.871434739 163.094639698 C 161.917089524 163.062787418 161.962744308 163.030916483 162.008399093 162.999027067 C 162.054053878 162.967137652 162.099708663 162.935229643 162.145363447 162.903303216 C 162.191018232 162.871376788 162.236673017 162.839431829 162.282327802 162.807468512 C 162.327982587 162.775505195 162.373637371 162.743523408 162.419292156 162.711523324 C 162.464946941 162.67952324 162.510601726 162.647504747 162.556256511 162.615468018 C 162.601911295 162.583431289 162.64756608 162.551376213 162.693220865 162.51930296 C 162.73887565 162.487229707 162.784530434 162.455138169 162.830185219 162.423028514 C 162.875840004 162.390918859 162.921494789 162.358790979 162.967149574 162.326645042 C 163.012804358 162.294499106 163.058459143 162.262335004 163.104113928 162.230152907 C 163.149768713 162.197970809 163.195423497 162.165770607 163.241078282 162.133552469 C 163.286733067 162.10133433 163.332387852 162.069098147 163.378042637 162.036844087 C 163.423697421 162.004590027 163.469352206 161.972317982 163.515006991 161.94002812 C 163.560661776 161.907738258 163.606316561 161.87543047 163.651971345 161.843104924 C 163.69762613 161.810779379 163.743280915 161.778435967 163.7889357 161.746074856 C 163.834590484 161.713713745 163.880245269 161.681334828 163.925900054 161.64893827 C 163.971554839 161.616541712 164.017209624 161.584127407 164.062864408 161.551695519 C 164.108519193 161.519263632 164.154173978 161.486814056 164.199828763 161.454346956 C 164.245483548 161.421879856 164.291138332 161.389395127 164.336793117 161.356892932 C 164.382447902 161.324390737 164.428102687 161.29187097 164.473757471 161.259333796 C 164.519412256 161.226796622 164.565067041 161.194241935 164.610721826 161.161669898 C 164.656376611 161.129097861 164.702031395 161.096508369 164.74768618 161.063901585 C 164.793340965 161.0312948 164.83899575 160.998670619 164.884650535 160.966029203 C 164.930305319 160.933387787 164.975960104 160.900729031 165.021614889 160.868053098 C 165.067269674 160.835377164 165.112924458 160.802683949 165.158579243 160.769973613 C 165.204234028 160.737263277 165.249888813 160.704535717 165.295543598 160.671791093 C 165.341198382 160.639046468 165.386853167 160.606284677 165.432507952 160.573505877 C 165.478162737 160.540727078 165.523817522 160.507931169 165.569472306 160.475118308 C 165.615127091 160.442305447 165.660781876 160.409475533 165.706436661 160.376628724 C 165.752091445 160.343781915 165.79774623 160.310918109 165.843401015 160.278037464 C 165.8890558 160.245156819 165.934710585 160.212259234 165.980365369 160.179344865 C 166.026020154 160.146430497 166.071674939 160.113499244 166.117329724 160.080551263 C 166.162984509 160.047603283 166.208639293 160.014638474 166.254294078 159.981656993 C 166.299948863 159.948675512 166.345603648 159.915677258 166.391258432 159.882662388 C 166.436913217 159.849647518 166.482568002 159.816615931 166.528222787 159.783567782 C 166.573877572 159.750519633 166.619532356 159.717454822 166.665187141 159.684373505 C 166.710841926 159.651292187 166.756496711 159.618194264 166.802151495 159.585079888 C 166.84780628 159.551965512 166.893461065 159.518834585 166.93911585 159.48568726 C 166.984770635 159.452539935 167.030425419 159.419376114 167.076080204 159.386195949 C 167.121734989 159.353015785 167.167389774 159.319819178 167.213044559 159.286606283 C 167.258699343 159.253393387 167.304354128 159.220164105 167.350008913 159.186918587 C 167.395663698 159.153673068 167.441318482 159.120411217 167.486973267 159.087133185 C 167.532628052 159.053855152 167.578282837 159.020560841 167.623937622 158.987250401 C 167.669592406 158.953939962 167.715247191 158.920613298 167.760901976 158.887270559 C 167.806556761 158.85392782 167.852211546 158.82056891 167.89786633 158.787193978 C 167.943521115 158.753819047 167.9891759 158.720427998 168.034830685 158.68702098 C 168.080485469 158.653613963 168.126140254 158.620190881 168.171795039 158.586751884 C 168.217449824 158.553312887 168.263104609 158.519857878 168.308759393 158.486387007 C 168.354414178 158.452916136 168.400068963 158.419429306 168.445723748 158.385926667 C 168.491378533 158.352424027 168.537033317 158.318905482 168.582688102 158.285371179 C 168.628342887 158.251836876 168.673997672 158.21828672 168.719652456 158.184720858 C 168.765307241 158.151154996 168.810962026 158.117573334 168.856616811 158.083976018 C 168.902271596 158.050378702 168.94792638 158.016765638 168.993581165 157.983136971 C 169.03923595 157.949508305 169.084890735 157.915863943 169.13054552 157.88220403 C 169.176200304 157.848544117 169.221855089 157.81486856 169.267509874 157.781177503 C 169.313164659 157.747486447 169.358819443 157.713779798 169.404474228 157.680057702 C 169.450129013 157.646335605 169.495783798 157.612597967 169.541438583 157.578844933 C 169.587093367 157.545091898 169.632748152 157.511323374 169.678402937 157.477539504 C 169.724057722 157.443755634 169.769712507 157.409956325 169.815367291 157.376141721 C 169.861022076 157.342327118 169.906676861 157.308497126 169.952331646 157.27465189 C 169.99798643 157.240806654 170.043641215 157.206946081 170.089296 157.173070314"
       style="stroke-width:0.5;fill-opacity:0;fill:none;stroke:#000000;stroke-opacity:1;stroke-miterlimit:4;stroke-dasharray:none" />
    <path
       style="fill:none;stroke:#000000;stroke-width:0.26458332px;stroke-linecap:butt;stroke-linejoin:miter;stroke-opacity:1"
       d="M 33.261905,157.17307 H 170.08929"
       id="path3713"
       inkscape:connector-curvature="0" />
  </g>
</svg>
